M48
;Layer_Color=9474304
;FILE_FORMAT=4:3
METRIC,LZ
;TYPE=PLATED
T1F00S00C0.150
T2F00S00C0.250
T3F00S00C0.300
T4F00S00C1.100
T5F00S00C2.500
%
T01
X005175Y-000425
X00535Y-00044
X005375Y-000375
X005325Y-000325
Y-000275
X005375Y-000275
X005425Y-000275
Y-000325
X005525
Y-000275
X005575Y-000275
X005625Y-000275
Y-000325
X005675Y-000375
X00565Y-00044
X005575Y-000425
X005575Y-000375
X005525Y-000175
X005525Y-000125
X005525Y-000075
X005575
X005625Y-000075
X005675
X005675Y-000125
Y-000175
X005625Y-000175
X005725
X005775
Y-000125
Y-000075
X005825Y-000075
X005825Y-000025
X005775Y-000025
X005825Y000025
Y000075
X005775
Y000125
X005725
Y000075
X005675
X005675Y000025
Y-000025
X005625Y-000025
X005575
X005575Y000025
Y000075
Y000125
X005525
X005475
Y000075
X005525
Y000025
X005475
X005425Y000025
X005425Y-000025
X005475Y-000025
Y-000075
X005425Y-000075
Y-000175
X005325Y-000175
Y-000125
X005275Y-000125
X005275Y-000075
X005275Y-000025
X005225
X005225Y-000075
Y-000125
Y-000175
X005275
X005325Y-000075
Y-000025
X005325Y000025
X005325Y000075
X005325Y000125
X005275
X005225Y000125
Y000075
Y000025
X005175Y-000025
X005175Y000175
X005275Y000225
X005325
X005375
X005375Y000275
X005425Y000325
X005325Y000325
X005275Y000325
X005135Y00029
X0054275Y000225
X0054775
X005575Y000275
Y000325
X005675
Y000275
X005625Y000275
X005725
X005775Y000275
Y000325
X005825Y000325
X005875
Y000275
X005925
X0059248Y0003238
X005975Y000325
X005975Y000375
X005925
Y000425
X0058752Y000425
X005875Y000375
X005975Y000425
X006025
X006025Y000325
X005875Y000225
X005825
X005825Y000275
X005825Y000125
X005675
X0054251Y0001226
X005375Y000125
Y000075
X005525Y-000025
X005825Y-000125
X005825Y-000175
X005875
X005925
Y-000125
Y-000075
Y-000025
Y000025
X005975Y-000025
Y-000175
X005975Y-000325
Y-000375
X005975Y-000425
X0059248Y-0003771
X005925Y-000325
X005875Y-000325
Y-000275
X005775
Y-000325
X006025Y-000325
X007075Y-000375
X007125Y-000375
X007175
Y-000275
X007225
X007275Y-000325
X007275Y-000375
X007325Y-000375
X007325Y-000425
X007425
X0074255Y-0003755
X007375Y-000375
X007375Y-000325
X007475Y-000225
X007575Y-000275
Y-000325
X007575Y-000375
X007625Y-000375
X007625Y-000425
X007675Y-000375
Y-000325
Y-000275
X007775
X007825Y-000275
X007875
X007875Y-000225
X007825
Y-000175
X007875Y-000175
X007875Y-000125
X007925
Y000025
X007875
Y000075
X007825Y000075
Y000125
Y000175
X007875
Y000125
X007775Y000175
X007725Y000125
X007725Y000075
Y000025
X007675
Y000075
X007625
X007575
X007525
Y000125
X007575
X007625
X007675
X007625Y000025
X007675Y-000025
Y-000075
Y-000125
X007725
Y-000075
Y-000025
X007575Y-000075
Y-000125
X007525
X007475Y-000075
X007425
X007425Y-000025
X007475
Y000025
Y000075
Y000125
Y000175
X007425
Y000125
X007375
Y000075
X007325
Y000025
X007375
X007375Y-000025
X007375Y-000075
X007325Y-000075
X007325Y-000025
X007225Y-000025
X007225Y-000075
X007175Y-000075
X007125
X007075
Y-000025
X007125
X007175Y-000025
X007125Y000075
X007125Y000125
Y000175
X007075
X00706Y0001
Y00005
X007175Y000125
Y000175
X007175Y000225
X007225Y000225
X007275
X007275Y000175
Y000125
X007225Y000075
Y-000125
Y-000175
X007175Y-000175
X007125
X007075
X007125Y-000325
X007725Y-000375
X007725Y-000425
X007675Y000325
X007675Y000375
X007625Y000375
X007625Y000425
X007575Y000375
X007575Y000325
X007525Y000375
X007525Y000425
X007475Y000375
X007475Y000325
X007425Y000375
Y000425
X007725
X007725Y000375
X007775Y000375
X007775Y000325
T02
X002755Y-00198
X002835
X002915
X0047463Y-0020739
X0051781
X0057545Y-0019491
X0058522Y-0022835
X007115Y-00198
X007195
X007275
X00964Y-00224
X010115Y-0022825
X0101945Y-0019491
X011475Y-00198
X011555
X011635
X011646Y-0015621
X0117095
X011773
Y-0014379
X0117095
X011646
X0115825
X011519
X0114555
X0114884Y-0015011
X011519Y-0015621
X0114555
X0113955Y-0016239
X0113155
X0112355
X0111555
X0110755
X0109955
X0109155
X0108355
X0107555
X0106755
X0105955
X0105155
X0104355
X0103555
X0102755
X0103163Y-0015621
X010395
X0104738
X0105525
Y-0014379
X0104738
X010395
X0103163
X0102591Y-0015011
X0101675Y-0015621
X0101155Y-0016239
X010033Y-0015621
X0099695
Y-0014379
X010033
X0100965
X01016
X0102755Y-0010509
X0103555
X0104355
X0105155
X0105955
X0106755
X0107555
X0109955
X0110755
X0111555
X0112355
X0114755
X0115555
X0116355
X0115825Y-0015621
X0113945Y-0013761
X0113145
X010955Y-0014379
X0108737
Y-0015011
Y-0015621
X010955
X0110363
X010762Y-0003505
X0106702Y-0002025
X0105004Y-0000965
Y0000813
X010668Y0002032
X0107493Y0003505
X0107696Y0007239
X0108839Y0007366
Y000635
X0110363Y0006858
X0110745Y0010509
X0111545
X0112345
X0113145
X0113945
X0109945
X0106745
X0105945
X0105145
X0101945
X0101145
X0100628Y0006172
X0100225Y0004275
X0104419Y0006147
X0105613
X0105576Y001443
X0104776
X0104355Y0013761
X0103555
X0102755
X010287Y0015621
X0102235
X01016
X0100965
X010033
X0099695
X0103545Y0016239
X0104345
X0105145
X0105945
X0106745
X0107545
X0108345
X0109145
X0109945
X0110745
X0111545
X0112345
X0113145
X0113945
X0114745
X0115545
X0116345
X0117095Y0015621
X011773
X0117728Y0014378
X0117093
X0114376Y001443
X0113576
X0112776
X0111976
Y001557
X0112776
X0113576
X0114376
X0114757Y0014989
X0114755Y0013761
X0115311Y001945
X0116611
X0108776Y001557
X0107976
X0108356Y0015011
X0107975Y0014427
X0108788
X0107555Y0013761
X0105576Y001557
X0104776
X0102755Y0019491
X0101955
X0101155
X0090551Y001778
X0090399Y0016662
X0089205Y001684
X0089306Y0015748
X0091Y0008575
X00892Y-0009525
X0089281Y-0014097
X0091313
X0102225Y-00068
X010325Y-0007
X0102975Y-0005875
X01028Y-00049
X0104877Y-0003988
X0104996Y-0006027
X0114554Y-0000787
X0116459Y-0000813
X0113995Y0003226
X0088Y00062
X00863Y00077
X00835
X00827Y00077
X00815Y00063
X0080975Y0004572
X0080493Y0004877
X00835Y00046
Y00039
X00825Y00033
X0084325Y000265
X0084025Y000185
X008355Y00012
X008085Y-0000325
Y-0001525
Y-0002725
X0080848Y-0004191
X008085Y-000555
X008085Y-0006325
X00844Y-0009575
X00856Y-000955
X00868
X0088Y-0009525
X0087249Y-0014097
X0086741Y-0015621
X0084709
X0085217Y-0014097
X008382Y-0014478
X00889Y-0015494
X0073685Y-0014199
X0072745Y-0013761
X0071945
X0071132Y-0013748
X0071323Y-0015011
X0071552Y-0016231
X0072352
X0070355Y-0016239
X0069555
X0068755
X0067955
X0067155
X0066355
X0065555
X0064755
X0063955
X0063155
X0062355
X0061555
X0060755
X0059955
X0059155
X0058355
X0058075Y-0015621
X005744
X0056805
X005617
X0056095Y-0014379
X005673
X0057365
X0058991Y-0015011
X0059554Y-001445
X0060342
X0061112
X0061883
X0062654
X0063424
X0063932Y-0013748
X0061532
X0061925Y-0015621
X0061138
X006035
X0059563
X0059132Y-0013748
X0059955Y-0010509
X0060755
X0062368Y-0010522
X0063168
X0067155Y-0010509
X0067955
X0069555
X0070355
X0068745Y-0013761
X0066332Y-0013748
X0065202Y-0015011
X006725Y-0005475
X00706
X0069571Y-0001549
X0069466Y0000203
X0069723Y0002159
X006858Y0002464
X0066878
X0066865Y0001203
X0066853Y-0000787
X0064361Y0000178
X0063474Y0001178
X0063424Y-0001753
X0064491Y-0003099
X0061773Y-0003835
X0061725Y-000555
X0062525
X00609
X0058598Y-0008077
X00559Y-00094
X00537Y-001455
X00502Y-001455
X0049425Y-001455
X005075Y-00045
X00505Y-000275
X0051Y-000225
X0060861Y0000178
X006383Y000414
X0065966Y0003429
X0069466
X0070104
X0069901Y000447
X00721Y00051
X00717Y00056
X0071145Y0010509
X0070345
X0069545
X0067945
X0067145
X0063145
X0062345
X0058345
X0057545
X0057365Y0014379
X005673
X0056095
X0058
X0058635
X0059155Y0013761
X0059955
X0060755
X0061555
X0062776Y001443
X0063576
X0063955Y0013761
X0063576Y001557
X0062776
X0061976
X0062345Y0016239
X0063145
X0063945
X0064745
X0065545
X0066345
X0067145
X0067945
X0068745
X0069545
X0070345
X0071145
X0071945
X0072745
X0071576Y001557
X0070776
X0069976
X0069176
X0068755Y0013761
X0066355
X0065176Y001557
X0064381
X0061545Y0016239
X0060745
X0059945
X0059004Y0015367
X0059155Y0019491
X0058355
X0057555
X00717Y001945
X0073
X0075057Y0015392
Y0014656
X0070612Y0014427
X0087575Y000945
X00479Y00065
X00466
Y000365
X00453
X004445Y0002083
X00472Y00017
X00479Y000365
X00492
X004365Y00052
X00439Y00069
X00446Y0008
X0039551Y0006604
X0038893Y000659
X00385Y000545
Y000485
X003716Y0004826
X0036678
Y0005461
X003716
X0039Y00036
X0033Y0002
X00303Y00038
X00285Y0003
X00276Y00028
X002745Y00018
X00285
Y00006
X002745
X00276Y-000035
Y-0001
X0028Y-00014
X00284Y-00018
X00275
Y-0003
X00284
Y-00038
X00297Y-00051
X00275Y-00056
X00275Y-00069
X00245Y-00069
Y-00056
X0024355Y-0010509
X0023555
X0025955
X0026755
X0028355
X0029155
X0028371Y-0014376
X0028329Y-0015624
X0027542
X0026755Y-0016239
X0025955
X0025155
X0024355
X0023555
X0022755
X0021955
X0021155
X0020355
X0019555
X0018755
X0017955
X0017155
X0016355
X0015555
X0014755
X0013955
X0013205Y-0015621
X001257
X0012495Y-0014379
X001313
X0013765
X00144
X0015391Y-0015011
X0015545Y-0013761
X0016332Y-0014376
X0017145
X0017945Y-0013761
X0018771Y-0014376
X0019558
X0020345Y-0013761
X0021156Y-0014402
X0021158Y-0015014
X0021944Y-0015011
Y-0014402
X0022745Y-0013761
X0023571Y-0014376
X0024358
X0025145Y-0013761
X0025971Y-0014376
X0026758
X0027545Y-0013761
X0029142Y-0015624
X0029929
X0030717
X0036881Y-0007112
X003744
Y-0006477
X0036881
X0038775Y-0006475
Y-0007125
X0039325Y-0008375
X0040825
X00416Y-0006814
X00426
X0043925Y-0005975
Y-0007775
X00447Y-00046
X00439Y-000335
Y-000275
X00459Y-00021
X004715Y-0002825
X0047168Y-0003708
X0046253Y-0009398
X0045925Y-001455
X0040825Y-0005375
X0039925
X0039218Y-0005385
X00416Y-0002
X00307Y-00002
X00285Y-00006
X00257Y00036
X0025945Y0010509
X0025145
X0024345
X0023545
X0026745
X0027545
X0027559Y0014453
X0026746
X0025959
X0025945Y0016239
X0025145
X0024345
X0023545
X0022745
X0021945
X0021145
X0020345
X0019545
X0018745
X0017945
X0017145
X0016345
X0016332Y0014376
X0017145
X0017955Y0013761
X0018771Y0014376
X0019558
X0020355Y0013761
X0021158Y0014376
Y0014986
X0021944Y0014989
X0021946Y0014376
X0022755Y0013761
X0027559Y0015367
X0027545Y0016239
X0028345
X0029145
X0026745
X00281Y001945
X00294
X00325Y00157
X00333Y00163
X0033299Y0011125
X0032436Y0011151
X0019545Y0010509
X0018745
X0017145
X0016345
X0014745
X0013945
X00127Y0007899
X0011938
X0011176
Y0007137
X0011938
X00127
X001257Y0014379
X0013205
X001384
X0014475
X00144Y0015621
X0013765
X001313
X0012495
X0015391Y0014989
X0015555Y0013761
Y0019491
X0014755
X0013955
X0016355Y-0010509
X0017155
X0018755
X0019555
X0009068Y000073
X0007168Y000073
X0008103Y0012141
X0005385Y0011862
T03
X00892Y-00056
X009
X00908Y-00056
Y-00048
X00916
Y-0004
X00908
X009
X00892
Y-00032
X00892Y-00024
Y-00016
X00892Y-00008
Y0
X009Y-0
Y00008
X00892Y00008
X00892Y00016
Y00024
X009Y00024
X00908
X00916
Y00016
X00916Y00008
Y0
X00924
X00924Y00008
X00932
Y-0
X00932Y-00008
X00932Y-00016
Y-00024
Y-00032
X0094Y-00032
X00948Y-00032
Y-00024
Y-00016
X0094Y-00016
X00948Y-00008
X00956
Y-00016
Y-00024
Y-00032
Y-0004
X00964
Y-00032
X00964Y-00024
X00964Y-00016
X00964Y-00008
X00948Y0
X00948Y00016
X0094Y00016
Y00024
X00948Y00024
Y00032
X0094Y00032
X00932
Y00024
X00924
Y00016
X00932
X00924Y00032
X00924Y00048
Y00056
X00908
X00892
X009Y00016
X00908Y-00008
Y-00016
X00916Y-00016
X00916Y-00008
X00924
Y-00016
Y-00024
X00916Y-00024
X00908
X00908Y-00032
X00916
Y-00056
X009Y-00048
X00892
X00956Y-00048
X00964
X00964Y00032
Y0004
Y00048
Y00056
X00956Y0004
X00876Y00032
X00884Y00024
Y00016
X00884Y00008
X00884Y0
Y-00008
X00884Y-00016
Y-00024
X00876Y-00024
X00868Y-00024
X0086
X00852
Y-00016
Y-00008
Y-0
X0086
Y-00008
Y-00016
X00868
X00876Y-00016
Y-00008
X00868Y-00008
Y-0
X00876Y-0
Y00008
X00868Y00008
X0086
X0086Y00024
X00868Y00056
X00868Y-00032
X00876Y-00032
X00868Y-0004
Y-00048
X0086Y-00048
X00852Y-00048
Y-00056
X0086Y-00056
X0086Y-0004
Y-00032
X00852
Y-0004
X00884Y-0004
Y-00048
T04
X0123368Y-000762
Y-000508
Y-000254
Y0
Y000254
Y000508
Y000762
X0125908
Y000508
Y000254
Y0
Y-000254
Y-000508
Y-000762
T05
X00035Y-002475
X00396
X00471
X00832
X00907
X01268
X00035Y002475
X00396
X00471
X00832
X00907
X01268
M30
