G04*
G04 #@! TF.GenerationSoftware,Altium Limited,Altium Designer,23.6.0 (18)*
G04*
G04 Layer_Color=2752767*
%FSLAX43Y43*%
%MOMM*%
G71*
G04*
G04 #@! TF.SameCoordinates,BD1C5E25-77D2-44B3-BBB9-DEE1D7037492*
G04*
G04*
G04 #@! TF.FilePolarity,Positive*
G04*
G01*
G75*
%ADD11C,0.200*%
%ADD122C,0.068*%
%ADD123C,0.051*%
D11*
X10566Y-30567D02*
X9900D01*
Y-31567D01*
X10566D01*
X9900Y-31067D02*
X10233D01*
X10900Y-30567D02*
X11566D01*
X11233D01*
Y-31567D01*
X11899Y-30567D02*
Y-31567D01*
X12566D01*
X12899Y-31733D02*
X13565D01*
X13899Y-31567D02*
Y-30567D01*
X14399D01*
X14565Y-30734D01*
Y-31067D01*
X14399Y-31234D01*
X13899D01*
X14232D02*
X14565Y-31567D01*
X14898Y-30567D02*
Y-31567D01*
X15398D01*
X15565Y-31400D01*
Y-31234D01*
X15398Y-31067D01*
X14898D01*
X15398D01*
X15565Y-30900D01*
Y-30734D01*
X15398Y-30567D01*
X14898D01*
X15898Y-31567D02*
Y-31400D01*
X16065D01*
Y-31567D01*
X15898D01*
X16731D02*
Y-30567D01*
X17231D01*
X17398Y-30734D01*
Y-31067D01*
X17231Y-31234D01*
X16731D01*
X18397Y-30900D02*
X17897D01*
X17731Y-31067D01*
Y-31400D01*
X17897Y-31567D01*
X18397D01*
X18730Y-30567D02*
Y-31567D01*
X19230D01*
X19397Y-31400D01*
Y-31234D01*
Y-31067D01*
X19230Y-30900D01*
X18730D01*
X19730Y-30567D02*
Y-31567D01*
X20230D01*
X20397Y-31400D01*
Y-30734D01*
X20230Y-30567D01*
X19730D01*
X20896Y-31567D02*
X21230D01*
X21396Y-31400D01*
Y-31067D01*
X21230Y-30900D01*
X20896D01*
X20730Y-31067D01*
Y-31400D01*
X20896Y-31567D01*
X22396Y-30900D02*
X21896D01*
X21730Y-31067D01*
Y-31400D01*
X21896Y-31567D01*
X22396D01*
X26728Y-30567D02*
Y-31567D01*
X27228D01*
X27394Y-31400D01*
Y-30734D01*
X27228Y-30567D01*
X26728D01*
X27728Y-30900D02*
Y-31567D01*
Y-31234D01*
X27894Y-31067D01*
X28061Y-30900D01*
X28227D01*
X28727Y-31567D02*
X29060D01*
X28894D01*
Y-30900D01*
X28727D01*
X29560Y-31567D02*
X29894D01*
X29727D01*
Y-30567D01*
X29560D01*
X30393Y-31567D02*
X30727D01*
X30560D01*
Y-30567D01*
X30393D01*
X32226D02*
Y-31567D01*
X32726D01*
X32893Y-31400D01*
Y-30734D01*
X32726Y-30567D01*
X32226D01*
X33226Y-30900D02*
Y-31567D01*
Y-31234D01*
X33392Y-31067D01*
X33559Y-30900D01*
X33726D01*
X34392D02*
X34725D01*
X34892Y-31067D01*
Y-31567D01*
X34392D01*
X34225Y-31400D01*
X34392Y-31234D01*
X34892D01*
X35225Y-30900D02*
Y-31400D01*
X35392Y-31567D01*
X35558Y-31400D01*
X35725Y-31567D01*
X35892Y-31400D01*
Y-30900D01*
X36225Y-31567D02*
X36558D01*
X36391D01*
Y-30900D01*
X36225D01*
X37058Y-31567D02*
Y-30900D01*
X37558D01*
X37724Y-31067D01*
Y-31567D01*
X38391Y-31900D02*
X38557D01*
X38724Y-31733D01*
Y-30900D01*
X38224D01*
X38058Y-31067D01*
Y-31400D01*
X38224Y-31567D01*
X38724D01*
X43722Y-30567D02*
X43389Y-30734D01*
X43056Y-31067D01*
Y-31400D01*
X43223Y-31567D01*
X43556D01*
X43722Y-31400D01*
Y-31234D01*
X43556Y-31067D01*
X43056D01*
X44056Y-31567D02*
X44722Y-30900D01*
X45722Y-31567D02*
X45055D01*
X45722Y-30900D01*
Y-30734D01*
X45555Y-30567D01*
X45222D01*
X45055Y-30734D01*
X46055D02*
X46222Y-30567D01*
X46555D01*
X46721Y-30734D01*
Y-30900D01*
X46555Y-31067D01*
X46388D01*
X46555D01*
X46721Y-31234D01*
Y-31400D01*
X46555Y-31567D01*
X46222D01*
X46055Y-31400D01*
X47055Y-31567D02*
X47721Y-30900D01*
X48721Y-31567D02*
X48054D01*
X48721Y-30900D01*
Y-30734D01*
X48554Y-30567D01*
X48221D01*
X48054Y-30734D01*
X49054D02*
X49221Y-30567D01*
X49554D01*
X49721Y-30734D01*
Y-31400D01*
X49554Y-31567D01*
X49221D01*
X49054Y-31400D01*
Y-30734D01*
X50720Y-31567D02*
X50054D01*
X50720Y-30900D01*
Y-30734D01*
X50554Y-30567D01*
X50220D01*
X50054Y-30734D01*
X51053D02*
X51220Y-30567D01*
X51553D01*
X51720Y-30734D01*
Y-30900D01*
X51553Y-31067D01*
X51387D01*
X51553D01*
X51720Y-31234D01*
Y-31400D01*
X51553Y-31567D01*
X51220D01*
X51053Y-31400D01*
X56052Y-31567D02*
X56385D01*
X56218D01*
Y-30567D01*
X56052Y-30734D01*
X56885Y-30900D02*
X57051D01*
Y-31067D01*
X56885D01*
Y-30900D01*
Y-31400D02*
X57051D01*
Y-31567D01*
X56885D01*
Y-31400D01*
X58218Y-31567D02*
Y-30567D01*
X57718Y-31067D01*
X58384D01*
X58718Y-31400D02*
X58884Y-31567D01*
X59217D01*
X59384Y-31400D01*
Y-30734D01*
X59217Y-30567D01*
X58884D01*
X58718Y-30734D01*
Y-30900D01*
X58884Y-31067D01*
X59384D01*
X59717Y-30900D02*
X59884D01*
Y-31067D01*
X59717D01*
Y-30900D01*
Y-31400D02*
X59884D01*
Y-31567D01*
X59717D01*
Y-31400D01*
X60550Y-31567D02*
X60884D01*
X60717D01*
Y-30567D01*
X60550Y-30734D01*
X62050Y-30567D02*
X61717Y-30734D01*
X61383Y-31067D01*
Y-31400D01*
X61550Y-31567D01*
X61883D01*
X62050Y-31400D01*
Y-31234D01*
X61883Y-31067D01*
X61383D01*
X63383Y-31567D02*
Y-30567D01*
X63883D01*
X64049Y-30734D01*
Y-31067D01*
X63883Y-31234D01*
X63383D01*
X64382Y-31567D02*
Y-30567D01*
X64716Y-30900D01*
X65049Y-30567D01*
Y-31567D01*
D122*
X29903Y-5100D02*
G03*
X29903Y-5100I-203J0D01*
G01*
X59359Y13761D02*
G03*
X59359Y13761I-203J0D01*
G01*
X68959D02*
G03*
X68959Y13761I-203J0D01*
G01*
X71348Y10509D02*
G03*
X71348Y10509I-203J0D01*
G01*
X66559Y13761D02*
G03*
X66559Y13761I-203J0D01*
G01*
X64159D02*
G03*
X64159Y13761I-203J0D01*
G01*
X61759D02*
G03*
X61759Y13761I-203J0D01*
G01*
X114959D02*
G03*
X114959Y13761I-203J0D01*
G01*
X110148Y10509D02*
G03*
X110148Y10509I-203J0D01*
G01*
X102959Y13761D02*
G03*
X102959Y13761I-203J0D01*
G01*
X107759D02*
G03*
X107759Y13761I-203J0D01*
G01*
X105348Y10509D02*
G03*
X105348Y10509I-203J0D01*
G01*
X112548D02*
G03*
X112548Y10509I-203J0D01*
G01*
X75260Y14656D02*
G03*
X75260Y14656I-203J0D01*
G01*
Y15392D02*
G03*
X75260Y15392I-203J0D01*
G01*
X70815Y14427D02*
G03*
X70815Y14427I-203J0D01*
G01*
X62979Y14430D02*
G03*
X62979Y14430I-203J0D01*
G01*
X63779D02*
G03*
X63779Y14430I-203J0D01*
G01*
X71779Y15570D02*
G03*
X71779Y15570I-203J0D01*
G01*
X70979D02*
G03*
X70979Y15570I-203J0D01*
G01*
X70179D02*
G03*
X70179Y15570I-203J0D01*
G01*
X69379D02*
G03*
X69379Y15570I-203J0D01*
G01*
X65379D02*
G03*
X65379Y15570I-203J0D01*
G01*
X64585D02*
G03*
X64585Y15570I-203J0D01*
G01*
X63779D02*
G03*
X63779Y15570I-203J0D01*
G01*
X62979D02*
G03*
X62979Y15570I-203J0D01*
G01*
X62179D02*
G03*
X62179Y15570I-203J0D01*
G01*
X59207Y15367D02*
G03*
X59207Y15367I-203J0D01*
G01*
X56933Y14379D02*
G03*
X56933Y14379I-203J0D01*
G01*
X56298D02*
G03*
X56298Y14379I-203J0D01*
G01*
X57568D02*
G03*
X57568Y14379I-203J0D01*
G01*
X58203D02*
G03*
X58203Y14379I-203J0D01*
G01*
X58838D02*
G03*
X58838Y14379I-203J0D01*
G01*
X105779Y14430D02*
G03*
X105779Y14430I-203J0D01*
G01*
X104979D02*
G03*
X104979Y14430I-203J0D01*
G01*
Y15570D02*
G03*
X104979Y15570I-203J0D01*
G01*
X105779D02*
G03*
X105779Y15570I-203J0D01*
G01*
X103073Y15621D02*
G03*
X103073Y15621I-203J0D01*
G01*
X102438D02*
G03*
X102438Y15621I-203J0D01*
G01*
X108179Y14427D02*
G03*
X108179Y14427I-203J0D01*
G01*
X108991D02*
G03*
X108991Y14427I-203J0D01*
G01*
X108979Y15570D02*
G03*
X108979Y15570I-203J0D01*
G01*
X108179D02*
G03*
X108179Y15570I-203J0D01*
G01*
X112979Y14430D02*
G03*
X112979Y14430I-203J0D01*
G01*
X113779D02*
G03*
X113779Y14430I-203J0D01*
G01*
X114579D02*
G03*
X114579Y14430I-203J0D01*
G01*
X112179D02*
G03*
X112179Y14430I-203J0D01*
G01*
Y15570D02*
G03*
X112179Y15570I-203J0D01*
G01*
X114579D02*
G03*
X114579Y15570I-203J0D01*
G01*
X113779D02*
G03*
X113779Y15570I-203J0D01*
G01*
X112979D02*
G03*
X112979Y15570I-203J0D01*
G01*
X117931Y14378D02*
G03*
X117931Y14378I-203J0D01*
G01*
X117296D02*
G03*
X117296Y14378I-203J0D01*
G01*
X114758Y-15621D02*
G03*
X114758Y-15621I-203J0D01*
G01*
X115393D02*
G03*
X115393Y-15621I-203J0D01*
G01*
X114758Y-14379D02*
G03*
X114758Y-14379I-203J0D01*
G01*
X115393D02*
G03*
X115393Y-14379I-203J0D01*
G01*
X110567Y-15621D02*
G03*
X110567Y-15621I-203J0D01*
G01*
X109753Y-14379D02*
G03*
X109753Y-14379I-203J0D01*
G01*
X108941Y-15011D02*
G03*
X108941Y-15011I-203J0D01*
G01*
Y-14379D02*
G03*
X108941Y-14379I-203J0D01*
G01*
X72555Y-16231D02*
G03*
X72555Y-16231I-203J0D01*
G01*
X71755D02*
G03*
X71755Y-16231I-203J0D01*
G01*
X63627Y-14450D02*
G03*
X63627Y-14450I-203J0D01*
G01*
X62857D02*
G03*
X62857Y-14450I-203J0D01*
G01*
X62086D02*
G03*
X62086Y-14450I-203J0D01*
G01*
X61316D02*
G03*
X61316Y-14450I-203J0D01*
G01*
X60545D02*
G03*
X60545Y-14450I-203J0D01*
G01*
X59758D02*
G03*
X59758Y-14450I-203J0D01*
G01*
X116663Y-14379D02*
G03*
X116663Y-14379I-203J0D01*
G01*
X116028D02*
G03*
X116028Y-14379I-203J0D01*
G01*
X117298D02*
G03*
X117298Y-14379I-203J0D01*
G01*
X117933D02*
G03*
X117933Y-14379I-203J0D01*
G01*
Y-15621D02*
G03*
X117933Y-15621I-203J0D01*
G01*
X117298D02*
G03*
X117298Y-15621I-203J0D01*
G01*
X116028D02*
G03*
X116028Y-15621I-203J0D01*
G01*
X116663D02*
G03*
X116663Y-15621I-203J0D01*
G01*
X109754D02*
G03*
X109754Y-15621I-203J0D01*
G01*
X103366D02*
G03*
X103366Y-15621I-203J0D01*
G01*
X104154D02*
G03*
X104154Y-15621I-203J0D01*
G01*
X104941D02*
G03*
X104941Y-15621I-203J0D01*
G01*
X105728D02*
G03*
X105728Y-15621I-203J0D01*
G01*
X103366Y-14379D02*
G03*
X103366Y-14379I-203J0D01*
G01*
X104154D02*
G03*
X104154Y-14379I-203J0D01*
G01*
X104941D02*
G03*
X104941Y-14379I-203J0D01*
G01*
X105728D02*
G03*
X105728Y-14379I-203J0D01*
G01*
X101878Y-15621D02*
G03*
X101878Y-15621I-203J0D01*
G01*
X100533D02*
G03*
X100533Y-15621I-203J0D01*
G01*
X99898D02*
G03*
X99898Y-15621I-203J0D01*
G01*
X100533Y-14379D02*
G03*
X100533Y-14379I-203J0D01*
G01*
X99898D02*
G03*
X99898Y-14379I-203J0D01*
G01*
X101168D02*
G03*
X101168Y-14379I-203J0D01*
G01*
X101803D02*
G03*
X101803Y-14379I-203J0D01*
G01*
X62128Y-15621D02*
G03*
X62128Y-15621I-203J0D01*
G01*
X61341D02*
G03*
X61341Y-15621I-203J0D01*
G01*
X60554D02*
G03*
X60554Y-15621I-203J0D01*
G01*
X59766D02*
G03*
X59766Y-15621I-203J0D01*
G01*
X58278D02*
G03*
X58278Y-15621I-203J0D01*
G01*
X71526Y-15011D02*
G03*
X71526Y-15011I-203J0D01*
G01*
X65405D02*
G03*
X65405Y-15011I-203J0D01*
G01*
X73889Y-14199D02*
G03*
X73889Y-14199I-203J0D01*
G01*
X57643Y-15621D02*
G03*
X57643Y-15621I-203J0D01*
G01*
X57008D02*
G03*
X57008Y-15621I-203J0D01*
G01*
X56373D02*
G03*
X56373Y-15621I-203J0D01*
G01*
X56933Y-14379D02*
G03*
X56933Y-14379I-203J0D01*
G01*
X56298D02*
G03*
X56298Y-14379I-203J0D01*
G01*
X57568D02*
G03*
X57568Y-14379I-203J0D01*
G01*
X59194Y-15011D02*
G03*
X59194Y-15011I-203J0D01*
G01*
X30920Y-15624D02*
G03*
X30920Y-15624I-203J0D01*
G01*
X30133D02*
G03*
X30133Y-15624I-203J0D01*
G01*
X29345D02*
G03*
X29345Y-15624I-203J0D01*
G01*
X28533D02*
G03*
X28533Y-15624I-203J0D01*
G01*
X27745D02*
G03*
X27745Y-15624I-203J0D01*
G01*
X28574Y-14376D02*
G03*
X28574Y-14376I-203J0D01*
G01*
X26174D02*
G03*
X26174Y-14376I-203J0D01*
G01*
X26961D02*
G03*
X26961Y-14376I-203J0D01*
G01*
X23774D02*
G03*
X23774Y-14376I-203J0D01*
G01*
X24561D02*
G03*
X24561Y-14376I-203J0D01*
G01*
X21360Y-14402D02*
G03*
X21360Y-14402I-203J0D01*
G01*
X22147D02*
G03*
X22147Y-14402I-203J0D01*
G01*
X19761Y-14376D02*
G03*
X19761Y-14376I-203J0D01*
G01*
X18974D02*
G03*
X18974Y-14376I-203J0D01*
G01*
X17348D02*
G03*
X17348Y-14376I-203J0D01*
G01*
X16535D02*
G03*
X16535Y-14376I-203J0D01*
G01*
X21361Y-15014D02*
G03*
X21361Y-15014I-203J0D01*
G01*
X15594Y-15011D02*
G03*
X15594Y-15011I-203J0D01*
G01*
X22147D02*
G03*
X22147Y-15011I-203J0D01*
G01*
X14603Y-14379D02*
G03*
X14603Y-14379I-203J0D01*
G01*
X13968D02*
G03*
X13968Y-14379I-203J0D01*
G01*
X12698D02*
G03*
X12698Y-14379I-203J0D01*
G01*
X13333D02*
G03*
X13333Y-14379I-203J0D01*
G01*
X12773Y-15621D02*
G03*
X12773Y-15621I-203J0D01*
G01*
X13408D02*
G03*
X13408Y-15621I-203J0D01*
G01*
X26949Y14453D02*
G03*
X26949Y14453I-203J0D01*
G01*
X26162D02*
G03*
X26162Y14453I-203J0D01*
G01*
X27762D02*
G03*
X27762Y14453I-203J0D01*
G01*
X22149Y14376D02*
G03*
X22149Y14376I-203J0D01*
G01*
X21361D02*
G03*
X21361Y14376I-203J0D01*
G01*
X27762Y15367D02*
G03*
X27762Y15367I-203J0D01*
G01*
X19761Y14376D02*
G03*
X19761Y14376I-203J0D01*
G01*
X18974D02*
G03*
X18974Y14376I-203J0D01*
G01*
X17348D02*
G03*
X17348Y14376I-203J0D01*
G01*
X16535D02*
G03*
X16535Y14376I-203J0D01*
G01*
X14043Y14379D02*
G03*
X14043Y14379I-203J0D01*
G01*
X14678D02*
G03*
X14678Y14379I-203J0D01*
G01*
X13408D02*
G03*
X13408Y14379I-203J0D01*
G01*
X12773D02*
G03*
X12773Y14379I-203J0D01*
G01*
X13333Y15621D02*
G03*
X13333Y15621I-203J0D01*
G01*
X12698D02*
G03*
X12698Y15621I-203J0D01*
G01*
X13968D02*
G03*
X13968Y15621I-203J0D01*
G01*
X14603D02*
G03*
X14603Y15621I-203J0D01*
G01*
X117298D02*
G03*
X117298Y15621I-203J0D01*
G01*
X117933D02*
G03*
X117933Y15621I-203J0D01*
G01*
X101803D02*
G03*
X101803Y15621I-203J0D01*
G01*
X101168D02*
G03*
X101168Y15621I-203J0D01*
G01*
X59359Y19491D02*
G03*
X59359Y19491I-203J0D01*
G01*
X58559D02*
G03*
X58559Y19491I-203J0D01*
G01*
X57759D02*
G03*
X57759Y19491I-203J0D01*
G01*
X27753Y-19800D02*
G03*
X27753Y-19800I-203J0D01*
G01*
X28553D02*
G03*
X28553Y-19800I-203J0D01*
G01*
X29353D02*
G03*
X29353Y-19800I-203J0D01*
G01*
X114953Y-19800D02*
G03*
X114953Y-19800I-203J0D01*
G01*
X115753D02*
G03*
X115753Y-19800I-203J0D01*
G01*
X116553D02*
G03*
X116553Y-19800I-203J0D01*
G01*
X72953D02*
G03*
X72953Y-19800I-203J0D01*
G01*
X72153D02*
G03*
X72153Y-19800I-203J0D01*
G01*
X71353D02*
G03*
X71353Y-19800I-203J0D01*
G01*
X14159Y19491D02*
G03*
X14159Y19491I-203J0D01*
G01*
X14959D02*
G03*
X14959Y19491I-203J0D01*
G01*
X15759D02*
G03*
X15759Y19491I-203J0D01*
G01*
X101359D02*
G03*
X101359Y19491I-203J0D01*
G01*
X102159D02*
G03*
X102159Y19491I-203J0D01*
G01*
X102959D02*
G03*
X102959Y19491I-203J0D01*
G01*
X24703Y-6900D02*
G03*
X24703Y-6900I-203J0D01*
G01*
Y-5600D02*
G03*
X24703Y-5600I-203J0D01*
G01*
X27703Y-6900D02*
G03*
X27703Y-6900I-203J0D01*
G01*
X27703Y-5600D02*
G03*
X27703Y-5600I-203J0D01*
G01*
X71903Y5600D02*
G03*
X71903Y5600I-203J0D01*
G01*
X72303Y5100D02*
G03*
X72303Y5100I-203J0D01*
G01*
X69670Y203D02*
G03*
X69670Y203I-203J0D01*
G01*
Y3429D02*
G03*
X69670Y3429I-203J0D01*
G01*
X68783Y2464D02*
G03*
X68783Y2464I-203J0D01*
G01*
X67081D02*
G03*
X67081Y2464I-203J0D01*
G01*
X66170Y3429D02*
G03*
X66170Y3429I-203J0D01*
G01*
X64033Y4140D02*
G03*
X64033Y4140I-203J0D01*
G01*
X64564Y178D02*
G03*
X64564Y178I-203J0D01*
G01*
X63677Y1178D02*
G03*
X63677Y1178I-203J0D01*
G01*
X61064Y178D02*
G03*
X61064Y178I-203J0D01*
G01*
X64694Y-3099D02*
G03*
X64694Y-3099I-203J0D01*
G01*
X63627Y-1753D02*
G03*
X63627Y-1753I-203J0D01*
G01*
X61976Y-3835D02*
G03*
X61976Y-3835I-203J0D01*
G01*
X61103Y-5550D02*
G03*
X61103Y-5550I-203J0D01*
G01*
X58801Y-8077D02*
G03*
X58801Y-8077I-203J0D01*
G01*
X56103Y-9400D02*
G03*
X56103Y-9400I-203J0D01*
G01*
X114960Y14989D02*
G03*
X114960Y14989I-203J0D01*
G01*
X99898Y15621D02*
G03*
X99898Y15621I-203J0D01*
G01*
X100533D02*
G03*
X100533Y15621I-203J0D01*
G01*
X108559Y15011D02*
G03*
X108559Y15011I-203J0D01*
G01*
X20548Y16239D02*
G03*
X20548Y16239I-203J0D01*
G01*
X22147Y14989D02*
G03*
X22147Y14989I-203J0D01*
G01*
X15594D02*
G03*
X15594Y14989I-203J0D01*
G01*
X21361Y14986D02*
G03*
X21361Y14986I-203J0D01*
G01*
X67056Y-787D02*
G03*
X67056Y-787I-203J0D01*
G01*
X115087Y-15011D02*
G03*
X115087Y-15011I-203J0D01*
G01*
X108941Y-15621D02*
G03*
X108941Y-15621I-203J0D01*
G01*
X102794Y-15011D02*
G03*
X102794Y-15011I-203J0D01*
G01*
X108559Y-16239D02*
G03*
X108559Y-16239I-203J0D01*
G01*
X114757Y-787D02*
G03*
X114757Y-787I-203J0D01*
G01*
X70307Y3429D02*
G03*
X70307Y3429I-203J0D01*
G01*
X107759Y-16239D02*
G03*
X107759Y-16239I-203J0D01*
G01*
X63359D02*
G03*
X63359Y-16239I-203J0D01*
G01*
X72948Y-13761D02*
G03*
X72948Y-13761I-203J0D01*
G01*
X72148D02*
G03*
X72148Y-13761I-203J0D01*
G01*
X103759Y13761D02*
G03*
X103759Y13761I-203J0D01*
G01*
X104559D02*
G03*
X104559Y13761I-203J0D01*
G01*
X60959D02*
G03*
X60959Y13761I-203J0D01*
G01*
X60159D02*
G03*
X60159Y13761I-203J0D01*
G01*
X113348Y-13761D02*
G03*
X113348Y-13761I-203J0D01*
G01*
X114148D02*
G03*
X114148Y-13761I-203J0D01*
G01*
X110148Y16239D02*
G03*
X110148Y16239I-203J0D01*
G01*
X110948D02*
G03*
X110948Y16239I-203J0D01*
G01*
X111748D02*
G03*
X111748Y16239I-203J0D01*
G01*
X109348D02*
G03*
X109348Y16239I-203J0D01*
G01*
X114148D02*
G03*
X114148Y16239I-203J0D01*
G01*
X113348D02*
G03*
X113348Y16239I-203J0D01*
G01*
X103748D02*
G03*
X103748Y16239I-203J0D01*
G01*
X105348D02*
G03*
X105348Y16239I-203J0D01*
G01*
X106148D02*
G03*
X106148Y16239I-203J0D01*
G01*
X106948D02*
G03*
X106948Y16239I-203J0D01*
G01*
X107748D02*
G03*
X107748Y16239I-203J0D01*
G01*
X108548D02*
G03*
X108548Y16239I-203J0D01*
G01*
X104548D02*
G03*
X104548Y16239I-203J0D01*
G01*
X112548D02*
G03*
X112548Y16239I-203J0D01*
G01*
X114948D02*
G03*
X114948Y16239I-203J0D01*
G01*
X115748D02*
G03*
X115748Y16239I-203J0D01*
G01*
X116548D02*
G03*
X116548Y16239I-203J0D01*
G01*
X66548D02*
G03*
X66548Y16239I-203J0D01*
G01*
X67348D02*
G03*
X67348Y16239I-203J0D01*
G01*
X68148D02*
G03*
X68148Y16239I-203J0D01*
G01*
X65748D02*
G03*
X65748Y16239I-203J0D01*
G01*
X70548D02*
G03*
X70548Y16239I-203J0D01*
G01*
X69748D02*
G03*
X69748Y16239I-203J0D01*
G01*
X60148D02*
G03*
X60148Y16239I-203J0D01*
G01*
X61748D02*
G03*
X61748Y16239I-203J0D01*
G01*
X62548D02*
G03*
X62548Y16239I-203J0D01*
G01*
X63348D02*
G03*
X63348Y16239I-203J0D01*
G01*
X64148D02*
G03*
X64148Y16239I-203J0D01*
G01*
X64948D02*
G03*
X64948Y16239I-203J0D01*
G01*
X60948D02*
G03*
X60948Y16239I-203J0D01*
G01*
X68948D02*
G03*
X68948Y16239I-203J0D01*
G01*
X71348D02*
G03*
X71348Y16239I-203J0D01*
G01*
X72148D02*
G03*
X72148Y16239I-203J0D01*
G01*
X72948D02*
G03*
X72948Y16239I-203J0D01*
G01*
X27748Y10509D02*
G03*
X27748Y10509I-203J0D01*
G01*
X25348D02*
G03*
X25348Y10509I-203J0D01*
G01*
X29348Y16239D02*
G03*
X29348Y16239I-203J0D01*
G01*
X28548D02*
G03*
X28548Y16239I-203J0D01*
G01*
X27748D02*
G03*
X27748Y16239I-203J0D01*
G01*
X25348D02*
G03*
X25348Y16239I-203J0D01*
G01*
X17348D02*
G03*
X17348Y16239I-203J0D01*
G01*
X21348D02*
G03*
X21348Y16239I-203J0D01*
G01*
X19748D02*
G03*
X19748Y16239I-203J0D01*
G01*
X18948D02*
G03*
X18948Y16239I-203J0D01*
G01*
X18148D02*
G03*
X18148Y16239I-203J0D01*
G01*
X16548D02*
G03*
X16548Y16239I-203J0D01*
G01*
X26148D02*
G03*
X26148Y16239I-203J0D01*
G01*
X26948D02*
G03*
X26948Y16239I-203J0D01*
G01*
X22148D02*
G03*
X22148Y16239I-203J0D01*
G01*
X24548D02*
G03*
X24548Y16239I-203J0D01*
G01*
X23748D02*
G03*
X23748Y16239I-203J0D01*
G01*
X22948D02*
G03*
X22948Y16239I-203J0D01*
G01*
X69759Y-16239D02*
G03*
X69759Y-16239I-203J0D01*
G01*
X67359D02*
G03*
X67359Y-16239I-203J0D01*
G01*
X68159D02*
G03*
X68159Y-16239I-203J0D01*
G01*
X68959D02*
G03*
X68959Y-16239I-203J0D01*
G01*
X64959D02*
G03*
X64959Y-16239I-203J0D01*
G01*
X62559D02*
G03*
X62559Y-16239I-203J0D01*
G01*
X64159D02*
G03*
X64159Y-16239I-203J0D01*
G01*
X20559Y-16239D02*
G03*
X20559Y-16239I-203J0D01*
G01*
X19759D02*
G03*
X19759Y-16239I-203J0D01*
G01*
X18959D02*
G03*
X18959Y-16239I-203J0D01*
G01*
X21359D02*
G03*
X21359Y-16239I-203J0D01*
G01*
X16559D02*
G03*
X16559Y-16239I-203J0D01*
G01*
X17359D02*
G03*
X17359Y-16239I-203J0D01*
G01*
X26959D02*
G03*
X26959Y-16239I-203J0D01*
G01*
X70559Y-16239D02*
G03*
X70559Y-16239I-203J0D01*
G01*
X66559D02*
G03*
X66559Y-16239I-203J0D01*
G01*
X65759D02*
G03*
X65759Y-16239I-203J0D01*
G01*
X60959D02*
G03*
X60959Y-16239I-203J0D01*
G01*
X58559D02*
G03*
X58559Y-16239I-203J0D01*
G01*
X59359D02*
G03*
X59359Y-16239I-203J0D01*
G01*
X60159D02*
G03*
X60159Y-16239I-203J0D01*
G01*
X61759D02*
G03*
X61759Y-16239I-203J0D01*
G01*
X57748Y-19491D02*
G03*
X57748Y-19491I-203J0D01*
G01*
X116662Y-813D02*
G03*
X116662Y-813I-203J0D01*
G01*
X25359Y-16239D02*
G03*
X25359Y-16239I-203J0D01*
G01*
X24559D02*
G03*
X24559Y-16239I-203J0D01*
G01*
X23759D02*
G03*
X23759Y-16239I-203J0D01*
G01*
X22959D02*
G03*
X22959Y-16239I-203J0D01*
G01*
X22159D02*
G03*
X22159Y-16239I-203J0D01*
G01*
X26159D02*
G03*
X26159Y-16239I-203J0D01*
G01*
X106159Y-16239D02*
G03*
X106159Y-16239I-203J0D01*
G01*
X106959D02*
G03*
X106959Y-16239I-203J0D01*
G01*
X113359D02*
G03*
X113359Y-16239I-203J0D01*
G01*
X112559D02*
G03*
X112559Y-16239I-203J0D01*
G01*
X111759D02*
G03*
X111759Y-16239I-203J0D01*
G01*
X110959D02*
G03*
X110959Y-16239I-203J0D01*
G01*
X68948Y-13761D02*
G03*
X68948Y-13761I-203J0D01*
G01*
X114159Y-16239D02*
G03*
X114159Y-16239I-203J0D01*
G01*
X109359D02*
G03*
X109359Y-16239I-203J0D01*
G01*
X110159D02*
G03*
X110159Y-16239I-203J0D01*
G01*
X114959Y-10509D02*
G03*
X114959Y-10509I-203J0D01*
G01*
X112559D02*
G03*
X112559Y-10509I-203J0D01*
G01*
X110159D02*
G03*
X110159Y-10509I-203J0D01*
G01*
X107759D02*
G03*
X107759Y-10509I-203J0D01*
G01*
X105359D02*
G03*
X105359Y-10509I-203J0D01*
G01*
X102959D02*
G03*
X102959Y-10509I-203J0D01*
G01*
X101359Y-16239D02*
G03*
X101359Y-16239I-203J0D01*
G01*
X102959D02*
G03*
X102959Y-16239I-203J0D01*
G01*
X102148Y-19491D02*
G03*
X102148Y-19491I-203J0D01*
G01*
X105359Y-16239D02*
G03*
X105359Y-16239I-203J0D01*
G01*
X104559D02*
G03*
X104559Y-16239I-203J0D01*
G01*
X103759D02*
G03*
X103759Y-16239I-203J0D01*
G01*
X26148Y10509D02*
G03*
X26148Y10509I-203J0D01*
G01*
X17348D02*
G03*
X17348Y10509I-203J0D01*
G01*
X69774Y-1549D02*
G03*
X69774Y-1549I-203J0D01*
G01*
X16548Y10509D02*
G03*
X16548Y10509I-203J0D01*
G01*
X69759Y-10509D02*
G03*
X69759Y-10509I-203J0D01*
G01*
X70559D02*
G03*
X70559Y-10509I-203J0D01*
G01*
X24548Y10509D02*
G03*
X24548Y10509I-203J0D01*
G01*
X23748D02*
G03*
X23748Y10509I-203J0D01*
G01*
X14948D02*
G03*
X14948Y10509I-203J0D01*
G01*
X14148D02*
G03*
X14148Y10509I-203J0D01*
G01*
X68148D02*
G03*
X68148Y10509I-203J0D01*
G01*
X67348D02*
G03*
X67348Y10509I-203J0D01*
G01*
X101348D02*
G03*
X101348Y10509I-203J0D01*
G01*
X102148D02*
G03*
X102148Y10509I-203J0D01*
G01*
X58548D02*
G03*
X58548Y10509I-203J0D01*
G01*
X57748D02*
G03*
X57748Y10509I-203J0D01*
G01*
X111748D02*
G03*
X111748Y10509I-203J0D01*
G01*
X110948D02*
G03*
X110948Y10509I-203J0D01*
G01*
X26948D02*
G03*
X26948Y10509I-203J0D01*
G01*
X70548D02*
G03*
X70548Y10509I-203J0D01*
G01*
X69748D02*
G03*
X69748Y10509I-203J0D01*
G01*
X114148D02*
G03*
X114148Y10509I-203J0D01*
G01*
X113348D02*
G03*
X113348Y10509I-203J0D01*
G01*
X103759Y-10509D02*
G03*
X103759Y-10509I-203J0D01*
G01*
X104559D02*
G03*
X104559Y-10509I-203J0D01*
G01*
X60959D02*
G03*
X60959Y-10509I-203J0D01*
G01*
X60159D02*
G03*
X60159Y-10509I-203J0D01*
G01*
X16559Y-10509D02*
G03*
X16559Y-10509I-203J0D01*
G01*
X17359D02*
G03*
X17359Y-10509I-203J0D01*
G01*
X28203Y-1400D02*
G03*
X28203Y-1400I-203J0D01*
G01*
X27803Y-1000D02*
G03*
X27803Y-1000I-203J0D01*
G01*
X28603Y-1800D02*
G03*
X28603Y-1800I-203J0D01*
G01*
Y-3000D02*
G03*
X28603Y-3000I-203J0D01*
G01*
X27653Y1800D02*
G03*
X27653Y1800I-203J0D01*
G01*
Y600D02*
G03*
X27653Y600I-203J0D01*
G01*
X28703Y-600D02*
G03*
X28703Y-600I-203J0D01*
G01*
X27803Y-350D02*
G03*
X27803Y-350I-203J0D01*
G01*
X28703Y3000D02*
G03*
X28703Y3000I-203J0D01*
G01*
X27703Y-3000D02*
G03*
X27703Y-3000I-203J0D01*
G01*
Y-1800D02*
G03*
X27703Y-1800I-203J0D01*
G01*
X27803Y2800D02*
G03*
X27803Y2800I-203J0D01*
G01*
X28703Y1800D02*
G03*
X28703Y1800I-203J0D01*
G01*
Y600D02*
G03*
X28703Y600I-203J0D01*
G01*
X67068Y1203D02*
G03*
X67068Y1203I-203J0D01*
G01*
X18148Y-13761D02*
G03*
X18148Y-13761I-203J0D01*
G01*
X15748D02*
G03*
X15748Y-13761I-203J0D01*
G01*
X20548D02*
G03*
X20548Y-13761I-203J0D01*
G01*
X22948D02*
G03*
X22948Y-13761I-203J0D01*
G01*
X25348D02*
G03*
X25348Y-13761I-203J0D01*
G01*
X27748D02*
G03*
X27748Y-13761I-203J0D01*
G01*
X14159Y-16239D02*
G03*
X14159Y-16239I-203J0D01*
G01*
X14959D02*
G03*
X14959Y-16239I-203J0D01*
G01*
X15759D02*
G03*
X15759Y-16239I-203J0D01*
G01*
X18159D02*
G03*
X18159Y-16239I-203J0D01*
G01*
X59335Y-13748D02*
G03*
X59335Y-13748I-203J0D01*
G01*
X61735D02*
G03*
X61735Y-13748I-203J0D01*
G01*
X64135D02*
G03*
X64135Y-13748I-203J0D01*
G01*
X66535D02*
G03*
X66535Y-13748I-203J0D01*
G01*
X71335D02*
G03*
X71335Y-13748I-203J0D01*
G01*
X15759Y13761D02*
G03*
X15759Y13761I-203J0D01*
G01*
X18159D02*
G03*
X18159Y13761I-203J0D01*
G01*
X20559D02*
G03*
X20559Y13761I-203J0D01*
G01*
X22959D02*
G03*
X22959Y13761I-203J0D01*
G01*
X26959Y-10509D02*
G03*
X26959Y-10509I-203J0D01*
G01*
X26159D02*
G03*
X26159Y-10509I-203J0D01*
G01*
X19748Y10509D02*
G03*
X19748Y10509I-203J0D01*
G01*
X18948D02*
G03*
X18948Y10509I-203J0D01*
G01*
X63348D02*
G03*
X63348Y10509I-203J0D01*
G01*
X62548D02*
G03*
X62548Y10509I-203J0D01*
G01*
X106948D02*
G03*
X106948Y10509I-203J0D01*
G01*
X106148D02*
G03*
X106148Y10509I-203J0D01*
G01*
X110959Y-10509D02*
G03*
X110959Y-10509I-203J0D01*
G01*
X111759D02*
G03*
X111759Y-10509I-203J0D01*
G01*
X67359D02*
G03*
X67359Y-10509I-203J0D01*
G01*
X68159D02*
G03*
X68159Y-10509I-203J0D01*
G01*
X23759Y-10509D02*
G03*
X23759Y-10509I-203J0D01*
G01*
X24559D02*
G03*
X24559Y-10509I-203J0D01*
G01*
X106159Y-10509D02*
G03*
X106159Y-10509I-203J0D01*
G01*
X106959D02*
G03*
X106959Y-10509I-203J0D01*
G01*
X115759D02*
G03*
X115759Y-10509I-203J0D01*
G01*
X116559D02*
G03*
X116559Y-10509I-203J0D01*
G01*
X62572Y-10522D02*
G03*
X62572Y-10522I-203J0D01*
G01*
X63372D02*
G03*
X63372Y-10522I-203J0D01*
G01*
X29359Y-10509D02*
G03*
X29359Y-10509I-203J0D01*
G01*
X28559D02*
G03*
X28559Y-10509I-203J0D01*
G01*
X19759D02*
G03*
X19759Y-10509I-203J0D01*
G01*
X18959D02*
G03*
X18959Y-10509I-203J0D01*
G01*
X28603Y-3800D02*
G03*
X28603Y-3800I-203J0D01*
G01*
X70104Y4470D02*
G03*
X70104Y4470I-203J0D01*
G01*
X25903Y3600D02*
G03*
X25903Y3600I-203J0D01*
G01*
X8306Y12141D02*
G03*
X8306Y12141I-203J0D01*
G01*
X11379Y7137D02*
G03*
X11379Y7137I-203J0D01*
G01*
X12903Y7899D02*
G03*
X12903Y7899I-203J0D01*
G01*
X12141D02*
G03*
X12141Y7899I-203J0D01*
G01*
X12903Y7137D02*
G03*
X12903Y7137I-203J0D01*
G01*
X11379Y7899D02*
G03*
X11379Y7899I-203J0D01*
G01*
X12141Y7137D02*
G03*
X12141Y7137I-203J0D01*
G01*
X114198Y3226D02*
G03*
X114198Y3226I-203J0D01*
G01*
X115515Y19450D02*
G03*
X115515Y19450I-203J0D01*
G01*
X116815D02*
G03*
X116815Y19450I-203J0D01*
G01*
X110566Y6858D02*
G03*
X110566Y6858I-203J0D01*
G01*
X109042Y6350D02*
G03*
X109042Y6350I-203J0D01*
G01*
X107899Y7239D02*
G03*
X107899Y7239I-203J0D01*
G01*
X109042Y7366D02*
G03*
X109042Y7366I-203J0D01*
G01*
X91516Y-14097D02*
G03*
X91516Y-14097I-203J0D01*
G01*
X89103Y-15494D02*
G03*
X89103Y-15494I-203J0D01*
G01*
X89484Y-14097D02*
G03*
X89484Y-14097I-203J0D01*
G01*
X86944Y-15621D02*
G03*
X86944Y-15621I-203J0D01*
G01*
X85420Y-14097D02*
G03*
X85420Y-14097I-203J0D01*
G01*
X87452D02*
G03*
X87452Y-14097I-203J0D01*
G01*
X84912Y-15621D02*
G03*
X84912Y-15621I-203J0D01*
G01*
X81178Y4572D02*
G03*
X81178Y4572I-203J0D01*
G01*
X37084Y-7112D02*
G03*
X37084Y-7112I-203J0D01*
G01*
X37643D02*
G03*
X37643Y-7112I-203J0D01*
G01*
X37084Y-6477D02*
G03*
X37084Y-6477I-203J0D01*
G01*
X37643D02*
G03*
X37643Y-6477I-203J0D01*
G01*
X39096Y6590D02*
G03*
X39096Y6590I-203J0D01*
G01*
X44103Y-2750D02*
G03*
X44103Y-2750I-203J0D01*
G01*
X39421Y-5385D02*
G03*
X39421Y-5385I-203J0D01*
G01*
X39754Y6604D02*
G03*
X39754Y6604I-203J0D01*
G01*
X37363Y4826D02*
G03*
X37363Y4826I-203J0D01*
G01*
Y5461D02*
G03*
X37363Y5461I-203J0D01*
G01*
X36881Y4826D02*
G03*
X36881Y4826I-203J0D01*
G01*
Y5461D02*
G03*
X36881Y5461I-203J0D01*
G01*
X38703Y5450D02*
G03*
X38703Y5450I-203J0D01*
G01*
Y4850D02*
G03*
X38703Y4850I-203J0D01*
G01*
X38978Y-7125D02*
G03*
X38978Y-7125I-203J0D01*
G01*
Y-6475D02*
G03*
X38978Y-6475I-203J0D01*
G01*
X39528Y-8375D02*
G03*
X39528Y-8375I-203J0D01*
G01*
X80696Y4877D02*
G03*
X80696Y4877I-203J0D01*
G01*
X5588Y11862D02*
G03*
X5588Y11862I-203J0D01*
G01*
X32703Y15700D02*
G03*
X32703Y15700I-203J0D01*
G01*
X9271Y730D02*
G03*
X9271Y730I-203J0D01*
G01*
X7371Y730D02*
G03*
X7371Y730I-203J0D01*
G01*
X44653Y2083D02*
G03*
X44653Y2083I-203J0D01*
G01*
X47371Y-3708D02*
G03*
X47371Y-3708I-203J0D01*
G01*
X58725Y-22835D02*
G03*
X58725Y-22835I-203J0D01*
G01*
X106883Y2032D02*
G03*
X106883Y2032I-203J0D01*
G01*
X105207Y-965D02*
G03*
X105207Y-965I-203J0D01*
G01*
X105080Y-3988D02*
G03*
X105080Y-3988I-203J0D01*
G01*
X105200Y-6027D02*
G03*
X105200Y-6027I-203J0D01*
G01*
X69926Y2159D02*
G03*
X69926Y2159I-203J0D01*
G01*
X47666Y-20739D02*
G03*
X47666Y-20739I-203J0D01*
G01*
X51984D02*
G03*
X51984Y-20739I-203J0D01*
G01*
X90754Y17780D02*
G03*
X90754Y17780I-203J0D01*
G01*
X62728Y-5550D02*
G03*
X62728Y-5550I-203J0D01*
G01*
X61928D02*
G03*
X61928Y-5550I-203J0D01*
G01*
X84023Y-14478D02*
G03*
X84023Y-14478I-203J0D01*
G01*
X81051Y-4191D02*
G03*
X81051Y-4191I-203J0D01*
G01*
X105816Y6147D02*
G03*
X105816Y6147I-203J0D01*
G01*
X104623D02*
G03*
X104623Y6147I-203J0D01*
G01*
X107696Y3505D02*
G03*
X107696Y3505I-203J0D01*
G01*
X107823Y-3505D02*
G03*
X107823Y-3505I-203J0D01*
G01*
X106905Y-2025D02*
G03*
X106905Y-2025I-203J0D01*
G01*
X105207Y813D02*
G03*
X105207Y813I-203J0D01*
G01*
X32639Y11151D02*
G03*
X32639Y11151I-203J0D01*
G01*
X33503Y11125D02*
G03*
X33503Y11125I-203J0D01*
G01*
X46457Y-9398D02*
G03*
X46457Y-9398I-203J0D01*
G01*
X90602Y16662D02*
G03*
X90602Y16662I-203J0D01*
G01*
X89408Y16840D02*
G03*
X89408Y16840I-203J0D01*
G01*
X89510Y15748D02*
G03*
X89510Y15748I-203J0D01*
G01*
X47353Y-2825D02*
G03*
X47353Y-2825I-203J0D01*
G01*
X88203Y6200D02*
G03*
X88203Y6200I-203J0D01*
G01*
X89403Y-9525D02*
G03*
X89403Y-9525I-203J0D01*
G01*
X88203D02*
G03*
X88203Y-9525I-203J0D01*
G01*
X87003Y-9550D02*
G03*
X87003Y-9550I-203J0D01*
G01*
X85803D02*
G03*
X85803Y-9550I-203J0D01*
G01*
X84603Y-9575D02*
G03*
X84603Y-9575I-203J0D01*
G01*
X81053Y-5550D02*
G03*
X81053Y-5550I-203J0D01*
G01*
X81053Y-6325D02*
G03*
X81053Y-6325I-203J0D01*
G01*
Y-2725D02*
G03*
X81053Y-2725I-203J0D01*
G01*
Y-1525D02*
G03*
X81053Y-1525I-203J0D01*
G01*
Y-325D02*
G03*
X81053Y-325I-203J0D01*
G01*
X84528Y2650D02*
G03*
X84528Y2650I-203J0D01*
G01*
X91203Y8575D02*
G03*
X91203Y8575I-203J0D01*
G01*
X103003Y-4900D02*
G03*
X103003Y-4900I-203J0D01*
G01*
X102428Y-6800D02*
G03*
X102428Y-6800I-203J0D01*
G01*
X103453Y-7000D02*
G03*
X103453Y-7000I-203J0D01*
G01*
X103178Y-5875D02*
G03*
X103178Y-5875I-203J0D01*
G01*
X100831Y6172D02*
G03*
X100831Y6172I-203J0D01*
G01*
X100428Y4275D02*
G03*
X100428Y4275I-203J0D01*
G01*
X86503Y7700D02*
G03*
X86503Y7700I-203J0D01*
G01*
X87778Y9450D02*
G03*
X87778Y9450I-203J0D01*
G01*
X82903Y7700D02*
G03*
X82903Y7700I-203J0D01*
G01*
X83703Y7700D02*
G03*
X83703Y7700I-203J0D01*
G01*
X70803Y-5475D02*
G03*
X70803Y-5475I-203J0D01*
G01*
X71903Y19450D02*
G03*
X71903Y19450I-203J0D01*
G01*
X73203D02*
G03*
X73203Y19450I-203J0D01*
G01*
X46803Y6500D02*
G03*
X46803Y6500I-203J0D01*
G01*
X43853Y5200D02*
G03*
X43853Y5200I-203J0D01*
G01*
X50953Y-4500D02*
G03*
X50953Y-4500I-203J0D01*
G01*
X50404Y-14550D02*
G03*
X50404Y-14550I-203J0D01*
G01*
X46128Y-14550D02*
G03*
X46128Y-14550I-203J0D01*
G01*
X44128Y-7775D02*
G03*
X44128Y-7775I-203J0D01*
G01*
X53904Y-14550D02*
G03*
X53904Y-14550I-203J0D01*
G01*
X49628Y-14550D02*
G03*
X49628Y-14550I-203J0D01*
G01*
X28303Y19450D02*
G03*
X28303Y19450I-203J0D01*
G01*
X29603D02*
G03*
X29603Y19450I-203J0D01*
G01*
X41803Y-2000D02*
G03*
X41803Y-2000I-203J0D01*
G01*
X44903Y-4600D02*
G03*
X44903Y-4600I-203J0D01*
G01*
X33503Y16300D02*
G03*
X33503Y16300I-203J0D01*
G01*
X46103Y-2100D02*
G03*
X46103Y-2100I-203J0D01*
G01*
X44103Y-3350D02*
G03*
X44103Y-3350I-203J0D01*
G01*
X83753Y1200D02*
G03*
X83753Y1200I-203J0D01*
G01*
X82703Y3300D02*
G03*
X82703Y3300I-203J0D01*
G01*
X81703Y6300D02*
G03*
X81703Y6300I-203J0D01*
G01*
X83703Y4600D02*
G03*
X83703Y4600I-203J0D01*
G01*
Y3900D02*
G03*
X83703Y3900I-203J0D01*
G01*
X84228Y1850D02*
G03*
X84228Y1850I-203J0D01*
G01*
X67453Y-5475D02*
G03*
X67453Y-5475I-203J0D01*
G01*
X101353Y-22825D02*
G03*
X101353Y-22825I-203J0D01*
G01*
X40128Y-5375D02*
G03*
X40128Y-5375I-203J0D01*
G01*
X41028D02*
G03*
X41028Y-5375I-203J0D01*
G01*
Y-8375D02*
G03*
X41028Y-8375I-203J0D01*
G01*
X33203Y2000D02*
G03*
X33203Y2000I-203J0D01*
G01*
X30903Y-200D02*
G03*
X30903Y-200I-203J0D01*
G01*
X50703Y-2750D02*
G03*
X50703Y-2750I-203J0D01*
G01*
X39203Y3600D02*
G03*
X39203Y3600I-203J0D01*
G01*
X48103Y6500D02*
G03*
X48103Y6500I-203J0D01*
G01*
X47403Y1700D02*
G03*
X47403Y1700I-203J0D01*
G01*
X44128Y-5975D02*
G03*
X44128Y-5975I-203J0D01*
G01*
X41803Y-6814D02*
G03*
X41803Y-6814I-203J0D01*
G01*
X42803D02*
G03*
X42803Y-6814I-203J0D01*
G01*
X44803Y8000D02*
G03*
X44803Y8000I-203J0D01*
G01*
X44103Y6900D02*
G03*
X44103Y6900I-203J0D01*
G01*
X45503Y3650D02*
G03*
X45503Y3650I-203J0D01*
G01*
X46803D02*
G03*
X46803Y3650I-203J0D01*
G01*
X48103D02*
G03*
X48103Y3650I-203J0D01*
G01*
X49403D02*
G03*
X49403Y3650I-203J0D01*
G01*
X30503Y3800D02*
G03*
X30503Y3800I-203J0D01*
G01*
X96603Y-22400D02*
G03*
X96603Y-22400I-203J0D01*
G01*
X51203Y-2250D02*
G03*
X51203Y-2250I-203J0D01*
G01*
D123*
X77547Y1547D02*
Y1953D01*
X77953D01*
Y1547D01*
X77547D01*
X77648Y1648D02*
Y1852D01*
X77852D01*
Y1648D01*
X77648D01*
X74547Y1547D02*
Y1953D01*
X74953D01*
Y1547D01*
X74547D01*
X74648Y1648D02*
Y1852D01*
X74852D01*
Y1648D01*
X74648D01*
X74047Y1547D02*
Y1953D01*
X74453D01*
Y1547D01*
X74047D01*
X74148Y1648D02*
Y1852D01*
X74352D01*
Y1648D01*
X74148D01*
X70547Y-3953D02*
Y-3547D01*
X70953D01*
Y-3953D01*
X70547D01*
X70648Y-3852D02*
Y-3648D01*
X70852D01*
Y-3852D01*
X70648D01*
X51547Y-4453D02*
Y-4047D01*
X51953D01*
Y-4453D01*
X51547D01*
X51648Y-4352D02*
Y-4148D01*
X51852D01*
Y-4352D01*
X51648D01*
X123165Y7417D02*
Y7823D01*
X123571D01*
Y7417D01*
X123165D01*
X125705D02*
Y7823D01*
X126111D01*
Y7417D01*
X125705D01*
X123165Y4877D02*
Y5283D01*
X123571D01*
Y4877D01*
X123165D01*
X125705D02*
Y5283D01*
X126111D01*
Y4877D01*
X125705D01*
X123165Y2337D02*
Y2743D01*
X123571D01*
Y2337D01*
X123165D01*
X125705D02*
Y2743D01*
X126111D01*
Y2337D01*
X125705D01*
X123165Y-203D02*
Y203D01*
X123571D01*
Y-203D01*
X123165D01*
X125705D02*
Y203D01*
X126111D01*
Y-203D01*
X125705D01*
X123165Y-2743D02*
Y-2337D01*
X123571D01*
Y-2743D01*
X123165D01*
X125705D02*
Y-2337D01*
X126111D01*
Y-2743D01*
X125705D01*
X123165Y-5283D02*
Y-4877D01*
X123571D01*
Y-5283D01*
X123165D01*
X125705D02*
Y-4877D01*
X126111D01*
Y-5283D01*
X125705D01*
X123165Y-7823D02*
Y-7417D01*
X123571D01*
Y-7823D01*
X123165D01*
X125705D02*
Y-7417D01*
X126111D01*
Y-7823D01*
X125705D01*
X72047Y2047D02*
Y2453D01*
X72453D01*
Y2047D01*
X72047D01*
X72148Y2148D02*
Y2352D01*
X72352D01*
Y2148D01*
X72148D01*
X71547Y2047D02*
Y2453D01*
X71953D01*
Y2047D01*
X71547D01*
X71648Y2148D02*
Y2352D01*
X71852D01*
Y2148D01*
X71648D01*
X57547Y-1953D02*
Y-1547D01*
X57953D01*
Y-1953D01*
X57547D01*
X57648Y-1852D02*
Y-1648D01*
X57852D01*
Y-1852D01*
X57648D01*
X96400Y4597D02*
X96502Y4698D01*
X96603D01*
X96502Y4800D01*
X96603Y4902D01*
X96502D01*
X96400Y5003D01*
X96298Y4902D01*
X96197D01*
X96298Y4800D01*
X96197Y4698D01*
X96298D01*
X96400Y4597D01*
Y5397D02*
X96502Y5498D01*
X96603D01*
X96502Y5600D01*
X96603Y5702D01*
X96502D01*
X96400Y5803D01*
X96298Y5702D01*
X96197D01*
X96298Y5600D01*
X96197Y5498D01*
X96298D01*
X96400Y5397D01*
X95600Y3797D02*
X95702Y3898D01*
X95803D01*
X95702Y4000D01*
X95803Y4102D01*
X95702D01*
X95600Y4203D01*
X95498Y4102D01*
X95397D01*
X95498Y4000D01*
X95397Y3898D01*
X95498D01*
X95600Y3797D01*
X96400D02*
X96502Y3898D01*
X96603D01*
X96502Y4000D01*
X96603Y4102D01*
X96502D01*
X96400Y4203D01*
X96298Y4102D01*
X96197D01*
X96298Y4000D01*
X96197Y3898D01*
X96298D01*
X96400Y3797D01*
X94800Y2197D02*
X94902Y2298D01*
X95003D01*
X94902Y2400D01*
X95003Y2502D01*
X94902D01*
X94800Y2603D01*
X94698Y2502D01*
X94597D01*
X94698Y2400D01*
X94597Y2298D01*
X94698D01*
X94800Y2197D01*
Y1397D02*
X94902Y1498D01*
X95003D01*
X94902Y1600D01*
X95003Y1702D01*
X94902D01*
X94800Y1803D01*
X94698Y1702D01*
X94597D01*
X94698Y1600D01*
X94597Y1498D01*
X94698D01*
X94800Y1397D01*
Y2997D02*
X94902Y3098D01*
X95003D01*
X94902Y3200D01*
X95003Y3302D01*
X94902D01*
X94800Y3403D01*
X94698Y3302D01*
X94597D01*
X94698Y3200D01*
X94597Y3098D01*
X94698D01*
X94800Y2997D01*
X92400Y4597D02*
X92502Y4698D01*
X92603D01*
X92502Y4800D01*
X92603Y4902D01*
X92502D01*
X92400Y5003D01*
X92298Y4902D01*
X92197D01*
X92298Y4800D01*
X92197Y4698D01*
X92298D01*
X92400Y4597D01*
Y5397D02*
X92502Y5498D01*
X92603D01*
X92502Y5600D01*
X92603Y5702D01*
X92502D01*
X92400Y5803D01*
X92298Y5702D01*
X92197D01*
X92298Y5600D01*
X92197Y5498D01*
X92298D01*
X92400Y5397D01*
X94800Y-203D02*
X94902Y-102D01*
X95003D01*
X94902Y0D01*
X95003Y102D01*
X94902D01*
X94800Y203D01*
X94698Y102D01*
X94597D01*
X94698Y0D01*
X94597Y-102D01*
X94698D01*
X94800Y-203D01*
X86800Y5397D02*
X86902Y5498D01*
X87003D01*
X86902Y5600D01*
X87003Y5702D01*
X86902D01*
X86800Y5803D01*
X86698Y5702D01*
X86597D01*
X86698Y5600D01*
X86597Y5498D01*
X86698D01*
X86800Y5397D01*
X89200D02*
X89302Y5498D01*
X89403D01*
X89302Y5600D01*
X89403Y5702D01*
X89302D01*
X89200Y5803D01*
X89098Y5702D01*
X88997D01*
X89098Y5600D01*
X88997Y5498D01*
X89098D01*
X89200Y5397D01*
X90800D02*
X90902Y5498D01*
X91003D01*
X90902Y5600D01*
X91003Y5702D01*
X90902D01*
X90800Y5803D01*
X90698Y5702D01*
X90597D01*
X90698Y5600D01*
X90597Y5498D01*
X90698D01*
X90800Y5397D01*
X86000Y-203D02*
X86102Y-102D01*
X86203D01*
X86102Y-0D01*
X86203Y102D01*
X86102D01*
X86000Y203D01*
X85898Y102D01*
X85797D01*
X85898Y-0D01*
X85797Y-102D01*
X85898D01*
X86000Y-203D01*
X85200D02*
X85302Y-102D01*
X85403D01*
X85302Y-0D01*
X85403Y102D01*
X85302D01*
X85200Y203D01*
X85098Y102D01*
X84997D01*
X85098Y-0D01*
X84997Y-102D01*
X85098D01*
X85200Y-203D01*
Y-1003D02*
X85302Y-902D01*
X85403D01*
X85302Y-800D01*
X85403Y-698D01*
X85302D01*
X85200Y-597D01*
X85098Y-698D01*
X84997D01*
X85098Y-800D01*
X84997Y-902D01*
X85098D01*
X85200Y-1003D01*
X86000D02*
X86102Y-902D01*
X86203D01*
X86102Y-800D01*
X86203Y-698D01*
X86102D01*
X86000Y-597D01*
X85898Y-698D01*
X85797D01*
X85898Y-800D01*
X85797Y-902D01*
X85898D01*
X86000Y-1003D01*
X85200Y-2603D02*
X85302Y-2502D01*
X85403D01*
X85302Y-2400D01*
X85403Y-2298D01*
X85302D01*
X85200Y-2197D01*
X85098Y-2298D01*
X84997D01*
X85098Y-2400D01*
X84997Y-2502D01*
X85098D01*
X85200Y-2603D01*
X86000D02*
X86102Y-2502D01*
X86203D01*
X86102Y-2400D01*
X86203Y-2298D01*
X86102D01*
X86000Y-2197D01*
X85898Y-2298D01*
X85797D01*
X85898Y-2400D01*
X85797Y-2502D01*
X85898D01*
X86000Y-2603D01*
X85200Y-1803D02*
X85302Y-1702D01*
X85403D01*
X85302Y-1600D01*
X85403Y-1498D01*
X85302D01*
X85200Y-1397D01*
X85098Y-1498D01*
X84997D01*
X85098Y-1600D01*
X84997Y-1702D01*
X85098D01*
X85200Y-1803D01*
X86000D02*
X86102Y-1702D01*
X86203D01*
X86102Y-1600D01*
X86203Y-1498D01*
X86102D01*
X86000Y-1397D01*
X85898Y-1498D01*
X85797D01*
X85898Y-1600D01*
X85797Y-1702D01*
X85898D01*
X86000Y-1803D01*
X85200Y-5803D02*
X85302Y-5702D01*
X85403D01*
X85302Y-5600D01*
X85403Y-5498D01*
X85302D01*
X85200Y-5397D01*
X85098Y-5498D01*
X84997D01*
X85098Y-5600D01*
X84997Y-5702D01*
X85098D01*
X85200Y-5803D01*
X86800Y-1803D02*
X86902Y-1702D01*
X87003D01*
X86902Y-1600D01*
X87003Y-1498D01*
X86902D01*
X86800Y-1397D01*
X86698Y-1498D01*
X86597D01*
X86698Y-1600D01*
X86597Y-1702D01*
X86698D01*
X86800Y-1803D01*
X86000Y-3403D02*
X86102Y-3302D01*
X86203D01*
X86102Y-3200D01*
X86203Y-3098D01*
X86102D01*
X86000Y-2997D01*
X85898Y-3098D01*
X85797D01*
X85898Y-3200D01*
X85797Y-3302D01*
X85898D01*
X86000Y-3403D01*
Y-4203D02*
X86102Y-4102D01*
X86203D01*
X86102Y-4000D01*
X86203Y-3898D01*
X86102D01*
X86000Y-3797D01*
X85898Y-3898D01*
X85797D01*
X85898Y-4000D01*
X85797Y-4102D01*
X85898D01*
X86000Y-4203D01*
X85200Y-3403D02*
X85302Y-3302D01*
X85403D01*
X85302Y-3200D01*
X85403Y-3098D01*
X85302D01*
X85200Y-2997D01*
X85098Y-3098D01*
X84997D01*
X85098Y-3200D01*
X84997Y-3302D01*
X85098D01*
X85200Y-3403D01*
Y-4203D02*
X85302Y-4102D01*
X85403D01*
X85302Y-4000D01*
X85403Y-3898D01*
X85302D01*
X85200Y-3797D01*
X85098Y-3898D01*
X84997D01*
X85098Y-4000D01*
X84997Y-4102D01*
X85098D01*
X85200Y-4203D01*
Y-5003D02*
X85302Y-4902D01*
X85403D01*
X85302Y-4800D01*
X85403Y-4698D01*
X85302D01*
X85200Y-4597D01*
X85098Y-4698D01*
X84997D01*
X85098Y-4800D01*
X84997Y-4902D01*
X85098D01*
X85200Y-5003D01*
X86000Y-5003D02*
X86102Y-4902D01*
X86203D01*
X86102Y-4800D01*
X86203Y-4698D01*
X86102D01*
X86000Y-4597D01*
X85898Y-4698D01*
X85797D01*
X85898Y-4800D01*
X85797Y-4902D01*
X85898D01*
X86000Y-5003D01*
Y-5803D02*
X86102Y-5702D01*
X86203D01*
X86102Y-5600D01*
X86203Y-5498D01*
X86102D01*
X86000Y-5397D01*
X85898Y-5498D01*
X85797D01*
X85898Y-5600D01*
X85797Y-5702D01*
X85898D01*
X86000Y-5803D01*
X87600Y-3403D02*
X87702Y-3302D01*
X87803D01*
X87702Y-3200D01*
X87803Y-3098D01*
X87702D01*
X87600Y-2997D01*
X87498Y-3098D01*
X87397D01*
X87498Y-3200D01*
X87397Y-3302D01*
X87498D01*
X87600Y-3403D01*
X86800Y-3403D02*
X86902Y-3302D01*
X87003D01*
X86902Y-3200D01*
X87003Y-3098D01*
X86902D01*
X86800Y-2997D01*
X86698Y-3098D01*
X86597D01*
X86698Y-3200D01*
X86597Y-3302D01*
X86698D01*
X86800Y-3403D01*
Y-2603D02*
X86902Y-2502D01*
X87003D01*
X86902Y-2400D01*
X87003Y-2298D01*
X86902D01*
X86800Y-2197D01*
X86698Y-2298D01*
X86597D01*
X86698Y-2400D01*
X86597Y-2502D01*
X86698D01*
X86800Y-2603D01*
Y-1003D02*
X86902Y-902D01*
X87003D01*
X86902Y-800D01*
X87003Y-698D01*
X86902D01*
X86800Y-597D01*
X86698Y-698D01*
X86597D01*
X86698Y-800D01*
X86597Y-902D01*
X86698D01*
X86800Y-1003D01*
X86000Y597D02*
X86102Y698D01*
X86203D01*
X86102Y800D01*
X86203Y902D01*
X86102D01*
X86000Y1003D01*
X85898Y902D01*
X85797D01*
X85898Y800D01*
X85797Y698D01*
X85898D01*
X86000Y597D01*
X86800D02*
X86902Y698D01*
X87003D01*
X86902Y800D01*
X87003Y902D01*
X86902D01*
X86800Y1003D01*
X86698Y902D01*
X86597D01*
X86698Y800D01*
X86597Y698D01*
X86698D01*
X86800Y597D01*
Y-203D02*
X86902Y-102D01*
X87003D01*
X86902Y-0D01*
X87003Y102D01*
X86902D01*
X86800Y203D01*
X86698Y102D01*
X86597D01*
X86698Y-0D01*
X86597Y-102D01*
X86698D01*
X86800Y-203D01*
X96400Y2997D02*
X96502Y3098D01*
X96603D01*
X96502Y3200D01*
X96603Y3302D01*
X96502D01*
X96400Y3403D01*
X96298Y3302D01*
X96197D01*
X96298Y3200D01*
X96197Y3098D01*
X96298D01*
X96400Y2997D01*
X56547Y-1453D02*
Y-1047D01*
X56953D01*
Y-1453D01*
X56547D01*
X56648Y-1352D02*
Y-1148D01*
X56852D01*
Y-1352D01*
X56648D01*
X57547Y-453D02*
Y-47D01*
X57953D01*
Y-453D01*
X57547D01*
X57648Y-352D02*
Y-148D01*
X57852D01*
Y-352D01*
X57648D01*
X56547Y-953D02*
Y-547D01*
X56953D01*
Y-953D01*
X56547D01*
X56648Y-852D02*
Y-648D01*
X56852D01*
Y-852D01*
X56648D01*
X56547Y-1953D02*
Y-1547D01*
X56953D01*
Y-1953D01*
X56547D01*
X56648Y-1852D02*
Y-1648D01*
X56852D01*
Y-1852D01*
X56648D01*
X56047Y-953D02*
Y-547D01*
X56453D01*
Y-953D01*
X56047D01*
X56148Y-852D02*
Y-648D01*
X56352D01*
Y-852D01*
X56148D01*
X56547Y-453D02*
Y-47D01*
X56953D01*
Y-453D01*
X56547D01*
X56648Y-352D02*
Y-148D01*
X56852D01*
Y-352D01*
X56648D01*
X56547Y47D02*
Y453D01*
X56953D01*
Y47D01*
X56547D01*
X56648Y148D02*
Y352D01*
X56852D01*
Y148D01*
X56648D01*
X86800Y-4203D02*
X86902Y-4102D01*
X87003D01*
X86902Y-4000D01*
X87003Y-3898D01*
X86902D01*
X86800Y-3797D01*
X86698Y-3898D01*
X86597D01*
X86698Y-4000D01*
X86597Y-4102D01*
X86698D01*
X86800Y-4203D01*
Y-5003D02*
X86902Y-4902D01*
X87003D01*
X86902Y-4800D01*
X87003Y-4698D01*
X86902D01*
X86800Y-4597D01*
X86698Y-4698D01*
X86597D01*
X86698Y-4800D01*
X86597Y-4902D01*
X86698D01*
X86800Y-5003D01*
X58047Y47D02*
Y453D01*
X58453D01*
Y47D01*
X58047D01*
X58148Y148D02*
Y352D01*
X58352D01*
Y148D01*
X58148D01*
X58547Y2047D02*
Y2453D01*
X58953D01*
Y2047D01*
X58547D01*
X58648Y2148D02*
Y2352D01*
X58852D01*
Y2148D01*
X58648D01*
X58047Y2047D02*
Y2453D01*
X58453D01*
Y2047D01*
X58047D01*
X58148Y2148D02*
Y2352D01*
X58352D01*
Y2148D01*
X58148D01*
X94800Y-3403D02*
X94902Y-3302D01*
X95003D01*
X94902Y-3200D01*
X95003Y-3098D01*
X94902D01*
X94800Y-2997D01*
X94698Y-3098D01*
X94597D01*
X94698Y-3200D01*
X94597Y-3302D01*
X94698D01*
X94800Y-3403D01*
Y-1003D02*
X94902Y-902D01*
X95003D01*
X94902Y-800D01*
X95003Y-698D01*
X94902D01*
X94800Y-597D01*
X94698Y-698D01*
X94597D01*
X94698Y-800D01*
X94597Y-902D01*
X94698D01*
X94800Y-1003D01*
Y-1803D02*
X94902Y-1702D01*
X95003D01*
X94902Y-1600D01*
X95003Y-1498D01*
X94902D01*
X94800Y-1397D01*
X94698Y-1498D01*
X94597D01*
X94698Y-1600D01*
X94597Y-1702D01*
X94698D01*
X94800Y-1803D01*
Y-2603D02*
X94902Y-2502D01*
X95003D01*
X94902Y-2400D01*
X95003Y-2298D01*
X94902D01*
X94800Y-2197D01*
X94698Y-2298D01*
X94597D01*
X94698Y-2400D01*
X94597Y-2502D01*
X94698D01*
X94800Y-2603D01*
X95600Y-4203D02*
X95702Y-4102D01*
X95803D01*
X95702Y-4000D01*
X95803Y-3898D01*
X95702D01*
X95600Y-3797D01*
X95498Y-3898D01*
X95397D01*
X95498Y-4000D01*
X95397Y-4102D01*
X95498D01*
X95600Y-4203D01*
Y-1003D02*
X95702Y-902D01*
X95803D01*
X95702Y-800D01*
X95803Y-698D01*
X95702D01*
X95600Y-597D01*
X95498Y-698D01*
X95397D01*
X95498Y-800D01*
X95397Y-902D01*
X95498D01*
X95600Y-1003D01*
X96400Y-1803D02*
X96502Y-1702D01*
X96603D01*
X96502Y-1600D01*
X96603Y-1499D01*
X96502D01*
X96400Y-1397D01*
X96298Y-1499D01*
X96197D01*
X96298Y-1600D01*
X96197Y-1702D01*
X96298D01*
X96400Y-1803D01*
X95600Y-1803D02*
X95702Y-1702D01*
X95803D01*
X95702Y-1600D01*
X95803Y-1498D01*
X95702D01*
X95600Y-1397D01*
X95498Y-1498D01*
X95397D01*
X95498Y-1600D01*
X95397Y-1702D01*
X95498D01*
X95600Y-1803D01*
X96400Y-1003D02*
X96502Y-902D01*
X96603D01*
X96502Y-800D01*
X96603Y-698D01*
X96502D01*
X96400Y-597D01*
X96298Y-698D01*
X96197D01*
X96298Y-800D01*
X96197Y-902D01*
X96298D01*
X96400Y-1003D01*
X95600Y-3403D02*
X95702Y-3302D01*
X95803D01*
X95702Y-3200D01*
X95803Y-3098D01*
X95702D01*
X95600Y-2997D01*
X95498Y-3098D01*
X95397D01*
X95498Y-3200D01*
X95397Y-3302D01*
X95498D01*
X95600Y-3403D01*
X96400Y-3403D02*
X96502Y-3302D01*
X96603D01*
X96502Y-3200D01*
X96603Y-3099D01*
X96502D01*
X96400Y-2997D01*
X96298Y-3099D01*
X96197D01*
X96298Y-3200D01*
X96197Y-3302D01*
X96298D01*
X96400Y-3403D01*
X95600Y-2603D02*
X95702Y-2502D01*
X95803D01*
X95702Y-2400D01*
X95803Y-2298D01*
X95702D01*
X95600Y-2197D01*
X95498Y-2298D01*
X95397D01*
X95498Y-2400D01*
X95397Y-2502D01*
X95498D01*
X95600Y-2603D01*
X96400D02*
X96502Y-2502D01*
X96603D01*
X96502Y-2400D01*
X96603Y-2298D01*
X96502D01*
X96400Y-2197D01*
X96298Y-2298D01*
X96197D01*
X96298Y-2400D01*
X96197Y-2502D01*
X96298D01*
X96400Y-2603D01*
X55547Y2547D02*
Y2953D01*
X55953D01*
Y2547D01*
X55547D01*
X55648Y2648D02*
Y2852D01*
X55852D01*
Y2648D01*
X55648D01*
X96400Y-4203D02*
X96502Y-4102D01*
X96603D01*
X96502Y-4000D01*
X96603Y-3898D01*
X96502D01*
X96400Y-3797D01*
X96298Y-3898D01*
X96197D01*
X96298Y-4000D01*
X96197Y-4102D01*
X96298D01*
X96400Y-4203D01*
Y-5003D02*
X96502Y-4902D01*
X96603D01*
X96502Y-4800D01*
X96603Y-4698D01*
X96502D01*
X96400Y-4597D01*
X96298Y-4698D01*
X96197D01*
X96298Y-4800D01*
X96197Y-4902D01*
X96298D01*
X96400Y-5003D01*
X95600D02*
X95702Y-4902D01*
X95803D01*
X95702Y-4800D01*
X95803Y-4698D01*
X95702D01*
X95600Y-4597D01*
X95498Y-4698D01*
X95397D01*
X95498Y-4800D01*
X95397Y-4902D01*
X95498D01*
X95600Y-5003D01*
X71547Y-2953D02*
Y-2547D01*
X71953D01*
Y-2953D01*
X71547D01*
X71648Y-2852D02*
Y-2648D01*
X71852D01*
Y-2852D01*
X71648D01*
X87600Y2997D02*
X87702Y3098D01*
X87803D01*
X87702Y3200D01*
X87803Y3302D01*
X87702D01*
X87600Y3403D01*
X87498Y3302D01*
X87397D01*
X87498Y3200D01*
X87397Y3098D01*
X87498D01*
X87600Y2997D01*
X92400Y-1003D02*
X92502Y-902D01*
X92603D01*
X92502Y-800D01*
X92603Y-698D01*
X92502D01*
X92400Y-597D01*
X92298Y-698D01*
X92197D01*
X92298Y-800D01*
X92197Y-902D01*
X92298D01*
X92400Y-1003D01*
X91600D02*
X91702Y-902D01*
X91803D01*
X91702Y-800D01*
X91803Y-698D01*
X91702D01*
X91600Y-597D01*
X91498Y-698D01*
X91397D01*
X91498Y-800D01*
X91397Y-902D01*
X91498D01*
X91600Y-1003D01*
X93200Y-1003D02*
X93302Y-902D01*
X93403D01*
X93302Y-800D01*
X93403Y-698D01*
X93302D01*
X93200Y-597D01*
X93098Y-698D01*
X92997D01*
X93098Y-800D01*
X92997Y-902D01*
X93098D01*
X93200Y-1003D01*
X57047Y-1953D02*
Y-1547D01*
X57453D01*
Y-1953D01*
X57047D01*
X57148Y-1852D02*
Y-1648D01*
X57352D01*
Y-1852D01*
X57148D01*
X71047Y-3453D02*
Y-3047D01*
X71453D01*
Y-3453D01*
X71047D01*
X71148Y-3352D02*
Y-3148D01*
X71352D01*
Y-3352D01*
X71148D01*
X86000Y2197D02*
X86102Y2298D01*
X86203D01*
X86102Y2400D01*
X86203Y2502D01*
X86102D01*
X86000Y2603D01*
X85898Y2502D01*
X85797D01*
X85898Y2400D01*
X85797Y2298D01*
X85898D01*
X86000Y2197D01*
X52547Y3047D02*
Y3453D01*
X52953D01*
Y3047D01*
X52547D01*
X52648Y3148D02*
Y3352D01*
X52852D01*
Y3148D01*
X52648D01*
X55547Y3047D02*
Y3453D01*
X55953D01*
Y3047D01*
X55547D01*
X55648Y3148D02*
Y3352D01*
X55852D01*
Y3148D01*
X55648D01*
X56547Y2547D02*
Y2953D01*
X56953D01*
Y2547D01*
X56547D01*
X56648Y2648D02*
Y2852D01*
X56852D01*
Y2648D01*
X56648D01*
X56547Y3047D02*
Y3453D01*
X56953D01*
Y3047D01*
X56547D01*
X56648Y3148D02*
Y3352D01*
X56852D01*
Y3148D01*
X56648D01*
X55047Y-2953D02*
Y-2547D01*
X55453D01*
Y-2953D01*
X55047D01*
X55148Y-2852D02*
Y-2648D01*
X55352D01*
Y-2852D01*
X55148D01*
X55047Y-3453D02*
Y-3047D01*
X55453D01*
Y-3453D01*
X55047D01*
X55148Y-3352D02*
Y-3148D01*
X55352D01*
Y-3352D01*
X55148D01*
X53047Y2047D02*
Y2453D01*
X53453D01*
Y2047D01*
X53047D01*
X53148Y2148D02*
Y2352D01*
X53352D01*
Y2148D01*
X53148D01*
X53047Y3047D02*
Y3453D01*
X53453D01*
Y3047D01*
X53047D01*
X53148Y3148D02*
Y3352D01*
X53352D01*
Y3148D01*
X53148D01*
X53547Y2547D02*
Y2953D01*
X53953D01*
Y2547D01*
X53547D01*
X53648Y2648D02*
Y2852D01*
X53852D01*
Y2648D01*
X53648D01*
X54047Y3047D02*
Y3453D01*
X54453D01*
Y3047D01*
X54047D01*
X54148Y3148D02*
Y3352D01*
X54352D01*
Y3148D01*
X54148D01*
X58547Y3547D02*
Y3953D01*
X58953D01*
Y3547D01*
X58547D01*
X58648Y3648D02*
Y3852D01*
X58852D01*
Y3648D01*
X58648D01*
X58549Y4047D02*
Y4453D01*
X58955D01*
Y4047D01*
X58549D01*
X58650Y4148D02*
Y4352D01*
X58854D01*
Y4148D01*
X58650D01*
X58547Y2547D02*
Y2953D01*
X58953D01*
Y2547D01*
X58547D01*
X58648Y2648D02*
Y2852D01*
X58852D01*
Y2648D01*
X58648D01*
X59047Y2547D02*
Y2953D01*
X59453D01*
Y2547D01*
X59047D01*
X59148Y2648D02*
Y2852D01*
X59352D01*
Y2648D01*
X59148D01*
X59547Y4047D02*
Y4453D01*
X59953D01*
Y4047D01*
X59547D01*
X59648Y4148D02*
Y4352D01*
X59852D01*
Y4148D01*
X59648D01*
X60047Y4047D02*
Y4453D01*
X60453D01*
Y4047D01*
X60047D01*
X60148Y4148D02*
Y4352D01*
X60352D01*
Y4148D01*
X60148D01*
X59547Y3047D02*
Y3453D01*
X59953D01*
Y3047D01*
X59547D01*
X59648Y3148D02*
Y3352D01*
X59852D01*
Y3148D01*
X59648D01*
X60047Y3047D02*
Y3453D01*
X60453D01*
Y3047D01*
X60047D01*
X60148Y3148D02*
Y3352D01*
X60352D01*
Y3148D01*
X60148D01*
X74547Y3547D02*
Y3953D01*
X74953D01*
Y3547D01*
X74547D01*
X74648Y3648D02*
Y3852D01*
X74852D01*
Y3648D01*
X74648D01*
X74047Y4047D02*
Y4453D01*
X74453D01*
Y4047D01*
X74047D01*
X74148Y4148D02*
Y4352D01*
X74352D01*
Y4148D01*
X74148D01*
X76547Y3547D02*
Y3953D01*
X76953D01*
Y3547D01*
X76547D01*
X76648Y3648D02*
Y3852D01*
X76852D01*
Y3648D01*
X76648D01*
X76047Y4047D02*
Y4453D01*
X76453D01*
Y4047D01*
X76047D01*
X76148Y4148D02*
Y4352D01*
X76352D01*
Y4148D01*
X76148D01*
X78047Y1547D02*
Y1953D01*
X78453D01*
Y1547D01*
X78047D01*
X78148Y1648D02*
Y1852D01*
X78352D01*
Y1648D01*
X78148D01*
X78547Y1547D02*
Y1953D01*
X78953D01*
Y1547D01*
X78547D01*
X78648Y1648D02*
Y1852D01*
X78852D01*
Y1648D01*
X78648D01*
X78547Y-1953D02*
Y-1547D01*
X78953D01*
Y-1953D01*
X78547D01*
X78648Y-1852D02*
Y-1648D01*
X78852D01*
Y-1852D01*
X78648D01*
X79047Y-1453D02*
Y-1047D01*
X79453D01*
Y-1453D01*
X79047D01*
X79148Y-1352D02*
Y-1148D01*
X79352D01*
Y-1352D01*
X79148D01*
X76547Y-3953D02*
Y-3547D01*
X76953D01*
Y-3953D01*
X76547D01*
X76648Y-3852D02*
Y-3648D01*
X76852D01*
Y-3852D01*
X76648D01*
X77047Y-4453D02*
Y-4047D01*
X77453D01*
Y-4453D01*
X77047D01*
X77148Y-4352D02*
Y-4148D01*
X77352D01*
Y-4352D01*
X77148D01*
X73547Y-3953D02*
Y-3547D01*
X73953D01*
Y-3953D01*
X73547D01*
X73648Y-3852D02*
Y-3648D01*
X73852D01*
Y-3852D01*
X73648D01*
X74047Y-4453D02*
Y-4047D01*
X74453D01*
Y-4453D01*
X74047D01*
X74148Y-4352D02*
Y-4148D01*
X74352D01*
Y-4352D01*
X74148D01*
X75547Y3547D02*
Y3953D01*
X75953D01*
Y3547D01*
X75547D01*
X75648Y3648D02*
Y3852D01*
X75852D01*
Y3648D01*
X75648D01*
X75047Y4047D02*
Y4453D01*
X75453D01*
Y4047D01*
X75047D01*
X75148Y4148D02*
Y4352D01*
X75352D01*
Y4148D01*
X75148D01*
X77547Y3547D02*
Y3953D01*
X77953D01*
Y3547D01*
X77547D01*
X77648Y3648D02*
Y3852D01*
X77852D01*
Y3648D01*
X77648D01*
X77047Y4047D02*
Y4453D01*
X77453D01*
Y4047D01*
X77047D01*
X77148Y4148D02*
Y4352D01*
X77352D01*
Y4148D01*
X77148D01*
X78547Y547D02*
Y953D01*
X78953D01*
Y547D01*
X78547D01*
X78648Y648D02*
Y852D01*
X78852D01*
Y648D01*
X78648D01*
X79047Y47D02*
Y453D01*
X79453D01*
Y47D01*
X79047D01*
X79148Y148D02*
Y352D01*
X79352D01*
Y148D01*
X79148D01*
X78047Y-2953D02*
Y-2547D01*
X78453D01*
Y-2953D01*
X78047D01*
X78148Y-2852D02*
Y-2648D01*
X78352D01*
Y-2852D01*
X78148D01*
X78547Y-2953D02*
Y-2547D01*
X78953D01*
Y-2953D01*
X78547D01*
X78648Y-2852D02*
Y-2648D01*
X78852D01*
Y-2852D01*
X78648D01*
X75547Y-3953D02*
Y-3547D01*
X75953D01*
Y-3953D01*
X75547D01*
X75648Y-3852D02*
Y-3648D01*
X75852D01*
Y-3852D01*
X75648D01*
X76047Y-4453D02*
Y-4047D01*
X76453D01*
Y-4453D01*
X76047D01*
X76148Y-4352D02*
Y-4148D01*
X76352D01*
Y-4352D01*
X76148D01*
X72547Y-3953D02*
Y-3547D01*
X72953D01*
Y-3953D01*
X72547D01*
X72648Y-3852D02*
Y-3648D01*
X72852D01*
Y-3852D01*
X72648D01*
X73047Y-4453D02*
Y-4047D01*
X73453D01*
Y-4453D01*
X73047D01*
X73148Y-4352D02*
Y-4148D01*
X73352D01*
Y-4352D01*
X73148D01*
X70397Y797D02*
Y1203D01*
X70803D01*
Y797D01*
X70397D01*
X70498Y898D02*
Y1102D01*
X70702D01*
Y898D01*
X70498D01*
X70397Y297D02*
Y703D01*
X70803D01*
Y297D01*
X70397D01*
X70498Y398D02*
Y602D01*
X70702D01*
Y398D01*
X70498D01*
X90000Y-5803D02*
X90102Y-5702D01*
X90203D01*
X90102Y-5600D01*
X90203Y-5498D01*
X90102D01*
X90000Y-5397D01*
X89898Y-5498D01*
X89797D01*
X89898Y-5600D01*
X89797Y-5702D01*
X89898D01*
X90000Y-5803D01*
X59547Y-4453D02*
Y-4047D01*
X59953D01*
Y-4453D01*
X59547D01*
X59648Y-4352D02*
Y-4148D01*
X59852D01*
Y-4352D01*
X59648D01*
X89200Y-5803D02*
X89302Y-5702D01*
X89403D01*
X89302Y-5600D01*
X89403Y-5498D01*
X89302D01*
X89200Y-5397D01*
X89098Y-5498D01*
X88997D01*
X89098Y-5600D01*
X88997Y-5702D01*
X89098D01*
X89200Y-5803D01*
X90000Y-5003D02*
X90101Y-4902D01*
X90203D01*
X90101Y-4800D01*
X90203Y-4698D01*
X90101D01*
X90000Y-4597D01*
X89898Y-4698D01*
X89797D01*
X89898Y-4800D01*
X89797Y-4902D01*
X89898D01*
X90000Y-5003D01*
X59547Y-3953D02*
Y-3547D01*
X59953D01*
Y-3953D01*
X59547D01*
X59648Y-3852D02*
Y-3648D01*
X59852D01*
Y-3852D01*
X59648D01*
X89200Y-5003D02*
X89301Y-4902D01*
X89403D01*
X89301Y-4800D01*
X89403Y-4698D01*
X89301D01*
X89200Y-4597D01*
X89098Y-4698D01*
X88997D01*
X89098Y-4800D01*
X88997Y-4902D01*
X89098D01*
X89200Y-5003D01*
X60047Y-3453D02*
Y-3047D01*
X60453D01*
Y-3453D01*
X60047D01*
X60148Y-3352D02*
Y-3148D01*
X60352D01*
Y-3352D01*
X60148D01*
X88400Y-5003D02*
X88502Y-4902D01*
X88603D01*
X88502Y-4800D01*
X88603Y-4698D01*
X88502D01*
X88400Y-4597D01*
X88298Y-4698D01*
X88197D01*
X88298Y-4800D01*
X88197Y-4902D01*
X88298D01*
X88400Y-5003D01*
X59547Y-3453D02*
Y-3047D01*
X59953D01*
Y-3453D01*
X59547D01*
X59648Y-3352D02*
Y-3148D01*
X59852D01*
Y-3352D01*
X59648D01*
X88400Y-4203D02*
X88502Y-4102D01*
X88603D01*
X88502Y-4000D01*
X88603Y-3898D01*
X88502D01*
X88400Y-3797D01*
X88298Y-3898D01*
X88197D01*
X88298Y-4000D01*
X88197Y-4102D01*
X88298D01*
X88400Y-4203D01*
X72047Y-2953D02*
Y-2547D01*
X72453D01*
Y-2953D01*
X72047D01*
X72148Y-2852D02*
Y-2648D01*
X72352D01*
Y-2852D01*
X72148D01*
X54048Y1023D02*
Y1429D01*
X54454D01*
Y1023D01*
X54048D01*
X54149Y1125D02*
Y1328D01*
X54352D01*
Y1125D01*
X54149D01*
X71547Y-3953D02*
Y-3547D01*
X71953D01*
Y-3953D01*
X71547D01*
X71648Y-3852D02*
Y-3648D01*
X71852D01*
Y-3852D01*
X71648D01*
X54071Y2047D02*
Y2453D01*
X54478D01*
Y2047D01*
X54071D01*
X54173Y2148D02*
Y2352D01*
X54376D01*
Y2148D01*
X54173D01*
X71047Y-3953D02*
Y-3547D01*
X71453D01*
Y-3953D01*
X71047D01*
X71148Y-3852D02*
Y-3648D01*
X71352D01*
Y-3852D01*
X71148D01*
X54547Y1047D02*
Y1453D01*
X54953D01*
Y1047D01*
X54547D01*
X54648Y1148D02*
Y1352D01*
X54852D01*
Y1148D01*
X54648D01*
X54571Y2047D02*
Y2453D01*
X54978D01*
Y2047D01*
X54571D01*
X54673Y2148D02*
Y2352D01*
X54876D01*
Y2148D01*
X54673D01*
X55047Y-1453D02*
Y-1047D01*
X55453D01*
Y-1453D01*
X55047D01*
X55148Y-1352D02*
Y-1148D01*
X55352D01*
Y-1352D01*
X55148D01*
X54047Y-953D02*
Y-547D01*
X54453D01*
Y-953D01*
X54047D01*
X54148Y-852D02*
Y-648D01*
X54352D01*
Y-852D01*
X54148D01*
X76547Y-2953D02*
Y-2547D01*
X76953D01*
Y-2953D01*
X76547D01*
X76648Y-2852D02*
Y-2648D01*
X76852D01*
Y-2852D01*
X76648D01*
X75547Y-2953D02*
Y-2547D01*
X75953D01*
Y-2953D01*
X75547D01*
X75648Y-2852D02*
Y-2648D01*
X75852D01*
Y-2852D01*
X75648D01*
X74547Y-2453D02*
Y-2047D01*
X74953D01*
Y-2453D01*
X74547D01*
X74648Y-2352D02*
Y-2148D01*
X74852D01*
Y-2352D01*
X74648D01*
X77547Y-2953D02*
Y-2547D01*
X77953D01*
Y-2953D01*
X77547D01*
X77648Y-2852D02*
Y-2648D01*
X77852D01*
Y-2852D01*
X77648D01*
X78047Y547D02*
Y953D01*
X78453D01*
Y547D01*
X78047D01*
X78148Y648D02*
Y852D01*
X78352D01*
Y648D01*
X78148D01*
X51147Y2697D02*
Y3103D01*
X51553D01*
Y2697D01*
X51147D01*
X51248Y2798D02*
Y3002D01*
X51452D01*
Y2798D01*
X51248D01*
X56047Y-1953D02*
Y-1547D01*
X56453D01*
Y-1953D01*
X56047D01*
X56148Y-1852D02*
Y-1648D01*
X56352D01*
Y-1852D01*
X56148D01*
X55047Y-1953D02*
Y-1547D01*
X55453D01*
Y-1953D01*
X55047D01*
X55148Y-1852D02*
Y-1648D01*
X55352D01*
Y-1852D01*
X55148D01*
X54047Y-1953D02*
Y-1547D01*
X54453D01*
Y-1953D01*
X54047D01*
X54148Y-1852D02*
Y-1648D01*
X54352D01*
Y-1852D01*
X54148D01*
X58047Y-1953D02*
Y-1547D01*
X58453D01*
Y-1953D01*
X58047D01*
X58148Y-1852D02*
Y-1648D01*
X58352D01*
Y-1852D01*
X58148D01*
X58547Y-1953D02*
Y-1547D01*
X58953D01*
Y-1953D01*
X58547D01*
X58648Y-1852D02*
Y-1648D01*
X58852D01*
Y-1852D01*
X58648D01*
X56047Y2547D02*
Y2953D01*
X56453D01*
Y2547D01*
X56047D01*
X56148Y2648D02*
Y2852D01*
X56352D01*
Y2648D01*
X56148D01*
X57047Y2547D02*
Y2953D01*
X57453D01*
Y2547D01*
X57047D01*
X57148Y2648D02*
Y2852D01*
X57352D01*
Y2648D01*
X57148D01*
X58047Y2547D02*
Y2953D01*
X58453D01*
Y2547D01*
X58047D01*
X58148Y2648D02*
Y2852D01*
X58352D01*
Y2648D01*
X58148D01*
X58547Y3047D02*
Y3453D01*
X58953D01*
Y3047D01*
X58547D01*
X58648Y3148D02*
Y3352D01*
X58852D01*
Y3148D01*
X58648D01*
X59044Y3035D02*
Y3441D01*
X59451D01*
Y3035D01*
X59044D01*
X59146Y3136D02*
Y3340D01*
X59349D01*
Y3136D01*
X59146D01*
X59047Y3547D02*
Y3953D01*
X59453D01*
Y3547D01*
X59047D01*
X59148Y3648D02*
Y3852D01*
X59352D01*
Y3648D01*
X59148D01*
X59547Y3547D02*
Y3953D01*
X59953D01*
Y3547D01*
X59547D01*
X59648Y3648D02*
Y3852D01*
X59852D01*
Y3648D01*
X59648D01*
X59047Y4047D02*
Y4453D01*
X59453D01*
Y4047D01*
X59047D01*
X59148Y4148D02*
Y4352D01*
X59352D01*
Y4148D01*
X59148D01*
X59047Y47D02*
Y453D01*
X59453D01*
Y47D01*
X59047D01*
X59148Y148D02*
Y352D01*
X59352D01*
Y148D01*
X59148D01*
X59047Y-3453D02*
Y-3047D01*
X59453D01*
Y-3453D01*
X59047D01*
X59148Y-3352D02*
Y-3148D01*
X59352D01*
Y-3352D01*
X59148D01*
X59044Y-3974D02*
Y-3568D01*
X59451D01*
Y-3974D01*
X59044D01*
X59146Y-3872D02*
Y-3669D01*
X59349D01*
Y-3872D01*
X59146D01*
X55547Y-2953D02*
Y-2547D01*
X55953D01*
Y-2953D01*
X55547D01*
X55648Y-2852D02*
Y-2648D01*
X55852D01*
Y-2852D01*
X55648D01*
X53547Y-2953D02*
Y-2547D01*
X53953D01*
Y-2953D01*
X53547D01*
X53648Y-2852D02*
Y-2648D01*
X53852D01*
Y-2852D01*
X53648D01*
X58047Y3047D02*
Y3453D01*
X58453D01*
Y3047D01*
X58047D01*
X58148Y3148D02*
Y3352D01*
X58352D01*
Y3148D01*
X58148D01*
X55547Y547D02*
Y953D01*
X55953D01*
Y547D01*
X55547D01*
X55648Y648D02*
Y852D01*
X55852D01*
Y648D01*
X55648D01*
X57547Y1047D02*
Y1453D01*
X57953D01*
Y1047D01*
X57547D01*
X57648Y1148D02*
Y1352D01*
X57852D01*
Y1148D01*
X57648D01*
X51547Y1547D02*
Y1953D01*
X51953D01*
Y1547D01*
X51547D01*
X51648Y1648D02*
Y1852D01*
X51852D01*
Y1648D01*
X51648D01*
X52547Y-953D02*
Y-547D01*
X52953D01*
Y-953D01*
X52547D01*
X52648Y-852D02*
Y-648D01*
X52852D01*
Y-852D01*
X52648D01*
X52047Y-453D02*
Y-47D01*
X52453D01*
Y-453D01*
X52047D01*
X52148Y-352D02*
Y-148D01*
X52352D01*
Y-352D01*
X52148D01*
X52047Y-1453D02*
Y-1047D01*
X52453D01*
Y-1453D01*
X52047D01*
X52148Y-1352D02*
Y-1148D01*
X52352D01*
Y-1352D01*
X52148D01*
X55547Y47D02*
Y453D01*
X55953D01*
Y47D01*
X55547D01*
X55648Y148D02*
Y352D01*
X55852D01*
Y148D01*
X55648D01*
X56547Y547D02*
Y953D01*
X56953D01*
Y547D01*
X56547D01*
X56648Y648D02*
Y852D01*
X56852D01*
Y648D01*
X56648D01*
X55547Y1047D02*
Y1453D01*
X55953D01*
Y1047D01*
X55547D01*
X55648Y1148D02*
Y1352D01*
X55852D01*
Y1148D01*
X55648D01*
X51547Y-453D02*
Y-47D01*
X51953D01*
Y-453D01*
X51547D01*
X51648Y-352D02*
Y-148D01*
X51852D01*
Y-352D01*
X51648D01*
X52547Y-1953D02*
Y-1547D01*
X52953D01*
Y-1953D01*
X52547D01*
X52648Y-1852D02*
Y-1648D01*
X52852D01*
Y-1852D01*
X52648D01*
X57047Y547D02*
Y953D01*
X57453D01*
Y547D01*
X57047D01*
X57148Y648D02*
Y852D01*
X57352D01*
Y648D01*
X57148D01*
X52047Y1047D02*
Y1453D01*
X52453D01*
Y1047D01*
X52047D01*
X52148Y1148D02*
Y1352D01*
X52352D01*
Y1148D01*
X52148D01*
X55047Y547D02*
Y953D01*
X55453D01*
Y547D01*
X55047D01*
X55148Y648D02*
Y852D01*
X55352D01*
Y648D01*
X55148D01*
X52047Y-1953D02*
Y-1547D01*
X52453D01*
Y-1953D01*
X52047D01*
X52148Y-1852D02*
Y-1648D01*
X52352D01*
Y-1852D01*
X52148D01*
X55047Y47D02*
Y453D01*
X55453D01*
Y47D01*
X55047D01*
X55148Y148D02*
Y352D01*
X55352D01*
Y148D01*
X55148D01*
X54547Y47D02*
Y453D01*
X54953D01*
Y47D01*
X54547D01*
X54648Y148D02*
Y352D01*
X54852D01*
Y148D01*
X54648D01*
X53547Y1047D02*
Y1453D01*
X53953D01*
Y1047D01*
X53547D01*
X53648Y1148D02*
Y1352D01*
X53852D01*
Y1148D01*
X53648D01*
X52547Y-453D02*
Y-47D01*
X52953D01*
Y-453D01*
X52547D01*
X52648Y-352D02*
Y-148D01*
X52852D01*
Y-352D01*
X52648D01*
X56547Y1047D02*
Y1453D01*
X56953D01*
Y1047D01*
X56547D01*
X56648Y1148D02*
Y1352D01*
X56852D01*
Y1148D01*
X56648D01*
X54547Y547D02*
Y953D01*
X54953D01*
Y547D01*
X54547D01*
X54648Y648D02*
Y852D01*
X54852D01*
Y648D01*
X54648D01*
X57547Y547D02*
Y953D01*
X57953D01*
Y547D01*
X57547D01*
X57648Y648D02*
Y852D01*
X57852D01*
Y648D01*
X57648D01*
X53047Y547D02*
Y953D01*
X53453D01*
Y547D01*
X53047D01*
X53148Y648D02*
Y852D01*
X53352D01*
Y648D01*
X53148D01*
X52047Y-953D02*
Y-547D01*
X52453D01*
Y-953D01*
X52047D01*
X52148Y-852D02*
Y-648D01*
X52352D01*
Y-852D01*
X52148D01*
X52047Y547D02*
Y953D01*
X52453D01*
Y547D01*
X52047D01*
X52148Y648D02*
Y852D01*
X52352D01*
Y648D01*
X52148D01*
X55047Y1047D02*
Y1453D01*
X55453D01*
Y1047D01*
X55047D01*
X55148Y1148D02*
Y1352D01*
X55352D01*
Y1148D01*
X55148D01*
X57047Y1047D02*
Y1453D01*
X57453D01*
Y1047D01*
X57047D01*
X57148Y1148D02*
Y1352D01*
X57352D01*
Y1148D01*
X57148D01*
X58047Y547D02*
Y953D01*
X58453D01*
Y547D01*
X58047D01*
X58148Y648D02*
Y852D01*
X58352D01*
Y648D01*
X58148D01*
X53547Y547D02*
Y953D01*
X53953D01*
Y547D01*
X53547D01*
X53648Y648D02*
Y852D01*
X53852D01*
Y648D01*
X53648D01*
X58047Y1047D02*
Y1453D01*
X58453D01*
Y1047D01*
X58047D01*
X58148Y1148D02*
Y1352D01*
X58352D01*
Y1148D01*
X58148D01*
X52047Y47D02*
Y453D01*
X52453D01*
Y47D01*
X52047D01*
X52148Y148D02*
Y352D01*
X52352D01*
Y148D01*
X52148D01*
X59047Y-453D02*
Y-47D01*
X59453D01*
Y-453D01*
X59047D01*
X59148Y-352D02*
Y-148D01*
X59352D01*
Y-352D01*
X59148D01*
X59547Y-453D02*
Y-47D01*
X59953D01*
Y-453D01*
X59547D01*
X59648Y-352D02*
Y-148D01*
X59852D01*
Y-352D01*
X59648D01*
X59047Y-953D02*
Y-547D01*
X59453D01*
Y-953D01*
X59047D01*
X59148Y-852D02*
Y-648D01*
X59352D01*
Y-852D01*
X59148D01*
X59047Y-1453D02*
Y-1047D01*
X59453D01*
Y-1453D01*
X59047D01*
X59148Y-1352D02*
Y-1148D01*
X59352D01*
Y-1352D01*
X59148D01*
X73047Y-3953D02*
Y-3547D01*
X73453D01*
Y-3953D01*
X73047D01*
X73148Y-3852D02*
Y-3648D01*
X73352D01*
Y-3852D01*
X73148D01*
X74052Y-3958D02*
Y-3551D01*
X74459D01*
Y-3958D01*
X74052D01*
X74154Y-3856D02*
Y-3653D01*
X74357D01*
Y-3856D01*
X74154D01*
X76047Y-3953D02*
Y-3547D01*
X76453D01*
Y-3953D01*
X76047D01*
X76148Y-3852D02*
Y-3648D01*
X76352D01*
Y-3852D01*
X76148D01*
X77047Y-3953D02*
Y-3547D01*
X77453D01*
Y-3953D01*
X77047D01*
X77148Y-3852D02*
Y-3648D01*
X77352D01*
Y-3852D01*
X77148D01*
X78047Y-2453D02*
Y-2047D01*
X78453D01*
Y-2453D01*
X78047D01*
X78148Y-2352D02*
Y-2148D01*
X78352D01*
Y-2352D01*
X78148D01*
X78547Y-2453D02*
Y-2047D01*
X78953D01*
Y-2453D01*
X78547D01*
X78648Y-2352D02*
Y-2148D01*
X78852D01*
Y-2352D01*
X78648D01*
X78047Y-1953D02*
Y-1547D01*
X78453D01*
Y-1953D01*
X78047D01*
X78148Y-1852D02*
Y-1648D01*
X78352D01*
Y-1852D01*
X78148D01*
X78547Y-1453D02*
Y-1047D01*
X78953D01*
Y-1453D01*
X78547D01*
X78648Y-1352D02*
Y-1148D01*
X78852D01*
Y-1352D01*
X78648D01*
X78547Y47D02*
Y453D01*
X78953D01*
Y47D01*
X78547D01*
X78648Y148D02*
Y352D01*
X78852D01*
Y148D01*
X78648D01*
X78547Y1047D02*
Y1453D01*
X78953D01*
Y1047D01*
X78547D01*
X78648Y1148D02*
Y1352D01*
X78852D01*
Y1148D01*
X78648D01*
X78047Y1047D02*
Y1453D01*
X78453D01*
Y1047D01*
X78047D01*
X78148Y1148D02*
Y1352D01*
X78352D01*
Y1148D01*
X78148D01*
X77047Y3547D02*
Y3953D01*
X77453D01*
Y3547D01*
X77047D01*
X77148Y3648D02*
Y3852D01*
X77352D01*
Y3648D01*
X77148D01*
X76047Y3547D02*
Y3953D01*
X76453D01*
Y3547D01*
X76047D01*
X76148Y3648D02*
Y3852D01*
X76352D01*
Y3648D01*
X76148D01*
X75047Y3547D02*
Y3953D01*
X75453D01*
Y3547D01*
X75047D01*
X75148Y3648D02*
Y3852D01*
X75352D01*
Y3648D01*
X75148D01*
X74047Y3547D02*
Y3953D01*
X74453D01*
Y3547D01*
X74047D01*
X74148Y3648D02*
Y3852D01*
X74352D01*
Y3648D01*
X74148D01*
X77547Y3047D02*
Y3453D01*
X77953D01*
Y3047D01*
X77547D01*
X77648Y3148D02*
Y3352D01*
X77852D01*
Y3148D01*
X77648D01*
X76547Y3047D02*
Y3453D01*
X76953D01*
Y3047D01*
X76547D01*
X76648Y3148D02*
Y3352D01*
X76852D01*
Y3148D01*
X76648D01*
X75547Y3047D02*
Y3453D01*
X75953D01*
Y3047D01*
X75547D01*
X75648Y3148D02*
Y3352D01*
X75852D01*
Y3148D01*
X75648D01*
X74547Y3047D02*
Y3453D01*
X74953D01*
Y3047D01*
X74547D01*
X74648Y3148D02*
Y3352D01*
X74852D01*
Y3148D01*
X74648D01*
X72547Y-3453D02*
Y-3047D01*
X72953D01*
Y-3453D01*
X72547D01*
X72648Y-3352D02*
Y-3148D01*
X72852D01*
Y-3352D01*
X72648D01*
X73547Y-3453D02*
Y-3047D01*
X73953D01*
Y-3453D01*
X73547D01*
X73648Y-3352D02*
Y-3148D01*
X73852D01*
Y-3352D01*
X73648D01*
X75547Y-3453D02*
Y-3047D01*
X75953D01*
Y-3453D01*
X75547D01*
X75648Y-3352D02*
Y-3148D01*
X75852D01*
Y-3352D01*
X75648D01*
X76547Y-3453D02*
Y-3047D01*
X76953D01*
Y-3453D01*
X76547D01*
X76648Y-3352D02*
Y-3148D01*
X76852D01*
Y-3352D01*
X76648D01*
X74047Y1047D02*
Y1453D01*
X74453D01*
Y1047D01*
X74047D01*
X74148Y1148D02*
Y1352D01*
X74352D01*
Y1148D01*
X74148D01*
X71047Y1547D02*
Y1953D01*
X71453D01*
Y1547D01*
X71047D01*
X71148Y1648D02*
Y1852D01*
X71352D01*
Y1648D01*
X71148D01*
X71047Y-953D02*
Y-547D01*
X71453D01*
Y-953D01*
X71047D01*
X71148Y-852D02*
Y-648D01*
X71352D01*
Y-852D01*
X71148D01*
X71547Y-1953D02*
Y-1547D01*
X71953D01*
Y-1953D01*
X71547D01*
X71648Y-1852D02*
Y-1648D01*
X71852D01*
Y-1852D01*
X71648D01*
X73547Y547D02*
Y953D01*
X73953D01*
Y547D01*
X73547D01*
X73648Y648D02*
Y852D01*
X73852D01*
Y648D01*
X73648D01*
X73047Y547D02*
Y953D01*
X73453D01*
Y547D01*
X73047D01*
X73148Y648D02*
Y852D01*
X73352D01*
Y648D01*
X73148D01*
X75047Y1047D02*
Y1453D01*
X75453D01*
Y1047D01*
X75047D01*
X75148Y1148D02*
Y1352D01*
X75352D01*
Y1148D01*
X75148D01*
X70547Y-953D02*
Y-547D01*
X70953D01*
Y-953D01*
X70547D01*
X70648Y-852D02*
Y-648D01*
X70852D01*
Y-852D01*
X70648D01*
X71047Y-1953D02*
Y-1547D01*
X71453D01*
Y-1953D01*
X71047D01*
X71148Y-1852D02*
Y-1648D01*
X71352D01*
Y-1852D01*
X71148D01*
X73047Y-953D02*
Y-547D01*
X73453D01*
Y-953D01*
X73047D01*
X73148Y-852D02*
Y-648D01*
X73352D01*
Y-852D01*
X73148D01*
X71047Y1047D02*
Y1453D01*
X71453D01*
Y1047D01*
X71047D01*
X71148Y1148D02*
Y1352D01*
X71352D01*
Y1148D01*
X71148D01*
X77047Y547D02*
Y953D01*
X77453D01*
Y547D01*
X77047D01*
X77148Y648D02*
Y852D01*
X77352D01*
Y648D01*
X77148D01*
X75547Y547D02*
Y953D01*
X75953D01*
Y547D01*
X75547D01*
X75648Y648D02*
Y852D01*
X75852D01*
Y648D01*
X75648D01*
X71547Y-953D02*
Y-547D01*
X71953D01*
Y-953D01*
X71547D01*
X71648Y-852D02*
Y-648D01*
X71852D01*
Y-852D01*
X71648D01*
X75047Y547D02*
Y953D01*
X75453D01*
Y547D01*
X75047D01*
X75148Y648D02*
Y852D01*
X75352D01*
Y648D01*
X75148D01*
X77047Y1047D02*
Y1453D01*
X77453D01*
Y1047D01*
X77047D01*
X77148Y1148D02*
Y1352D01*
X77352D01*
Y1148D01*
X77148D01*
X76047Y1047D02*
Y1453D01*
X76453D01*
Y1047D01*
X76047D01*
X76148Y1148D02*
Y1352D01*
X76352D01*
Y1148D01*
X76148D01*
X70547Y1547D02*
Y1953D01*
X70953D01*
Y1547D01*
X70547D01*
X70648Y1648D02*
Y1852D01*
X70852D01*
Y1648D01*
X70648D01*
X71047Y-453D02*
Y-47D01*
X71453D01*
Y-453D01*
X71047D01*
X71148Y-352D02*
Y-148D01*
X71352D01*
Y-352D01*
X71148D01*
X77047Y47D02*
Y453D01*
X77453D01*
Y47D01*
X77047D01*
X77148Y148D02*
Y352D01*
X77352D01*
Y148D01*
X77148D01*
X76047Y547D02*
Y953D01*
X76453D01*
Y547D01*
X76047D01*
X76148Y648D02*
Y852D01*
X76352D01*
Y648D01*
X76148D01*
X75547Y1047D02*
Y1453D01*
X75953D01*
Y1047D01*
X75547D01*
X75648Y1148D02*
Y1352D01*
X75852D01*
Y1148D01*
X75648D01*
X71047Y547D02*
Y953D01*
X71453D01*
Y547D01*
X71047D01*
X71148Y648D02*
Y852D01*
X71352D01*
Y648D01*
X71148D01*
X70547Y-1953D02*
Y-1547D01*
X70953D01*
Y-1953D01*
X70547D01*
X70648Y-1852D02*
Y-1648D01*
X70852D01*
Y-1852D01*
X70648D01*
X73047Y47D02*
Y453D01*
X73453D01*
Y47D01*
X73047D01*
X73148Y148D02*
Y352D01*
X73352D01*
Y148D01*
X73148D01*
X76547Y47D02*
Y453D01*
X76953D01*
Y47D01*
X76547D01*
X76648Y148D02*
Y352D01*
X76852D01*
Y148D01*
X76648D01*
X76547Y547D02*
Y953D01*
X76953D01*
Y547D01*
X76547D01*
X76648Y648D02*
Y852D01*
X76852D01*
Y648D01*
X76648D01*
X70547Y-453D02*
Y-47D01*
X70953D01*
Y-453D01*
X70547D01*
X70648Y-352D02*
Y-148D01*
X70852D01*
Y-352D01*
X70648D01*
X74547Y547D02*
Y953D01*
X74953D01*
Y547D01*
X74547D01*
X74648Y648D02*
Y852D01*
X74852D01*
Y648D01*
X74648D01*
X73547Y1047D02*
Y1453D01*
X73953D01*
Y1047D01*
X73547D01*
X73648Y1148D02*
Y1352D01*
X73852D01*
Y1148D01*
X73648D01*
X74547Y1047D02*
Y1453D01*
X74953D01*
Y1047D01*
X74547D01*
X74648Y1148D02*
Y1352D01*
X74852D01*
Y1148D01*
X74648D01*
X76547Y1047D02*
Y1453D01*
X76953D01*
Y1047D01*
X76547D01*
X76648Y1148D02*
Y1352D01*
X76852D01*
Y1148D01*
X76648D01*
X72547Y1547D02*
Y1953D01*
X72953D01*
Y1547D01*
X72547D01*
X72648Y1648D02*
Y1852D01*
X72852D01*
Y1648D01*
X72648D01*
X72547Y1047D02*
Y1453D01*
X72953D01*
Y1047D01*
X72547D01*
X72648Y1148D02*
Y1352D01*
X72852D01*
Y1148D01*
X72648D01*
X87600Y-1003D02*
X87702Y-902D01*
X87803D01*
X87702Y-800D01*
X87803Y-698D01*
X87702D01*
X87600Y-597D01*
X87498Y-698D01*
X87397D01*
X87498Y-800D01*
X87397Y-902D01*
X87498D01*
X87600Y-1003D01*
X94000Y2997D02*
X94102Y3098D01*
X94203D01*
X94102Y3200D01*
X94203Y3302D01*
X94102D01*
X94000Y3403D01*
X93898Y3302D01*
X93797D01*
X93898Y3200D01*
X93797Y3098D01*
X93898D01*
X94000Y2997D01*
X93200Y2197D02*
X93302Y2298D01*
X93403D01*
X93302Y2400D01*
X93403Y2502D01*
X93302D01*
X93200Y2603D01*
X93098Y2502D01*
X92997D01*
X93098Y2400D01*
X92997Y2298D01*
X93098D01*
X93200Y2197D01*
Y-203D02*
X93302Y-102D01*
X93403D01*
X93302Y-0D01*
X93403Y102D01*
X93302D01*
X93200Y203D01*
X93098Y102D01*
X92997D01*
X93098Y-0D01*
X92997Y-102D01*
X93098D01*
X93200Y-203D01*
X89200Y2197D02*
X89302Y2298D01*
X89403D01*
X89302Y2400D01*
X89403Y2502D01*
X89302D01*
X89200Y2603D01*
X89098Y2502D01*
X88997D01*
X89098Y2400D01*
X88997Y2298D01*
X89098D01*
X89200Y2197D01*
X88400D02*
X88502Y2298D01*
X88603D01*
X88502Y2400D01*
X88603Y2502D01*
X88502D01*
X88400Y2603D01*
X88298Y2502D01*
X88197D01*
X88298Y2400D01*
X88197Y2298D01*
X88298D01*
X88400Y2197D01*
X94000Y2197D02*
X94102Y2298D01*
X94203D01*
X94102Y2400D01*
X94203Y2502D01*
X94102D01*
X94000Y2603D01*
X93898Y2502D01*
X93797D01*
X93898Y2400D01*
X93797Y2298D01*
X93898D01*
X94000Y2197D01*
X91600Y-5003D02*
X91702Y-4902D01*
X91803D01*
X91702Y-4800D01*
X91803Y-4698D01*
X91702D01*
X91600Y-4597D01*
X91498Y-4698D01*
X91397D01*
X91498Y-4800D01*
X91397Y-4902D01*
X91498D01*
X91600Y-5003D01*
X91600Y597D02*
X91702Y698D01*
X91803D01*
X91702Y800D01*
X91803Y902D01*
X91702D01*
X91600Y1003D01*
X91498Y902D01*
X91397D01*
X91498Y800D01*
X91397Y698D01*
X91498D01*
X91600Y597D01*
X87600Y-2603D02*
X87702Y-2502D01*
X87803D01*
X87702Y-2400D01*
X87803Y-2298D01*
X87702D01*
X87600Y-2197D01*
X87498Y-2298D01*
X87397D01*
X87498Y-2400D01*
X87397Y-2502D01*
X87498D01*
X87600Y-2603D01*
X90800Y-5003D02*
X90902Y-4902D01*
X91003D01*
X90902Y-4800D01*
X91003Y-4698D01*
X90902D01*
X90800Y-4597D01*
X90698Y-4698D01*
X90597D01*
X90698Y-4800D01*
X90597Y-4902D01*
X90698D01*
X90800Y-5003D01*
X91600Y-4203D02*
X91702Y-4102D01*
X91803D01*
X91702Y-4000D01*
X91803Y-3898D01*
X91702D01*
X91600Y-3797D01*
X91498Y-3898D01*
X91397D01*
X91498Y-4000D01*
X91397Y-4102D01*
X91498D01*
X91600Y-4203D01*
X88400Y597D02*
X88502Y698D01*
X88603D01*
X88502Y800D01*
X88603Y902D01*
X88502D01*
X88400Y1003D01*
X88298Y902D01*
X88197D01*
X88298Y800D01*
X88197Y698D01*
X88298D01*
X88400Y597D01*
X91600Y1397D02*
X91702Y1498D01*
X91803D01*
X91702Y1600D01*
X91803Y1702D01*
X91702D01*
X91600Y1803D01*
X91498Y1702D01*
X91397D01*
X91498Y1600D01*
X91397Y1498D01*
X91498D01*
X91600Y1397D01*
X87600Y597D02*
X87702Y698D01*
X87803D01*
X87702Y800D01*
X87803Y902D01*
X87702D01*
X87600Y1003D01*
X87498Y902D01*
X87397D01*
X87498Y800D01*
X87397Y698D01*
X87498D01*
X87600Y597D01*
X93200Y597D02*
X93302Y698D01*
X93403D01*
X93302Y800D01*
X93403Y902D01*
X93302D01*
X93200Y1003D01*
X93098Y902D01*
X92997D01*
X93098Y800D01*
X92997Y698D01*
X93098D01*
X93200Y597D01*
X90800Y-4203D02*
X90902Y-4102D01*
X91003D01*
X90902Y-4000D01*
X91003Y-3898D01*
X90902D01*
X90800Y-3797D01*
X90698Y-3898D01*
X90597D01*
X90698Y-4000D01*
X90597Y-4102D01*
X90698D01*
X90800Y-4203D01*
X88400Y1397D02*
X88502Y1498D01*
X88603D01*
X88502Y1600D01*
X88603Y1702D01*
X88502D01*
X88400Y1803D01*
X88298Y1702D01*
X88197D01*
X88298Y1600D01*
X88197Y1498D01*
X88298D01*
X88400Y1397D01*
X92400Y1397D02*
X92502Y1498D01*
X92603D01*
X92502Y1600D01*
X92603Y1702D01*
X92502D01*
X92400Y1803D01*
X92298Y1702D01*
X92197D01*
X92298Y1600D01*
X92197Y1498D01*
X92298D01*
X92400Y1397D01*
Y2197D02*
X92502Y2298D01*
X92603D01*
X92502Y2400D01*
X92603Y2502D01*
X92502D01*
X92400Y2603D01*
X92298Y2502D01*
X92197D01*
X92298Y2400D01*
X92197Y2298D01*
X92298D01*
X92400Y2197D01*
X89200Y1397D02*
X89302Y1498D01*
X89403D01*
X89302Y1600D01*
X89403Y1702D01*
X89302D01*
X89200Y1803D01*
X89098Y1702D01*
X88997D01*
X89098Y1600D01*
X88997Y1498D01*
X89098D01*
X89200Y1397D01*
X87600Y-203D02*
X87702Y-102D01*
X87803D01*
X87702Y-0D01*
X87803Y102D01*
X87702D01*
X87600Y203D01*
X87498Y102D01*
X87397D01*
X87498Y-0D01*
X87397Y-102D01*
X87498D01*
X87600Y-203D01*
X90000Y-4203D02*
X90102Y-4102D01*
X90203D01*
X90102Y-4000D01*
X90203Y-3898D01*
X90102D01*
X90000Y-3797D01*
X89898Y-3898D01*
X89797D01*
X89898Y-4000D01*
X89797Y-4102D01*
X89898D01*
X90000Y-4203D01*
X89200D02*
X89302Y-4102D01*
X89403D01*
X89302Y-4000D01*
X89403Y-3898D01*
X89302D01*
X89200Y-3797D01*
X89098Y-3898D01*
X88997D01*
X89098Y-4000D01*
X88997Y-4102D01*
X89098D01*
X89200Y-4203D01*
X87600Y-1803D02*
X87702Y-1702D01*
X87803D01*
X87702Y-1600D01*
X87803Y-1498D01*
X87702D01*
X87600Y-1397D01*
X87498Y-1498D01*
X87397D01*
X87498Y-1600D01*
X87397Y-1702D01*
X87498D01*
X87600Y-1803D01*
X90800Y-5803D02*
X90902Y-5702D01*
X91003D01*
X90902Y-5600D01*
X91003Y-5498D01*
X90902D01*
X90800Y-5397D01*
X90698Y-5498D01*
X90597D01*
X90698Y-5600D01*
X90597Y-5702D01*
X90698D01*
X90800Y-5803D01*
X93200Y2997D02*
X93302Y3098D01*
X93403D01*
X93302Y3200D01*
X93403Y3302D01*
X93302D01*
X93200Y3403D01*
X93098Y3302D01*
X92997D01*
X93098Y3200D01*
X92997Y3098D01*
X93098D01*
X93200Y2997D01*
X92400D02*
X92502Y3098D01*
X92603D01*
X92502Y3200D01*
X92603Y3302D01*
X92502D01*
X92400Y3403D01*
X92298Y3302D01*
X92197D01*
X92298Y3200D01*
X92197Y3098D01*
X92298D01*
X92400Y2997D01*
X90000Y2197D02*
X90102Y2298D01*
X90203D01*
X90102Y2400D01*
X90203Y2502D01*
X90102D01*
X90000Y2603D01*
X89898Y2502D01*
X89797D01*
X89898Y2400D01*
X89797Y2298D01*
X89898D01*
X90000Y2197D01*
X90000Y-203D02*
X90102Y-102D01*
X90203D01*
X90102Y-0D01*
X90203Y102D01*
X90102D01*
X90000Y203D01*
X89898Y102D01*
X89797D01*
X89898Y-0D01*
X89797Y-102D01*
X89898D01*
X90000Y-203D01*
X90800Y2197D02*
X90902Y2298D01*
X91003D01*
X90902Y2400D01*
X91003Y2502D01*
X90902D01*
X90800Y2603D01*
X90698Y2502D01*
X90597D01*
X90698Y2400D01*
X90597Y2298D01*
X90698D01*
X90800Y2197D01*
X91600Y-5803D02*
X91702Y-5702D01*
X91803D01*
X91702Y-5600D01*
X91803Y-5498D01*
X91702D01*
X91600Y-5397D01*
X91498Y-5498D01*
X91397D01*
X91498Y-5600D01*
X91397Y-5702D01*
X91498D01*
X91600Y-5803D01*
X90000Y597D02*
X90102Y698D01*
X90203D01*
X90102Y800D01*
X90203Y902D01*
X90102D01*
X90000Y1003D01*
X89898Y902D01*
X89797D01*
X89898Y800D01*
X89797Y698D01*
X89898D01*
X90000Y597D01*
X93200Y1397D02*
X93302Y1498D01*
X93403D01*
X93302Y1600D01*
X93403Y1702D01*
X93302D01*
X93200Y1803D01*
X93098Y1702D01*
X92997D01*
X93098Y1600D01*
X92997Y1498D01*
X93098D01*
X93200Y1397D01*
X94000D02*
X94102Y1498D01*
X94203D01*
X94102Y1600D01*
X94203Y1702D01*
X94102D01*
X94000Y1803D01*
X93898Y1702D01*
X93797D01*
X93898Y1600D01*
X93797Y1498D01*
X93898D01*
X94000Y1397D01*
X90000D02*
X90102Y1498D01*
X90203D01*
X90102Y1600D01*
X90203Y1702D01*
X90102D01*
X90000Y1803D01*
X89898Y1702D01*
X89797D01*
X89898Y1600D01*
X89797Y1498D01*
X89898D01*
X90000Y1397D01*
X92400Y597D02*
X92502Y698D01*
X92603D01*
X92502Y800D01*
X92603Y902D01*
X92502D01*
X92400Y1003D01*
X92298Y902D01*
X92197D01*
X92298Y800D01*
X92197Y698D01*
X92298D01*
X92400Y597D01*
X3500Y-24953D02*
X3297Y-24547D01*
X3703D01*
X3500Y-24953D01*
Y24547D02*
X3297Y24953D01*
X3703D01*
X3500Y24547D01*
X39600D02*
X39397Y24953D01*
X39803D01*
X39600Y24547D01*
Y-24953D02*
X39397Y-24547D01*
X39803D01*
X39600Y-24953D01*
X47100D02*
X46897Y-24547D01*
X47303D01*
X47100Y-24953D01*
Y24547D02*
X46897Y24953D01*
X47303D01*
X47100Y24547D01*
X83200D02*
X82997Y24953D01*
X83403D01*
X83200Y24547D01*
Y-24953D02*
X82997Y-24547D01*
X83403D01*
X83200Y-24953D01*
X90700Y24547D02*
X90497Y24953D01*
X90903D01*
X90700Y24547D01*
X126800Y-24953D02*
X126597Y-24547D01*
X127003D01*
X126800Y-24953D01*
X90700D02*
X90497Y-24547D01*
X90903D01*
X90700Y-24953D01*
X126800Y24547D02*
X126597Y24953D01*
X127003D01*
X126800Y24547D01*
X91600Y2197D02*
X91702Y2298D01*
X91803D01*
X91702Y2400D01*
X91803Y2502D01*
X91702D01*
X91600Y2603D01*
X91498Y2502D01*
X91397D01*
X91498Y2400D01*
X91397Y2298D01*
X91498D01*
X91600Y2197D01*
X57547Y2547D02*
Y2953D01*
X57953D01*
Y2547D01*
X57547D01*
X57648Y2648D02*
Y2852D01*
X57852D01*
Y2648D01*
X57648D01*
X57547Y3047D02*
Y3453D01*
X57953D01*
Y3047D01*
X57547D01*
X57648Y3148D02*
Y3352D01*
X57852D01*
Y3148D01*
X57648D01*
X56047Y-2953D02*
Y-2547D01*
X56453D01*
Y-2953D01*
X56047D01*
X56148Y-2852D02*
Y-2648D01*
X56352D01*
Y-2852D01*
X56148D01*
X56047Y-3453D02*
Y-3047D01*
X56453D01*
Y-3453D01*
X56047D01*
X56148Y-3352D02*
Y-3148D01*
X56352D01*
Y-3352D01*
X56148D01*
X54047Y-2953D02*
Y-2547D01*
X54453D01*
Y-2953D01*
X54047D01*
X54148Y-2852D02*
Y-2648D01*
X54352D01*
Y-2852D01*
X54148D01*
X54047Y-3453D02*
Y-3047D01*
X54453D01*
Y-3453D01*
X54047D01*
X54148Y-3352D02*
Y-3148D01*
X54352D01*
Y-3352D01*
X54148D01*
X58547Y-2953D02*
Y-2547D01*
X58953D01*
Y-2953D01*
X58547D01*
X58648Y-2852D02*
Y-2648D01*
X58852D01*
Y-2852D01*
X58648D01*
X58547Y-3453D02*
Y-3047D01*
X58953D01*
Y-3453D01*
X58547D01*
X58648Y-3352D02*
Y-3148D01*
X58852D01*
Y-3352D01*
X58648D01*
X57547Y-2953D02*
Y-2547D01*
X57953D01*
Y-2953D01*
X57547D01*
X57648Y-2852D02*
Y-2648D01*
X57852D01*
Y-2852D01*
X57648D01*
X57547Y-3453D02*
Y-3047D01*
X57953D01*
Y-3453D01*
X57547D01*
X57648Y-3352D02*
Y-3148D01*
X57852D01*
Y-3352D01*
X57648D01*
X56547Y-3953D02*
Y-3547D01*
X56953D01*
Y-3953D01*
X56547D01*
X56648Y-3852D02*
Y-3648D01*
X56852D01*
Y-3852D01*
X56648D01*
X56297Y-4603D02*
Y-4197D01*
X56703D01*
Y-4603D01*
X56297D01*
X56398Y-4502D02*
Y-4298D01*
X56602D01*
Y-4502D01*
X56398D01*
X55547Y-3953D02*
Y-3547D01*
X55953D01*
Y-3953D01*
X55547D01*
X55648Y-3852D02*
Y-3648D01*
X55852D01*
Y-3852D01*
X55648D01*
X55547Y-4453D02*
Y-4047D01*
X55953D01*
Y-4453D01*
X55547D01*
X55648Y-4352D02*
Y-4148D01*
X55852D01*
Y-4352D01*
X55648D01*
X53047Y-2953D02*
Y-2547D01*
X53453D01*
Y-2953D01*
X53047D01*
X53148Y-2852D02*
Y-2648D01*
X53352D01*
Y-2852D01*
X53148D01*
X53047Y-3453D02*
Y-3047D01*
X53453D01*
Y-3453D01*
X53047D01*
X53148Y-3352D02*
Y-3148D01*
X53352D01*
Y-3352D01*
X53148D01*
X53547Y-3953D02*
Y-3547D01*
X53953D01*
Y-3953D01*
X53547D01*
X53648Y-3852D02*
Y-3648D01*
X53852D01*
Y-3852D01*
X53648D01*
X53297Y-4603D02*
Y-4197D01*
X53703D01*
Y-4603D01*
X53297D01*
X53398Y-4502D02*
Y-4298D01*
X53602D01*
Y-4502D01*
X53398D01*
X93200Y-2603D02*
X93302Y-2502D01*
X93403D01*
X93302Y-2400D01*
X93403Y-2298D01*
X93302D01*
X93200Y-2197D01*
X93098Y-2298D01*
X92997D01*
X93098Y-2400D01*
X92997Y-2502D01*
X93098D01*
X93200Y-2603D01*
Y-1803D02*
X93302Y-1702D01*
X93403D01*
X93302Y-1600D01*
X93403Y-1498D01*
X93302D01*
X93200Y-1397D01*
X93098Y-1498D01*
X92997D01*
X93098Y-1600D01*
X92997Y-1702D01*
X93098D01*
X93200Y-1803D01*
X92400Y-1803D02*
X92502Y-1702D01*
X92603D01*
X92502Y-1600D01*
X92603Y-1498D01*
X92502D01*
X92400Y-1397D01*
X92298Y-1498D01*
X92197D01*
X92298Y-1600D01*
X92197Y-1702D01*
X92298D01*
X92400Y-1803D01*
X93200Y-3403D02*
X93302Y-3302D01*
X93403D01*
X93302Y-3200D01*
X93403Y-3098D01*
X93302D01*
X93200Y-2997D01*
X93098Y-3098D01*
X92997D01*
X93098Y-3200D01*
X92997Y-3302D01*
X93098D01*
X93200Y-3403D01*
X92400Y-2603D02*
X92502Y-2502D01*
X92603D01*
X92502Y-2400D01*
X92603Y-2298D01*
X92502D01*
X92400Y-2197D01*
X92298Y-2298D01*
X92197D01*
X92298Y-2400D01*
X92197Y-2502D01*
X92298D01*
X92400Y-2603D01*
Y-203D02*
X92502Y-102D01*
X92603D01*
X92502Y0D01*
X92603Y102D01*
X92502D01*
X92400Y203D01*
X92298Y102D01*
X92197D01*
X92298Y0D01*
X92197Y-102D01*
X92298D01*
X92400Y-203D01*
X94000Y-1803D02*
X94102Y-1702D01*
X94203D01*
X94102Y-1600D01*
X94203Y-1498D01*
X94102D01*
X94000Y-1397D01*
X93898Y-1498D01*
X93797D01*
X93898Y-1600D01*
X93797Y-1702D01*
X93898D01*
X94000Y-1803D01*
X91600Y-3403D02*
X91702Y-3302D01*
X91803D01*
X91702Y-3200D01*
X91803Y-3098D01*
X91702D01*
X91600Y-2997D01*
X91498Y-3098D01*
X91397D01*
X91498Y-3200D01*
X91397Y-3302D01*
X91498D01*
X91600Y-3403D01*
X90800Y-2603D02*
X90902Y-2502D01*
X91003D01*
X90902Y-2400D01*
X91003Y-2298D01*
X90902D01*
X90800Y-2197D01*
X90698Y-2298D01*
X90597D01*
X90698Y-2400D01*
X90597Y-2502D01*
X90698D01*
X90800Y-2603D01*
X90800Y-3403D02*
X90902Y-3302D01*
X91003D01*
X90902Y-3200D01*
X91003Y-3098D01*
X90902D01*
X90800Y-2997D01*
X90698Y-3098D01*
X90597D01*
X90698Y-3200D01*
X90597Y-3302D01*
X90698D01*
X90800Y-3403D01*
X90800Y-1003D02*
X90902Y-902D01*
X91003D01*
X90902Y-800D01*
X91003Y-698D01*
X90902D01*
X90800Y-597D01*
X90698Y-698D01*
X90597D01*
X90698Y-800D01*
X90597Y-902D01*
X90698D01*
X90800Y-1003D01*
Y-1803D02*
X90902Y-1702D01*
X91003D01*
X90902Y-1600D01*
X91003Y-1498D01*
X90902D01*
X90800Y-1397D01*
X90698Y-1498D01*
X90597D01*
X90698Y-1600D01*
X90597Y-1702D01*
X90698D01*
X90800Y-1803D01*
X91600Y-2603D02*
X91702Y-2502D01*
X91803D01*
X91702Y-2400D01*
X91803Y-2298D01*
X91702D01*
X91600Y-2197D01*
X91498Y-2298D01*
X91397D01*
X91498Y-2400D01*
X91397Y-2502D01*
X91498D01*
X91600Y-2603D01*
X94000Y-3403D02*
X94102Y-3302D01*
X94203D01*
X94102Y-3200D01*
X94203Y-3098D01*
X94102D01*
X94000Y-2997D01*
X93898Y-3098D01*
X93797D01*
X93898Y-3200D01*
X93797Y-3302D01*
X93898D01*
X94000Y-3403D01*
X91600Y-203D02*
X91702Y-102D01*
X91803D01*
X91702Y0D01*
X91803Y102D01*
X91702D01*
X91600Y203D01*
X91498Y102D01*
X91397D01*
X91498Y0D01*
X91397Y-102D01*
X91498D01*
X91600Y-203D01*
X91600Y-1803D02*
X91702Y-1702D01*
X91803D01*
X91702Y-1600D01*
X91803Y-1498D01*
X91702D01*
X91600Y-1397D01*
X91498Y-1498D01*
X91397D01*
X91498Y-1600D01*
X91397Y-1702D01*
X91498D01*
X91600Y-1803D01*
X88400Y-203D02*
X88502Y-102D01*
X88603D01*
X88502Y0D01*
X88603Y102D01*
X88502D01*
X88400Y203D01*
X88298Y102D01*
X88197D01*
X88298Y0D01*
X88197Y-102D01*
X88298D01*
X88400Y-203D01*
X89200Y-1803D02*
X89302Y-1702D01*
X89403D01*
X89302Y-1600D01*
X89403Y-1498D01*
X89302D01*
X89200Y-1397D01*
X89098Y-1498D01*
X88997D01*
X89098Y-1600D01*
X88997Y-1702D01*
X89098D01*
X89200Y-1803D01*
X88400Y-1003D02*
X88502Y-902D01*
X88603D01*
X88502Y-800D01*
X88603Y-698D01*
X88502D01*
X88400Y-597D01*
X88298Y-698D01*
X88197D01*
X88298Y-800D01*
X88197Y-902D01*
X88298D01*
X88400Y-1003D01*
X89200Y-3403D02*
X89302Y-3302D01*
X89403D01*
X89302Y-3200D01*
X89403Y-3098D01*
X89302D01*
X89200Y-2997D01*
X89098Y-3098D01*
X88997D01*
X89098Y-3200D01*
X88997Y-3302D01*
X89098D01*
X89200Y-3403D01*
X89200Y-1003D02*
X89302Y-902D01*
X89403D01*
X89302Y-800D01*
X89403Y-698D01*
X89302D01*
X89200Y-597D01*
X89098Y-698D01*
X88997D01*
X89098Y-800D01*
X88997Y-902D01*
X89098D01*
X89200Y-1003D01*
X88400Y-2603D02*
X88502Y-2502D01*
X88603D01*
X88502Y-2400D01*
X88603Y-2298D01*
X88502D01*
X88400Y-2197D01*
X88298Y-2298D01*
X88197D01*
X88298Y-2400D01*
X88197Y-2502D01*
X88298D01*
X88400Y-2603D01*
X89200Y597D02*
X89302Y698D01*
X89403D01*
X89302Y800D01*
X89403Y902D01*
X89302D01*
X89200Y1003D01*
X89098Y902D01*
X88997D01*
X89098Y800D01*
X88997Y698D01*
X89098D01*
X89200Y597D01*
X88400Y-1803D02*
X88502Y-1702D01*
X88603D01*
X88502Y-1600D01*
X88603Y-1498D01*
X88502D01*
X88400Y-1397D01*
X88298Y-1498D01*
X88197D01*
X88298Y-1600D01*
X88197Y-1702D01*
X88298D01*
X88400Y-1803D01*
X89200Y-2603D02*
X89302Y-2502D01*
X89403D01*
X89302Y-2400D01*
X89403Y-2298D01*
X89302D01*
X89200Y-2197D01*
X89098Y-2298D01*
X88997D01*
X89098Y-2400D01*
X88997Y-2502D01*
X89098D01*
X89200Y-2603D01*
X89200Y-203D02*
X89302Y-102D01*
X89403D01*
X89302Y0D01*
X89403Y102D01*
X89302D01*
X89200Y203D01*
X89098Y102D01*
X88997D01*
X89098Y0D01*
X88997Y-102D01*
X89098D01*
X89200Y-203D01*
X59047Y-1953D02*
Y-1547D01*
X59453D01*
Y-1953D01*
X59047D01*
X59148Y-1852D02*
Y-1648D01*
X59352D01*
Y-1852D01*
X59148D01*
X55547Y-953D02*
Y-547D01*
X55953D01*
Y-953D01*
X55547D01*
X55648Y-852D02*
Y-648D01*
X55852D01*
Y-852D01*
X55648D01*
X52547Y1047D02*
Y1453D01*
X52953D01*
Y1047D01*
X52547D01*
X52648Y1148D02*
Y1352D01*
X52852D01*
Y1148D01*
X52648D01*
X54047Y-453D02*
Y-47D01*
X54453D01*
Y-453D01*
X54047D01*
X54148Y-352D02*
Y-148D01*
X54352D01*
Y-352D01*
X54148D01*
X52547Y-1453D02*
Y-1047D01*
X52953D01*
Y-1453D01*
X52547D01*
X52648Y-1352D02*
Y-1148D01*
X52852D01*
Y-1352D01*
X52648D01*
X55047Y-953D02*
Y-547D01*
X55453D01*
Y-953D01*
X55047D01*
X55148Y-852D02*
Y-648D01*
X55352D01*
Y-852D01*
X55148D01*
X52547Y2047D02*
Y2453D01*
X52953D01*
Y2047D01*
X52547D01*
X52648Y2148D02*
Y2352D01*
X52852D01*
Y2148D01*
X52648D01*
X58047Y-953D02*
Y-547D01*
X58453D01*
Y-953D01*
X58047D01*
X58148Y-852D02*
Y-648D01*
X58352D01*
Y-852D01*
X58148D01*
X53047Y-953D02*
Y-547D01*
X53453D01*
Y-953D01*
X53047D01*
X53148Y-852D02*
Y-648D01*
X53352D01*
Y-852D01*
X53148D01*
X58047Y-453D02*
Y-47D01*
X58453D01*
Y-453D01*
X58047D01*
X58148Y-352D02*
Y-148D01*
X58352D01*
Y-352D01*
X58148D01*
X54047Y47D02*
Y453D01*
X54453D01*
Y47D01*
X54047D01*
X54148Y148D02*
Y352D01*
X54352D01*
Y148D01*
X54148D01*
X53047Y-1953D02*
Y-1547D01*
X53453D01*
Y-1953D01*
X53047D01*
X53148Y-1852D02*
Y-1648D01*
X53352D01*
Y-1852D01*
X53148D01*
X53047Y-1453D02*
Y-1047D01*
X53453D01*
Y-1453D01*
X53047D01*
X53148Y-1352D02*
Y-1148D01*
X53352D01*
Y-1352D01*
X53148D01*
X54547Y-453D02*
Y-47D01*
X54953D01*
Y-453D01*
X54547D01*
X54648Y-352D02*
Y-148D01*
X54852D01*
Y-352D01*
X54648D01*
X53047Y1047D02*
Y1453D01*
X53453D01*
Y1047D01*
X53047D01*
X53148Y1148D02*
Y1352D01*
X53352D01*
Y1148D01*
X53148D01*
X55547Y-453D02*
Y-47D01*
X55953D01*
Y-453D01*
X55547D01*
X55648Y-352D02*
Y-148D01*
X55852D01*
Y-352D01*
X55648D01*
X53047Y47D02*
Y453D01*
X53453D01*
Y47D01*
X53047D01*
X53148Y148D02*
Y352D01*
X53352D01*
Y148D01*
X53148D01*
X53047Y-453D02*
Y-47D01*
X53453D01*
Y-453D01*
X53047D01*
X53148Y-352D02*
Y-148D01*
X53352D01*
Y-352D01*
X53148D01*
X53547Y2047D02*
Y2453D01*
X53953D01*
Y2047D01*
X53547D01*
X53648Y2148D02*
Y2352D01*
X53852D01*
Y2148D01*
X53648D01*
X54547Y-953D02*
Y-547D01*
X54953D01*
Y-953D01*
X54547D01*
X54648Y-852D02*
Y-648D01*
X54852D01*
Y-852D01*
X54648D01*
X58047Y-1453D02*
Y-1047D01*
X58453D01*
Y-1453D01*
X58047D01*
X58148Y-1352D02*
Y-1148D01*
X58352D01*
Y-1352D01*
X58148D01*
X57547Y-1453D02*
Y-1047D01*
X57953D01*
Y-1453D01*
X57547D01*
X57648Y-1352D02*
Y-1148D01*
X57852D01*
Y-1352D01*
X57648D01*
X57547Y-953D02*
Y-547D01*
X57953D01*
Y-953D01*
X57547D01*
X57648Y-852D02*
Y-648D01*
X57852D01*
Y-852D01*
X57648D01*
X55047Y-453D02*
Y-47D01*
X55453D01*
Y-453D01*
X55047D01*
X55148Y-352D02*
Y-148D01*
X55352D01*
Y-352D01*
X55148D01*
X56047Y-453D02*
Y-47D01*
X56453D01*
Y-453D01*
X56047D01*
X56148Y-352D02*
Y-148D01*
X56352D01*
Y-352D01*
X56148D01*
X59547Y-1953D02*
Y-1547D01*
X59953D01*
Y-1953D01*
X59547D01*
X59648Y-1852D02*
Y-1648D01*
X59852D01*
Y-1852D01*
X59648D01*
X73547Y47D02*
Y453D01*
X73953D01*
Y47D01*
X73547D01*
X73648Y148D02*
Y352D01*
X73852D01*
Y148D01*
X73648D01*
X72047Y-1453D02*
Y-1047D01*
X72453D01*
Y-1453D01*
X72047D01*
X72148Y-1352D02*
Y-1148D01*
X72352D01*
Y-1352D01*
X72148D01*
X73547Y-453D02*
Y-47D01*
X73953D01*
Y-453D01*
X73547D01*
X73648Y-352D02*
Y-148D01*
X73852D01*
Y-352D01*
X73648D01*
X74547Y47D02*
Y453D01*
X74953D01*
Y47D01*
X74547D01*
X74648Y148D02*
Y352D01*
X74852D01*
Y148D01*
X74648D01*
X74547Y-453D02*
Y-47D01*
X74953D01*
Y-453D01*
X74547D01*
X74648Y-352D02*
Y-148D01*
X74852D01*
Y-352D01*
X74648D01*
X73047Y-453D02*
Y-47D01*
X73453D01*
Y-453D01*
X73047D01*
X73148Y-352D02*
Y-148D01*
X73352D01*
Y-352D01*
X73148D01*
X74047Y-953D02*
Y-547D01*
X74453D01*
Y-953D01*
X74047D01*
X74148Y-852D02*
Y-648D01*
X74352D01*
Y-852D01*
X74148D01*
X71547Y1547D02*
Y1953D01*
X71953D01*
Y1547D01*
X71547D01*
X71648Y1648D02*
Y1852D01*
X71852D01*
Y1648D01*
X71648D01*
X77047Y-1453D02*
Y-1047D01*
X77453D01*
Y-1453D01*
X77047D01*
X77148Y-1352D02*
Y-1148D01*
X77352D01*
Y-1352D01*
X77148D01*
X75047Y-1453D02*
Y-1047D01*
X75453D01*
Y-1453D01*
X75047D01*
X75148Y-1352D02*
Y-1148D01*
X75352D01*
Y-1352D01*
X75148D01*
X75547Y-1453D02*
Y-1047D01*
X75953D01*
Y-1453D01*
X75547D01*
X75648Y-1352D02*
Y-1148D01*
X75852D01*
Y-1352D01*
X75648D01*
X72047Y-1953D02*
Y-1547D01*
X72453D01*
Y-1953D01*
X72047D01*
X72148Y-1852D02*
Y-1648D01*
X72352D01*
Y-1852D01*
X72148D01*
X72047Y-953D02*
Y-547D01*
X72453D01*
Y-953D01*
X72047D01*
X72148Y-852D02*
Y-648D01*
X72352D01*
Y-852D01*
X72148D01*
X72047Y-453D02*
Y-47D01*
X72453D01*
Y-453D01*
X72047D01*
X72148Y-352D02*
Y-148D01*
X72352D01*
Y-352D01*
X72148D01*
X76547Y-953D02*
Y-547D01*
X76953D01*
Y-953D01*
X76547D01*
X76648Y-852D02*
Y-648D01*
X76852D01*
Y-852D01*
X76648D01*
X71547Y-453D02*
Y-47D01*
X71953D01*
Y-453D01*
X71547D01*
X71648Y-352D02*
Y-148D01*
X71852D01*
Y-352D01*
X71648D01*
X76547Y-1453D02*
Y-1047D01*
X76953D01*
Y-1453D01*
X76547D01*
X76648Y-1352D02*
Y-1148D01*
X76852D01*
Y-1352D01*
X76648D01*
X71547Y1047D02*
Y1453D01*
X71953D01*
Y1047D01*
X71547D01*
X71648Y1148D02*
Y1352D01*
X71852D01*
Y1148D01*
X71648D01*
X77047Y-953D02*
Y-547D01*
X77453D01*
Y-953D01*
X77047D01*
X77148Y-852D02*
Y-648D01*
X77352D01*
Y-852D01*
X77148D01*
X72547Y2047D02*
Y2453D01*
X72953D01*
Y2047D01*
X72547D01*
X72648Y2148D02*
Y2352D01*
X72852D01*
Y2148D01*
X72648D01*
X73547Y-953D02*
Y-547D01*
X73953D01*
Y-953D01*
X73547D01*
X73648Y-852D02*
Y-648D01*
X73852D01*
Y-852D01*
X73648D01*
X75547Y-953D02*
Y-547D01*
X75953D01*
Y-953D01*
X75547D01*
X75648Y-852D02*
Y-648D01*
X75852D01*
Y-852D01*
X75648D01*
X74547Y-953D02*
Y-547D01*
X74953D01*
Y-953D01*
X74547D01*
X74648Y-852D02*
Y-648D01*
X74852D01*
Y-852D01*
X74648D01*
X76547Y-453D02*
Y-47D01*
X76953D01*
Y-453D01*
X76547D01*
X76648Y-352D02*
Y-148D01*
X76852D01*
Y-352D01*
X76648D01*
X74047Y-453D02*
Y-47D01*
X74453D01*
Y-453D01*
X74047D01*
X74148Y-352D02*
Y-148D01*
X74352D01*
Y-352D01*
X74148D01*
X77047Y-453D02*
Y-47D01*
X77453D01*
Y-453D01*
X77047D01*
X77148Y-352D02*
Y-148D01*
X77352D01*
Y-352D01*
X77148D01*
X76047Y47D02*
Y453D01*
X76453D01*
Y47D01*
X76047D01*
X76148Y148D02*
Y352D01*
X76352D01*
Y148D01*
X76148D01*
X72047Y547D02*
Y953D01*
X72453D01*
Y547D01*
X72047D01*
X72148Y648D02*
Y852D01*
X72352D01*
Y648D01*
X72148D01*
M02*
