G04*
G04 #@! TF.GenerationSoftware,Altium Limited,Altium Designer,23.6.0 (18)*
G04*
G04 Layer_Physical_Order=6*
G04 Layer_Color=16440176*
%FSLAX43Y43*%
%MOMM*%
G71*
G04*
G04 #@! TF.SameCoordinates,BD1C5E25-77D2-44B3-BBB9-DEE1D7037492*
G04*
G04*
G04 #@! TF.FilePolarity,Positive*
G04*
G01*
G75*
%ADD11C,0.200*%
%ADD15C,0.102*%
%ADD25C,0.400*%
%ADD64C,0.120*%
%ADD65C,0.102*%
%ADD78C,0.480*%
%ADD87C,0.350*%
G36*
X90387Y18030D02*
X90401Y18019D01*
X90416Y18010D01*
X90432Y18002D01*
X90449Y17995D01*
X90467Y17989D01*
X90486Y17985D01*
X90506Y17982D01*
X90527Y17980D01*
X90549Y17980D01*
X90351Y17782D01*
X90351Y17804D01*
X90349Y17825D01*
X90346Y17845D01*
X90342Y17864D01*
X90336Y17882D01*
X90329Y17899D01*
X90321Y17915D01*
X90312Y17930D01*
X90301Y17944D01*
X90289Y17957D01*
X90374Y18042D01*
X90387Y18030D01*
D02*
G37*
G36*
X89044Y17092D02*
X89058Y17081D01*
X89073Y17072D01*
X89089Y17064D01*
X89106Y17057D01*
X89124Y17051D01*
X89143Y17046D01*
X89163Y17043D01*
X89184Y17041D01*
X89206Y17040D01*
X89005Y16846D01*
X89005Y16868D01*
X89003Y16888D01*
X89001Y16908D01*
X88997Y16927D01*
X88991Y16945D01*
X88985Y16962D01*
X88977Y16978D01*
X88967Y16993D01*
X88956Y17008D01*
X88944Y17021D01*
X89031Y17104D01*
X89044Y17092D01*
D02*
G37*
G36*
X90280Y16931D02*
X90294Y16920D01*
X90308Y16910D01*
X90324Y16900D01*
X90341Y16892D01*
X90359Y16883D01*
X90398Y16869D01*
X90419Y16863D01*
X90442Y16858D01*
X90204Y16710D01*
X90208Y16730D01*
X90210Y16749D01*
X90211Y16767D01*
X90209Y16785D01*
X90206Y16802D01*
X90201Y16819D01*
X90194Y16835D01*
X90185Y16850D01*
X90175Y16864D01*
X90162Y16878D01*
X90268Y16942D01*
X90280Y16931D01*
D02*
G37*
G36*
X19807Y16417D02*
X19795Y16403D01*
X19784Y16389D01*
X19775Y16374D01*
X19767Y16358D01*
X19760Y16341D01*
X19754Y16323D01*
X19750Y16304D01*
X19747Y16284D01*
X19745Y16263D01*
X19745Y16241D01*
X19547Y16439D01*
X19569Y16440D01*
X19590Y16441D01*
X19609Y16444D01*
X19628Y16449D01*
X19646Y16454D01*
X19664Y16461D01*
X19680Y16469D01*
X19695Y16479D01*
X19709Y16489D01*
X19722Y16501D01*
X19807Y16417D01*
D02*
G37*
G36*
X19007D02*
X18995Y16403D01*
X18984Y16389D01*
X18975Y16374D01*
X18967Y16358D01*
X18960Y16341D01*
X18954Y16323D01*
X18950Y16304D01*
X18947Y16284D01*
X18945Y16263D01*
X18945Y16241D01*
X18747Y16439D01*
X18769Y16440D01*
X18790Y16441D01*
X18809Y16444D01*
X18828Y16449D01*
X18847Y16454D01*
X18864Y16461D01*
X18880Y16469D01*
X18895Y16479D01*
X18909Y16489D01*
X18922Y16501D01*
X19007Y16417D01*
D02*
G37*
G36*
X18207D02*
X18195Y16403D01*
X18184Y16389D01*
X18175Y16374D01*
X18167Y16358D01*
X18160Y16341D01*
X18154Y16323D01*
X18150Y16304D01*
X18147Y16284D01*
X18145Y16263D01*
X18145Y16241D01*
X17947Y16439D01*
X17969Y16440D01*
X17990Y16441D01*
X18009Y16444D01*
X18028Y16449D01*
X18046Y16454D01*
X18064Y16461D01*
X18080Y16469D01*
X18095Y16479D01*
X18109Y16489D01*
X18122Y16501D01*
X18207Y16417D01*
D02*
G37*
G36*
X17407D02*
X17395Y16403D01*
X17384Y16389D01*
X17375Y16374D01*
X17367Y16358D01*
X17360Y16341D01*
X17354Y16323D01*
X17350Y16304D01*
X17347Y16284D01*
X17345Y16263D01*
X17345Y16241D01*
X17147Y16439D01*
X17169Y16440D01*
X17190Y16441D01*
X17209Y16444D01*
X17228Y16449D01*
X17247Y16454D01*
X17264Y16461D01*
X17280Y16469D01*
X17295Y16479D01*
X17309Y16489D01*
X17322Y16501D01*
X17407Y16417D01*
D02*
G37*
G36*
X89142Y15998D02*
X89156Y15987D01*
X89171Y15978D01*
X89188Y15970D01*
X89205Y15963D01*
X89223Y15957D01*
X89242Y15953D01*
X89262Y15950D01*
X89282Y15948D01*
X89304Y15948D01*
X89106Y15750D01*
X89106Y15772D01*
X89104Y15793D01*
X89101Y15813D01*
X89097Y15832D01*
X89091Y15850D01*
X89085Y15867D01*
X89076Y15883D01*
X89067Y15898D01*
X89056Y15912D01*
X89044Y15925D01*
X89129Y16010D01*
X89142Y15998D01*
D02*
G37*
G36*
X104191Y14011D02*
X104205Y14000D01*
X104220Y13991D01*
X104236Y13983D01*
X104254Y13976D01*
X104272Y13970D01*
X104291Y13966D01*
X104310Y13963D01*
X104331Y13961D01*
X104353Y13961D01*
X104155Y13763D01*
X104155Y13785D01*
X104153Y13806D01*
X104150Y13826D01*
X104146Y13845D01*
X104140Y13863D01*
X104133Y13880D01*
X104125Y13896D01*
X104116Y13911D01*
X104105Y13925D01*
X104093Y13938D01*
X104178Y14023D01*
X104191Y14011D01*
D02*
G37*
G36*
X103391D02*
X103405Y14000D01*
X103420Y13991D01*
X103436Y13983D01*
X103453Y13976D01*
X103472Y13970D01*
X103491Y13966D01*
X103510Y13963D01*
X103531Y13961D01*
X103553Y13961D01*
X103355Y13763D01*
X103355Y13785D01*
X103353Y13806D01*
X103350Y13826D01*
X103346Y13845D01*
X103340Y13863D01*
X103333Y13880D01*
X103325Y13896D01*
X103316Y13911D01*
X103305Y13925D01*
X103293Y13938D01*
X103378Y14023D01*
X103391Y14011D01*
D02*
G37*
G36*
X60591D02*
X60605Y14000D01*
X60620Y13991D01*
X60636Y13983D01*
X60653Y13976D01*
X60672Y13970D01*
X60691Y13966D01*
X60710Y13963D01*
X60731Y13961D01*
X60753Y13961D01*
X60555Y13763D01*
X60555Y13785D01*
X60553Y13806D01*
X60550Y13826D01*
X60546Y13845D01*
X60540Y13863D01*
X60533Y13880D01*
X60525Y13896D01*
X60516Y13911D01*
X60505Y13925D01*
X60493Y13938D01*
X60578Y14023D01*
X60591Y14011D01*
D02*
G37*
G36*
X59953Y13561D02*
X59931Y13560D01*
X59910Y13559D01*
X59891Y13556D01*
X59872Y13551D01*
X59853Y13546D01*
X59836Y13539D01*
X59820Y13531D01*
X59805Y13521D01*
X59791Y13511D01*
X59778Y13499D01*
X59693Y13583D01*
X59705Y13597D01*
X59716Y13611D01*
X59725Y13626D01*
X59733Y13642D01*
X59740Y13659D01*
X59746Y13677D01*
X59750Y13696D01*
X59753Y13716D01*
X59755Y13737D01*
X59755Y13759D01*
X59953Y13561D01*
D02*
G37*
G36*
X68005Y10802D02*
X68008Y10785D01*
X68012Y10767D01*
X68017Y10750D01*
X68025Y10733D01*
X68033Y10717D01*
X68044Y10700D01*
X68056Y10684D01*
X68069Y10668D01*
X68085Y10652D01*
X67805D01*
X67820Y10668D01*
X67833Y10684D01*
X67845Y10700D01*
X67856Y10717D01*
X67865Y10733D01*
X67872Y10750D01*
X67877Y10767D01*
X67881Y10785D01*
X67884Y10802D01*
X67885Y10820D01*
X68005D01*
X68005Y10802D01*
D02*
G37*
G36*
X14005D02*
X14008Y10785D01*
X14012Y10767D01*
X14017Y10750D01*
X14025Y10733D01*
X14033Y10717D01*
X14044Y10700D01*
X14056Y10684D01*
X14069Y10668D01*
X14085Y10652D01*
X13805D01*
X13820Y10668D01*
X13833Y10684D01*
X13845Y10700D01*
X13856Y10717D01*
X13865Y10733D01*
X13872Y10750D01*
X13877Y10767D01*
X13881Y10785D01*
X13884Y10802D01*
X13885Y10820D01*
X14005D01*
X14005Y10802D01*
D02*
G37*
G36*
X111380Y10759D02*
X111395Y10749D01*
X111410Y10739D01*
X111426Y10731D01*
X111443Y10724D01*
X111461Y10719D01*
X111480Y10714D01*
X111500Y10711D01*
X111521Y10710D01*
X111543Y10709D01*
X111345Y10511D01*
X111344Y10533D01*
X111343Y10554D01*
X111340Y10574D01*
X111335Y10593D01*
X111330Y10611D01*
X111323Y10628D01*
X111315Y10644D01*
X111305Y10659D01*
X111295Y10673D01*
X111282Y10687D01*
X111367Y10771D01*
X111380Y10759D01*
D02*
G37*
G36*
X110580D02*
X110595Y10749D01*
X110610Y10739D01*
X110626Y10731D01*
X110643Y10724D01*
X110661Y10719D01*
X110680Y10714D01*
X110700Y10711D01*
X110721Y10710D01*
X110743Y10709D01*
X110545Y10511D01*
X110544Y10533D01*
X110543Y10554D01*
X110540Y10574D01*
X110535Y10593D01*
X110530Y10611D01*
X110523Y10628D01*
X110515Y10644D01*
X110505Y10659D01*
X110494Y10673D01*
X110482Y10687D01*
X110567Y10771D01*
X110580Y10759D01*
D02*
G37*
G36*
X101780D02*
X101795Y10749D01*
X101810Y10739D01*
X101826Y10731D01*
X101843Y10724D01*
X101861Y10719D01*
X101880Y10714D01*
X101900Y10711D01*
X101921Y10710D01*
X101943Y10709D01*
X101745Y10511D01*
X101744Y10533D01*
X101743Y10554D01*
X101740Y10574D01*
X101735Y10593D01*
X101730Y10611D01*
X101723Y10628D01*
X101715Y10644D01*
X101705Y10659D01*
X101695Y10673D01*
X101682Y10687D01*
X101767Y10771D01*
X101780Y10759D01*
D02*
G37*
G36*
X100980D02*
X100995Y10749D01*
X101010Y10739D01*
X101026Y10731D01*
X101043Y10724D01*
X101061Y10719D01*
X101080Y10714D01*
X101100Y10711D01*
X101121Y10710D01*
X101143Y10709D01*
X100945Y10511D01*
X100944Y10533D01*
X100943Y10554D01*
X100940Y10574D01*
X100935Y10593D01*
X100930Y10611D01*
X100923Y10628D01*
X100915Y10644D01*
X100905Y10659D01*
X100895Y10673D01*
X100882Y10687D01*
X100967Y10771D01*
X100980Y10759D01*
D02*
G37*
G36*
X23807Y10687D02*
X23795Y10673D01*
X23784Y10659D01*
X23775Y10644D01*
X23767Y10628D01*
X23760Y10611D01*
X23754Y10593D01*
X23750Y10574D01*
X23747Y10554D01*
X23745Y10533D01*
X23745Y10511D01*
X23547Y10709D01*
X23569Y10710D01*
X23590Y10711D01*
X23609Y10714D01*
X23628Y10719D01*
X23647Y10724D01*
X23664Y10731D01*
X23680Y10739D01*
X23695Y10749D01*
X23709Y10759D01*
X23722Y10771D01*
X23807Y10687D01*
D02*
G37*
G36*
X67002Y10369D02*
X66986Y10384D01*
X66970Y10398D01*
X66954Y10410D01*
X66937Y10420D01*
X66921Y10429D01*
X66904Y10436D01*
X66887Y10442D01*
X66869Y10446D01*
X66852Y10448D01*
X66834Y10449D01*
Y10569D01*
X66852Y10570D01*
X66869Y10572D01*
X66887Y10576D01*
X66904Y10582D01*
X66921Y10589D01*
X66937Y10598D01*
X66954Y10608D01*
X66970Y10620D01*
X66986Y10634D01*
X67002Y10649D01*
Y10369D01*
D02*
G37*
G36*
X14903Y10634D02*
X14919Y10620D01*
X14936Y10608D01*
X14952Y10598D01*
X14969Y10589D01*
X14986Y10582D01*
X15003Y10576D01*
X15020Y10572D01*
X15038Y10570D01*
X15055Y10569D01*
Y10449D01*
X15038Y10448D01*
X15020Y10446D01*
X15003Y10442D01*
X14986Y10436D01*
X14969Y10429D01*
X14952Y10420D01*
X14936Y10410D01*
X14919Y10398D01*
X14903Y10384D01*
X14887Y10369D01*
Y10649D01*
X14903Y10634D01*
D02*
G37*
G36*
X24469Y10351D02*
X24456Y10335D01*
X24444Y10318D01*
X24433Y10302D01*
X24425Y10285D01*
X24417Y10268D01*
X24412Y10251D01*
X24408Y10234D01*
X24405Y10216D01*
X24405Y10198D01*
X24285D01*
X24284Y10216D01*
X24281Y10234D01*
X24277Y10251D01*
X24272Y10268D01*
X24265Y10285D01*
X24256Y10302D01*
X24245Y10318D01*
X24233Y10335D01*
X24220Y10351D01*
X24205Y10366D01*
X24485D01*
X24469Y10351D01*
D02*
G37*
G36*
X108837Y7166D02*
X108813Y7166D01*
X108790Y7164D01*
X108768Y7161D01*
X108748Y7157D01*
X108729Y7152D01*
X108711Y7146D01*
X108695Y7138D01*
X108680Y7129D01*
X108666Y7120D01*
X108653Y7108D01*
X108581Y7180D01*
X108593Y7193D01*
X108603Y7207D01*
X108611Y7222D01*
X108619Y7238D01*
X108625Y7256D01*
X108630Y7275D01*
X108634Y7295D01*
X108637Y7317D01*
X108639Y7340D01*
X108639Y7364D01*
X108837Y7166D01*
D02*
G37*
G36*
X107694Y7039D02*
X107670Y7039D01*
X107647Y7037D01*
X107625Y7034D01*
X107605Y7030D01*
X107586Y7025D01*
X107568Y7019D01*
X107552Y7011D01*
X107537Y7003D01*
X107523Y6993D01*
X107510Y6981D01*
X107438Y7053D01*
X107450Y7066D01*
X107460Y7080D01*
X107468Y7095D01*
X107476Y7111D01*
X107482Y7129D01*
X107487Y7148D01*
X107491Y7168D01*
X107494Y7190D01*
X107496Y7213D01*
X107496Y7237D01*
X107694Y7039D01*
D02*
G37*
G36*
X110361Y6658D02*
X110337Y6658D01*
X110314Y6656D01*
X110292Y6653D01*
X110272Y6649D01*
X110253Y6644D01*
X110235Y6638D01*
X110219Y6630D01*
X110204Y6622D01*
X110190Y6612D01*
X110177Y6600D01*
X110105Y6672D01*
X110117Y6685D01*
X110127Y6699D01*
X110135Y6714D01*
X110143Y6730D01*
X110149Y6748D01*
X110154Y6767D01*
X110158Y6787D01*
X110161Y6809D01*
X110163Y6832D01*
X110163Y6856D01*
X110361Y6658D01*
D02*
G37*
G36*
X100463Y6423D02*
X100478Y6412D01*
X100493Y6402D01*
X100509Y6394D01*
X100526Y6387D01*
X100544Y6382D01*
X100563Y6378D01*
X100583Y6375D01*
X100604Y6373D01*
X100626Y6372D01*
X100428Y6174D01*
X100427Y6196D01*
X100425Y6217D01*
X100422Y6237D01*
X100418Y6256D01*
X100413Y6274D01*
X100406Y6291D01*
X100398Y6307D01*
X100388Y6322D01*
X100377Y6337D01*
X100365Y6350D01*
X100450Y6435D01*
X100463Y6423D01*
D02*
G37*
G36*
X108837Y6150D02*
X108813Y6150D01*
X108790Y6148D01*
X108768Y6145D01*
X108748Y6141D01*
X108729Y6136D01*
X108711Y6130D01*
X108695Y6122D01*
X108680Y6114D01*
X108666Y6104D01*
X108653Y6092D01*
X108581Y6164D01*
X108593Y6177D01*
X108603Y6191D01*
X108611Y6206D01*
X108619Y6222D01*
X108625Y6240D01*
X108630Y6259D01*
X108634Y6279D01*
X108637Y6301D01*
X108639Y6324D01*
X108639Y6348D01*
X108837Y6150D01*
D02*
G37*
G36*
X71962Y5777D02*
X71950Y5764D01*
X71939Y5750D01*
X71930Y5735D01*
X71922Y5719D01*
X71915Y5702D01*
X71909Y5684D01*
X71905Y5665D01*
X71902Y5645D01*
X71900Y5624D01*
X71900Y5602D01*
X71702Y5800D01*
X71724Y5800D01*
X71745Y5802D01*
X71765Y5805D01*
X71784Y5809D01*
X71802Y5815D01*
X71819Y5822D01*
X71835Y5830D01*
X71850Y5839D01*
X71864Y5850D01*
X71877Y5862D01*
X71962Y5777D01*
D02*
G37*
G36*
X72259Y5225D02*
X72275Y5211D01*
X72291Y5199D01*
X72307Y5189D01*
X72324Y5180D01*
X72341Y5173D01*
X72358Y5167D01*
X72375Y5163D01*
X72393Y5161D01*
X72411Y5160D01*
Y5040D01*
X72393Y5039D01*
X72375Y5037D01*
X72358Y5033D01*
X72341Y5027D01*
X72324Y5020D01*
X72307Y5011D01*
X72291Y5001D01*
X72275Y4989D01*
X72259Y4975D01*
X72243Y4960D01*
Y5240D01*
X72259Y5225D01*
D02*
G37*
G36*
X100061Y4525D02*
X100075Y4514D01*
X100090Y4505D01*
X100106Y4497D01*
X100123Y4490D01*
X100141Y4484D01*
X100160Y4480D01*
X100180Y4477D01*
X100201Y4475D01*
X100223Y4475D01*
X100025Y4277D01*
X100025Y4299D01*
X100023Y4320D01*
X100020Y4340D01*
X100016Y4359D01*
X100010Y4377D01*
X100003Y4394D01*
X99995Y4410D01*
X99986Y4425D01*
X99975Y4439D01*
X99963Y4452D01*
X100048Y4537D01*
X100061Y4525D01*
D02*
G37*
G36*
X58985Y4398D02*
X58974Y4386D01*
X58964Y4373D01*
X58955Y4360D01*
X58947Y4346D01*
X58941Y4332D01*
X58936Y4317D01*
X58932Y4302D01*
X58929Y4286D01*
X58927Y4269D01*
X58927Y4252D01*
X58754Y4425D01*
X58771Y4425D01*
X58788Y4427D01*
X58804Y4430D01*
X58819Y4434D01*
X58834Y4439D01*
X58848Y4445D01*
X58862Y4453D01*
X58875Y4462D01*
X58888Y4472D01*
X58900Y4483D01*
X58985Y4398D01*
D02*
G37*
G36*
X70101Y4444D02*
X70103Y4421D01*
X70105Y4399D01*
X70109Y4379D01*
X70115Y4360D01*
X70121Y4342D01*
X70128Y4326D01*
X70137Y4311D01*
X70147Y4297D01*
X70158Y4285D01*
X70087Y4213D01*
X70074Y4224D01*
X70060Y4234D01*
X70045Y4243D01*
X70029Y4250D01*
X70011Y4257D01*
X69992Y4262D01*
X69972Y4266D01*
X69950Y4269D01*
X69927Y4270D01*
X69903Y4270D01*
X70101Y4468D01*
X70101Y4444D01*
D02*
G37*
G36*
X83357Y3760D02*
X83340Y3777D01*
X83322Y3792D01*
X83305Y3805D01*
X83288Y3817D01*
X83271Y3827D01*
X83254Y3835D01*
X83237Y3841D01*
X83220Y3846D01*
X83203Y3848D01*
X83187Y3849D01*
Y3951D01*
X83203Y3952D01*
X83220Y3954D01*
X83237Y3959D01*
X83254Y3965D01*
X83271Y3973D01*
X83288Y3983D01*
X83305Y3995D01*
X83322Y4008D01*
X83340Y4023D01*
X83357Y4040D01*
Y3760D01*
D02*
G37*
G36*
X58614Y3972D02*
X58627Y3962D01*
X58640Y3953D01*
X58654Y3945D01*
X58668Y3939D01*
X58683Y3934D01*
X58698Y3930D01*
X58714Y3927D01*
X58731Y3925D01*
X58748Y3925D01*
X58575Y3752D01*
X58575Y3769D01*
X58573Y3786D01*
X58570Y3802D01*
X58566Y3817D01*
X58561Y3832D01*
X58555Y3846D01*
X58547Y3860D01*
X58538Y3873D01*
X58528Y3886D01*
X58517Y3898D01*
X58602Y3983D01*
X58614Y3972D01*
D02*
G37*
G36*
X57811Y3503D02*
X57812Y3487D01*
X57816Y3471D01*
X57820Y3456D01*
X57826Y3442D01*
X57832Y3428D01*
X57841Y3414D01*
X57850Y3400D01*
X57861Y3387D01*
X57872Y3375D01*
X57627D01*
X57639Y3387D01*
X57650Y3400D01*
X57659Y3414D01*
X57667Y3428D01*
X57674Y3442D01*
X57680Y3456D01*
X57684Y3471D01*
X57687Y3487D01*
X57689Y3503D01*
X57690Y3519D01*
X57810D01*
X57811Y3503D01*
D02*
G37*
G36*
X56811D02*
X56812Y3487D01*
X56816Y3471D01*
X56820Y3456D01*
X56826Y3442D01*
X56832Y3428D01*
X56841Y3414D01*
X56850Y3400D01*
X56861Y3387D01*
X56872Y3375D01*
X56627D01*
X56639Y3387D01*
X56650Y3400D01*
X56659Y3414D01*
X56667Y3428D01*
X56674Y3442D01*
X56680Y3456D01*
X56684Y3471D01*
X56687Y3487D01*
X56689Y3503D01*
X56690Y3519D01*
X56810D01*
X56811Y3503D01*
D02*
G37*
G36*
X53311Y3503D02*
X53312Y3487D01*
X53316Y3471D01*
X53320Y3456D01*
X53326Y3442D01*
X53332Y3427D01*
X53341Y3414D01*
X53350Y3400D01*
X53361Y3387D01*
X53372Y3375D01*
X53127D01*
X53139Y3387D01*
X53150Y3400D01*
X53159Y3414D01*
X53167Y3427D01*
X53174Y3442D01*
X53180Y3456D01*
X53184Y3471D01*
X53188Y3487D01*
X53189Y3503D01*
X53190Y3519D01*
X53310D01*
X53311Y3503D01*
D02*
G37*
G36*
X54311D02*
X54312Y3487D01*
X54316Y3471D01*
X54320Y3456D01*
X54326Y3442D01*
X54332Y3427D01*
X54341Y3414D01*
X54350Y3400D01*
X54361Y3387D01*
X54372Y3375D01*
X54127Y3375D01*
X54139Y3387D01*
X54150Y3400D01*
X54159Y3414D01*
X54167Y3427D01*
X54174Y3442D01*
X54180Y3456D01*
X54184Y3471D01*
X54187Y3487D01*
X54189Y3503D01*
X54190Y3519D01*
X54310Y3519D01*
X54311Y3503D01*
D02*
G37*
G36*
X59983Y3398D02*
X59972Y3386D01*
X59962Y3373D01*
X59953Y3360D01*
X59945Y3346D01*
X59939Y3332D01*
X59934Y3317D01*
X59930Y3302D01*
X59927Y3286D01*
X59925Y3269D01*
X59925Y3252D01*
X59752Y3425D01*
X59769Y3425D01*
X59786Y3427D01*
X59802Y3430D01*
X59817Y3434D01*
X59832Y3439D01*
X59846Y3445D01*
X59860Y3453D01*
X59873Y3462D01*
X59886Y3472D01*
X59898Y3483D01*
X59983Y3398D01*
D02*
G37*
G36*
X82357Y3160D02*
X82340Y3177D01*
X82322Y3192D01*
X82305Y3205D01*
X82288Y3217D01*
X82271Y3227D01*
X82254Y3235D01*
X82237Y3241D01*
X82220Y3246D01*
X82203Y3248D01*
X82187Y3249D01*
Y3351D01*
X82203Y3352D01*
X82220Y3354D01*
X82237Y3359D01*
X82254Y3365D01*
X82271Y3373D01*
X82288Y3383D01*
X82305Y3395D01*
X82322Y3408D01*
X82340Y3423D01*
X82357Y3440D01*
Y3160D01*
D02*
G37*
G36*
X70298Y3372D02*
X70296Y3349D01*
X70295Y3327D01*
X70296Y3306D01*
X70298Y3287D01*
X70301Y3268D01*
X70306Y3251D01*
X70313Y3235D01*
X70320Y3219D01*
X70329Y3205D01*
X70247Y3146D01*
X70237Y3159D01*
X70225Y3171D01*
X70211Y3182D01*
X70196Y3192D01*
X70180Y3201D01*
X70162Y3209D01*
X70142Y3216D01*
X70121Y3222D01*
X70099Y3227D01*
X70075Y3231D01*
X70301Y3396D01*
X70298Y3372D01*
D02*
G37*
G36*
X60387Y3361D02*
X60400Y3350D01*
X60414Y3341D01*
X60427Y3332D01*
X60442Y3326D01*
X60456Y3320D01*
X60471Y3316D01*
X60487Y3312D01*
X60503Y3311D01*
X60519Y3310D01*
Y3190D01*
X60503Y3189D01*
X60487Y3188D01*
X60471Y3184D01*
X60456Y3180D01*
X60442Y3174D01*
X60427Y3168D01*
X60414Y3159D01*
X60400Y3150D01*
X60387Y3139D01*
X60375Y3128D01*
Y3372D01*
X60387Y3361D01*
D02*
G37*
G36*
X53811Y3003D02*
X53812Y2987D01*
X53816Y2971D01*
X53820Y2956D01*
X53826Y2942D01*
X53833Y2927D01*
X53841Y2914D01*
X53850Y2900D01*
X53861Y2887D01*
X53873Y2875D01*
X53627Y2875D01*
X53639Y2887D01*
X53650Y2900D01*
X53659Y2914D01*
X53667Y2927D01*
X53674Y2942D01*
X53680Y2956D01*
X53684Y2971D01*
X53688Y2987D01*
X53689Y3003D01*
X53690Y3019D01*
X53810D01*
X53811Y3003D01*
D02*
G37*
G36*
X57614Y2972D02*
X57627Y2962D01*
X57640Y2953D01*
X57654Y2945D01*
X57668Y2939D01*
X57683Y2934D01*
X57698Y2930D01*
X57714Y2927D01*
X57731Y2925D01*
X57748Y2925D01*
X57575Y2752D01*
X57575Y2769D01*
X57573Y2786D01*
X57570Y2802D01*
X57566Y2817D01*
X57561Y2832D01*
X57555Y2846D01*
X57547Y2860D01*
X57538Y2873D01*
X57528Y2886D01*
X57517Y2898D01*
X57602Y2983D01*
X57614Y2972D01*
D02*
G37*
G36*
X56614D02*
X56627Y2962D01*
X56640Y2953D01*
X56654Y2945D01*
X56668Y2939D01*
X56683Y2934D01*
X56698Y2930D01*
X56714Y2927D01*
X56731Y2925D01*
X56748Y2925D01*
X56575Y2752D01*
X56575Y2769D01*
X56573Y2786D01*
X56570Y2802D01*
X56566Y2817D01*
X56561Y2832D01*
X56555Y2846D01*
X56547Y2860D01*
X56538Y2873D01*
X56528Y2886D01*
X56517Y2898D01*
X56602Y2983D01*
X56614Y2972D01*
D02*
G37*
G36*
X59387Y2861D02*
X59400Y2850D01*
X59414Y2841D01*
X59427Y2833D01*
X59442Y2826D01*
X59456Y2820D01*
X59471Y2816D01*
X59487Y2813D01*
X59503Y2811D01*
X59519Y2810D01*
Y2690D01*
X59503Y2689D01*
X59487Y2688D01*
X59471Y2684D01*
X59456Y2680D01*
X59442Y2674D01*
X59427Y2668D01*
X59414Y2659D01*
X59400Y2650D01*
X59387Y2639D01*
X59375Y2628D01*
Y2873D01*
X59387Y2861D01*
D02*
G37*
G36*
X58925Y2731D02*
X58927Y2714D01*
X58930Y2698D01*
X58934Y2683D01*
X58939Y2668D01*
X58945Y2654D01*
X58953Y2640D01*
X58962Y2627D01*
X58972Y2614D01*
X58983Y2602D01*
X58898Y2517D01*
X58886Y2528D01*
X58873Y2538D01*
X58860Y2547D01*
X58846Y2555D01*
X58832Y2561D01*
X58817Y2566D01*
X58802Y2570D01*
X58786Y2573D01*
X58769Y2575D01*
X58752Y2575D01*
X58925Y2748D01*
X58925Y2731D01*
D02*
G37*
G36*
X53120Y2475D02*
X53132Y2465D01*
X53145Y2456D01*
X53159Y2448D01*
X53173Y2441D01*
X53188Y2436D01*
X53203Y2431D01*
X53219Y2428D01*
X53236Y2426D01*
X53253Y2425D01*
X53075Y2257D01*
X53075Y2274D01*
X53074Y2290D01*
X53072Y2307D01*
X53068Y2322D01*
X53063Y2337D01*
X53057Y2352D01*
X53050Y2366D01*
X53042Y2379D01*
X53032Y2392D01*
X53021Y2404D01*
X53108Y2487D01*
X53120Y2475D01*
D02*
G37*
G36*
X85829Y2232D02*
X85808Y2253D01*
X85766Y2287D01*
X85745Y2301D01*
X85724Y2313D01*
X85704Y2323D01*
X85684Y2330D01*
X85664Y2336D01*
X85644Y2339D01*
X85624Y2340D01*
Y2460D01*
X85644Y2461D01*
X85664Y2464D01*
X85684Y2470D01*
X85704Y2477D01*
X85724Y2487D01*
X85745Y2499D01*
X85766Y2513D01*
X85787Y2529D01*
X85808Y2547D01*
X85829Y2568D01*
Y2232D01*
D02*
G37*
G36*
X69882Y2284D02*
X69898Y2270D01*
X69914Y2258D01*
X69930Y2248D01*
X69947Y2239D01*
X69964Y2232D01*
X69981Y2226D01*
X69998Y2222D01*
X70016Y2220D01*
X70034Y2219D01*
Y2099D01*
X70016Y2098D01*
X69998Y2096D01*
X69981Y2092D01*
X69964Y2086D01*
X69947Y2079D01*
X69930Y2070D01*
X69914Y2060D01*
X69898Y2048D01*
X69882Y2034D01*
X69866Y2019D01*
Y2299D01*
X69882Y2284D01*
D02*
G37*
G36*
X33159Y2125D02*
X33175Y2111D01*
X33191Y2099D01*
X33207Y2089D01*
X33224Y2080D01*
X33241Y2073D01*
X33258Y2067D01*
X33275Y2063D01*
X33293Y2061D01*
X33311Y2060D01*
Y1940D01*
X33293Y1939D01*
X33275Y1937D01*
X33258Y1933D01*
X33241Y1927D01*
X33224Y1920D01*
X33207Y1911D01*
X33191Y1901D01*
X33175Y1889D01*
X33159Y1875D01*
X33143Y1860D01*
Y2140D01*
X33159Y2125D01*
D02*
G37*
G36*
X70464Y1222D02*
X70477Y1212D01*
X70490Y1203D01*
X70504Y1195D01*
X70518Y1189D01*
X70533Y1184D01*
X70548Y1180D01*
X70564Y1177D01*
X70581Y1175D01*
X70598Y1175D01*
X70425Y1002D01*
X70425Y1019D01*
X70423Y1036D01*
X70420Y1052D01*
X70416Y1067D01*
X70411Y1082D01*
X70405Y1096D01*
X70397Y1110D01*
X70388Y1123D01*
X70378Y1136D01*
X70367Y1148D01*
X70452Y1233D01*
X70464Y1222D01*
D02*
G37*
G36*
X87104Y1032D02*
X87091Y1018D01*
X87080Y1002D01*
X87071Y984D01*
X87062Y964D01*
X87055Y942D01*
X87049Y918D01*
X87045Y892D01*
X87042Y864D01*
X87040Y802D01*
X86802Y1040D01*
X86834Y1040D01*
X86892Y1045D01*
X86918Y1049D01*
X86942Y1055D01*
X86964Y1062D01*
X86984Y1071D01*
X87002Y1080D01*
X87018Y1091D01*
X87032Y1104D01*
X87104Y1032D01*
D02*
G37*
G36*
X86304D02*
X86291Y1018D01*
X86280Y1002D01*
X86271Y984D01*
X86262Y964D01*
X86255Y942D01*
X86249Y918D01*
X86245Y892D01*
X86242Y864D01*
X86240Y802D01*
X86002Y1040D01*
X86034Y1040D01*
X86092Y1045D01*
X86118Y1049D01*
X86142Y1055D01*
X86164Y1062D01*
X86184Y1071D01*
X86201Y1080D01*
X86218Y1091D01*
X86232Y1104D01*
X86304Y1032D01*
D02*
G37*
G36*
X70598Y325D02*
X70581Y325D01*
X70564Y323D01*
X70548Y320D01*
X70533Y316D01*
X70518Y311D01*
X70504Y305D01*
X70490Y297D01*
X70477Y288D01*
X70464Y278D01*
X70452Y267D01*
X70367Y352D01*
X70378Y364D01*
X70388Y377D01*
X70397Y390D01*
X70405Y404D01*
X70411Y418D01*
X70416Y433D01*
X70420Y448D01*
X70423Y464D01*
X70425Y481D01*
X70425Y498D01*
X70598Y325D01*
D02*
G37*
G36*
X87104Y232D02*
X87091Y218D01*
X87080Y201D01*
X87071Y184D01*
X87062Y164D01*
X87055Y142D01*
X87049Y118D01*
X87045Y92D01*
X87042Y64D01*
X87040Y2D01*
X86802Y240D01*
X86834Y240D01*
X86892Y245D01*
X86918Y249D01*
X86942Y255D01*
X86964Y262D01*
X86984Y271D01*
X87002Y280D01*
X87018Y291D01*
X87032Y304D01*
X87104Y232D01*
D02*
G37*
G36*
X30900Y-224D02*
X30902Y-245D01*
X30905Y-265D01*
X30909Y-284D01*
X30915Y-302D01*
X30922Y-319D01*
X30930Y-335D01*
X30939Y-350D01*
X30950Y-364D01*
X30962Y-377D01*
X30877Y-462D01*
X30864Y-450D01*
X30850Y-439D01*
X30835Y-430D01*
X30819Y-422D01*
X30802Y-415D01*
X30784Y-409D01*
X30765Y-405D01*
X30745Y-402D01*
X30724Y-400D01*
X30702Y-400D01*
X30900Y-202D01*
X30900Y-224D01*
D02*
G37*
G36*
X87104Y-568D02*
X87091Y-582D01*
X87080Y-599D01*
X87071Y-616D01*
X87062Y-636D01*
X87055Y-658D01*
X87049Y-682D01*
X87045Y-708D01*
X87042Y-736D01*
X87040Y-798D01*
X86802Y-560D01*
X86834Y-560D01*
X86892Y-555D01*
X86918Y-551D01*
X86942Y-545D01*
X86964Y-538D01*
X86984Y-529D01*
X87002Y-520D01*
X87018Y-509D01*
X87032Y-496D01*
X87104Y-568D01*
D02*
G37*
G36*
Y-1368D02*
X87091Y-1382D01*
X87080Y-1398D01*
X87071Y-1416D01*
X87062Y-1436D01*
X87055Y-1458D01*
X87049Y-1482D01*
X87045Y-1508D01*
X87042Y-1536D01*
X87040Y-1598D01*
X86802Y-1360D01*
X86834Y-1360D01*
X86892Y-1355D01*
X86918Y-1351D01*
X86942Y-1345D01*
X86964Y-1338D01*
X86984Y-1329D01*
X87002Y-1320D01*
X87018Y-1309D01*
X87032Y-1296D01*
X87104Y-1368D01*
D02*
G37*
G36*
Y-2168D02*
X87091Y-2182D01*
X87080Y-2198D01*
X87071Y-2217D01*
X87062Y-2236D01*
X87055Y-2258D01*
X87049Y-2282D01*
X87045Y-2308D01*
X87042Y-2336D01*
X87040Y-2398D01*
X86802Y-2160D01*
X86834Y-2160D01*
X86892Y-2155D01*
X86918Y-2151D01*
X86942Y-2145D01*
X86964Y-2138D01*
X86984Y-2129D01*
X87002Y-2120D01*
X87018Y-2109D01*
X87032Y-2096D01*
X87104Y-2168D01*
D02*
G37*
G36*
X53125Y-2872D02*
X53113Y-2861D01*
X53100Y-2850D01*
X53086Y-2841D01*
X53073Y-2832D01*
X53058Y-2826D01*
X53044Y-2820D01*
X53029Y-2816D01*
X53013Y-2812D01*
X52997Y-2811D01*
X52981Y-2810D01*
X52981Y-2690D01*
X52997Y-2689D01*
X53013Y-2688D01*
X53029Y-2684D01*
X53044Y-2680D01*
X53058Y-2674D01*
X53073Y-2668D01*
X53086Y-2659D01*
X53100Y-2650D01*
X53113Y-2639D01*
X53125Y-2628D01*
X53125Y-2872D01*
D02*
G37*
G36*
X56387Y-2639D02*
X56400Y-2650D01*
X56414Y-2659D01*
X56428Y-2668D01*
X56442Y-2674D01*
X56456Y-2680D01*
X56471Y-2684D01*
X56487Y-2688D01*
X56503Y-2689D01*
X56519Y-2690D01*
Y-2810D01*
X56503Y-2811D01*
X56487Y-2813D01*
X56471Y-2816D01*
X56456Y-2820D01*
X56442Y-2826D01*
X56428Y-2833D01*
X56414Y-2841D01*
X56400Y-2850D01*
X56387Y-2861D01*
X56375Y-2873D01*
Y-2628D01*
X56387Y-2639D01*
D02*
G37*
G36*
X58748Y-2925D02*
X58731Y-2925D01*
X58714Y-2927D01*
X58698Y-2930D01*
X58683Y-2934D01*
X58668Y-2939D01*
X58654Y-2945D01*
X58640Y-2953D01*
X58627Y-2962D01*
X58614Y-2972D01*
X58602Y-2983D01*
X58517Y-2898D01*
X58528Y-2886D01*
X58538Y-2873D01*
X58547Y-2860D01*
X58555Y-2846D01*
X58561Y-2832D01*
X58566Y-2817D01*
X58570Y-2802D01*
X58573Y-2786D01*
X58575Y-2769D01*
X58575Y-2752D01*
X58748Y-2925D01*
D02*
G37*
G36*
X57925Y-2769D02*
X57927Y-2786D01*
X57930Y-2802D01*
X57934Y-2817D01*
X57939Y-2832D01*
X57945Y-2846D01*
X57953Y-2860D01*
X57962Y-2873D01*
X57972Y-2886D01*
X57983Y-2898D01*
X57898Y-2983D01*
X57886Y-2972D01*
X57873Y-2962D01*
X57860Y-2953D01*
X57846Y-2945D01*
X57832Y-2939D01*
X57817Y-2934D01*
X57802Y-2930D01*
X57786Y-2927D01*
X57769Y-2925D01*
X57752Y-2925D01*
X57925Y-2752D01*
X57925Y-2769D01*
D02*
G37*
G36*
X87104Y-2968D02*
X87091Y-2982D01*
X87080Y-2999D01*
X87071Y-3016D01*
X87062Y-3036D01*
X87055Y-3058D01*
X87049Y-3082D01*
X87045Y-3108D01*
X87042Y-3136D01*
X87040Y-3198D01*
X86802Y-2960D01*
X86834Y-2960D01*
X86892Y-2955D01*
X86918Y-2951D01*
X86942Y-2945D01*
X86964Y-2938D01*
X86984Y-2929D01*
X87002Y-2920D01*
X87018Y-2909D01*
X87032Y-2896D01*
X87104Y-2968D01*
D02*
G37*
G36*
X59983Y-3102D02*
X59972Y-3114D01*
X59962Y-3127D01*
X59953Y-3140D01*
X59945Y-3154D01*
X59939Y-3168D01*
X59934Y-3183D01*
X59930Y-3198D01*
X59927Y-3214D01*
X59925Y-3231D01*
X59925Y-3248D01*
X59752Y-3075D01*
X59769Y-3075D01*
X59786Y-3073D01*
X59802Y-3070D01*
X59817Y-3066D01*
X59832Y-3061D01*
X59846Y-3055D01*
X59860Y-3047D01*
X59873Y-3038D01*
X59886Y-3028D01*
X59898Y-3017D01*
X59983Y-3102D01*
D02*
G37*
G36*
X60387Y-3139D02*
X60400Y-3150D01*
X60414Y-3159D01*
X60427Y-3167D01*
X60442Y-3174D01*
X60456Y-3180D01*
X60471Y-3184D01*
X60487Y-3187D01*
X60503Y-3189D01*
X60519Y-3190D01*
Y-3310D01*
X60503Y-3311D01*
X60487Y-3312D01*
X60471Y-3316D01*
X60456Y-3320D01*
X60442Y-3326D01*
X60427Y-3332D01*
X60414Y-3341D01*
X60400Y-3350D01*
X60387Y-3361D01*
X60375Y-3372D01*
Y-3127D01*
X60387Y-3139D01*
D02*
G37*
G36*
X53248Y-3425D02*
X53231Y-3425D01*
X53214Y-3427D01*
X53198Y-3430D01*
X53183Y-3434D01*
X53168Y-3439D01*
X53154Y-3445D01*
X53140Y-3453D01*
X53127Y-3462D01*
X53114Y-3472D01*
X53102Y-3483D01*
X53017Y-3398D01*
X53028Y-3386D01*
X53038Y-3373D01*
X53047Y-3360D01*
X53055Y-3346D01*
X53061Y-3332D01*
X53066Y-3317D01*
X53070Y-3302D01*
X53073Y-3286D01*
X53075Y-3269D01*
X53075Y-3252D01*
X53248Y-3425D01*
D02*
G37*
G36*
X87840Y-3234D02*
X87845Y-3292D01*
X87849Y-3318D01*
X87855Y-3342D01*
X87862Y-3364D01*
X87871Y-3384D01*
X87880Y-3402D01*
X87891Y-3418D01*
X87904Y-3432D01*
X87832Y-3504D01*
X87818Y-3491D01*
X87801Y-3480D01*
X87783Y-3471D01*
X87764Y-3462D01*
X87742Y-3455D01*
X87718Y-3449D01*
X87692Y-3445D01*
X87664Y-3442D01*
X87602Y-3440D01*
X87840Y-3202D01*
X87840Y-3234D01*
D02*
G37*
G36*
X58861Y-3387D02*
X58850Y-3400D01*
X58841Y-3414D01*
X58832Y-3427D01*
X58826Y-3442D01*
X58820Y-3456D01*
X58816Y-3471D01*
X58812Y-3487D01*
X58811Y-3503D01*
X58810Y-3519D01*
X58690D01*
X58689Y-3503D01*
X58687Y-3487D01*
X58684Y-3471D01*
X58680Y-3456D01*
X58674Y-3442D01*
X58667Y-3427D01*
X58659Y-3414D01*
X58650Y-3400D01*
X58639Y-3387D01*
X58627Y-3375D01*
X58872D01*
X58861Y-3387D01*
D02*
G37*
G36*
X57861Y-3387D02*
X57850Y-3400D01*
X57841Y-3414D01*
X57833Y-3427D01*
X57826Y-3442D01*
X57820Y-3456D01*
X57816Y-3471D01*
X57812Y-3487D01*
X57811Y-3503D01*
X57810Y-3519D01*
X57690Y-3519D01*
X57689Y-3503D01*
X57688Y-3487D01*
X57684Y-3471D01*
X57680Y-3456D01*
X57674Y-3442D01*
X57667Y-3427D01*
X57659Y-3414D01*
X57650Y-3400D01*
X57639Y-3387D01*
X57627Y-3375D01*
X57873Y-3375D01*
X57861Y-3387D01*
D02*
G37*
G36*
X56361Y-3387D02*
X56350Y-3400D01*
X56341Y-3414D01*
X56333Y-3428D01*
X56326Y-3442D01*
X56320Y-3456D01*
X56316Y-3471D01*
X56313Y-3487D01*
X56311Y-3503D01*
X56310Y-3519D01*
X56190D01*
X56189Y-3503D01*
X56188Y-3487D01*
X56184Y-3471D01*
X56180Y-3456D01*
X56174Y-3442D01*
X56168Y-3428D01*
X56159Y-3414D01*
X56150Y-3400D01*
X56139Y-3387D01*
X56128Y-3375D01*
X56373D01*
X56361Y-3387D01*
D02*
G37*
G36*
X55625Y-3872D02*
X55613Y-3861D01*
X55600Y-3850D01*
X55586Y-3841D01*
X55572Y-3832D01*
X55558Y-3826D01*
X55544Y-3820D01*
X55529Y-3816D01*
X55513Y-3812D01*
X55497Y-3811D01*
X55481Y-3810D01*
Y-3690D01*
X55497Y-3689D01*
X55513Y-3687D01*
X55529Y-3684D01*
X55544Y-3680D01*
X55558Y-3674D01*
X55572Y-3667D01*
X55586Y-3659D01*
X55600Y-3650D01*
X55613Y-3639D01*
X55625Y-3627D01*
Y-3872D01*
D02*
G37*
G36*
X53625Y-3872D02*
X53613Y-3861D01*
X53600Y-3850D01*
X53586Y-3841D01*
X53573Y-3832D01*
X53558Y-3826D01*
X53544Y-3820D01*
X53529Y-3816D01*
X53513Y-3812D01*
X53497Y-3811D01*
X53481Y-3810D01*
X53481Y-3690D01*
X53497Y-3689D01*
X53513Y-3688D01*
X53529Y-3684D01*
X53544Y-3680D01*
X53558Y-3674D01*
X53572Y-3668D01*
X53586Y-3659D01*
X53600Y-3650D01*
X53613Y-3639D01*
X53625Y-3628D01*
X53625Y-3872D01*
D02*
G37*
G36*
X59925Y-3769D02*
X59927Y-3786D01*
X59930Y-3802D01*
X59934Y-3817D01*
X59939Y-3832D01*
X59945Y-3846D01*
X59953Y-3860D01*
X59962Y-3873D01*
X59972Y-3886D01*
X59983Y-3898D01*
X59898Y-3983D01*
X59886Y-3972D01*
X59873Y-3962D01*
X59860Y-3953D01*
X59846Y-3945D01*
X59832Y-3939D01*
X59817Y-3934D01*
X59802Y-3930D01*
X59786Y-3927D01*
X59769Y-3925D01*
X59752Y-3925D01*
X59925Y-3752D01*
X59925Y-3769D01*
D02*
G37*
G36*
X88229Y-4168D02*
X88207Y-4147D01*
X88166Y-4113D01*
X88145Y-4099D01*
X88124Y-4087D01*
X88104Y-4077D01*
X88084Y-4070D01*
X88064Y-4064D01*
X88044Y-4061D01*
X88024Y-4060D01*
Y-3940D01*
X88044Y-3939D01*
X88064Y-3936D01*
X88084Y-3930D01*
X88104Y-3923D01*
X88124Y-3913D01*
X88145Y-3901D01*
X88166Y-3887D01*
X88187Y-3871D01*
X88207Y-3853D01*
X88229Y-3832D01*
Y-4168D01*
D02*
G37*
G36*
X59925Y-4269D02*
X59927Y-4286D01*
X59930Y-4302D01*
X59934Y-4317D01*
X59939Y-4332D01*
X59945Y-4346D01*
X59953Y-4360D01*
X59962Y-4373D01*
X59972Y-4386D01*
X59983Y-4398D01*
X59898Y-4483D01*
X59886Y-4472D01*
X59873Y-4462D01*
X59860Y-4453D01*
X59846Y-4445D01*
X59832Y-4439D01*
X59817Y-4434D01*
X59802Y-4430D01*
X59786Y-4427D01*
X59769Y-4425D01*
X59752Y-4425D01*
X59925Y-4252D01*
X59925Y-4269D01*
D02*
G37*
G36*
X55861Y-4387D02*
X55850Y-4400D01*
X55841Y-4414D01*
X55833Y-4427D01*
X55826Y-4442D01*
X55820Y-4456D01*
X55816Y-4471D01*
X55812Y-4487D01*
X55811Y-4503D01*
X55810Y-4519D01*
X55690D01*
X55689Y-4503D01*
X55688Y-4487D01*
X55684Y-4471D01*
X55680Y-4456D01*
X55674Y-4442D01*
X55667Y-4427D01*
X55659Y-4414D01*
X55650Y-4400D01*
X55639Y-4387D01*
X55627Y-4375D01*
X55873D01*
X55861Y-4387D01*
D02*
G37*
G36*
X53498Y-4575D02*
X53481Y-4575D01*
X53464Y-4577D01*
X53448Y-4580D01*
X53433Y-4584D01*
X53418Y-4589D01*
X53404Y-4595D01*
X53390Y-4603D01*
X53377Y-4612D01*
X53364Y-4622D01*
X53352Y-4633D01*
X53267Y-4548D01*
X53278Y-4536D01*
X53288Y-4523D01*
X53297Y-4510D01*
X53305Y-4496D01*
X53311Y-4482D01*
X53316Y-4467D01*
X53320Y-4452D01*
X53323Y-4436D01*
X53325Y-4419D01*
X53325Y-4402D01*
X53498Y-4575D01*
D02*
G37*
G36*
X88191Y-4505D02*
X88208Y-4517D01*
X88226Y-4527D01*
X88245Y-4536D01*
X88267Y-4544D01*
X88290Y-4550D01*
X88314Y-4554D01*
X88340Y-4558D01*
X88368Y-4560D01*
X88398Y-4560D01*
X88160Y-4798D01*
X88160Y-4768D01*
X88154Y-4714D01*
X88150Y-4690D01*
X88144Y-4667D01*
X88136Y-4645D01*
X88127Y-4626D01*
X88117Y-4608D01*
X88105Y-4591D01*
X88091Y-4576D01*
X88176Y-4491D01*
X88191Y-4505D01*
D02*
G37*
G36*
X102627Y-4654D02*
X102641Y-4663D01*
X102656Y-4672D01*
X102672Y-4680D01*
X102690Y-4686D01*
X102709Y-4691D01*
X102729Y-4695D01*
X102751Y-4698D01*
X102774Y-4700D01*
X102798Y-4700D01*
X102600Y-4898D01*
X102600Y-4874D01*
X102598Y-4851D01*
X102595Y-4829D01*
X102591Y-4809D01*
X102586Y-4790D01*
X102580Y-4772D01*
X102572Y-4756D01*
X102563Y-4741D01*
X102554Y-4727D01*
X102542Y-4714D01*
X102614Y-4642D01*
X102627Y-4654D01*
D02*
G37*
G36*
X89997Y-5040D02*
X89968Y-5040D01*
X89914Y-5046D01*
X89889Y-5050D01*
X89866Y-5056D01*
X89845Y-5064D01*
X89825Y-5073D01*
X89807Y-5083D01*
X89791Y-5095D01*
X89776Y-5109D01*
X89691Y-5024D01*
X89705Y-5009D01*
X89716Y-4992D01*
X89727Y-4974D01*
X89736Y-4955D01*
X89743Y-4933D01*
X89750Y-4910D01*
X89754Y-4886D01*
X89758Y-4860D01*
X89759Y-4832D01*
X89760Y-4802D01*
X89997Y-5040D01*
D02*
G37*
G36*
X89197D02*
X89168Y-5040D01*
X89114Y-5046D01*
X89089Y-5050D01*
X89066Y-5056D01*
X89045Y-5064D01*
X89025Y-5073D01*
X89007Y-5083D01*
X88991Y-5095D01*
X88976Y-5109D01*
X88891Y-5024D01*
X88905Y-5009D01*
X88916Y-4992D01*
X88927Y-4974D01*
X88936Y-4955D01*
X88943Y-4933D01*
X88950Y-4910D01*
X88954Y-4886D01*
X88958Y-4860D01*
X88959Y-4832D01*
X88960Y-4802D01*
X89197Y-5040D01*
D02*
G37*
G36*
X86798Y-5040D02*
X86768Y-5040D01*
X86714Y-5046D01*
X86690Y-5050D01*
X86667Y-5056D01*
X86645Y-5064D01*
X86626Y-5073D01*
X86608Y-5083D01*
X86591Y-5095D01*
X86576Y-5109D01*
X86491Y-5024D01*
X86505Y-5009D01*
X86517Y-4992D01*
X86527Y-4974D01*
X86536Y-4955D01*
X86544Y-4933D01*
X86550Y-4910D01*
X86554Y-4886D01*
X86558Y-4860D01*
X86560Y-4832D01*
X86560Y-4802D01*
X86798Y-5040D01*
D02*
G37*
G36*
X67409Y-5350D02*
X67425Y-5364D01*
X67441Y-5376D01*
X67457Y-5386D01*
X67474Y-5395D01*
X67491Y-5402D01*
X67508Y-5408D01*
X67525Y-5412D01*
X67543Y-5414D01*
X67561Y-5415D01*
Y-5535D01*
X67543Y-5536D01*
X67525Y-5538D01*
X67508Y-5542D01*
X67491Y-5548D01*
X67474Y-5555D01*
X67457Y-5564D01*
X67441Y-5574D01*
X67425Y-5586D01*
X67409Y-5600D01*
X67393Y-5615D01*
Y-5335D01*
X67409Y-5350D01*
D02*
G37*
G36*
X62725Y-5574D02*
X62727Y-5595D01*
X62730Y-5615D01*
X62734Y-5634D01*
X62740Y-5652D01*
X62747Y-5669D01*
X62755Y-5685D01*
X62764Y-5700D01*
X62775Y-5714D01*
X62787Y-5727D01*
X62702Y-5812D01*
X62689Y-5800D01*
X62675Y-5789D01*
X62660Y-5780D01*
X62644Y-5772D01*
X62627Y-5765D01*
X62609Y-5759D01*
X62590Y-5755D01*
X62570Y-5752D01*
X62549Y-5750D01*
X62527Y-5750D01*
X62725Y-5552D01*
X62725Y-5574D01*
D02*
G37*
G36*
X61925D02*
X61927Y-5595D01*
X61930Y-5615D01*
X61934Y-5634D01*
X61940Y-5652D01*
X61947Y-5669D01*
X61955Y-5685D01*
X61964Y-5700D01*
X61975Y-5714D01*
X61987Y-5727D01*
X61902Y-5812D01*
X61889Y-5800D01*
X61875Y-5789D01*
X61860Y-5780D01*
X61844Y-5772D01*
X61827Y-5765D01*
X61809Y-5759D01*
X61790Y-5755D01*
X61770Y-5752D01*
X61749Y-5750D01*
X61727Y-5750D01*
X61925Y-5552D01*
X61925Y-5574D01*
D02*
G37*
G36*
X102802Y-5629D02*
X102816Y-5639D01*
X102831Y-5647D01*
X102847Y-5655D01*
X102865Y-5661D01*
X102884Y-5666D01*
X102904Y-5670D01*
X102926Y-5673D01*
X102949Y-5675D01*
X102973Y-5675D01*
X102775Y-5873D01*
X102775Y-5849D01*
X102773Y-5826D01*
X102770Y-5804D01*
X102766Y-5784D01*
X102761Y-5765D01*
X102755Y-5747D01*
X102747Y-5731D01*
X102739Y-5716D01*
X102729Y-5702D01*
X102717Y-5689D01*
X102789Y-5617D01*
X102802Y-5629D01*
D02*
G37*
G36*
X89198Y-5840D02*
X89168Y-5840D01*
X89114Y-5846D01*
X89090Y-5850D01*
X89067Y-5856D01*
X89045Y-5864D01*
X89026Y-5873D01*
X89008Y-5883D01*
X88991Y-5895D01*
X88976Y-5909D01*
X88891Y-5824D01*
X88905Y-5809D01*
X88917Y-5792D01*
X88927Y-5774D01*
X88936Y-5755D01*
X88944Y-5733D01*
X88950Y-5710D01*
X88954Y-5686D01*
X88958Y-5660D01*
X88960Y-5632D01*
X88960Y-5602D01*
X89198Y-5840D01*
D02*
G37*
G36*
X90147Y-5793D02*
X90113Y-5834D01*
X90099Y-5855D01*
X90087Y-5876D01*
X90077Y-5896D01*
X90070Y-5916D01*
X90064Y-5936D01*
X90061Y-5956D01*
X90060Y-5976D01*
X89940D01*
X89939Y-5956D01*
X89936Y-5936D01*
X89930Y-5916D01*
X89923Y-5896D01*
X89913Y-5876D01*
X89901Y-5855D01*
X89887Y-5834D01*
X89871Y-5813D01*
X89853Y-5793D01*
X89832Y-5771D01*
X90168D01*
X90147Y-5793D01*
D02*
G37*
G36*
X102052Y-6554D02*
X102066Y-6563D01*
X102081Y-6572D01*
X102097Y-6580D01*
X102115Y-6586D01*
X102134Y-6591D01*
X102154Y-6595D01*
X102176Y-6598D01*
X102199Y-6600D01*
X102223Y-6600D01*
X102025Y-6798D01*
X102025Y-6774D01*
X102023Y-6751D01*
X102020Y-6729D01*
X102016Y-6709D01*
X102011Y-6690D01*
X102005Y-6672D01*
X101997Y-6656D01*
X101989Y-6641D01*
X101979Y-6627D01*
X101967Y-6614D01*
X102039Y-6542D01*
X102052Y-6554D01*
D02*
G37*
G36*
X103077Y-6754D02*
X103091Y-6764D01*
X103106Y-6772D01*
X103122Y-6780D01*
X103140Y-6786D01*
X103159Y-6791D01*
X103179Y-6795D01*
X103201Y-6798D01*
X103224Y-6800D01*
X103248Y-6800D01*
X103050Y-6998D01*
X103050Y-6974D01*
X103048Y-6951D01*
X103045Y-6929D01*
X103041Y-6909D01*
X103036Y-6890D01*
X103030Y-6872D01*
X103022Y-6856D01*
X103013Y-6841D01*
X103004Y-6827D01*
X102992Y-6814D01*
X103064Y-6742D01*
X103077Y-6754D01*
D02*
G37*
G36*
X115616Y-10216D02*
X115619Y-10234D01*
X115623Y-10251D01*
X115628Y-10268D01*
X115635Y-10285D01*
X115644Y-10302D01*
X115655Y-10318D01*
X115667Y-10335D01*
X115680Y-10351D01*
X115695Y-10366D01*
X115415D01*
X115431Y-10351D01*
X115444Y-10335D01*
X115456Y-10318D01*
X115467Y-10302D01*
X115475Y-10285D01*
X115483Y-10268D01*
X115488Y-10251D01*
X115492Y-10234D01*
X115495Y-10216D01*
X115495Y-10198D01*
X115615D01*
X115616Y-10216D01*
D02*
G37*
G36*
X107018Y-10332D02*
X107006Y-10345D01*
X106995Y-10359D01*
X106985Y-10374D01*
X106977Y-10390D01*
X106970Y-10407D01*
X106965Y-10425D01*
X106960Y-10444D01*
X106957Y-10464D01*
X106956Y-10485D01*
X106955Y-10507D01*
X106757Y-10309D01*
X106779Y-10309D01*
X106800Y-10307D01*
X106820Y-10304D01*
X106839Y-10300D01*
X106857Y-10294D01*
X106874Y-10287D01*
X106890Y-10279D01*
X106905Y-10270D01*
X106920Y-10259D01*
X106933Y-10247D01*
X107018Y-10332D01*
D02*
G37*
G36*
X105791Y-10259D02*
X105805Y-10270D01*
X105820Y-10279D01*
X105836Y-10287D01*
X105853Y-10294D01*
X105872Y-10300D01*
X105891Y-10304D01*
X105910Y-10307D01*
X105931Y-10309D01*
X105953Y-10309D01*
X105755Y-10507D01*
X105755Y-10485D01*
X105753Y-10464D01*
X105750Y-10444D01*
X105746Y-10425D01*
X105740Y-10407D01*
X105733Y-10390D01*
X105725Y-10374D01*
X105716Y-10359D01*
X105705Y-10345D01*
X105693Y-10332D01*
X105778Y-10247D01*
X105791Y-10259D01*
D02*
G37*
G36*
X29418Y-10332D02*
X29406Y-10345D01*
X29395Y-10359D01*
X29385Y-10374D01*
X29377Y-10390D01*
X29370Y-10407D01*
X29365Y-10425D01*
X29360Y-10444D01*
X29357Y-10464D01*
X29356Y-10485D01*
X29355Y-10507D01*
X29157Y-10309D01*
X29179Y-10309D01*
X29200Y-10307D01*
X29220Y-10304D01*
X29239Y-10300D01*
X29257Y-10294D01*
X29274Y-10287D01*
X29290Y-10279D01*
X29305Y-10270D01*
X29320Y-10259D01*
X29333Y-10247D01*
X29418Y-10332D01*
D02*
G37*
G36*
X28556Y-10533D02*
X28557Y-10554D01*
X28560Y-10574D01*
X28565Y-10593D01*
X28570Y-10611D01*
X28577Y-10628D01*
X28585Y-10644D01*
X28595Y-10659D01*
X28605Y-10673D01*
X28618Y-10687D01*
X28533Y-10771D01*
X28520Y-10759D01*
X28505Y-10749D01*
X28490Y-10739D01*
X28474Y-10731D01*
X28457Y-10724D01*
X28439Y-10719D01*
X28420Y-10714D01*
X28400Y-10711D01*
X28379Y-10710D01*
X28357Y-10709D01*
X28555Y-10511D01*
X28556Y-10533D01*
D02*
G37*
G36*
X19756D02*
X19757Y-10554D01*
X19760Y-10574D01*
X19765Y-10593D01*
X19770Y-10611D01*
X19777Y-10628D01*
X19785Y-10644D01*
X19795Y-10659D01*
X19806Y-10673D01*
X19818Y-10687D01*
X19733Y-10771D01*
X19720Y-10759D01*
X19705Y-10749D01*
X19690Y-10739D01*
X19674Y-10731D01*
X19657Y-10724D01*
X19639Y-10719D01*
X19620Y-10714D01*
X19600Y-10711D01*
X19579Y-10710D01*
X19557Y-10709D01*
X19755Y-10511D01*
X19756Y-10533D01*
D02*
G37*
G36*
X116480Y-10668D02*
X116467Y-10684D01*
X116455Y-10700D01*
X116444Y-10717D01*
X116435Y-10733D01*
X116428Y-10750D01*
X116423Y-10767D01*
X116419Y-10785D01*
X116416Y-10802D01*
X116415Y-10820D01*
X116295D01*
X116295Y-10802D01*
X116292Y-10785D01*
X116288Y-10767D01*
X116283Y-10750D01*
X116275Y-10733D01*
X116267Y-10717D01*
X116256Y-10700D01*
X116244Y-10684D01*
X116231Y-10668D01*
X116215Y-10652D01*
X116495D01*
X116480Y-10668D01*
D02*
G37*
G36*
X18880Y-10668D02*
X18867Y-10684D01*
X18855Y-10700D01*
X18844Y-10717D01*
X18835Y-10733D01*
X18828Y-10750D01*
X18823Y-10767D01*
X18819Y-10785D01*
X18816Y-10802D01*
X18815Y-10820D01*
X18695D01*
X18695Y-10802D01*
X18692Y-10785D01*
X18688Y-10767D01*
X18683Y-10750D01*
X18675Y-10733D01*
X18667Y-10717D01*
X18656Y-10700D01*
X18644Y-10684D01*
X18631Y-10668D01*
X18615Y-10652D01*
X18895D01*
X18880Y-10668D01*
D02*
G37*
G36*
X112980Y-13511D02*
X112995Y-13521D01*
X113010Y-13531D01*
X113026Y-13539D01*
X113043Y-13546D01*
X113061Y-13551D01*
X113080Y-13556D01*
X113100Y-13559D01*
X113121Y-13560D01*
X113143Y-13561D01*
X112945Y-13759D01*
X112944Y-13737D01*
X112943Y-13716D01*
X112940Y-13696D01*
X112935Y-13677D01*
X112930Y-13659D01*
X112923Y-13642D01*
X112915Y-13626D01*
X112905Y-13611D01*
X112895Y-13597D01*
X112882Y-13583D01*
X112967Y-13499D01*
X112980Y-13511D01*
D02*
G37*
G36*
X71780D02*
X71795Y-13521D01*
X71810Y-13531D01*
X71826Y-13539D01*
X71843Y-13546D01*
X71861Y-13551D01*
X71880Y-13556D01*
X71900Y-13559D01*
X71921Y-13560D01*
X71943Y-13561D01*
X71745Y-13759D01*
X71744Y-13737D01*
X71743Y-13716D01*
X71740Y-13696D01*
X71735Y-13677D01*
X71730Y-13659D01*
X71723Y-13642D01*
X71715Y-13626D01*
X71705Y-13611D01*
X71694Y-13597D01*
X71682Y-13583D01*
X71767Y-13499D01*
X71780Y-13511D01*
D02*
G37*
G36*
X113943Y-13961D02*
X113921Y-13961D01*
X113900Y-13963D01*
X113880Y-13966D01*
X113861Y-13970D01*
X113843Y-13976D01*
X113826Y-13983D01*
X113810Y-13991D01*
X113795Y-14000D01*
X113780Y-14011D01*
X113767Y-14023D01*
X113682Y-13938D01*
X113695Y-13925D01*
X113705Y-13911D01*
X113715Y-13896D01*
X113723Y-13880D01*
X113730Y-13863D01*
X113735Y-13845D01*
X113740Y-13826D01*
X113743Y-13806D01*
X113744Y-13785D01*
X113745Y-13763D01*
X113943Y-13961D01*
D02*
G37*
G36*
X72743D02*
X72721Y-13961D01*
X72700Y-13963D01*
X72680Y-13966D01*
X72661Y-13970D01*
X72643Y-13976D01*
X72626Y-13983D01*
X72610Y-13991D01*
X72595Y-14000D01*
X72580Y-14011D01*
X72567Y-14023D01*
X72482Y-13938D01*
X72494Y-13925D01*
X72505Y-13911D01*
X72515Y-13896D01*
X72523Y-13880D01*
X72530Y-13863D01*
X72535Y-13845D01*
X72540Y-13826D01*
X72543Y-13806D01*
X72544Y-13785D01*
X72545Y-13763D01*
X72743Y-13961D01*
D02*
G37*
G36*
X91311Y-14297D02*
X91287Y-14297D01*
X91264Y-14299D01*
X91242Y-14302D01*
X91222Y-14306D01*
X91203Y-14311D01*
X91185Y-14317D01*
X91169Y-14325D01*
X91154Y-14333D01*
X91140Y-14343D01*
X91127Y-14355D01*
X91055Y-14283D01*
X91067Y-14270D01*
X91076Y-14256D01*
X91085Y-14241D01*
X91093Y-14225D01*
X91099Y-14207D01*
X91104Y-14188D01*
X91108Y-14168D01*
X91111Y-14146D01*
X91113Y-14123D01*
X91113Y-14099D01*
X91311Y-14297D01*
D02*
G37*
G36*
X89279D02*
X89255Y-14297D01*
X89232Y-14299D01*
X89210Y-14302D01*
X89190Y-14306D01*
X89171Y-14311D01*
X89153Y-14317D01*
X89137Y-14325D01*
X89122Y-14333D01*
X89108Y-14343D01*
X89095Y-14355D01*
X89023Y-14283D01*
X89035Y-14270D01*
X89045Y-14256D01*
X89053Y-14241D01*
X89061Y-14225D01*
X89067Y-14207D01*
X89072Y-14188D01*
X89076Y-14168D01*
X89079Y-14146D01*
X89081Y-14123D01*
X89081Y-14099D01*
X89279Y-14297D01*
D02*
G37*
G36*
X87247D02*
X87223Y-14297D01*
X87200Y-14299D01*
X87178Y-14302D01*
X87158Y-14306D01*
X87139Y-14311D01*
X87121Y-14317D01*
X87105Y-14325D01*
X87090Y-14333D01*
X87076Y-14343D01*
X87063Y-14355D01*
X86991Y-14283D01*
X87003Y-14270D01*
X87012Y-14256D01*
X87021Y-14241D01*
X87029Y-14225D01*
X87035Y-14207D01*
X87040Y-14188D01*
X87044Y-14168D01*
X87047Y-14146D01*
X87049Y-14123D01*
X87049Y-14099D01*
X87247Y-14297D01*
D02*
G37*
G36*
X85215D02*
X85191Y-14297D01*
X85168Y-14299D01*
X85146Y-14302D01*
X85126Y-14306D01*
X85107Y-14311D01*
X85089Y-14317D01*
X85073Y-14325D01*
X85058Y-14333D01*
X85044Y-14343D01*
X85031Y-14355D01*
X84959Y-14283D01*
X84971Y-14270D01*
X84980Y-14256D01*
X84989Y-14241D01*
X84997Y-14225D01*
X85003Y-14207D01*
X85008Y-14188D01*
X85012Y-14168D01*
X85015Y-14146D01*
X85017Y-14123D01*
X85017Y-14099D01*
X85215Y-14297D01*
D02*
G37*
G36*
X83702Y-14640D02*
X83699Y-14638D01*
X83694Y-14637D01*
X83690Y-14637D01*
X83685Y-14638D01*
X83680Y-14640D01*
X83674Y-14643D01*
X83667Y-14648D01*
X83661Y-14653D01*
X83653Y-14659D01*
X83646Y-14666D01*
X83574Y-14594D01*
X83584Y-14584D01*
X83608Y-14556D01*
X83614Y-14549D01*
X83618Y-14542D01*
X83622Y-14535D01*
X83624Y-14530D01*
X83625Y-14525D01*
X83625Y-14521D01*
X83702Y-14640D01*
D02*
G37*
G36*
X88898Y-15694D02*
X88874Y-15694D01*
X88851Y-15696D01*
X88829Y-15699D01*
X88809Y-15703D01*
X88790Y-15708D01*
X88772Y-15714D01*
X88756Y-15722D01*
X88741Y-15731D01*
X88727Y-15740D01*
X88714Y-15752D01*
X88642Y-15680D01*
X88654Y-15667D01*
X88663Y-15653D01*
X88672Y-15638D01*
X88680Y-15622D01*
X88686Y-15604D01*
X88691Y-15585D01*
X88695Y-15565D01*
X88698Y-15543D01*
X88700Y-15520D01*
X88700Y-15496D01*
X88898Y-15694D01*
D02*
G37*
G36*
X86739Y-15821D02*
X86715Y-15821D01*
X86692Y-15823D01*
X86670Y-15826D01*
X86650Y-15830D01*
X86631Y-15835D01*
X86613Y-15841D01*
X86597Y-15849D01*
X86582Y-15858D01*
X86568Y-15867D01*
X86555Y-15879D01*
X86483Y-15807D01*
X86495Y-15794D01*
X86505Y-15780D01*
X86513Y-15765D01*
X86521Y-15749D01*
X86527Y-15731D01*
X86532Y-15712D01*
X86536Y-15692D01*
X86539Y-15670D01*
X86541Y-15647D01*
X86541Y-15623D01*
X86739Y-15821D01*
D02*
G37*
G36*
X84707D02*
X84683Y-15821D01*
X84660Y-15823D01*
X84638Y-15826D01*
X84618Y-15830D01*
X84599Y-15835D01*
X84581Y-15841D01*
X84565Y-15849D01*
X84550Y-15858D01*
X84536Y-15867D01*
X84523Y-15879D01*
X84451Y-15807D01*
X84463Y-15794D01*
X84473Y-15780D01*
X84481Y-15765D01*
X84489Y-15749D01*
X84495Y-15731D01*
X84500Y-15712D01*
X84504Y-15692D01*
X84507Y-15670D01*
X84509Y-15647D01*
X84509Y-15623D01*
X84707Y-15821D01*
D02*
G37*
G36*
X69013Y-16054D02*
X69002Y-16066D01*
X68992Y-16080D01*
X68983Y-16095D01*
X68975Y-16111D01*
X68969Y-16129D01*
X68964Y-16148D01*
X68960Y-16168D01*
X68957Y-16190D01*
X68956Y-16213D01*
X68955Y-16237D01*
X68757Y-16039D01*
X68782Y-16039D01*
X68805Y-16037D01*
X68826Y-16035D01*
X68847Y-16031D01*
X68866Y-16025D01*
X68883Y-16019D01*
X68900Y-16011D01*
X68915Y-16003D01*
X68928Y-15993D01*
X68941Y-15982D01*
X69013Y-16054D01*
D02*
G37*
G36*
X68213D02*
X68202Y-16066D01*
X68192Y-16080D01*
X68183Y-16095D01*
X68175Y-16111D01*
X68169Y-16129D01*
X68164Y-16148D01*
X68160Y-16168D01*
X68157Y-16190D01*
X68156Y-16213D01*
X68155Y-16237D01*
X67957Y-16039D01*
X67982Y-16039D01*
X68005Y-16037D01*
X68026Y-16035D01*
X68047Y-16031D01*
X68066Y-16025D01*
X68083Y-16019D01*
X68100Y-16011D01*
X68115Y-16003D01*
X68128Y-15993D01*
X68141Y-15982D01*
X68213Y-16054D01*
D02*
G37*
G36*
X67413D02*
X67402Y-16066D01*
X67392Y-16080D01*
X67383Y-16095D01*
X67375Y-16111D01*
X67369Y-16129D01*
X67364Y-16148D01*
X67360Y-16168D01*
X67357Y-16190D01*
X67356Y-16213D01*
X67355Y-16237D01*
X67157Y-16039D01*
X67182Y-16039D01*
X67205Y-16037D01*
X67226Y-16035D01*
X67247Y-16031D01*
X67266Y-16025D01*
X67283Y-16019D01*
X67300Y-16011D01*
X67315Y-16003D01*
X67328Y-15993D01*
X67341Y-15982D01*
X67413Y-16054D01*
D02*
G37*
G36*
X69756Y-16265D02*
X69757Y-16288D01*
X69760Y-16310D01*
X69764Y-16330D01*
X69769Y-16349D01*
X69775Y-16367D01*
X69783Y-16383D01*
X69792Y-16399D01*
X69802Y-16412D01*
X69813Y-16425D01*
X69741Y-16497D01*
X69728Y-16486D01*
X69715Y-16476D01*
X69700Y-16467D01*
X69683Y-16459D01*
X69666Y-16453D01*
X69647Y-16448D01*
X69626Y-16444D01*
X69605Y-16441D01*
X69582Y-16440D01*
X69557Y-16439D01*
X69755Y-16241D01*
X69756Y-16265D01*
D02*
G37*
G36*
X26156Y-16265D02*
X26157Y-16288D01*
X26160Y-16310D01*
X26164Y-16330D01*
X26169Y-16349D01*
X26175Y-16367D01*
X26183Y-16383D01*
X26192Y-16399D01*
X26202Y-16412D01*
X26213Y-16425D01*
X26141Y-16497D01*
X26128Y-16486D01*
X26115Y-16476D01*
X26100Y-16467D01*
X26083Y-16459D01*
X26066Y-16453D01*
X26047Y-16448D01*
X26026Y-16444D01*
X26005Y-16441D01*
X25982Y-16440D01*
X25957Y-16439D01*
X26155Y-16241D01*
X26156Y-16265D01*
D02*
G37*
G36*
X25356D02*
X25357Y-16288D01*
X25360Y-16310D01*
X25364Y-16330D01*
X25369Y-16349D01*
X25375Y-16367D01*
X25383Y-16383D01*
X25392Y-16399D01*
X25402Y-16412D01*
X25413Y-16425D01*
X25341Y-16497D01*
X25328Y-16486D01*
X25315Y-16476D01*
X25300Y-16467D01*
X25283Y-16459D01*
X25266Y-16453D01*
X25247Y-16448D01*
X25226Y-16444D01*
X25205Y-16441D01*
X25182Y-16440D01*
X25157Y-16439D01*
X25355Y-16241D01*
X25356Y-16265D01*
D02*
G37*
G36*
X24556D02*
X24557Y-16288D01*
X24560Y-16310D01*
X24564Y-16330D01*
X24569Y-16349D01*
X24575Y-16367D01*
X24583Y-16383D01*
X24592Y-16399D01*
X24602Y-16412D01*
X24613Y-16425D01*
X24541Y-16497D01*
X24528Y-16486D01*
X24515Y-16476D01*
X24500Y-16467D01*
X24483Y-16459D01*
X24466Y-16453D01*
X24447Y-16448D01*
X24426Y-16444D01*
X24405Y-16441D01*
X24382Y-16440D01*
X24357Y-16439D01*
X24555Y-16241D01*
X24556Y-16265D01*
D02*
G37*
G36*
X23756D02*
X23757Y-16288D01*
X23760Y-16310D01*
X23764Y-16330D01*
X23769Y-16349D01*
X23775Y-16367D01*
X23783Y-16383D01*
X23792Y-16399D01*
X23802Y-16412D01*
X23813Y-16425D01*
X23741Y-16497D01*
X23728Y-16486D01*
X23715Y-16476D01*
X23700Y-16467D01*
X23683Y-16459D01*
X23666Y-16453D01*
X23647Y-16448D01*
X23626Y-16444D01*
X23605Y-16441D01*
X23582Y-16440D01*
X23557Y-16439D01*
X23755Y-16241D01*
X23756Y-16265D01*
D02*
G37*
D11*
X119041Y-24600D02*
X118708Y-24767D01*
X118375Y-25100D01*
Y-25433D01*
X118542Y-25600D01*
X118875D01*
X119041Y-25433D01*
Y-25267D01*
X118875Y-25100D01*
X118375D01*
X10566Y-30534D02*
X9900D01*
Y-31533D01*
X10566D01*
X9900Y-31034D02*
X10233D01*
X10900Y-30534D02*
X11566D01*
X11233D01*
Y-31533D01*
X11899Y-30534D02*
Y-31533D01*
X12566D01*
X12899Y-31700D02*
X13565D01*
X13899Y-31533D02*
Y-30534D01*
X14399D01*
X14565Y-30700D01*
Y-31034D01*
X14399Y-31200D01*
X13899D01*
X14232D02*
X14565Y-31533D01*
X14898Y-30534D02*
Y-31533D01*
X15398D01*
X15565Y-31367D01*
Y-31200D01*
X15398Y-31034D01*
X14898D01*
X15398D01*
X15565Y-30867D01*
Y-30700D01*
X15398Y-30534D01*
X14898D01*
X15898Y-31533D02*
Y-31367D01*
X16065D01*
Y-31533D01*
X15898D01*
X16731D02*
Y-30534D01*
X17231D01*
X17398Y-30700D01*
Y-31034D01*
X17231Y-31200D01*
X16731D01*
X18397Y-30867D02*
X17897D01*
X17731Y-31034D01*
Y-31367D01*
X17897Y-31533D01*
X18397D01*
X18730Y-30534D02*
Y-31533D01*
X19230D01*
X19397Y-31367D01*
Y-31200D01*
Y-31034D01*
X19230Y-30867D01*
X18730D01*
X19730Y-30534D02*
Y-31533D01*
X20230D01*
X20397Y-31367D01*
Y-30700D01*
X20230Y-30534D01*
X19730D01*
X20896Y-31533D02*
X21230D01*
X21396Y-31367D01*
Y-31034D01*
X21230Y-30867D01*
X20896D01*
X20730Y-31034D01*
Y-31367D01*
X20896Y-31533D01*
X22396Y-30867D02*
X21896D01*
X21730Y-31034D01*
Y-31367D01*
X21896Y-31533D01*
X22396D01*
X26728D02*
Y-30534D01*
X27061Y-30867D01*
X27394Y-30534D01*
Y-31533D01*
X28394D02*
X27728D01*
X28394Y-30867D01*
Y-30700D01*
X28227Y-30534D01*
X27894D01*
X27728Y-30700D01*
X33392Y-30534D02*
X33059Y-30700D01*
X32726Y-31034D01*
Y-31367D01*
X32893Y-31533D01*
X33226D01*
X33392Y-31367D01*
Y-31200D01*
X33226Y-31034D01*
X32726D01*
X33726Y-31533D02*
X34392Y-30867D01*
X35392Y-31533D02*
X34725D01*
X35392Y-30867D01*
Y-30700D01*
X35225Y-30534D01*
X34892D01*
X34725Y-30700D01*
X35725D02*
X35892Y-30534D01*
X36225D01*
X36391Y-30700D01*
Y-30867D01*
X36225Y-31034D01*
X36058D01*
X36225D01*
X36391Y-31200D01*
Y-31367D01*
X36225Y-31533D01*
X35892D01*
X35725Y-31367D01*
X36725Y-31533D02*
X37391Y-30867D01*
X38391Y-31533D02*
X37724D01*
X38391Y-30867D01*
Y-30700D01*
X38224Y-30534D01*
X37891D01*
X37724Y-30700D01*
X38724D02*
X38891Y-30534D01*
X39224D01*
X39390Y-30700D01*
Y-31367D01*
X39224Y-31533D01*
X38891D01*
X38724Y-31367D01*
Y-30700D01*
X40390Y-31533D02*
X39724D01*
X40390Y-30867D01*
Y-30700D01*
X40224Y-30534D01*
X39890D01*
X39724Y-30700D01*
X40723D02*
X40890Y-30534D01*
X41223D01*
X41390Y-30700D01*
Y-30867D01*
X41223Y-31034D01*
X41057D01*
X41223D01*
X41390Y-31200D01*
Y-31367D01*
X41223Y-31533D01*
X40890D01*
X40723Y-31367D01*
X45722Y-31533D02*
X46055D01*
X45888D01*
Y-30534D01*
X45722Y-30700D01*
X46555Y-30867D02*
X46721D01*
Y-31034D01*
X46555D01*
Y-30867D01*
Y-31367D02*
X46721D01*
Y-31533D01*
X46555D01*
Y-31367D01*
X47888Y-31533D02*
Y-30534D01*
X47388Y-31034D01*
X48054D01*
X48388Y-31367D02*
X48554Y-31533D01*
X48887D01*
X49054Y-31367D01*
Y-30700D01*
X48887Y-30534D01*
X48554D01*
X48388Y-30700D01*
Y-30867D01*
X48554Y-31034D01*
X49054D01*
X49387Y-30867D02*
X49554D01*
Y-31034D01*
X49387D01*
Y-30867D01*
Y-31367D02*
X49554D01*
Y-31533D01*
X49387D01*
Y-31367D01*
X50220Y-31533D02*
X50554D01*
X50387D01*
Y-30534D01*
X50220Y-30700D01*
X51553Y-31533D02*
Y-30534D01*
X51053Y-31034D01*
X51720D01*
X53053Y-31533D02*
Y-30534D01*
X53553D01*
X53719Y-30700D01*
Y-31034D01*
X53553Y-31200D01*
X53053D01*
X54052Y-31533D02*
Y-30534D01*
X54386Y-30867D01*
X54719Y-30534D01*
Y-31533D01*
D15*
X70104Y3429D02*
X70307Y3150D01*
X73450D02*
X74100Y2500D01*
X70307Y3150D02*
X73450D01*
X69901Y4470D02*
X70471Y3900D01*
X73400D01*
X74100Y2500D02*
X79100D01*
X74400Y2900D02*
X78500D01*
X73400Y3900D02*
X74400Y2900D01*
X79100Y2500D02*
X79900Y3300D01*
X78500Y2900D02*
X79500Y3900D01*
X79900Y3300D02*
X82500D01*
X79500Y3900D02*
X83500D01*
D25*
X71700Y5600D02*
D03*
X72100Y5100D02*
D03*
X70104Y3429D02*
D03*
X72745Y-13761D02*
D03*
X71945D02*
D03*
X103555Y13761D02*
D03*
X104355D02*
D03*
X60755D02*
D03*
X59955D02*
D03*
X113145Y-13761D02*
D03*
X113945D02*
D03*
X17145Y16239D02*
D03*
X19545D02*
D03*
X18745D02*
D03*
X17945D02*
D03*
X69555Y-16239D02*
D03*
X67155D02*
D03*
X67955D02*
D03*
X68755D02*
D03*
X25155Y-16239D02*
D03*
X24355D02*
D03*
X23555D02*
D03*
X25955D02*
D03*
X24345Y10509D02*
D03*
X23545D02*
D03*
X14745D02*
D03*
X13945D02*
D03*
X67945D02*
D03*
X67145D02*
D03*
X101145D02*
D03*
X101945D02*
D03*
X111545D02*
D03*
X110745D02*
D03*
X105955Y-10509D02*
D03*
X106755D02*
D03*
X115555D02*
D03*
X116355D02*
D03*
X29155Y-10509D02*
D03*
X28355D02*
D03*
X19555D02*
D03*
X18755D02*
D03*
X69901Y4470D02*
D03*
X110363Y6858D02*
D03*
X108839Y6350D02*
D03*
X107696Y7239D02*
D03*
X108839Y7366D02*
D03*
X91313Y-14097D02*
D03*
X88900Y-15494D02*
D03*
X89281Y-14097D02*
D03*
X86741Y-15621D02*
D03*
X85217Y-14097D02*
D03*
X87249D02*
D03*
X84709Y-15621D02*
D03*
X69723Y2159D02*
D03*
X90551Y17780D02*
D03*
X62525Y-5550D02*
D03*
X61725D02*
D03*
X83820Y-14478D02*
D03*
X90399Y16662D02*
D03*
X89205Y16840D02*
D03*
X89306Y15748D02*
D03*
X102800Y-4900D02*
D03*
X102225Y-6800D02*
D03*
X103250Y-7000D02*
D03*
X102975Y-5875D02*
D03*
X100628Y6172D02*
D03*
X100225Y4275D02*
D03*
X82500Y3300D02*
D03*
X83500Y3900D02*
D03*
X67250Y-5475D02*
D03*
X33000Y2000D02*
D03*
X30700Y-200D02*
D03*
D64*
X45895Y10020D02*
G03*
X45892Y10023I-88J-82D01*
G01*
X64563Y5588D02*
X66751D01*
X60250Y3250D02*
X62225D01*
X64563Y5588D01*
X19545Y16239D02*
X20069Y16764D01*
X88290D02*
X89306Y15748D01*
X89091Y18034D02*
X90399Y16726D01*
X17945Y16239D02*
X19739Y18034D01*
X17145Y16239D02*
X19574Y18669D01*
X89662D02*
X90551Y17780D01*
X91007Y14122D02*
X98552D01*
X90868Y13982D02*
X91007Y14122D01*
X90868Y13982D02*
Y13982D01*
X90728Y13843D02*
X90868Y13982D01*
X90075Y13843D02*
X90728D01*
X89935Y13982D02*
X90075Y13843D01*
X89935Y13982D02*
Y14122D01*
X89795Y14262D02*
X89935Y14122D01*
X89142Y14262D02*
X89795D01*
X89002Y14122D02*
X89142Y14262D01*
X89002Y13980D02*
Y14122D01*
X88862Y13840D02*
X89002Y13980D01*
X88209Y13840D02*
X88862D01*
X88069Y13980D02*
X88209Y13840D01*
X88069Y13980D02*
Y14156D01*
X87929Y14296D02*
X88069Y14156D01*
X87276Y14296D02*
X87929D01*
X87136Y14156D02*
X87276Y14296D01*
X87136Y13958D02*
Y14156D01*
X86996Y13818D02*
X87136Y13958D01*
X86343Y13818D02*
X86996D01*
X86204Y13958D02*
X86343Y13818D01*
X86204Y13958D02*
Y14156D01*
X86064Y14296D02*
X86204Y14156D01*
X85411Y14296D02*
X86064D01*
X85271Y14156D02*
X85411Y14296D01*
X85271Y13958D02*
Y14156D01*
X85131Y13818D02*
X85271Y13958D01*
X84478Y13818D02*
X85131D01*
X84338Y13958D02*
X84478Y13818D01*
X84338Y13958D02*
Y14156D01*
X84198Y14296D02*
X84338Y14156D01*
X83545Y14296D02*
X84198D01*
X83405Y14156D02*
X83545Y14296D01*
X83405Y13958D02*
Y14156D01*
X83265Y13818D02*
X83405Y13958D01*
X82612Y13818D02*
X83265D01*
X82472Y13958D02*
X82612Y13818D01*
X82472Y13958D02*
Y14156D01*
X82332Y14296D02*
X82472Y14156D01*
X81679Y14296D02*
X82332D01*
X81540Y14156D02*
X81679Y14296D01*
X81540Y13958D02*
Y14156D01*
X81400Y13818D02*
X81540Y13958D01*
X80747Y13818D02*
X81400D01*
X80607Y13958D02*
X80747Y13818D01*
X80607Y13958D02*
Y14156D01*
X80467Y14296D02*
X80607Y14156D01*
X79814Y14296D02*
X80467D01*
X79674Y14156D02*
X79814Y14296D01*
X79674Y13958D02*
Y14156D01*
X79534Y13818D02*
X79674Y13958D01*
X78881Y13818D02*
X79534D01*
X78741Y13958D02*
X78881Y13818D01*
X78741Y13958D02*
Y14156D01*
X78601Y14296D02*
X78741Y14156D01*
X77948Y14296D02*
X78601D01*
X77808Y14156D02*
X77948Y14296D01*
X77808Y13958D02*
Y14156D01*
X77668Y13818D02*
X77808Y13958D01*
X77015Y13818D02*
X77668D01*
X76876Y13958D02*
X77015Y13818D01*
X76876Y13958D02*
Y13982D01*
X76736Y14122D02*
X76876Y13982D01*
X75743Y14122D02*
X76736D01*
X98552D02*
X103194D01*
X71044D02*
X75743D01*
X103194D02*
X103555Y13761D01*
X70891Y13970D02*
X71044Y14122D01*
X65151Y14097D02*
X69748D01*
X58687Y7633D02*
X65151Y14097D01*
X58687Y6185D02*
Y7633D01*
X66262Y10509D02*
X66418D01*
X65714Y9961D02*
X66262Y10509D01*
X65714Y9757D02*
Y9961D01*
Y9757D02*
X66057Y9415D01*
Y9211D02*
Y9415D01*
X65750Y8904D02*
X66057Y9211D01*
X65546Y8904D02*
X65750D01*
X64980Y9471D02*
X65546Y8904D01*
X64776Y9471D02*
X64980D01*
X64469Y9164D02*
X64776Y9471D01*
X64469Y8960D02*
Y9164D01*
Y8960D02*
X65278Y8152D01*
Y7947D02*
Y8152D01*
X64972Y7641D02*
X65278Y7947D01*
X64767Y7641D02*
X64972D01*
X63959Y8450D02*
X64767Y7641D01*
X63755Y8450D02*
X63959D01*
X63448Y8143D02*
X63755Y8450D01*
X63448Y7939D02*
Y8143D01*
Y7939D02*
X63468Y7919D01*
Y7715D02*
Y7919D01*
X63426Y7673D02*
X63468Y7715D01*
X59106Y14249D02*
X60267D01*
X55575Y3925D02*
Y10719D01*
X59106Y14249D01*
X69875Y13970D02*
X70891D01*
X69748Y14097D02*
X69875Y13970D01*
X73711Y12548D02*
X102489D01*
X66751Y5588D02*
X73711Y12548D01*
X57175Y3325D02*
Y7493D01*
X64694Y15011D02*
X92735D01*
X57175Y7493D02*
X64694Y15011D01*
X58293Y-14097D02*
X72408D01*
X53899Y-9703D02*
X58293Y-14097D01*
X72408D02*
X72745Y-13761D01*
X49863Y-6576D02*
X50432Y-6007D01*
X49863Y-6780D02*
Y-6576D01*
Y-6780D02*
X49907Y-6824D01*
Y-7028D02*
Y-6824D01*
X49601Y-7335D02*
X49907Y-7028D01*
X49396Y-7335D02*
X49601D01*
X49294Y-7233D02*
X49396Y-7335D01*
X49090Y-7233D02*
X49294D01*
X48784Y-7539D02*
X49090Y-7233D01*
X48784Y-7743D02*
Y-7539D01*
Y-7743D02*
X48966Y-7926D01*
Y-8130D02*
Y-7926D01*
X48660Y-8436D02*
X48966Y-8130D01*
X48456Y-8436D02*
X48660D01*
X48331Y-8312D02*
X48456Y-8436D01*
X48127Y-8312D02*
X48331D01*
X47574Y-8865D02*
X48127Y-8312D01*
X52417Y-4250D02*
X52850D01*
X50660Y-6007D02*
X52417Y-4250D01*
X50432Y-6007D02*
X50660D01*
X110237Y-14250D02*
X113455D01*
X109287Y-13300D02*
X110237Y-14250D01*
X73700Y-13300D02*
X109287D01*
X49358Y-5042D02*
X49730Y-4670D01*
X49358Y-5220D02*
Y-5042D01*
Y-5220D02*
X49358Y-5220D01*
Y-5397D02*
Y-5220D01*
X49092Y-5664D02*
X49358Y-5397D01*
X48914Y-5664D02*
X49092D01*
X48349Y-5099D02*
X48914Y-5664D01*
X48171Y-5099D02*
X48349D01*
X47905Y-5365D02*
X48171Y-5099D01*
X47905Y-5543D02*
Y-5365D01*
Y-5543D02*
X48621Y-6259D01*
Y-6436D02*
Y-6259D01*
X48355Y-6703D02*
X48621Y-6436D01*
X48177Y-6703D02*
X48355D01*
X47431Y-5957D02*
X48177Y-6703D01*
X47254Y-5957D02*
X47431D01*
X46987Y-6224D02*
X47254Y-5957D01*
X46987Y-6401D02*
Y-6224D01*
Y-6401D02*
X47733Y-7147D01*
Y-7325D02*
Y-7147D01*
X47467Y-7591D02*
X47733Y-7325D01*
X47289Y-7591D02*
X47467D01*
X46543Y-6845D02*
X47289Y-7591D01*
X46366Y-6845D02*
X46543D01*
X46099Y-7112D02*
X46366Y-6845D01*
X46099Y-7289D02*
Y-7112D01*
Y-7289D02*
X46845Y-8035D01*
Y-8213D02*
Y-8035D01*
X46578Y-8479D02*
X46845Y-8213D01*
X46401Y-8479D02*
X46578D01*
X45655Y-7733D02*
X46401Y-8479D01*
X45478Y-7733D02*
X45655D01*
X45211Y-8000D02*
X45478Y-7733D01*
X45211Y-8178D02*
Y-8000D01*
Y-8178D02*
X45957Y-8923D01*
Y-9101D02*
Y-8923D01*
X45690Y-9367D02*
X45957Y-9101D01*
X45513Y-9367D02*
X45690D01*
X44767Y-8622D02*
X45513Y-9367D01*
X44589Y-8622D02*
X44767D01*
X44323Y-8888D02*
X44589Y-8622D01*
X44323Y-9066D02*
Y-8888D01*
Y-9066D02*
X44740Y-9483D01*
Y-9660D02*
Y-9483D01*
X44697Y-9703D02*
X44740Y-9660D01*
X43478Y-10922D02*
X44697Y-9703D01*
X38830Y-9322D02*
X39593D01*
X38704Y-9447D02*
X38830Y-9322D01*
X38704Y-10288D02*
Y-9447D01*
X38579Y-10413D02*
X38704Y-10288D01*
X38202Y-10413D02*
X38579D01*
X38076Y-10288D02*
X38202Y-10413D01*
X38076Y-10288D02*
Y-9431D01*
X37951Y-9306D02*
X38076Y-9431D01*
X37574Y-9306D02*
X37951D01*
X37448Y-9431D02*
X37574Y-9306D01*
X37448Y-10325D02*
Y-9431D01*
X37323Y-10450D02*
X37448Y-10325D01*
X36946Y-10450D02*
X37323D01*
X36820Y-10325D02*
X36946Y-10450D01*
X36820Y-10325D02*
Y-9431D01*
X36695Y-9306D02*
X36820Y-9431D01*
X36318Y-9306D02*
X36695D01*
X36192Y-9431D02*
X36318Y-9306D01*
X36192Y-10325D02*
Y-9431D01*
X36067Y-10450D02*
X36192Y-10325D01*
X35690Y-10450D02*
X36067D01*
X35564Y-10325D02*
X35690Y-10450D01*
X35564Y-10325D02*
Y-9431D01*
X35439Y-9306D02*
X35564Y-9431D01*
X35062Y-9306D02*
X35439D01*
X34936Y-9431D02*
X35062Y-9306D01*
X34936Y-10325D02*
Y-9431D01*
X34811Y-10450D02*
X34936Y-10325D01*
X34434Y-10450D02*
X34811D01*
X34308Y-10325D02*
X34434Y-10450D01*
X34308Y-10325D02*
Y-9431D01*
X34183Y-9306D02*
X34308Y-9431D01*
X33806Y-9306D02*
X34183D01*
X33680Y-9431D02*
X33806Y-9306D01*
X33680Y-10325D02*
Y-9431D01*
X33555Y-10450D02*
X33680Y-10325D01*
X33178Y-10450D02*
X33555D01*
X33052Y-10325D02*
X33178Y-10450D01*
X33052Y-10325D02*
Y-9431D01*
X32927Y-9306D02*
X33052Y-9431D01*
X32550Y-9306D02*
X32927D01*
X32424Y-9431D02*
X32550Y-9306D01*
X32424Y-10325D02*
Y-9431D01*
X32299Y-10450D02*
X32424Y-10325D01*
X31922Y-10450D02*
X32299D01*
X31796Y-10325D02*
X31922Y-10450D01*
X31796Y-10325D02*
Y-9447D01*
X31671Y-9322D02*
X31796Y-9447D01*
X30983Y-9322D02*
X31671D01*
X39593D02*
X43002D01*
X30343D02*
X30983D01*
X29155Y-10509D02*
X30343Y-9322D01*
X43002D02*
X49074Y-3250D01*
X61554Y7985D02*
X63233Y9665D01*
X61554Y7763D02*
Y7985D01*
Y7763D02*
X61554Y7763D01*
Y7541D02*
Y7763D01*
X61332Y7319D02*
X61554Y7541D01*
X61110Y7319D02*
X61332D01*
X60846Y7583D02*
X61110Y7319D01*
X60624Y7583D02*
X60846D01*
X60402Y7360D02*
X60624Y7583D01*
X60402Y7138D02*
Y7360D01*
Y7138D02*
X60444Y7097D01*
Y6875D02*
Y7097D01*
X60401Y6833D02*
X60444Y6875D01*
X63233Y9665D02*
X65227Y11659D01*
X58420Y4851D02*
X60401Y6833D01*
X58420Y4080D02*
Y4851D01*
X65227Y11659D02*
X67310D01*
X63246Y-4318D02*
X64828Y-5900D01*
X60013Y-4013D02*
X60528D01*
X60833Y-4318D02*
X63246D01*
X60528Y-4013D02*
X60833Y-4318D01*
X67448Y3048D02*
X72172Y7772D01*
X59100Y2400D02*
X64200D01*
X64848Y3048D02*
X67448D01*
X64200Y2400D02*
X64848Y3048D01*
X69723Y2159D02*
X70409D01*
X70811Y2561D01*
X66689Y4154D02*
X67081Y4547D01*
X59250Y2750D02*
X63202D01*
X64606Y4154D02*
X66689D01*
X63202Y2750D02*
X64606Y4154D01*
X73965Y11430D02*
X74121Y11586D01*
X73761Y11430D02*
X73965D01*
X73748Y11443D02*
X73761Y11430D01*
X73544Y11443D02*
X73748D01*
X73237Y11137D02*
X73544Y11443D01*
X73237Y10932D02*
Y11137D01*
Y10932D02*
X73695Y10475D01*
Y10270D02*
Y10475D01*
X73389Y9964D02*
X73695Y10270D01*
X73184Y9964D02*
X73389D01*
X72685Y10463D02*
X73184Y9964D01*
X72481Y10463D02*
X72685D01*
X72175Y10157D02*
X72481Y10463D01*
X72175Y9952D02*
Y10157D01*
Y9952D02*
X72674Y9454D01*
Y9249D02*
Y9454D01*
X72367Y8943D02*
X72674Y9249D01*
X72163Y8943D02*
X72367D01*
X71664Y9442D02*
X72163Y8943D01*
X71460Y9442D02*
X71664D01*
X71154Y9136D02*
X71460Y9442D01*
X71154Y8931D02*
Y9136D01*
Y8931D02*
X71653Y8433D01*
Y8228D02*
Y8433D01*
X71346Y7922D02*
X71653Y8228D01*
X71142Y7922D02*
X71346D01*
X70643Y8421D02*
X71142Y7922D01*
X70439Y8421D02*
X70643D01*
X70133Y8115D02*
X70439Y8421D01*
X70133Y7910D02*
Y8115D01*
Y7910D02*
X70632Y7412D01*
Y7207D02*
Y7412D01*
X70325Y6901D02*
X70632Y7207D01*
X70121Y6901D02*
X70325D01*
X69622Y7400D02*
X70121Y6901D01*
X69418Y7400D02*
X69622D01*
X69112Y7094D02*
X69418Y7400D01*
X69112Y6889D02*
Y7094D01*
Y6889D02*
X69611Y6391D01*
Y6186D02*
Y6391D01*
X69304Y5880D02*
X69611Y6186D01*
X69100Y5880D02*
X69304D01*
X68601Y6379D02*
X69100Y5880D01*
X68397Y6379D02*
X68601D01*
X68091Y6073D02*
X68397Y6379D01*
X68091Y5868D02*
Y6073D01*
Y5868D02*
X68590Y5369D01*
Y5165D02*
Y5369D01*
X68283Y4859D02*
X68590Y5165D01*
X68079Y4859D02*
X68283D01*
X67580Y5358D02*
X68079Y4859D01*
X67376Y5358D02*
X67580D01*
X67070Y5051D02*
X67376Y5358D01*
X67070Y4847D02*
Y5051D01*
Y4847D02*
X67124Y4793D01*
Y4589D02*
Y4793D01*
X67081Y4547D02*
X67124Y4589D01*
X74121Y11586D02*
X74270Y11735D01*
X100719D01*
X70811Y2561D02*
X73039D01*
X13945Y10509D02*
Y12319D01*
X14834Y13208D02*
X46225D01*
X13945Y12319D02*
X14834Y13208D01*
X32901Y10744D02*
X33782D01*
X32714Y10558D02*
X32901Y10744D01*
X32714Y8980D02*
Y10558D01*
X32528Y8793D02*
X32714Y8980D01*
X31968Y8793D02*
X32528D01*
X31781Y8980D02*
X31968Y8793D01*
X31781Y8980D02*
Y10588D01*
X31595Y10775D02*
X31781Y10588D01*
X31035Y10775D02*
X31595D01*
X30849Y10588D02*
X31035Y10775D01*
X30849Y8958D02*
Y10588D01*
X30662Y8771D02*
X30849Y8958D01*
X30102Y8771D02*
X30662D01*
X29916Y8958D02*
X30102Y8771D01*
X29916Y8958D02*
Y10558D01*
X29729Y10744D02*
X29916Y10558D01*
X28736Y10744D02*
X29729D01*
X28270D02*
X28736D01*
X33782D02*
X34011D01*
X24211Y11176D02*
X27838D01*
X28270Y10744D01*
X44813Y11125D02*
X45669D01*
X44627Y10939D02*
X44813Y11125D01*
X44627Y10847D02*
Y10939D01*
X44440Y10660D02*
X44627Y10847D01*
X43880Y10660D02*
X44440D01*
X43694Y10847D02*
X43880Y10660D01*
X43694Y10847D02*
Y11404D01*
X43507Y11590D02*
X43694Y11404D01*
X42948Y11590D02*
X43507D01*
X42761Y11404D02*
X42948Y11590D01*
X42761Y10847D02*
Y11404D01*
X42574Y10660D02*
X42761Y10847D01*
X42015Y10660D02*
X42574D01*
X41828Y10847D02*
X42015Y10660D01*
X41828Y10847D02*
Y11404D01*
X41642Y11590D02*
X41828Y11404D01*
X41082Y11590D02*
X41642D01*
X40895Y11404D02*
X41082Y11590D01*
X40895Y10847D02*
Y11404D01*
X40709Y10660D02*
X40895Y10847D01*
X40149Y10660D02*
X40709D01*
X39963Y10847D02*
X40149Y10660D01*
X39963Y10847D02*
Y11404D01*
X39776Y11590D02*
X39963Y11404D01*
X39216Y11590D02*
X39776D01*
X39030Y11404D02*
X39216Y11590D01*
X39030Y10847D02*
Y11404D01*
X38843Y10660D02*
X39030Y10847D01*
X38284Y10660D02*
X38843D01*
X38097Y10847D02*
X38284Y10660D01*
X38097Y10847D02*
Y11404D01*
X37910Y11590D02*
X38097Y11404D01*
X37351Y11590D02*
X37910D01*
X37164Y11404D02*
X37351Y11590D01*
X37164Y10847D02*
Y11404D01*
X36978Y10660D02*
X37164Y10847D01*
X36418Y10660D02*
X36978D01*
X36231Y10847D02*
X36418Y10660D01*
X36231Y10847D02*
Y11404D01*
X36045Y11590D02*
X36231Y11404D01*
X35485Y11590D02*
X36045D01*
X35299Y11404D02*
X35485Y11590D01*
X35299Y11312D02*
Y11404D01*
X35112Y11125D02*
X35299Y11312D01*
X35052Y11125D02*
X35112D01*
X45669D02*
X45768D01*
X34392D02*
X35052D01*
X46225Y13208D02*
X54250Y5183D01*
Y3250D02*
Y5183D01*
X32720Y12192D02*
X45971D01*
X53750Y4413D01*
Y2750D02*
Y4413D01*
X53250Y3250D02*
Y3643D01*
X45768Y11125D02*
X53250Y3643D01*
X45857Y10058D02*
X45892Y10023D01*
X45895Y10020D02*
X53250Y2250D01*
Y2250D01*
X35204Y10058D02*
X45857D01*
X34011Y10744D02*
X34392Y11125D01*
X25070Y7620D02*
X25914D01*
X32766D02*
X33328Y8182D01*
X29855Y7620D02*
X32766D01*
X29679Y7444D02*
X29855Y7620D01*
X29679Y6732D02*
Y7444D01*
X29502Y6555D02*
X29679Y6732D01*
X28973Y6555D02*
X29502D01*
X28797Y6732D02*
X28973Y6555D01*
X28797Y6732D02*
Y9312D01*
X28620Y9488D02*
X28797Y9312D01*
X28091Y9488D02*
X28620D01*
X27915Y9312D02*
X28091Y9488D01*
X27915Y6080D02*
Y9312D01*
X27738Y5904D02*
X27915Y6080D01*
X27209Y5904D02*
X27738D01*
X27033Y6080D02*
X27209Y5904D01*
X27033Y6080D02*
Y9312D01*
X26856Y9488D02*
X27033Y9312D01*
X26327Y9488D02*
X26856D01*
X26151Y9312D02*
X26327Y9488D01*
X26151Y7796D02*
Y9312D01*
X25974Y7620D02*
X26151Y7796D01*
X25914Y7620D02*
X25974D01*
X33328Y8182D02*
X35204Y10058D01*
X21357Y12192D02*
X32720D01*
X21168Y12380D02*
X21357Y12192D01*
X21168Y12380D02*
Y12518D01*
X20980Y12707D02*
X21168Y12518D01*
X20729Y12707D02*
X20980D01*
X20540Y12518D02*
X20729Y12707D01*
X20540Y12033D02*
Y12518D01*
X20352Y11845D02*
X20540Y12033D01*
X20101Y11845D02*
X20352D01*
X19912Y12033D02*
X20101Y11845D01*
X19912Y12033D02*
Y12518D01*
X19724Y12707D02*
X19912Y12518D01*
X19473Y12707D02*
X19724D01*
X19284Y12518D02*
X19473Y12707D01*
X19284Y12033D02*
Y12518D01*
X19096Y11845D02*
X19284Y12033D01*
X18845Y11845D02*
X19096D01*
X18656Y12033D02*
X18845Y11845D01*
X18656Y12033D02*
Y12518D01*
X18468Y12707D02*
X18656Y12518D01*
X18217Y12707D02*
X18468D01*
X18028Y12518D02*
X18217Y12707D01*
X18028Y12380D02*
Y12518D01*
X17840Y12192D02*
X18028Y12380D01*
X17780Y12192D02*
X17840D01*
X69090Y-4089D02*
X69825D01*
X68904Y-3903D02*
X69090Y-4089D01*
X68904Y-3903D02*
Y-3817D01*
X68717Y-3630D02*
X68904Y-3817D01*
X68157Y-3630D02*
X68717D01*
X67971Y-3817D02*
X68157Y-3630D01*
X67971Y-4387D02*
Y-3817D01*
X67784Y-4573D02*
X67971Y-4387D01*
X67225Y-4573D02*
X67784D01*
X67038Y-4387D02*
X67225Y-4573D01*
X67038Y-4387D02*
Y-3811D01*
X66852Y-3624D02*
X67038Y-3811D01*
X66292Y-3624D02*
X66852D01*
X66105Y-3811D02*
X66292Y-3624D01*
X66105Y-3903D02*
Y-3811D01*
X65919Y-4089D02*
X66105Y-3903D01*
X65859Y-4089D02*
X65919D01*
X68662Y-2700D02*
X69825D01*
X68475Y-2513D02*
X68662Y-2700D01*
X68475Y-2513D02*
Y-2513D01*
X68289Y-2327D02*
X68475Y-2513D01*
X67729Y-2327D02*
X68289D01*
X67543Y-2513D02*
X67729Y-2327D01*
X67543Y-2616D02*
Y-2513D01*
X67356Y-2802D02*
X67543Y-2616D01*
X66796Y-2802D02*
X67356D01*
X66610Y-2616D02*
X66796Y-2802D01*
X66610Y-2616D02*
Y-2490D01*
X66423Y-2304D02*
X66610Y-2490D01*
X65864Y-2304D02*
X66423D01*
X65677Y-2490D02*
X65864Y-2304D01*
X65677Y-2513D02*
Y-2490D01*
X65490Y-2700D02*
X65677Y-2513D01*
X65430Y-2700D02*
X65490D01*
X64541Y-4089D02*
X65859D01*
X69825D02*
X70559D01*
X63702Y-3250D02*
X64541Y-4089D01*
X70559D02*
X71095Y-4625D01*
X69825Y-2700D02*
X70975D01*
X60300D02*
X65430D01*
X71095Y-4625D02*
X82675D01*
X62763Y-4877D02*
X64562Y-6675D01*
X88125D01*
X60377Y-4877D02*
X62763D01*
X59750Y-3750D02*
X60013Y-4013D01*
X64828Y-5900D02*
X82600D01*
X59750Y-4250D02*
X60377Y-4877D01*
X60250Y-3250D02*
X63702D01*
X89870Y-10000D02*
X90583D01*
X90769Y-9813D01*
Y-9450D01*
X90956Y-9264D01*
X91516D01*
X91702Y-9450D01*
Y-10278D02*
Y-9450D01*
Y-10278D02*
X91889Y-10465D01*
X92448D01*
X92635Y-10278D01*
Y-9304D01*
X92822Y-9117D01*
X93381D01*
X93568Y-9304D01*
Y-10278D02*
Y-9304D01*
Y-10278D02*
X93754Y-10465D01*
X94314D01*
X94501Y-10278D01*
Y-9304D01*
X94687Y-9117D01*
X95247D01*
X95433Y-9304D01*
Y-10278D02*
Y-9304D01*
Y-10278D02*
X95620Y-10465D01*
X96180D01*
X96366Y-10278D01*
Y-9304D01*
X96553Y-9117D01*
X97112D01*
X97299Y-9304D01*
Y-10278D02*
Y-9304D01*
Y-10278D02*
X97486Y-10465D01*
X98045D01*
X98232Y-10278D01*
Y-9304D01*
X98418Y-9117D01*
X98978D01*
X99165Y-9304D01*
Y-10278D02*
Y-9304D01*
Y-10278D02*
X99351Y-10465D01*
X99911D01*
X100097Y-10278D01*
Y-9304D01*
X100284Y-9117D01*
X100844D01*
X101030Y-9304D01*
Y-10278D02*
Y-9304D01*
Y-10278D02*
X101217Y-10465D01*
X101776D01*
X101963Y-10278D01*
Y-10187D01*
X102150Y-10000D01*
X102210D01*
X76300D02*
X89870D01*
X102210D02*
X105446D01*
X104326Y-8611D02*
X104566D01*
X104753Y-8797D01*
Y-8797D02*
Y-8797D01*
Y-8797D02*
X104939Y-8984D01*
X105499D01*
X105685Y-8797D01*
Y-8431D01*
X105872Y-8244D01*
X106432D01*
X106618Y-8431D01*
Y-8889D02*
Y-8431D01*
Y-8889D02*
X106805Y-9076D01*
X107364D01*
X107551Y-8889D01*
Y-8797D01*
X107738Y-8611D01*
X107798D01*
X63348D02*
X104326D01*
X107798D02*
X112370D01*
X112649Y-8890D01*
X58750Y-4013D02*
X63348Y-8611D01*
X112649Y-9525D02*
Y-8890D01*
X112420Y-9754D02*
X112649Y-9525D01*
X107511Y-9754D02*
X112420D01*
X106755Y-10509D02*
X107511Y-9754D01*
X75800Y-11000D02*
X112901D01*
X113335Y-10566D02*
Y-9652D01*
X112901Y-11000D02*
X113335Y-10566D01*
Y-9652D02*
X113894Y-9093D01*
X114986D02*
X115555Y-9663D01*
X113894Y-9093D02*
X114986D01*
X115555Y-10509D02*
Y-9663D01*
X116140Y-11800D02*
X116355Y-11584D01*
X75200Y-11800D02*
X116140D01*
X116355Y-11584D02*
Y-10509D01*
X111392Y-12600D02*
X111923D01*
X111205Y-12787D02*
X111392Y-12600D01*
X111205Y-13294D02*
Y-12787D01*
X111019Y-13481D02*
X111205Y-13294D01*
X110459Y-13481D02*
X111019D01*
X110272Y-13294D02*
X110459Y-13481D01*
X110272Y-13294D02*
Y-12787D01*
X110086Y-12600D02*
X110272Y-12787D01*
X109093Y-12600D02*
X110086D01*
X111923D02*
X111984D01*
X74500D02*
X109093D01*
X111984D02*
X113145Y-13761D01*
X60355Y-10585D02*
Y-10343D01*
X57100Y-7087D02*
Y-3300D01*
Y-7087D02*
X60355Y-10343D01*
Y-10585D02*
X61371Y-11600D01*
X73500D01*
X58439Y-4896D02*
X62763Y-9220D01*
X75520D01*
X58439Y-4896D02*
Y-3061D01*
X58750Y-4013D02*
Y-3250D01*
X75520Y-9220D02*
X76300Y-10000D01*
X55583Y-9736D02*
X56005Y-10158D01*
X56182D01*
X56183Y-10158D01*
X56360D01*
X56627Y-10424D01*
Y-10602D02*
Y-10424D01*
X56315Y-10914D02*
X56627Y-10602D01*
X56315Y-11091D02*
Y-10914D01*
Y-11091D02*
X56581Y-11358D01*
X56759D01*
X57145Y-10972D01*
X57322D01*
X57589Y-11238D01*
Y-11416D02*
Y-11238D01*
X57186Y-11819D02*
X57589Y-11416D01*
X57186Y-11996D02*
Y-11819D01*
Y-11996D02*
X57452Y-12263D01*
X57630D01*
X58033Y-11860D01*
X58211D01*
X58477Y-12126D01*
Y-12304D02*
Y-12126D01*
X58074Y-12707D02*
X58477Y-12304D01*
X58074Y-12885D02*
Y-12707D01*
Y-12885D02*
X58340Y-13151D01*
X58518D01*
X58669Y-13000D01*
X58847D01*
X58889Y-13042D01*
X54889Y-9042D02*
X55583Y-9736D01*
X58889Y-13042D02*
X59047Y-13200D01*
X54889Y-9042D02*
Y-5537D01*
X55750Y-4677D01*
Y-4250D01*
X53899Y-5301D02*
X55450Y-3750D01*
X53899Y-9703D02*
Y-5301D01*
X59047Y-13200D02*
X71384D01*
X49730Y-4670D02*
X50650Y-3750D01*
X44653Y-11786D02*
X47574Y-8865D01*
X20832Y-11786D02*
X44653D01*
X20396Y-12497D02*
X45403D01*
X18755Y-10856D02*
X20396Y-12497D01*
X18755Y-10856D02*
Y-10509D01*
X45403Y-12497D02*
X53500Y-4400D01*
X19555Y-10509D02*
X20832Y-11786D01*
X28355Y-10509D02*
X28768Y-10922D01*
X43478D01*
X49074Y-3250D02*
X52150D01*
X107170Y12548D02*
X108706D01*
X107025Y12403D02*
X107170Y12548D01*
X107025Y12403D02*
Y12403D01*
X106881Y12259D02*
X107025Y12403D01*
X106448Y12259D02*
X106881D01*
X106303Y12403D02*
X106448Y12259D01*
X106303Y12403D02*
Y12548D01*
X106159Y12692D02*
X106303Y12548D01*
X105726Y12692D02*
X106159D01*
X105581Y12548D02*
X105726Y12692D01*
X105581Y12306D02*
Y12548D01*
X105437Y12161D02*
X105581Y12306D01*
X105004Y12161D02*
X105437D01*
X104859Y12306D02*
X105004Y12161D01*
X104859Y12306D02*
Y12581D01*
X104715Y12726D02*
X104859Y12581D01*
X104282Y12726D02*
X104715D01*
X104137Y12581D02*
X104282Y12726D01*
X104137Y12227D02*
Y12581D01*
X103993Y12083D02*
X104137Y12227D01*
X103560Y12083D02*
X103993D01*
X103415Y12227D02*
X103560Y12083D01*
X103415Y12227D02*
Y12403D01*
X103271Y12548D02*
X103415Y12403D01*
X102489Y12548D02*
X103271D01*
X60950Y3700D02*
X63854Y6604D01*
X64999D02*
X71679Y13284D01*
X63854Y6604D02*
X64999D01*
X78021Y10737D02*
X78283Y10998D01*
X77817Y10737D02*
X78021D01*
X77533Y11021D02*
X77817Y10737D01*
X77328Y11021D02*
X77533D01*
X77022Y10715D02*
X77328Y11021D01*
X77022Y10511D02*
Y10715D01*
Y10511D02*
X78605Y8928D01*
Y8724D02*
Y8928D01*
X78299Y8417D02*
X78605Y8724D01*
X78094Y8417D02*
X78299D01*
X76455Y10057D02*
X78094Y8417D01*
X76251Y10057D02*
X76455D01*
X75944Y9751D02*
X76251Y10057D01*
X75944Y9546D02*
Y9751D01*
Y9546D02*
X77584Y7907D01*
Y7703D02*
Y7907D01*
X77278Y7396D02*
X77584Y7703D01*
X77073Y7396D02*
X77278D01*
X75434Y9036D02*
X77073Y7396D01*
X75230Y9036D02*
X75434D01*
X74923Y8730D02*
X75230Y9036D01*
X74923Y8525D02*
Y8730D01*
Y8525D02*
X75265Y8184D01*
Y7980D02*
Y8184D01*
X75222Y7938D02*
X75265Y7980D01*
X75057Y7772D02*
X75222Y7938D01*
X71679Y13284D02*
X108770D01*
X72172Y7772D02*
X75057D01*
X78283Y10998D02*
X100656D01*
X96694Y15011D02*
X98236D01*
X96550Y15156D02*
X96694Y15011D01*
X96550Y15156D02*
Y15156D01*
X96405Y15300D02*
X96550Y15156D01*
X95972Y15300D02*
X96405D01*
X95828Y15156D02*
X95972Y15300D01*
X95828Y15011D02*
Y15156D01*
X95683Y14867D02*
X95828Y15011D01*
X95250Y14867D02*
X95683D01*
X95106Y15011D02*
X95250Y14867D01*
X95106Y15011D02*
Y15170D01*
X94961Y15314D02*
X95106Y15170D01*
X94528Y15314D02*
X94961D01*
X94384Y15170D02*
X94528Y15314D01*
X94384Y15000D02*
Y15170D01*
X94239Y14855D02*
X94384Y15000D01*
X93806Y14855D02*
X94239D01*
X93662Y15000D02*
X93806Y14855D01*
X93662Y15000D02*
Y15233D01*
X93517Y15377D02*
X93662Y15233D01*
X93084Y15377D02*
X93517D01*
X92940Y15233D02*
X93084Y15377D01*
X92940Y15156D02*
Y15233D01*
X92795Y15011D02*
X92940Y15156D01*
X92735Y15011D02*
X92795D01*
X98236D02*
X103105D01*
X104355Y13761D01*
X100656Y10998D02*
X101145Y10509D01*
X100719Y11735D02*
X101945Y10509D01*
X108706Y12548D02*
X110745Y10509D01*
X108770Y13284D02*
X111545Y10509D01*
X60706Y4953D02*
X63426Y7673D01*
X66418Y10509D02*
X67145D01*
X85229Y2400D02*
X86000D01*
X85122Y2292D02*
X85229Y2400D01*
X83699Y2292D02*
X85122D01*
X83507Y2100D02*
X83699Y2292D01*
X73500Y2100D02*
X83507D01*
X90399Y16662D02*
Y16726D01*
X88650Y17400D02*
X89205Y16845D01*
Y16840D02*
Y16845D01*
X59455Y4953D02*
X60706D01*
X67945Y10509D02*
Y11024D01*
X67310Y11659D02*
X67945Y11024D01*
X59612Y13418D02*
X59901Y13706D01*
X59612Y13240D02*
Y13418D01*
Y13240D02*
X59771Y13081D01*
Y12903D02*
Y13081D01*
X59505Y12637D02*
X59771Y12903D01*
X59327Y12637D02*
X59505D01*
X59042Y12922D02*
X59327Y12637D01*
X58865Y12922D02*
X59042D01*
X58598Y12655D02*
X58865Y12922D01*
X58598Y12478D02*
Y12655D01*
Y12478D02*
X59375Y11701D01*
Y11523D02*
Y11701D01*
X59109Y11257D02*
X59375Y11523D01*
X58931Y11257D02*
X59109D01*
X58280Y11908D02*
X58931Y11257D01*
X58102Y11908D02*
X58280D01*
X57616Y11421D02*
X58102Y11908D01*
X59901Y13706D02*
X59955Y13761D01*
X56413Y10219D02*
X57616Y11421D01*
X56413Y3962D02*
Y10219D01*
X57750Y5248D02*
X58687Y6185D01*
X57750Y3250D02*
Y5248D01*
X58752Y4250D02*
X59455Y4953D01*
X57175Y3325D02*
X57750Y2750D01*
X56413Y3962D02*
X56750Y3626D01*
Y3250D02*
Y3626D01*
X55575Y3925D02*
X56750Y2750D01*
X60267Y14249D02*
X60755Y13761D01*
X17067Y12192D02*
X17780D01*
X24345Y8345D02*
Y10509D01*
Y8345D02*
X25070Y7620D01*
X15384Y10509D02*
X17067Y12192D01*
X23545Y10509D02*
X24211Y11176D01*
X71700Y5600D02*
X73025Y6925D01*
X99875D02*
X100628Y6172D01*
X73025Y6925D02*
X99875D01*
X77538Y5300D02*
X86150D01*
X86274Y5176D02*
X99324D01*
X86150Y5300D02*
X86274Y5176D01*
X88125Y-6675D02*
X89200Y-5600D01*
X105446Y-10000D02*
X105955Y-10509D01*
X99324Y5176D02*
X100225Y4275D01*
X71125Y-5200D02*
X86400D01*
X70300Y-5075D02*
X71000D01*
X71125Y-5200D01*
X69900Y-5475D02*
X70300Y-5075D01*
X67250Y-5475D02*
X69900D01*
X86400Y-5200D02*
X86800Y-4800D01*
X82600Y-5900D02*
X82750Y-6050D01*
X87950D01*
X73762Y-2188D02*
X74016Y-1934D01*
X76381D01*
X82675Y-4625D02*
X82900Y-4400D01*
X82444Y-3200D02*
X82844Y-3600D01*
X77647Y-3200D02*
X82444D01*
X76381Y-1934D02*
X77647Y-3200D01*
X71488Y-2188D02*
X73762D01*
X70975Y-2700D02*
X71488Y-2188D01*
X64175Y-8000D02*
X88500D01*
X61725Y-5550D02*
X64175Y-8000D01*
X64275Y-7300D02*
X88300D01*
X62525Y-5550D02*
X64275Y-7300D01*
X50650Y-3750D02*
X52750D01*
X51000Y-1500D02*
X51750Y-2250D01*
X30700Y-200D02*
X32000Y-1500D01*
X51000D01*
X77338Y5100D02*
X77538Y5300D01*
X72100Y5100D02*
X77338D01*
X56189Y-7689D02*
Y-3951D01*
Y-7689D02*
X60900Y-12400D01*
X72800D01*
X88300Y-7300D02*
X89600Y-6000D01*
X88500Y-8000D02*
X90000Y-6500D01*
Y-5600D01*
X62400Y-10000D02*
X74800D01*
X75800Y-11000D01*
X74300Y-10900D02*
X75200Y-11800D01*
X62271Y-10900D02*
X74300D01*
X73500Y-11600D02*
X74500Y-12600D01*
X72800Y-12400D02*
X73700Y-13300D01*
X58100Y-5700D02*
X62400Y-10000D01*
X57750Y-6379D02*
X62271Y-10900D01*
X57750Y-6379D02*
Y-3250D01*
X71384Y-13200D02*
X71945Y-13761D01*
X73039Y2561D02*
X73500Y2100D01*
X52450Y1750D02*
X69850D01*
X70600Y1000D01*
X87200Y-3600D02*
X87600Y-4000D01*
X82844Y-3600D02*
X87200D01*
X87600Y-4000D02*
X88400D01*
X87950Y-6050D02*
X89200Y-4800D01*
X58750Y2750D02*
X59100Y2400D01*
X82900Y-4400D02*
X88000D01*
X88400Y-4800D01*
X89600Y-5200D02*
X90000Y-4800D01*
X89600Y-6000D02*
Y-5200D01*
X59750Y-3250D02*
X60300Y-2700D01*
X18745Y16239D02*
X19905Y17400D01*
X58100Y-5700D02*
Y-3100D01*
X58439Y-3061D02*
X58750Y-2750D01*
X57750Y-2750D02*
X58100Y-3100D01*
X57750Y-3250D02*
X57750Y-3250D01*
X56550Y-2750D02*
X57100Y-3300D01*
X56250Y-3890D02*
Y-3250D01*
X56189Y-3951D02*
X56250Y-3890D01*
Y-2750D02*
X56550D01*
X58420Y4080D02*
X58750Y3750D01*
X14745Y10509D02*
X15384D01*
X113455Y-14250D02*
X113945Y-13761D01*
X54250Y3250D02*
X54250Y3250D01*
X59750Y3250D02*
X60200Y3700D01*
X60950D01*
X36250Y2000D02*
X37500Y750D01*
X33000Y2000D02*
X36250D01*
X51800Y2400D02*
X52450Y1750D01*
X37500Y750D02*
X48250D01*
X49900Y2400D02*
X51800D01*
X48250Y750D02*
X49900Y2400D01*
X68800Y-1300D02*
X70600Y500D01*
X60250Y-2250D02*
X61200Y-1300D01*
X68800D01*
X51750Y-2250D02*
X60250D01*
X55450Y-3750D02*
X55750D01*
X52650Y-2750D02*
X53250D01*
X52150Y-3250D02*
X52650Y-2750D01*
X52750Y-3750D02*
X53250Y-3250D01*
X53750Y-3750D02*
X53750Y-3750D01*
X52850Y-4250D02*
X53350Y-3750D01*
X53750D01*
D65*
X103081Y-424D02*
X110363Y6858D01*
X87200Y400D02*
X102889D01*
X108839Y6350D01*
X102673Y1200D02*
X108839Y7366D01*
X87200Y1200D02*
X102673D01*
X102457Y2000D02*
X107696Y7239D01*
X87200Y2000D02*
X102457D01*
X87176Y-424D02*
X103081D01*
X20069Y16764D02*
X88290D01*
X19739Y18034D02*
X89091D01*
X19574Y18669D02*
X89662D01*
X68828Y-15367D02*
X71857D01*
X72009Y-15215D02*
X84099D01*
X85217Y-14097D01*
X71857Y-15367D02*
X72009Y-15215D01*
X68755Y-16239D02*
X69120Y-15875D01*
X84455D02*
X84709Y-15621D01*
X69120Y-15875D02*
X84455D01*
X24355Y-16239D02*
X26658Y-18542D01*
X85852D02*
X88900Y-15494D01*
X26658Y-18542D02*
X85852D01*
X26823Y-17907D02*
X85471D01*
X25155Y-16239D02*
X26823Y-17907D01*
X85471D02*
X89281Y-14097D01*
X26988Y-17272D02*
X85090D01*
X25955Y-16239D02*
X26988Y-17272D01*
X85090D02*
X86741Y-15621D01*
X69953Y-16637D02*
X84709D01*
X69555Y-16239D02*
X69953Y-16637D01*
X84709D02*
X87249Y-14097D01*
X86360Y-19050D02*
X91313Y-14097D01*
X26366Y-19050D02*
X86360D01*
X23555Y-16239D02*
X26366Y-19050D01*
X67955Y-16239D02*
X68828Y-15367D01*
X83610Y-14630D02*
X83762Y-14478D01*
X67155Y-16239D02*
X68764Y-14630D01*
X83762Y-14478D02*
X83820D01*
X68764Y-14630D02*
X83610D01*
X19905Y17400D02*
X88650D01*
X86800Y-1600D02*
X87200Y-1200D01*
X99100D02*
X102800Y-4900D01*
X87200Y-1200D02*
X99100D01*
X86800Y-0D02*
X87200Y400D01*
X99025Y-3600D02*
X102225Y-6800D01*
X87600Y-3200D02*
X88000Y-3600D01*
X99025D01*
X87200Y-2800D02*
X99050D01*
X103250Y-7000D01*
X99124Y-2024D02*
X102975Y-5875D01*
X87176Y-2024D02*
X99124D01*
X86800Y-3200D02*
X87200Y-2800D01*
X86800Y-2400D02*
X87176Y-2024D01*
X86800Y-800D02*
X87176Y-424D01*
X86000Y800D02*
X87200Y2000D01*
X86800Y800D02*
X87200Y1200D01*
D78*
X86800Y-1600D02*
D03*
X87600Y-3200D02*
D03*
X86800Y-3200D02*
D03*
Y-2400D02*
D03*
Y-800D02*
D03*
X86000Y800D02*
D03*
X86800D02*
D03*
Y-0D02*
D03*
X86800Y-4800D02*
D03*
X86000Y2400D02*
D03*
X90000Y-5600D02*
D03*
X89200D02*
D03*
X90000Y-4800D02*
D03*
X89200D02*
D03*
X88400Y-4800D02*
D03*
Y-4000D02*
D03*
D87*
X56750Y2750D02*
D03*
Y3250D02*
D03*
X53250Y2250D02*
D03*
X53250Y3250D02*
D03*
X53750Y2750D02*
D03*
X54250Y3250D02*
D03*
X58750Y3750D02*
D03*
X58752Y4250D02*
D03*
X58750Y2750D02*
D03*
X59250D02*
D03*
X59750Y3250D02*
D03*
X60250Y3250D02*
D03*
X70600Y1000D02*
D03*
Y500D02*
D03*
X59750Y-4250D02*
D03*
X59750Y-3750D02*
D03*
X60250Y-3250D02*
D03*
X59750Y-3250D02*
D03*
X57750Y2750D02*
D03*
Y3250D02*
D03*
X56250Y-2750D02*
D03*
Y-3250D02*
D03*
X58750Y-2750D02*
D03*
Y-3250D02*
D03*
X57750Y-2750D02*
D03*
Y-3250D02*
D03*
X55750Y-3750D02*
D03*
X55750Y-4250D02*
D03*
X53250Y-2750D02*
D03*
Y-3250D02*
D03*
X53750Y-3750D02*
D03*
X53500Y-4400D02*
D03*
M02*
