G04*
G04 #@! TF.GenerationSoftware,Altium Limited,Altium Designer,23.6.0 (18)*
G04*
G04 Layer_Color=128*
%FSLAX43Y43*%
%MOMM*%
G71*
G04*
G04 #@! TF.SameCoordinates,9618B176-DC57-4C31-A2D1-5874A38502C8*
G04*
G04*
G04 #@! TF.FilePolarity,Positive*
G04*
G01*
G75*
%ADD11C,0.200*%
%ADD17R,0.600X1.250*%
%ADD20R,1.300X1.500*%
%ADD21R,0.800X0.600*%
%ADD22R,0.600X0.800*%
%ADD23R,0.700X0.800*%
%ADD26R,0.800X0.700*%
%ADD32R,0.400X0.350*%
%ADD33R,0.800X0.800*%
%ADD35R,0.350X0.400*%
%ADD95R,1.000X1.000*%
%ADD96R,0.420X0.520*%
%ADD97R,0.410X2.270*%
%ADD98R,0.410X2.270*%
%ADD99R,2.540X0.430*%
%ADD100R,4.700X0.430*%
%ADD101R,0.520X0.420*%
%ADD102R,1.000X1.000*%
D11*
X10366Y-30834D02*
X9700D01*
Y-31833D01*
X10366D01*
X9700Y-31334D02*
X10033D01*
X10700Y-30834D02*
X11366D01*
X11033D01*
Y-31833D01*
X11699Y-30834D02*
Y-31833D01*
X12366D01*
X12699Y-32000D02*
X13365D01*
X13699Y-31833D02*
Y-30834D01*
X14199D01*
X14365Y-31000D01*
Y-31334D01*
X14199Y-31500D01*
X13699D01*
X14032D02*
X14365Y-31833D01*
X14698Y-30834D02*
Y-31833D01*
X15198D01*
X15365Y-31667D01*
Y-31500D01*
X15198Y-31334D01*
X14698D01*
X15198D01*
X15365Y-31167D01*
Y-31000D01*
X15198Y-30834D01*
X14698D01*
X15698Y-31833D02*
Y-31667D01*
X15865D01*
Y-31833D01*
X15698D01*
X16531D02*
Y-30834D01*
X17031D01*
X17198Y-31000D01*
Y-31334D01*
X17031Y-31500D01*
X16531D01*
X18197Y-31167D02*
X17697D01*
X17531Y-31334D01*
Y-31667D01*
X17697Y-31833D01*
X18197D01*
X18530Y-30834D02*
Y-31833D01*
X19030D01*
X19197Y-31667D01*
Y-31500D01*
Y-31334D01*
X19030Y-31167D01*
X18530D01*
X19530Y-30834D02*
Y-31833D01*
X20030D01*
X20197Y-31667D01*
Y-31000D01*
X20030Y-30834D01*
X19530D01*
X20696Y-31833D02*
X21030D01*
X21196Y-31667D01*
Y-31334D01*
X21030Y-31167D01*
X20696D01*
X20530Y-31334D01*
Y-31667D01*
X20696Y-31833D01*
X22196Y-31167D02*
X21696D01*
X21530Y-31334D01*
Y-31667D01*
X21696Y-31833D01*
X22196D01*
X26528Y-30834D02*
Y-31833D01*
X27028D01*
X27194Y-31667D01*
Y-31500D01*
X27028Y-31334D01*
X26528D01*
X27028D01*
X27194Y-31167D01*
Y-31000D01*
X27028Y-30834D01*
X26528D01*
X27694Y-31833D02*
X28027D01*
X28194Y-31667D01*
Y-31334D01*
X28027Y-31167D01*
X27694D01*
X27528Y-31334D01*
Y-31667D01*
X27694Y-31833D01*
X28694Y-31000D02*
Y-31167D01*
X28527D01*
X28860D01*
X28694D01*
Y-31667D01*
X28860Y-31833D01*
X29527Y-31000D02*
Y-31167D01*
X29360D01*
X29694D01*
X29527D01*
Y-31667D01*
X29694Y-31833D01*
X30360D02*
X30693D01*
X30860Y-31667D01*
Y-31334D01*
X30693Y-31167D01*
X30360D01*
X30193Y-31334D01*
Y-31667D01*
X30360Y-31833D01*
X31193D02*
Y-31167D01*
X31360D01*
X31526Y-31334D01*
Y-31833D01*
Y-31334D01*
X31693Y-31167D01*
X31860Y-31334D01*
Y-31833D01*
X33192D02*
Y-30834D01*
X33692D01*
X33859Y-31000D01*
Y-31334D01*
X33692Y-31500D01*
X33192D01*
X34359Y-31167D02*
X34692D01*
X34859Y-31334D01*
Y-31833D01*
X34359D01*
X34192Y-31667D01*
X34359Y-31500D01*
X34859D01*
X35192Y-31833D02*
X35692D01*
X35858Y-31667D01*
X35692Y-31500D01*
X35358D01*
X35192Y-31334D01*
X35358Y-31167D01*
X35858D01*
X36358Y-31000D02*
Y-31167D01*
X36191D01*
X36525D01*
X36358D01*
Y-31667D01*
X36525Y-31833D01*
X37524D02*
X37191D01*
X37025Y-31667D01*
Y-31334D01*
X37191Y-31167D01*
X37524D01*
X37691Y-31334D01*
Y-31500D01*
X37025D01*
X42689Y-30834D02*
X42356Y-31000D01*
X42023Y-31334D01*
Y-31667D01*
X42190Y-31833D01*
X42523D01*
X42689Y-31667D01*
Y-31500D01*
X42523Y-31334D01*
X42023D01*
X43023Y-31833D02*
X43689Y-31167D01*
X44689Y-31833D02*
X44022D01*
X44689Y-31167D01*
Y-31000D01*
X44522Y-30834D01*
X44189D01*
X44022Y-31000D01*
X45022D02*
X45189Y-30834D01*
X45522D01*
X45688Y-31000D01*
Y-31167D01*
X45522Y-31334D01*
X45355D01*
X45522D01*
X45688Y-31500D01*
Y-31667D01*
X45522Y-31833D01*
X45189D01*
X45022Y-31667D01*
X46022Y-31833D02*
X46688Y-31167D01*
X47688Y-31833D02*
X47021D01*
X47688Y-31167D01*
Y-31000D01*
X47521Y-30834D01*
X47188D01*
X47021Y-31000D01*
X48021D02*
X48188Y-30834D01*
X48521D01*
X48687Y-31000D01*
Y-31667D01*
X48521Y-31833D01*
X48188D01*
X48021Y-31667D01*
Y-31000D01*
X49687Y-31833D02*
X49021D01*
X49687Y-31167D01*
Y-31000D01*
X49521Y-30834D01*
X49187D01*
X49021Y-31000D01*
X50020D02*
X50187Y-30834D01*
X50520D01*
X50687Y-31000D01*
Y-31167D01*
X50520Y-31334D01*
X50354D01*
X50520D01*
X50687Y-31500D01*
Y-31667D01*
X50520Y-31833D01*
X50187D01*
X50020Y-31667D01*
X55685Y-31833D02*
X55019D01*
X55685Y-31167D01*
Y-31000D01*
X55519Y-30834D01*
X55185D01*
X55019Y-31000D01*
X56018Y-31167D02*
X56185D01*
Y-31334D01*
X56018D01*
Y-31167D01*
Y-31667D02*
X56185D01*
Y-31833D01*
X56018D01*
Y-31667D01*
X56851Y-31833D02*
X57185D01*
X57018D01*
Y-30834D01*
X56851Y-31000D01*
X57685Y-30834D02*
X58351D01*
Y-31000D01*
X57685Y-31667D01*
Y-31833D01*
X58684Y-31167D02*
X58851D01*
Y-31334D01*
X58684D01*
Y-31167D01*
Y-31667D02*
X58851D01*
Y-31833D01*
X58684D01*
Y-31667D01*
X59517Y-31833D02*
X59850D01*
X59684D01*
Y-30834D01*
X59517Y-31000D01*
X61017Y-31833D02*
X60350D01*
X61017Y-31167D01*
Y-31000D01*
X60850Y-30834D01*
X60517D01*
X60350Y-31000D01*
X62350Y-31833D02*
Y-30834D01*
X62850D01*
X63016Y-31000D01*
Y-31334D01*
X62850Y-31500D01*
X62350D01*
X63349Y-31833D02*
Y-30834D01*
X63683Y-31167D01*
X64016Y-30834D01*
Y-31833D01*
D17*
X8118Y3905D02*
D03*
X9068Y1905D02*
D03*
X7168D02*
D03*
D20*
X61761Y178D02*
D03*
X63461D02*
D03*
X63486Y-2819D02*
D03*
X61786D02*
D03*
X68566Y203D02*
D03*
X66866D02*
D03*
D21*
X82800Y-3925D02*
D03*
X81600D02*
D03*
X82800Y-2725D02*
D03*
X81600D02*
D03*
X82800Y-6325D02*
D03*
X81600D02*
D03*
X82800Y-325D02*
D03*
X81600D02*
D03*
X82800Y-5125D02*
D03*
X81600D02*
D03*
X82800Y-1525D02*
D03*
X81600D02*
D03*
Y1200D02*
D03*
X84300Y7700D02*
D03*
X82800Y1200D02*
D03*
X85500Y7700D02*
D03*
D22*
X38125Y-7157D02*
D03*
Y-8357D02*
D03*
X86800Y4700D02*
D03*
Y3500D02*
D03*
X84400Y-8825D02*
D03*
Y-7625D02*
D03*
X85600Y-8800D02*
D03*
Y-7600D02*
D03*
X85600Y3500D02*
D03*
Y4700D02*
D03*
X88000Y-7575D02*
D03*
Y-8775D02*
D03*
X89200Y3500D02*
D03*
Y4700D02*
D03*
X90400Y3500D02*
D03*
Y4700D02*
D03*
X88000Y4250D02*
D03*
Y5450D02*
D03*
X86800Y-7600D02*
D03*
Y-8800D02*
D03*
X89200Y-7575D02*
D03*
Y-8775D02*
D03*
X26400Y3800D02*
D03*
Y2600D02*
D03*
X90800Y200D02*
D03*
Y1400D02*
D03*
X37800Y4000D02*
D03*
X90000Y-3100D02*
D03*
X94000Y600D02*
D03*
X29100Y-2800D02*
D03*
X29600Y2800D02*
D03*
X37800Y5200D02*
D03*
X29600Y4000D02*
D03*
X29100Y-4000D02*
D03*
X94000Y-600D02*
D03*
X90000Y-1900D02*
D03*
D23*
X38862Y-3362D02*
D03*
Y-4562D02*
D03*
X5410Y9814D02*
D03*
Y11014D02*
D03*
X8103D02*
D03*
Y9814D02*
D03*
X39700Y-6250D02*
D03*
X41700Y-4450D02*
D03*
X40300Y-4550D02*
D03*
X41700Y-5650D02*
D03*
X38887Y7477D02*
D03*
X40500Y6800D02*
D03*
X40300Y-3350D02*
D03*
X40500Y8000D02*
D03*
X30450Y-5150D02*
D03*
X39700Y-7450D02*
D03*
X38887Y8677D02*
D03*
X84200Y4800D02*
D03*
X45200Y1700D02*
D03*
X46500D02*
D03*
X47900Y1700D02*
D03*
X49200D02*
D03*
X45200Y2900D02*
D03*
X45300Y4400D02*
D03*
X46500Y2900D02*
D03*
X46600Y4400D02*
D03*
X47900Y2900D02*
D03*
Y4400D02*
D03*
X49200Y2900D02*
D03*
Y4400D02*
D03*
X46600Y5600D02*
D03*
X45300D02*
D03*
X30450Y-3950D02*
D03*
X84200Y3600D02*
D03*
X47900Y5600D02*
D03*
X49200D02*
D03*
D26*
X35757Y-8372D02*
D03*
X36957D02*
D03*
X26600Y-6900D02*
D03*
X25400D02*
D03*
X81500Y5500D02*
D03*
X81500Y7000D02*
D03*
X49500Y-3700D02*
D03*
X81600Y2500D02*
D03*
X36541Y3988D02*
D03*
X84300Y9000D02*
D03*
X26600Y-5600D02*
D03*
X85500Y9000D02*
D03*
X35341Y3988D02*
D03*
X82700Y7000D02*
D03*
X82700Y5500D02*
D03*
X82800Y2500D02*
D03*
X25400Y-5600D02*
D03*
X48300Y-3700D02*
D03*
D32*
X50300Y4350D02*
D03*
Y3700D02*
D03*
X51050Y4350D02*
D03*
Y3700D02*
D03*
D33*
X5410Y8256D02*
D03*
Y6756D02*
D03*
X8103Y6731D02*
D03*
Y8231D02*
D03*
D35*
X85225Y1850D02*
D03*
X84575D02*
D03*
D95*
X37389Y6922D02*
D03*
Y8522D02*
D03*
X37338Y-3416D02*
D03*
Y-5016D02*
D03*
D96*
X57250Y-710D02*
D03*
Y-90D02*
D03*
X73250Y1440D02*
D03*
X77800Y110D02*
D03*
X76750Y-2310D02*
D03*
X72750Y310D02*
D03*
X77750Y-2310D02*
D03*
X75750D02*
D03*
Y310D02*
D03*
X74250Y810D02*
D03*
X74750Y-1810D02*
D03*
X58750Y810D02*
D03*
X59250Y-2810D02*
D03*
X56250Y1060D02*
D03*
X53750Y-1810D02*
D03*
X52750Y190D02*
D03*
X58750Y-1310D02*
D03*
X54750Y-1810D02*
D03*
X55750D02*
D03*
X53750Y310D02*
D03*
X59750Y-690D02*
D03*
X73250Y2060D02*
D03*
X77800Y-510D02*
D03*
X76750Y-1690D02*
D03*
X72750Y-310D02*
D03*
X77750Y-1690D02*
D03*
X75750D02*
D03*
Y-310D02*
D03*
X74250Y190D02*
D03*
X74750Y-1190D02*
D03*
X58750Y190D02*
D03*
X59250Y-2190D02*
D03*
X56250Y440D02*
D03*
X53750Y-1190D02*
D03*
X52750Y810D02*
D03*
X58750Y-690D02*
D03*
X54750Y-1190D02*
D03*
X55750D02*
D03*
X53750Y-310D02*
D03*
X59750Y-1310D02*
D03*
D97*
X13950Y17865D02*
D03*
X14750D02*
D03*
X15550D02*
D03*
X16350D02*
D03*
X17150D02*
D03*
X17950D02*
D03*
X18750D02*
D03*
X19550D02*
D03*
X20350D02*
D03*
X21150D02*
D03*
X21950D02*
D03*
X22750D02*
D03*
X23550D02*
D03*
X24350D02*
D03*
X25150D02*
D03*
X25950D02*
D03*
X26750D02*
D03*
X27550D02*
D03*
X28350D02*
D03*
X29150D02*
D03*
X57550D02*
D03*
X58350D02*
D03*
X59150D02*
D03*
X59950D02*
D03*
X60750D02*
D03*
X61550D02*
D03*
X62350D02*
D03*
X63150D02*
D03*
X63950D02*
D03*
X64750D02*
D03*
X65550D02*
D03*
X66350D02*
D03*
X67150D02*
D03*
X67950D02*
D03*
X68750D02*
D03*
X69550D02*
D03*
X70350D02*
D03*
X71150D02*
D03*
X71950D02*
D03*
X72750D02*
D03*
X101150D02*
D03*
X101950D02*
D03*
X102750D02*
D03*
X103550D02*
D03*
X104350D02*
D03*
X105150D02*
D03*
X105950D02*
D03*
X106750D02*
D03*
X107550D02*
D03*
X108350D02*
D03*
X109150D02*
D03*
X109950D02*
D03*
X110750D02*
D03*
X111550D02*
D03*
X112350D02*
D03*
X113150D02*
D03*
X113950D02*
D03*
X114750D02*
D03*
X115550D02*
D03*
X116350D02*
D03*
X101150Y-12135D02*
D03*
X101950D02*
D03*
X102750D02*
D03*
X103550D02*
D03*
X104350D02*
D03*
X105150D02*
D03*
X105950D02*
D03*
X106750D02*
D03*
X107550D02*
D03*
X108350D02*
D03*
X109150D02*
D03*
X109950D02*
D03*
X110750D02*
D03*
X111550D02*
D03*
X112350D02*
D03*
X113150D02*
D03*
X113950D02*
D03*
X114750D02*
D03*
X115550D02*
D03*
X116350D02*
D03*
X13950Y-12135D02*
D03*
X14750D02*
D03*
X15550D02*
D03*
X16350D02*
D03*
X17150D02*
D03*
X17950D02*
D03*
X18750D02*
D03*
X19550D02*
D03*
X20350D02*
D03*
X21150D02*
D03*
X21950D02*
D03*
X22750D02*
D03*
X23550D02*
D03*
X24350D02*
D03*
X25150D02*
D03*
X25950D02*
D03*
X26750D02*
D03*
X27550D02*
D03*
X28350D02*
D03*
X29150D02*
D03*
X57550Y-12135D02*
D03*
X58350D02*
D03*
X59150D02*
D03*
X59950D02*
D03*
X60750D02*
D03*
X61550D02*
D03*
X62350D02*
D03*
X63150D02*
D03*
X63950D02*
D03*
X64750D02*
D03*
X65550D02*
D03*
X66350D02*
D03*
X67150D02*
D03*
X67950D02*
D03*
X68750D02*
D03*
X69550D02*
D03*
X70350D02*
D03*
X71150D02*
D03*
X71950D02*
D03*
X72750D02*
D03*
D98*
X13950Y12135D02*
D03*
X14750D02*
D03*
X15550D02*
D03*
X16350D02*
D03*
X17150D02*
D03*
X17950D02*
D03*
X18750D02*
D03*
X19550D02*
D03*
X20350D02*
D03*
X21150D02*
D03*
X21950D02*
D03*
X22750D02*
D03*
X23550D02*
D03*
X24350D02*
D03*
X25150D02*
D03*
X25950D02*
D03*
X26750D02*
D03*
X27550D02*
D03*
X28350D02*
D03*
X29150D02*
D03*
X57550D02*
D03*
X58350D02*
D03*
X59150D02*
D03*
X59950D02*
D03*
X60750D02*
D03*
X61550D02*
D03*
X62350D02*
D03*
X63150D02*
D03*
X63950D02*
D03*
X64750D02*
D03*
X65550D02*
D03*
X66350D02*
D03*
X67150D02*
D03*
X67950D02*
D03*
X68750D02*
D03*
X69550D02*
D03*
X70350D02*
D03*
X71150D02*
D03*
X71950D02*
D03*
X72750D02*
D03*
X101150D02*
D03*
X101950D02*
D03*
X102750D02*
D03*
X103550D02*
D03*
X104350D02*
D03*
X105150D02*
D03*
X105950D02*
D03*
X106750D02*
D03*
X107550D02*
D03*
X108350D02*
D03*
X109150D02*
D03*
X109950D02*
D03*
X110750D02*
D03*
X111550D02*
D03*
X112350D02*
D03*
X113150D02*
D03*
X113950D02*
D03*
X114750D02*
D03*
X115550D02*
D03*
X116350D02*
D03*
X101150Y-17865D02*
D03*
X101950D02*
D03*
X102750D02*
D03*
X103550D02*
D03*
X104350D02*
D03*
X105150D02*
D03*
X105950D02*
D03*
X106750D02*
D03*
X107550D02*
D03*
X108350D02*
D03*
X109150D02*
D03*
X109950D02*
D03*
X110750D02*
D03*
X111550D02*
D03*
X112350D02*
D03*
X113150D02*
D03*
X113950D02*
D03*
X114750D02*
D03*
X115550D02*
D03*
X116350D02*
D03*
X13950Y-17865D02*
D03*
X14750D02*
D03*
X15550D02*
D03*
X16350D02*
D03*
X17150D02*
D03*
X17950D02*
D03*
X18750D02*
D03*
X19550D02*
D03*
X20350D02*
D03*
X21150D02*
D03*
X21950D02*
D03*
X22750D02*
D03*
X23550D02*
D03*
X24350D02*
D03*
X25150D02*
D03*
X25950D02*
D03*
X26750D02*
D03*
X27550D02*
D03*
X28350D02*
D03*
X29150D02*
D03*
X57550Y-17865D02*
D03*
X58350D02*
D03*
X59150D02*
D03*
X59950D02*
D03*
X60750D02*
D03*
X61550D02*
D03*
X62350D02*
D03*
X63150D02*
D03*
X63950D02*
D03*
X64750D02*
D03*
X65550D02*
D03*
X66350D02*
D03*
X67150D02*
D03*
X67950D02*
D03*
X68750D02*
D03*
X69550D02*
D03*
X70350D02*
D03*
X71150D02*
D03*
X71950D02*
D03*
X72750D02*
D03*
D99*
X13485Y15000D02*
D03*
X29615D02*
D03*
X57085D02*
D03*
X73215D02*
D03*
X100685D02*
D03*
X116815D02*
D03*
X100685Y-15000D02*
D03*
X116815D02*
D03*
X13485Y-15000D02*
D03*
X29615D02*
D03*
X57085Y-15000D02*
D03*
X73215D02*
D03*
D100*
X18375Y15000D02*
D03*
X24725D02*
D03*
X61975D02*
D03*
X68325D02*
D03*
X105575D02*
D03*
X111925D02*
D03*
X105575Y-15000D02*
D03*
X111925D02*
D03*
X18375Y-15000D02*
D03*
X24725D02*
D03*
X61975Y-15000D02*
D03*
X68325D02*
D03*
D101*
X73810Y-1250D02*
D03*
X73190D02*
D03*
X70593Y2249D02*
D03*
X71440Y-2250D02*
D03*
X70940Y-1250D02*
D03*
X52090Y-2300D02*
D03*
X58310Y-2250D02*
D03*
X51940Y2750D02*
D03*
X71340Y250D02*
D03*
X71213Y2249D02*
D03*
X72060Y-2250D02*
D03*
X71560Y-1250D02*
D03*
X52710Y-2300D02*
D03*
X57690Y-2250D02*
D03*
X52560Y2750D02*
D03*
X71960Y250D02*
D03*
D102*
X43200Y-3050D02*
D03*
X41600D02*
D03*
X41900Y8000D02*
D03*
X84400Y6300D02*
D03*
X86000D02*
D03*
X43500Y8000D02*
D03*
M02*
