G04*
G04 #@! TF.GenerationSoftware,Altium Limited,Altium Designer,23.6.0 (18)*
G04*
G04 Layer_Color=16711935*
%FSLAX43Y43*%
%MOMM*%
G71*
G04*
G04 #@! TF.SameCoordinates,9618B176-DC57-4C31-A2D1-5874A38502C8*
G04*
G04*
G04 #@! TF.FilePolarity,Negative*
G04*
G01*
G75*
%ADD11C,0.200*%
%ADD36R,0.702X1.352*%
%ADD40R,1.402X1.602*%
%ADD41R,0.902X0.702*%
%ADD42R,0.702X0.902*%
%ADD43R,0.802X0.902*%
%ADD45C,0.502*%
%ADD46R,0.902X0.802*%
%ADD52R,0.502X0.452*%
%ADD53R,0.902X0.902*%
%ADD55R,0.452X0.502*%
%ADD56C,0.502*%
%ADD57C,0.350*%
%ADD58R,1.752X1.752*%
%ADD59C,1.752*%
%ADD60C,4.602*%
%ADD61C,0.349*%
%ADD114R,1.102X1.102*%
%ADD115R,0.522X0.622*%
%ADD116R,0.512X2.372*%
%ADD117R,0.512X2.372*%
%ADD118R,2.642X0.532*%
%ADD119R,4.802X0.532*%
%ADD120R,0.622X0.522*%
%ADD121R,1.102X1.102*%
G36*
X5126Y7870D02*
X5042Y7786D01*
Y7319D01*
X5033Y7309D01*
X5117Y7225D01*
Y7001D01*
X5238Y6880D01*
X5280Y6922D01*
X5416D01*
X5495Y7001D01*
X5626D01*
X5724Y7099D01*
X5733D01*
Y7132D01*
X5803Y7202D01*
Y7599D01*
X5757Y7646D01*
Y7814D01*
X5500Y8071D01*
X5289D01*
X5173Y7954D01*
X5154D01*
Y7903D01*
X5128Y7877D01*
Y7871D01*
X5126Y7870D01*
D02*
G37*
G36*
X7823Y7823D02*
Y7137D01*
X8357D01*
Y7823D01*
X7823D01*
D02*
G37*
D11*
X10366Y-30834D02*
X9700D01*
Y-31833D01*
X10366D01*
X9700Y-31334D02*
X10033D01*
X10700Y-30834D02*
X11366D01*
X11033D01*
Y-31833D01*
X11699Y-30834D02*
Y-31833D01*
X12366D01*
X12699Y-32000D02*
X13365D01*
X13699Y-31833D02*
Y-30834D01*
X14199D01*
X14365Y-31000D01*
Y-31334D01*
X14199Y-31500D01*
X13699D01*
X14032D02*
X14365Y-31833D01*
X14698Y-30834D02*
Y-31833D01*
X15198D01*
X15365Y-31667D01*
Y-31500D01*
X15198Y-31334D01*
X14698D01*
X15198D01*
X15365Y-31167D01*
Y-31000D01*
X15198Y-30834D01*
X14698D01*
X15698Y-31833D02*
Y-31667D01*
X15865D01*
Y-31833D01*
X15698D01*
X16531D02*
Y-30834D01*
X17031D01*
X17198Y-31000D01*
Y-31334D01*
X17031Y-31500D01*
X16531D01*
X18197Y-31167D02*
X17697D01*
X17531Y-31334D01*
Y-31667D01*
X17697Y-31833D01*
X18197D01*
X18530Y-30834D02*
Y-31833D01*
X19030D01*
X19197Y-31667D01*
Y-31500D01*
Y-31334D01*
X19030Y-31167D01*
X18530D01*
X19530Y-30834D02*
Y-31833D01*
X20030D01*
X20197Y-31667D01*
Y-31000D01*
X20030Y-30834D01*
X19530D01*
X20696Y-31833D02*
X21030D01*
X21196Y-31667D01*
Y-31334D01*
X21030Y-31167D01*
X20696D01*
X20530Y-31334D01*
Y-31667D01*
X20696Y-31833D01*
X22196Y-31167D02*
X21696D01*
X21530Y-31334D01*
Y-31667D01*
X21696Y-31833D01*
X22196D01*
X26528Y-30834D02*
Y-31833D01*
X27028D01*
X27194Y-31667D01*
Y-31500D01*
X27028Y-31334D01*
X26528D01*
X27028D01*
X27194Y-31167D01*
Y-31000D01*
X27028Y-30834D01*
X26528D01*
X27694Y-31833D02*
X28027D01*
X28194Y-31667D01*
Y-31334D01*
X28027Y-31167D01*
X27694D01*
X27528Y-31334D01*
Y-31667D01*
X27694Y-31833D01*
X28694Y-31000D02*
Y-31167D01*
X28527D01*
X28860D01*
X28694D01*
Y-31667D01*
X28860Y-31833D01*
X29527Y-31000D02*
Y-31167D01*
X29360D01*
X29694D01*
X29527D01*
Y-31667D01*
X29694Y-31833D01*
X30360D02*
X30693D01*
X30860Y-31667D01*
Y-31334D01*
X30693Y-31167D01*
X30360D01*
X30193Y-31334D01*
Y-31667D01*
X30360Y-31833D01*
X31193D02*
Y-31167D01*
X31360D01*
X31526Y-31334D01*
Y-31833D01*
Y-31334D01*
X31693Y-31167D01*
X31860Y-31334D01*
Y-31833D01*
X33859Y-31000D02*
X33692Y-30834D01*
X33359D01*
X33192Y-31000D01*
Y-31167D01*
X33359Y-31334D01*
X33692D01*
X33859Y-31500D01*
Y-31667D01*
X33692Y-31833D01*
X33359D01*
X33192Y-31667D01*
X34359Y-31833D02*
X34692D01*
X34859Y-31667D01*
Y-31334D01*
X34692Y-31167D01*
X34359D01*
X34192Y-31334D01*
Y-31667D01*
X34359Y-31833D01*
X35192D02*
X35525D01*
X35358D01*
Y-30834D01*
X35192D01*
X36691D02*
Y-31833D01*
X36191D01*
X36025Y-31667D01*
Y-31334D01*
X36191Y-31167D01*
X36691D01*
X37524Y-31833D02*
X37191D01*
X37025Y-31667D01*
Y-31334D01*
X37191Y-31167D01*
X37524D01*
X37691Y-31334D01*
Y-31500D01*
X37025D01*
X38024Y-31167D02*
Y-31833D01*
Y-31500D01*
X38191Y-31334D01*
X38357Y-31167D01*
X38524D01*
X43689Y-30834D02*
X43356Y-31000D01*
X43023Y-31334D01*
Y-31667D01*
X43189Y-31833D01*
X43522D01*
X43689Y-31667D01*
Y-31500D01*
X43522Y-31334D01*
X43023D01*
X44022Y-31833D02*
X44689Y-31167D01*
X45688Y-31833D02*
X45022D01*
X45688Y-31167D01*
Y-31000D01*
X45522Y-30834D01*
X45189D01*
X45022Y-31000D01*
X46022D02*
X46188Y-30834D01*
X46521D01*
X46688Y-31000D01*
Y-31167D01*
X46521Y-31334D01*
X46355D01*
X46521D01*
X46688Y-31500D01*
Y-31667D01*
X46521Y-31833D01*
X46188D01*
X46022Y-31667D01*
X47021Y-31833D02*
X47688Y-31167D01*
X48687Y-31833D02*
X48021D01*
X48687Y-31167D01*
Y-31000D01*
X48521Y-30834D01*
X48188D01*
X48021Y-31000D01*
X49021D02*
X49187Y-30834D01*
X49521D01*
X49687Y-31000D01*
Y-31667D01*
X49521Y-31833D01*
X49187D01*
X49021Y-31667D01*
Y-31000D01*
X50687Y-31833D02*
X50020D01*
X50687Y-31167D01*
Y-31000D01*
X50520Y-30834D01*
X50187D01*
X50020Y-31000D01*
X51020D02*
X51187Y-30834D01*
X51520D01*
X51686Y-31000D01*
Y-31167D01*
X51520Y-31334D01*
X51353D01*
X51520D01*
X51686Y-31500D01*
Y-31667D01*
X51520Y-31833D01*
X51187D01*
X51020Y-31667D01*
X56685Y-31833D02*
X56018D01*
X56685Y-31167D01*
Y-31000D01*
X56518Y-30834D01*
X56185D01*
X56018Y-31000D01*
X57018Y-31167D02*
X57185D01*
Y-31334D01*
X57018D01*
Y-31167D01*
Y-31667D02*
X57185D01*
Y-31833D01*
X57018D01*
Y-31667D01*
X57851Y-31833D02*
X58184D01*
X58018D01*
Y-30834D01*
X57851Y-31000D01*
X58684Y-30834D02*
X59351D01*
Y-31000D01*
X58684Y-31667D01*
Y-31833D01*
X59684Y-31167D02*
X59851D01*
Y-31334D01*
X59684D01*
Y-31167D01*
Y-31667D02*
X59851D01*
Y-31833D01*
X59684D01*
Y-31667D01*
X60517Y-31833D02*
X60850D01*
X60684D01*
Y-30834D01*
X60517Y-31000D01*
X62016Y-31833D02*
X61350D01*
X62016Y-31167D01*
Y-31000D01*
X61850Y-30834D01*
X61517D01*
X61350Y-31000D01*
X63349Y-31833D02*
Y-30834D01*
X63849D01*
X64016Y-31000D01*
Y-31334D01*
X63849Y-31500D01*
X63349D01*
X64349Y-31833D02*
Y-30834D01*
X64682Y-31167D01*
X65016Y-30834D01*
Y-31833D01*
D36*
X8118Y3905D02*
D03*
X9068Y1905D02*
D03*
X7168D02*
D03*
D40*
X61761Y178D02*
D03*
X63461D02*
D03*
X63486Y-2819D02*
D03*
X61786D02*
D03*
X68566Y203D02*
D03*
X66866D02*
D03*
D41*
X82800Y-3925D02*
D03*
X81600D02*
D03*
X82800Y-2725D02*
D03*
X81600D02*
D03*
X82800Y-6325D02*
D03*
X81600D02*
D03*
X82800Y-325D02*
D03*
X81600D02*
D03*
X82800Y-5125D02*
D03*
X81600D02*
D03*
X82800Y-1525D02*
D03*
X81600D02*
D03*
Y1200D02*
D03*
X84300Y7700D02*
D03*
X82800Y1200D02*
D03*
X85500Y7700D02*
D03*
D42*
X38125Y-7157D02*
D03*
Y-8357D02*
D03*
X86800Y4700D02*
D03*
Y3500D02*
D03*
X84400Y-8825D02*
D03*
Y-7625D02*
D03*
X85600Y-8800D02*
D03*
Y-7600D02*
D03*
X85600Y3500D02*
D03*
Y4700D02*
D03*
X88000Y-7575D02*
D03*
Y-8775D02*
D03*
X89200Y3500D02*
D03*
Y4700D02*
D03*
X90400Y3500D02*
D03*
Y4700D02*
D03*
X88000Y4250D02*
D03*
Y5450D02*
D03*
X86800Y-7600D02*
D03*
Y-8800D02*
D03*
X89200Y-7575D02*
D03*
Y-8775D02*
D03*
X26400Y3800D02*
D03*
Y2600D02*
D03*
X90800Y200D02*
D03*
Y1400D02*
D03*
X37800Y4000D02*
D03*
X90000Y-3100D02*
D03*
X94000Y600D02*
D03*
X29100Y-2800D02*
D03*
X29600Y2800D02*
D03*
X37800Y5200D02*
D03*
X29600Y4000D02*
D03*
X29100Y-4000D02*
D03*
X94000Y-600D02*
D03*
X90000Y-1900D02*
D03*
D43*
X38862Y-3362D02*
D03*
Y-4562D02*
D03*
X5410Y9814D02*
D03*
Y11014D02*
D03*
X8103D02*
D03*
Y9814D02*
D03*
X39700Y-6250D02*
D03*
X41700Y-4450D02*
D03*
X40300Y-4550D02*
D03*
X41700Y-5650D02*
D03*
X38887Y7477D02*
D03*
X40500Y6800D02*
D03*
X40300Y-3350D02*
D03*
X40500Y8000D02*
D03*
X30450Y-5150D02*
D03*
X39700Y-7450D02*
D03*
X38887Y8677D02*
D03*
X84200Y4800D02*
D03*
X45200Y1700D02*
D03*
X46500D02*
D03*
X47900Y1700D02*
D03*
X49200D02*
D03*
X45200Y2900D02*
D03*
X45300Y4400D02*
D03*
X46500Y2900D02*
D03*
X46600Y4400D02*
D03*
X47900Y2900D02*
D03*
Y4400D02*
D03*
X49200Y2900D02*
D03*
Y4400D02*
D03*
X46600Y5600D02*
D03*
X45300D02*
D03*
X30450Y-3950D02*
D03*
X84200Y3600D02*
D03*
X47900Y5600D02*
D03*
X49200D02*
D03*
D45*
X27550Y-19800D02*
D03*
X28350D02*
D03*
X29150D02*
D03*
X71700Y5600D02*
D03*
X72100Y5100D02*
D03*
X63830Y4140D02*
D03*
X60755Y13761D02*
D03*
X59955D02*
D03*
X20355Y-16239D02*
D03*
X19555D02*
D03*
X18755D02*
D03*
X21155D02*
D03*
X16355D02*
D03*
X17155D02*
D03*
X26755D02*
D03*
X25155D02*
D03*
X24355D02*
D03*
X23555D02*
D03*
X22755D02*
D03*
X21955D02*
D03*
X25955D02*
D03*
X69571Y-1549D02*
D03*
X16355Y-10509D02*
D03*
X17155D02*
D03*
X17945Y-13761D02*
D03*
X15545D02*
D03*
X20345D02*
D03*
X22745D02*
D03*
X25145D02*
D03*
X27545D02*
D03*
X13955Y-16239D02*
D03*
X14755D02*
D03*
X15555D02*
D03*
X17955D02*
D03*
X26755Y-10509D02*
D03*
X25955D02*
D03*
X23555D02*
D03*
X24355D02*
D03*
X29155D02*
D03*
X28355D02*
D03*
X19555D02*
D03*
X18755D02*
D03*
X69901Y4470D02*
D03*
X12700Y7899D02*
D03*
X110363Y6858D02*
D03*
X108839Y6350D02*
D03*
X107696Y7239D02*
D03*
X108839Y7366D02*
D03*
X91313Y-14097D02*
D03*
X106680Y2032D02*
D03*
X105004Y-965D02*
D03*
X104877Y-3988D02*
D03*
X104996Y-6027D02*
D03*
X90551Y17780D02*
D03*
X105613Y6147D02*
D03*
X104419D02*
D03*
X107493Y3505D02*
D03*
X107620Y-3505D02*
D03*
X106702Y-2025D02*
D03*
X105004Y813D02*
D03*
X46253Y-9398D02*
D03*
X90399Y16662D02*
D03*
X89205Y16840D02*
D03*
X89306Y15748D02*
D03*
X102800Y-4900D02*
D03*
X102225Y-6800D02*
D03*
X103250Y-7000D02*
D03*
X102975Y-5875D02*
D03*
X100628Y6172D02*
D03*
X100225Y4275D02*
D03*
X70600Y-5475D02*
D03*
X46600Y6500D02*
D03*
X43650Y5200D02*
D03*
X44600Y8000D02*
D03*
X43900Y6900D02*
D03*
X96400Y-22400D02*
D03*
D46*
X35757Y-8372D02*
D03*
X36957D02*
D03*
X26600Y-6900D02*
D03*
X25400D02*
D03*
X81500Y5500D02*
D03*
X81500Y7000D02*
D03*
X49500Y-3700D02*
D03*
X81600Y2500D02*
D03*
X36541Y3988D02*
D03*
X84300Y9000D02*
D03*
X26600Y-5600D02*
D03*
X85500Y9000D02*
D03*
X35341Y3988D02*
D03*
X82700Y7000D02*
D03*
X82700Y5500D02*
D03*
X82800Y2500D02*
D03*
X25400Y-5600D02*
D03*
X48300Y-3700D02*
D03*
D52*
X50300Y4350D02*
D03*
Y3700D02*
D03*
X51050Y4350D02*
D03*
Y3700D02*
D03*
D53*
X5410Y8256D02*
D03*
Y6756D02*
D03*
X8103Y6731D02*
D03*
Y8231D02*
D03*
D55*
X85225Y1850D02*
D03*
X84575D02*
D03*
D56*
X59155Y13761D02*
D03*
X68755D02*
D03*
X71145Y10509D02*
D03*
X66355Y13761D02*
D03*
X63955D02*
D03*
X61555D02*
D03*
X114755D02*
D03*
X109945Y10509D02*
D03*
X102755Y13761D02*
D03*
X107555D02*
D03*
X105145Y10509D02*
D03*
X112345D02*
D03*
X72352Y-16231D02*
D03*
X71552D02*
D03*
X59155Y19491D02*
D03*
X58355D02*
D03*
X57555D02*
D03*
X114750Y-19800D02*
D03*
X115550D02*
D03*
X116350D02*
D03*
X72750D02*
D03*
X71950D02*
D03*
X71150D02*
D03*
X13955Y19491D02*
D03*
X14755D02*
D03*
X15555D02*
D03*
X101155D02*
D03*
X101955D02*
D03*
X102755D02*
D03*
X60900Y-5550D02*
D03*
X58598Y-8077D02*
D03*
X55900Y-9400D02*
D03*
X20345Y16239D02*
D03*
X108355Y-16239D02*
D03*
X114554Y-787D02*
D03*
X107555Y-16239D02*
D03*
X63155D02*
D03*
X72745Y-13761D02*
D03*
X71945D02*
D03*
X103555Y13761D02*
D03*
X104355D02*
D03*
X113145Y-13761D02*
D03*
X113945D02*
D03*
X109945Y16239D02*
D03*
X110745D02*
D03*
X111545D02*
D03*
X109145D02*
D03*
X113945D02*
D03*
X113145D02*
D03*
X103545D02*
D03*
X105145D02*
D03*
X105945D02*
D03*
X106745D02*
D03*
X107545D02*
D03*
X108345D02*
D03*
X104345D02*
D03*
X112345D02*
D03*
X114745D02*
D03*
X115545D02*
D03*
X116345D02*
D03*
X66345D02*
D03*
X67145D02*
D03*
X67945D02*
D03*
X65545D02*
D03*
X70345D02*
D03*
X69545D02*
D03*
X59945D02*
D03*
X61545D02*
D03*
X62345D02*
D03*
X63145D02*
D03*
X63945D02*
D03*
X64745D02*
D03*
X60745D02*
D03*
X68745D02*
D03*
X71145D02*
D03*
X71945D02*
D03*
X72745D02*
D03*
X27545Y10509D02*
D03*
X25145D02*
D03*
X29145Y16239D02*
D03*
X28345D02*
D03*
X27545D02*
D03*
X25145D02*
D03*
X17145D02*
D03*
X21145D02*
D03*
X19545D02*
D03*
X18745D02*
D03*
X17945D02*
D03*
X16345D02*
D03*
X25945D02*
D03*
X26745D02*
D03*
X21945D02*
D03*
X24345D02*
D03*
X23545D02*
D03*
X22745D02*
D03*
X69555Y-16239D02*
D03*
X67155D02*
D03*
X67955D02*
D03*
X68755D02*
D03*
X64755D02*
D03*
X62355D02*
D03*
X63955D02*
D03*
X70355D02*
D03*
X66355D02*
D03*
X65555D02*
D03*
X60755D02*
D03*
X58355D02*
D03*
X59155D02*
D03*
X59955D02*
D03*
X61555D02*
D03*
X57545Y-19491D02*
D03*
X116459Y-813D02*
D03*
X105955Y-16239D02*
D03*
X106755D02*
D03*
X113155D02*
D03*
X112355D02*
D03*
X111555D02*
D03*
X110755D02*
D03*
X68745Y-13761D02*
D03*
X113955Y-16239D02*
D03*
X109155D02*
D03*
X109955D02*
D03*
X114755Y-10509D02*
D03*
X112355D02*
D03*
X109955D02*
D03*
X107555D02*
D03*
X105155D02*
D03*
X102755D02*
D03*
X101155Y-16239D02*
D03*
X102755D02*
D03*
X101945Y-19491D02*
D03*
X105155Y-16239D02*
D03*
X104355D02*
D03*
X103555D02*
D03*
X25945Y10509D02*
D03*
X17145D02*
D03*
X16345D02*
D03*
X69555Y-10509D02*
D03*
X70355D02*
D03*
X24345Y10509D02*
D03*
X23545D02*
D03*
X14745D02*
D03*
X13945D02*
D03*
X67945D02*
D03*
X67145D02*
D03*
X101145D02*
D03*
X101945D02*
D03*
X58345D02*
D03*
X57545D02*
D03*
X111545D02*
D03*
X110745D02*
D03*
X26745D02*
D03*
X70345D02*
D03*
X69545D02*
D03*
X113945D02*
D03*
X113145D02*
D03*
X103555Y-10509D02*
D03*
X104355D02*
D03*
X60755D02*
D03*
X59955D02*
D03*
X59132Y-13748D02*
D03*
X61532D02*
D03*
X63932D02*
D03*
X66332D02*
D03*
X71132D02*
D03*
X15555Y13761D02*
D03*
X17955D02*
D03*
X20355D02*
D03*
X22755D02*
D03*
X19545Y10509D02*
D03*
X18745D02*
D03*
X63145D02*
D03*
X62345D02*
D03*
X106745D02*
D03*
X105945D02*
D03*
X110755Y-10509D02*
D03*
X111555D02*
D03*
X67155D02*
D03*
X67955D02*
D03*
X105955D02*
D03*
X106755D02*
D03*
X115555D02*
D03*
X116355D02*
D03*
X62368Y-10522D02*
D03*
X63168D02*
D03*
X8103Y12141D02*
D03*
X11176Y7137D02*
D03*
X11938Y7899D02*
D03*
X12700Y7137D02*
D03*
X11176Y7899D02*
D03*
X11938Y7137D02*
D03*
X113995Y3226D02*
D03*
X115311Y19450D02*
D03*
X116611D02*
D03*
X88900Y-15494D02*
D03*
X89281Y-14097D02*
D03*
X86741Y-15621D02*
D03*
X85217Y-14097D02*
D03*
X87249D02*
D03*
X84709Y-15621D02*
D03*
X5385Y11862D02*
D03*
X32500Y15700D02*
D03*
X9068Y730D02*
D03*
X7168Y730D02*
D03*
X47463Y-20739D02*
D03*
X51781D02*
D03*
X62525Y-5550D02*
D03*
X61725D02*
D03*
X83820Y-14478D02*
D03*
X32436Y11151D02*
D03*
X33299Y11125D02*
D03*
X71700Y19450D02*
D03*
X73000D02*
D03*
X50200Y-14550D02*
D03*
X45925Y-14550D02*
D03*
X53700Y-14550D02*
D03*
X49425Y-14550D02*
D03*
X28100Y19450D02*
D03*
X29400D02*
D03*
X33300Y16300D02*
D03*
X67250Y-5475D02*
D03*
X101150Y-22825D02*
D03*
D57*
X75057Y14656D02*
D03*
Y15392D02*
D03*
X70612Y14427D02*
D03*
X62776Y14430D02*
D03*
X63576D02*
D03*
X71576Y15570D02*
D03*
X70776D02*
D03*
X69976D02*
D03*
X69176D02*
D03*
X65176D02*
D03*
X64381D02*
D03*
X63576D02*
D03*
X62776D02*
D03*
X61976D02*
D03*
X59004Y15367D02*
D03*
X56730Y14379D02*
D03*
X56095D02*
D03*
X57365D02*
D03*
X58000D02*
D03*
X58635D02*
D03*
X105576Y14430D02*
D03*
X104776D02*
D03*
Y15570D02*
D03*
X105576D02*
D03*
X102870Y15621D02*
D03*
X102235D02*
D03*
X107975Y14427D02*
D03*
X108788D02*
D03*
X108776Y15570D02*
D03*
X107976D02*
D03*
X112776Y14430D02*
D03*
X113576D02*
D03*
X114376D02*
D03*
X111976D02*
D03*
Y15570D02*
D03*
X114376D02*
D03*
X113576D02*
D03*
X112776D02*
D03*
X117728Y14378D02*
D03*
X117093D02*
D03*
X114555Y-15621D02*
D03*
X115190D02*
D03*
X114555Y-14379D02*
D03*
X115190D02*
D03*
X110363Y-15621D02*
D03*
X109550Y-14379D02*
D03*
X108737Y-15011D02*
D03*
Y-14379D02*
D03*
X63424Y-14450D02*
D03*
X62654D02*
D03*
X61883D02*
D03*
X61112D02*
D03*
X60342D02*
D03*
X59554D02*
D03*
X116460Y-14379D02*
D03*
X115825D02*
D03*
X117095D02*
D03*
X117730D02*
D03*
Y-15621D02*
D03*
X117095D02*
D03*
X115825D02*
D03*
X116460D02*
D03*
X109550D02*
D03*
X103163D02*
D03*
X103950D02*
D03*
X104738D02*
D03*
X105525D02*
D03*
X103163Y-14379D02*
D03*
X103950D02*
D03*
X104738D02*
D03*
X105525D02*
D03*
X101675Y-15621D02*
D03*
X100330D02*
D03*
X99695D02*
D03*
X100330Y-14379D02*
D03*
X99695D02*
D03*
X100965D02*
D03*
X101600D02*
D03*
X61925Y-15621D02*
D03*
X61138D02*
D03*
X60350D02*
D03*
X59563D02*
D03*
X58075D02*
D03*
X71323Y-15011D02*
D03*
X65202D02*
D03*
X73685Y-14199D02*
D03*
X57440Y-15621D02*
D03*
X56805D02*
D03*
X56170D02*
D03*
X56730Y-14379D02*
D03*
X56095D02*
D03*
X57365D02*
D03*
X58991Y-15011D02*
D03*
X30717Y-15624D02*
D03*
X29929D02*
D03*
X29142D02*
D03*
X28329D02*
D03*
X27542D02*
D03*
X28371Y-14376D02*
D03*
X25971D02*
D03*
X26758D02*
D03*
X23571D02*
D03*
X24358D02*
D03*
X21156Y-14402D02*
D03*
X21944D02*
D03*
X19558Y-14376D02*
D03*
X18771D02*
D03*
X17145D02*
D03*
X16332D02*
D03*
X21158Y-15014D02*
D03*
X15391Y-15011D02*
D03*
X21944D02*
D03*
X14400Y-14379D02*
D03*
X13765D02*
D03*
X12495D02*
D03*
X13130D02*
D03*
X12570Y-15621D02*
D03*
X13205D02*
D03*
X26746Y14453D02*
D03*
X25959D02*
D03*
X27559D02*
D03*
X21946Y14376D02*
D03*
X21158D02*
D03*
X27559Y15367D02*
D03*
X19558Y14376D02*
D03*
X18771D02*
D03*
X17145D02*
D03*
X16332D02*
D03*
X13840Y14379D02*
D03*
X14475D02*
D03*
X13205D02*
D03*
X12570D02*
D03*
X13130Y15621D02*
D03*
X12495D02*
D03*
X13765D02*
D03*
X14400D02*
D03*
X117095D02*
D03*
X117730D02*
D03*
X101600D02*
D03*
X100965D02*
D03*
X114757Y14989D02*
D03*
X99695Y15621D02*
D03*
X100330D02*
D03*
X108356Y15011D02*
D03*
X21944Y14989D02*
D03*
X15391D02*
D03*
X21158Y14986D02*
D03*
X114884Y-15011D02*
D03*
X108737Y-15621D02*
D03*
X102591Y-15011D02*
D03*
X70104Y3429D02*
D03*
X28000Y-1400D02*
D03*
X27600Y-1000D02*
D03*
X30700Y-200D02*
D03*
D58*
X123368Y7620D02*
D03*
D59*
X125908D02*
D03*
X123368Y5080D02*
D03*
X125908D02*
D03*
X123368Y2540D02*
D03*
X125908D02*
D03*
X123368Y0D02*
D03*
X125908D02*
D03*
X123368Y-2540D02*
D03*
X125908D02*
D03*
X123368Y-5080D02*
D03*
X125908D02*
D03*
X123368Y-7620D02*
D03*
X125908D02*
D03*
D60*
X3500Y-24750D02*
D03*
Y24750D02*
D03*
X39600D02*
D03*
Y-24750D02*
D03*
X47100D02*
D03*
Y24750D02*
D03*
X83200D02*
D03*
Y-24750D02*
D03*
X90700Y24750D02*
D03*
X126800Y-24750D02*
D03*
X90700D02*
D03*
X126800Y24750D02*
D03*
D61*
X80975Y4572D02*
D03*
X36881Y-7112D02*
D03*
X37440D02*
D03*
X36881Y-6477D02*
D03*
X37440D02*
D03*
X38893Y6590D02*
D03*
X43900Y-2750D02*
D03*
X39218Y-5385D02*
D03*
X39551Y6604D02*
D03*
X37160Y4826D02*
D03*
Y5461D02*
D03*
X36678Y4826D02*
D03*
Y5461D02*
D03*
X38500Y5450D02*
D03*
Y4850D02*
D03*
X38775Y-7125D02*
D03*
Y-6475D02*
D03*
X39325Y-8375D02*
D03*
X80493Y4877D02*
D03*
X44450Y2083D02*
D03*
X47168Y-3708D02*
D03*
X58522Y-22835D02*
D03*
X69723Y2159D02*
D03*
X80848Y-4191D02*
D03*
X47150Y-2825D02*
D03*
X88000Y6200D02*
D03*
X89200Y-9525D02*
D03*
X88000D02*
D03*
X86800Y-9550D02*
D03*
X85600D02*
D03*
X84400Y-9575D02*
D03*
X80850Y-5550D02*
D03*
X80850Y-6325D02*
D03*
Y-2725D02*
D03*
Y-1525D02*
D03*
Y-325D02*
D03*
X84325Y2650D02*
D03*
X91000Y8575D02*
D03*
X86300Y7700D02*
D03*
X87575Y9450D02*
D03*
X82700Y7700D02*
D03*
X83500Y7700D02*
D03*
X50750Y-4500D02*
D03*
X43925Y-7775D02*
D03*
X41600Y-2000D02*
D03*
X44700Y-4600D02*
D03*
X45900Y-2100D02*
D03*
X43900Y-3350D02*
D03*
X83550Y1200D02*
D03*
X82500Y3300D02*
D03*
X81500Y6300D02*
D03*
X83500Y4600D02*
D03*
Y3900D02*
D03*
X84025Y1850D02*
D03*
X39925Y-5375D02*
D03*
X40825D02*
D03*
Y-8375D02*
D03*
X33000Y2000D02*
D03*
X50500Y-2750D02*
D03*
X39000Y3600D02*
D03*
X47900Y6500D02*
D03*
X47200Y1700D02*
D03*
X43925Y-5975D02*
D03*
X41600Y-6814D02*
D03*
X42600D02*
D03*
X45300Y3650D02*
D03*
X46600D02*
D03*
X47900D02*
D03*
X49200D02*
D03*
X30300Y3800D02*
D03*
X51000Y-2250D02*
D03*
D114*
X37389Y6922D02*
D03*
Y8522D02*
D03*
X37338Y-3416D02*
D03*
Y-5016D02*
D03*
D115*
X57250Y-710D02*
D03*
Y-90D02*
D03*
X73250Y1440D02*
D03*
X77800Y110D02*
D03*
X76750Y-2310D02*
D03*
X72750Y310D02*
D03*
X77750Y-2310D02*
D03*
X75750D02*
D03*
Y310D02*
D03*
X74250Y810D02*
D03*
X74750Y-1810D02*
D03*
X58750Y810D02*
D03*
X59250Y-2810D02*
D03*
X56250Y1060D02*
D03*
X53750Y-1810D02*
D03*
X52750Y190D02*
D03*
X58750Y-1310D02*
D03*
X54750Y-1810D02*
D03*
X55750D02*
D03*
X53750Y310D02*
D03*
X59750Y-690D02*
D03*
X73250Y2060D02*
D03*
X77800Y-510D02*
D03*
X76750Y-1690D02*
D03*
X72750Y-310D02*
D03*
X77750Y-1690D02*
D03*
X75750D02*
D03*
Y-310D02*
D03*
X74250Y190D02*
D03*
X74750Y-1190D02*
D03*
X58750Y190D02*
D03*
X59250Y-2190D02*
D03*
X56250Y440D02*
D03*
X53750Y-1190D02*
D03*
X52750Y810D02*
D03*
X58750Y-690D02*
D03*
X54750Y-1190D02*
D03*
X55750D02*
D03*
X53750Y-310D02*
D03*
X59750Y-1310D02*
D03*
D116*
X13950Y17865D02*
D03*
X14750D02*
D03*
X15550D02*
D03*
X16350D02*
D03*
X17150D02*
D03*
X17950D02*
D03*
X18750D02*
D03*
X19550D02*
D03*
X20350D02*
D03*
X21150D02*
D03*
X21950D02*
D03*
X22750D02*
D03*
X23550D02*
D03*
X24350D02*
D03*
X25150D02*
D03*
X25950D02*
D03*
X26750D02*
D03*
X27550D02*
D03*
X28350D02*
D03*
X29150D02*
D03*
X57550D02*
D03*
X58350D02*
D03*
X59150D02*
D03*
X59950D02*
D03*
X60750D02*
D03*
X61550D02*
D03*
X62350D02*
D03*
X63150D02*
D03*
X63950D02*
D03*
X64750D02*
D03*
X65550D02*
D03*
X66350D02*
D03*
X67150D02*
D03*
X67950D02*
D03*
X68750D02*
D03*
X69550D02*
D03*
X70350D02*
D03*
X71150D02*
D03*
X71950D02*
D03*
X72750D02*
D03*
X101150D02*
D03*
X101950D02*
D03*
X102750D02*
D03*
X103550D02*
D03*
X104350D02*
D03*
X105150D02*
D03*
X105950D02*
D03*
X106750D02*
D03*
X107550D02*
D03*
X108350D02*
D03*
X109150D02*
D03*
X109950D02*
D03*
X110750D02*
D03*
X111550D02*
D03*
X112350D02*
D03*
X113150D02*
D03*
X113950D02*
D03*
X114750D02*
D03*
X115550D02*
D03*
X116350D02*
D03*
X101150Y-12135D02*
D03*
X101950D02*
D03*
X102750D02*
D03*
X103550D02*
D03*
X104350D02*
D03*
X105150D02*
D03*
X105950D02*
D03*
X106750D02*
D03*
X107550D02*
D03*
X108350D02*
D03*
X109150D02*
D03*
X109950D02*
D03*
X110750D02*
D03*
X111550D02*
D03*
X112350D02*
D03*
X113150D02*
D03*
X113950D02*
D03*
X114750D02*
D03*
X115550D02*
D03*
X116350D02*
D03*
X13950Y-12135D02*
D03*
X14750D02*
D03*
X15550D02*
D03*
X16350D02*
D03*
X17150D02*
D03*
X17950D02*
D03*
X18750D02*
D03*
X19550D02*
D03*
X20350D02*
D03*
X21150D02*
D03*
X21950D02*
D03*
X22750D02*
D03*
X23550D02*
D03*
X24350D02*
D03*
X25150D02*
D03*
X25950D02*
D03*
X26750D02*
D03*
X27550D02*
D03*
X28350D02*
D03*
X29150D02*
D03*
X57550Y-12135D02*
D03*
X58350D02*
D03*
X59150D02*
D03*
X59950D02*
D03*
X60750D02*
D03*
X61550D02*
D03*
X62350D02*
D03*
X63150D02*
D03*
X63950D02*
D03*
X64750D02*
D03*
X65550D02*
D03*
X66350D02*
D03*
X67150D02*
D03*
X67950D02*
D03*
X68750D02*
D03*
X69550D02*
D03*
X70350D02*
D03*
X71150D02*
D03*
X71950D02*
D03*
X72750D02*
D03*
D117*
X13950Y12135D02*
D03*
X14750D02*
D03*
X15550D02*
D03*
X16350D02*
D03*
X17150D02*
D03*
X17950D02*
D03*
X18750D02*
D03*
X19550D02*
D03*
X20350D02*
D03*
X21150D02*
D03*
X21950D02*
D03*
X22750D02*
D03*
X23550D02*
D03*
X24350D02*
D03*
X25150D02*
D03*
X25950D02*
D03*
X26750D02*
D03*
X27550D02*
D03*
X28350D02*
D03*
X29150D02*
D03*
X57550D02*
D03*
X58350D02*
D03*
X59150D02*
D03*
X59950D02*
D03*
X60750D02*
D03*
X61550D02*
D03*
X62350D02*
D03*
X63150D02*
D03*
X63950D02*
D03*
X64750D02*
D03*
X65550D02*
D03*
X66350D02*
D03*
X67150D02*
D03*
X67950D02*
D03*
X68750D02*
D03*
X69550D02*
D03*
X70350D02*
D03*
X71150D02*
D03*
X71950D02*
D03*
X72750D02*
D03*
X101150D02*
D03*
X101950D02*
D03*
X102750D02*
D03*
X103550D02*
D03*
X104350D02*
D03*
X105150D02*
D03*
X105950D02*
D03*
X106750D02*
D03*
X107550D02*
D03*
X108350D02*
D03*
X109150D02*
D03*
X109950D02*
D03*
X110750D02*
D03*
X111550D02*
D03*
X112350D02*
D03*
X113150D02*
D03*
X113950D02*
D03*
X114750D02*
D03*
X115550D02*
D03*
X116350D02*
D03*
X101150Y-17865D02*
D03*
X101950D02*
D03*
X102750D02*
D03*
X103550D02*
D03*
X104350D02*
D03*
X105150D02*
D03*
X105950D02*
D03*
X106750D02*
D03*
X107550D02*
D03*
X108350D02*
D03*
X109150D02*
D03*
X109950D02*
D03*
X110750D02*
D03*
X111550D02*
D03*
X112350D02*
D03*
X113150D02*
D03*
X113950D02*
D03*
X114750D02*
D03*
X115550D02*
D03*
X116350D02*
D03*
X13950Y-17865D02*
D03*
X14750D02*
D03*
X15550D02*
D03*
X16350D02*
D03*
X17150D02*
D03*
X17950D02*
D03*
X18750D02*
D03*
X19550D02*
D03*
X20350D02*
D03*
X21150D02*
D03*
X21950D02*
D03*
X22750D02*
D03*
X23550D02*
D03*
X24350D02*
D03*
X25150D02*
D03*
X25950D02*
D03*
X26750D02*
D03*
X27550D02*
D03*
X28350D02*
D03*
X29150D02*
D03*
X57550Y-17865D02*
D03*
X58350D02*
D03*
X59150D02*
D03*
X59950D02*
D03*
X60750D02*
D03*
X61550D02*
D03*
X62350D02*
D03*
X63150D02*
D03*
X63950D02*
D03*
X64750D02*
D03*
X65550D02*
D03*
X66350D02*
D03*
X67150D02*
D03*
X67950D02*
D03*
X68750D02*
D03*
X69550D02*
D03*
X70350D02*
D03*
X71150D02*
D03*
X71950D02*
D03*
X72750D02*
D03*
D118*
X13485Y15000D02*
D03*
X29615D02*
D03*
X57085D02*
D03*
X73215D02*
D03*
X100685D02*
D03*
X116815D02*
D03*
X100685Y-15000D02*
D03*
X116815D02*
D03*
X13485Y-15000D02*
D03*
X29615D02*
D03*
X57085Y-15000D02*
D03*
X73215D02*
D03*
D119*
X18375Y15000D02*
D03*
X24725D02*
D03*
X61975D02*
D03*
X68325D02*
D03*
X105575D02*
D03*
X111925D02*
D03*
X105575Y-15000D02*
D03*
X111925D02*
D03*
X18375Y-15000D02*
D03*
X24725D02*
D03*
X61975Y-15000D02*
D03*
X68325D02*
D03*
D120*
X73810Y-1250D02*
D03*
X73190D02*
D03*
X70593Y2249D02*
D03*
X71440Y-2250D02*
D03*
X70940Y-1250D02*
D03*
X52090Y-2300D02*
D03*
X58310Y-2250D02*
D03*
X51940Y2750D02*
D03*
X71340Y250D02*
D03*
X71213Y2249D02*
D03*
X72060Y-2250D02*
D03*
X71560Y-1250D02*
D03*
X52710Y-2300D02*
D03*
X57690Y-2250D02*
D03*
X52560Y2750D02*
D03*
X71960Y250D02*
D03*
D121*
X43200Y-3050D02*
D03*
X41600D02*
D03*
X41900Y8000D02*
D03*
X84400Y6300D02*
D03*
X86000D02*
D03*
X43500Y8000D02*
D03*
M02*
