G04*
G04 #@! TF.GenerationSoftware,Altium Limited,Altium Designer,23.6.0 (18)*
G04*
G04 Layer_Color=32896*
%FSLAX43Y43*%
%MOMM*%
G71*
G04*
G04 #@! TF.SameCoordinates,E3B0678B-C1B1-40E0-9328-7CD754BF3715*
G04*
G04*
G04 #@! TF.FilePolarity,Positive*
G04*
G01*
G75*
%ADD10C,0.152*%
%ADD11C,0.200*%
%ADD12C,0.127*%
%ADD13C,0.254*%
D10*
X4792Y5740D02*
X5791D01*
X5458D01*
X4792Y5074D01*
X5291Y5574D01*
X5791Y5074D01*
X7603Y5731D02*
X8603D01*
X8269D01*
X7603Y5065D01*
X8103Y5564D01*
X8603Y5065D01*
D11*
X29700Y10350D02*
G03*
X29700Y10350I-100J0D01*
G01*
X73300D02*
G03*
X73300Y10350I-100J0D01*
G01*
X116900D02*
G03*
X116900Y10350I-100J0D01*
G01*
Y-19650D02*
G03*
X116900Y-19650I-100J0D01*
G01*
X29700Y-19650D02*
G03*
X29700Y-19650I-100J0D01*
G01*
X73300Y-19650D02*
G03*
X73300Y-19650I-100J0D01*
G01*
X36989Y9322D02*
X37789D01*
X37925Y-9057D02*
X38325D01*
X36938Y-2616D02*
X37738D01*
X60811Y-472D02*
Y828D01*
X60836Y-3469D02*
Y-2169D01*
X69516Y-447D02*
Y853D01*
X86600Y5400D02*
X87000D01*
X80900Y-4125D02*
Y-3725D01*
X80900Y-2925D02*
Y-2525D01*
X84200Y-9525D02*
X84600D01*
X85400Y-9500D02*
X85800D01*
X85400Y5400D02*
X85800D01*
X80900Y-6525D02*
Y-6125D01*
X87800Y-9475D02*
X88200D01*
X80900Y-525D02*
Y-125D01*
X89000Y5400D02*
X89400D01*
X80900Y-5325D02*
Y-4925D01*
X90200Y5400D02*
X90600D01*
X87800Y6150D02*
X88200D01*
X80900Y-1725D02*
Y-1325D01*
X86600Y-9500D02*
X87000D01*
X89000Y-9475D02*
X89400D01*
X29750Y11380D02*
X32185D01*
Y18620D01*
X29750D02*
X32185D01*
X10915Y11380D02*
X13350D01*
X10915D02*
Y18620D01*
X13350D01*
X73350Y11380D02*
X75785D01*
Y18620D01*
X73350D02*
X75785D01*
X54515Y11380D02*
X56950D01*
X54515D02*
Y18620D01*
X56950D01*
X116950Y11380D02*
X119385D01*
Y18620D01*
X116950D02*
X119385D01*
X98115Y11380D02*
X100550D01*
X98115D02*
Y18620D01*
X100550D01*
X116950Y-18620D02*
X119385D01*
Y-11380D01*
X116950D02*
X119385D01*
X98115Y-18620D02*
X100550D01*
X98115D02*
Y-11380D01*
X100550D01*
X29750Y-18620D02*
X32185D01*
Y-11380D01*
X29750D02*
X32185D01*
X10915Y-18620D02*
X13350D01*
X10915D02*
Y-11380D01*
X13350D01*
X73350Y-18620D02*
X75785D01*
Y-11380D01*
X73350D02*
X75785D01*
X54515Y-18620D02*
X56950D01*
X54515D02*
Y-11380D01*
X56950D01*
X26200Y4500D02*
X26600D01*
X90600Y-500D02*
X91000D01*
X40800Y-3450D02*
Y-2650D01*
X41100Y7600D02*
Y8400D01*
X83600Y5900D02*
Y6700D01*
Y7500D02*
Y7900D01*
X80900Y1000D02*
Y1400D01*
X37600Y3300D02*
X38000D01*
X29400Y4700D02*
X29800D01*
X28900Y-4700D02*
X29300D01*
X93800Y-1300D02*
X94200D01*
X89800Y-1200D02*
X90200D01*
X15666Y-30167D02*
X15000D01*
Y-31167D01*
X15666D01*
X15000Y-30667D02*
X15333D01*
X16000Y-30167D02*
X16666D01*
X16333D01*
Y-31167D01*
X16999Y-30167D02*
Y-31167D01*
X17666D01*
X17999Y-31333D02*
X18665D01*
X18999Y-31167D02*
Y-30167D01*
X19499D01*
X19665Y-30334D01*
Y-30667D01*
X19499Y-30834D01*
X18999D01*
X19332D02*
X19665Y-31167D01*
X19998Y-30167D02*
Y-31167D01*
X20498D01*
X20665Y-31000D01*
Y-30834D01*
X20498Y-30667D01*
X19998D01*
X20498D01*
X20665Y-30500D01*
Y-30334D01*
X20498Y-30167D01*
X19998D01*
X20998Y-31167D02*
Y-31000D01*
X21165D01*
Y-31167D01*
X20998D01*
X21831D02*
Y-30167D01*
X22331D01*
X22498Y-30334D01*
Y-30667D01*
X22331Y-30834D01*
X21831D01*
X23497Y-30500D02*
X22997D01*
X22831Y-30667D01*
Y-31000D01*
X22997Y-31167D01*
X23497D01*
X23830Y-30167D02*
Y-31167D01*
X24330D01*
X24497Y-31000D01*
Y-30834D01*
Y-30667D01*
X24330Y-30500D01*
X23830D01*
X24830Y-30167D02*
Y-31167D01*
X25330D01*
X25497Y-31000D01*
Y-30334D01*
X25330Y-30167D01*
X24830D01*
X25996Y-31167D02*
X26330D01*
X26496Y-31000D01*
Y-30667D01*
X26330Y-30500D01*
X25996D01*
X25830Y-30667D01*
Y-31000D01*
X25996Y-31167D01*
X27496Y-30500D02*
X26996D01*
X26830Y-30667D01*
Y-31000D01*
X26996Y-31167D01*
X27496D01*
X31828Y-30167D02*
Y-31167D01*
X32328D01*
X32494Y-31000D01*
Y-30834D01*
X32328Y-30667D01*
X31828D01*
X32328D01*
X32494Y-30500D01*
Y-30334D01*
X32328Y-30167D01*
X31828D01*
X32994Y-31167D02*
X33327D01*
X33494Y-31000D01*
Y-30667D01*
X33327Y-30500D01*
X32994D01*
X32828Y-30667D01*
Y-31000D01*
X32994Y-31167D01*
X33994Y-30334D02*
Y-30500D01*
X33827D01*
X34160D01*
X33994D01*
Y-31000D01*
X34160Y-31167D01*
X34827Y-30334D02*
Y-30500D01*
X34660D01*
X34994D01*
X34827D01*
Y-31000D01*
X34994Y-31167D01*
X35660D02*
X35993D01*
X36160Y-31000D01*
Y-30667D01*
X35993Y-30500D01*
X35660D01*
X35493Y-30667D01*
Y-31000D01*
X35660Y-31167D01*
X36493D02*
Y-30500D01*
X36660D01*
X36826Y-30667D01*
Y-31167D01*
Y-30667D01*
X36993Y-30500D01*
X37160Y-30667D01*
Y-31167D01*
X38992Y-30167D02*
X38659D01*
X38492Y-30334D01*
Y-31000D01*
X38659Y-31167D01*
X38992D01*
X39159Y-31000D01*
Y-30334D01*
X38992Y-30167D01*
X39492Y-30500D02*
X39825Y-31167D01*
X40159Y-30500D01*
X40992Y-31167D02*
X40658D01*
X40492Y-31000D01*
Y-30667D01*
X40658Y-30500D01*
X40992D01*
X41158Y-30667D01*
Y-30834D01*
X40492D01*
X41491Y-30500D02*
Y-31167D01*
Y-30834D01*
X41658Y-30667D01*
X41825Y-30500D01*
X41991D01*
X42491Y-31167D02*
X42824D01*
X42658D01*
Y-30167D01*
X42491D01*
X43491Y-30500D02*
X43824D01*
X43991Y-30667D01*
Y-31167D01*
X43491D01*
X43324Y-31000D01*
X43491Y-30834D01*
X43991D01*
X44324Y-30500D02*
Y-31000D01*
X44491Y-31167D01*
X44990D01*
Y-31333D01*
X44824Y-31500D01*
X44657D01*
X44990Y-31167D02*
Y-30500D01*
X49989Y-30167D02*
X49655Y-30334D01*
X49322Y-30667D01*
Y-31000D01*
X49489Y-31167D01*
X49822D01*
X49989Y-31000D01*
Y-30834D01*
X49822Y-30667D01*
X49322D01*
X50322Y-31167D02*
X50988Y-30500D01*
X51988Y-31167D02*
X51322D01*
X51988Y-30500D01*
Y-30334D01*
X51821Y-30167D01*
X51488D01*
X51322Y-30334D01*
X52321D02*
X52488Y-30167D01*
X52821D01*
X52988Y-30334D01*
Y-30500D01*
X52821Y-30667D01*
X52655D01*
X52821D01*
X52988Y-30834D01*
Y-31000D01*
X52821Y-31167D01*
X52488D01*
X52321Y-31000D01*
X53321Y-31167D02*
X53987Y-30500D01*
X54987Y-31167D02*
X54321D01*
X54987Y-30500D01*
Y-30334D01*
X54820Y-30167D01*
X54487D01*
X54321Y-30334D01*
X55320D02*
X55487Y-30167D01*
X55820D01*
X55987Y-30334D01*
Y-31000D01*
X55820Y-31167D01*
X55487D01*
X55320Y-31000D01*
Y-30334D01*
X56986Y-31167D02*
X56320D01*
X56986Y-30500D01*
Y-30334D01*
X56820Y-30167D01*
X56487D01*
X56320Y-30334D01*
X57320D02*
X57486Y-30167D01*
X57820D01*
X57986Y-30334D01*
Y-30500D01*
X57820Y-30667D01*
X57653D01*
X57820D01*
X57986Y-30834D01*
Y-31000D01*
X57820Y-31167D01*
X57486D01*
X57320Y-31000D01*
X62318Y-31167D02*
X62651D01*
X62485D01*
Y-30167D01*
X62318Y-30334D01*
X63818Y-31167D02*
X63151D01*
X63818Y-30500D01*
Y-30334D01*
X63651Y-30167D01*
X63318D01*
X63151Y-30334D01*
X64151Y-30500D02*
X64317D01*
Y-30667D01*
X64151D01*
Y-30500D01*
Y-31000D02*
X64317D01*
Y-31167D01*
X64151D01*
Y-31000D01*
X65484Y-31167D02*
Y-30167D01*
X64984Y-30667D01*
X65650D01*
X66650Y-31167D02*
X65984D01*
X66650Y-30500D01*
Y-30334D01*
X66483Y-30167D01*
X66150D01*
X65984Y-30334D01*
X66983Y-30500D02*
X67150D01*
Y-30667D01*
X66983D01*
Y-30500D01*
Y-31000D02*
X67150D01*
Y-31167D01*
X66983D01*
Y-31000D01*
X68316Y-31167D02*
Y-30167D01*
X67816Y-30667D01*
X68483D01*
X68816Y-31000D02*
X68983Y-31167D01*
X69316D01*
X69482Y-31000D01*
Y-30334D01*
X69316Y-30167D01*
X68983D01*
X68816Y-30334D01*
Y-30500D01*
X68983Y-30667D01*
X69482D01*
X70815Y-31167D02*
Y-30167D01*
X71315D01*
X71482Y-30334D01*
Y-30667D01*
X71315Y-30834D01*
X70815D01*
X71815Y-31167D02*
Y-30167D01*
X72148Y-30500D01*
X72481Y-30167D01*
Y-31167D01*
X9024Y8796D02*
X9874D01*
Y8371D01*
X9732Y8230D01*
X9166D01*
X9024Y8371D01*
Y8796D01*
X9874Y7946D02*
Y7663D01*
Y7805D01*
X9024D01*
X9166Y7946D01*
X91538Y9583D02*
X91396Y9725D01*
Y10008D01*
X91538Y10150D01*
X92104D01*
X92246Y10008D01*
Y9725D01*
X92104Y9583D01*
X92246Y8734D02*
Y9300D01*
X91679Y8734D01*
X91538D01*
X91396Y8875D01*
Y9159D01*
X91538Y9300D01*
X91396Y7884D02*
X91538Y8167D01*
X91821Y8451D01*
X92104D01*
X92246Y8309D01*
Y8026D01*
X92104Y7884D01*
X91963D01*
X91821Y8026D01*
Y8451D01*
X6528Y2968D02*
X5962D01*
X5820Y3109D01*
Y3392D01*
X5962Y3534D01*
X6528D01*
X6670Y3392D01*
Y3109D01*
X6386Y3251D02*
X6670Y2968D01*
Y3109D02*
X6528Y2968D01*
X5820Y2118D02*
X5962Y2401D01*
X6245Y2684D01*
X6528D01*
X6670Y2543D01*
Y2260D01*
X6528Y2118D01*
X6386D01*
X6245Y2260D01*
Y2684D01*
X5810Y13764D02*
X4960D01*
Y13339D01*
X5102Y13197D01*
X5385D01*
X5526Y13339D01*
Y13764D01*
Y13480D02*
X5810Y13197D01*
Y12347D02*
Y12914D01*
X5243Y12347D01*
X5102D01*
X4960Y12489D01*
Y12772D01*
X5102Y12914D01*
X3690Y8836D02*
X4540D01*
Y8411D01*
X4398Y8270D01*
X3832D01*
X3690Y8411D01*
Y8836D01*
Y7986D02*
Y7420D01*
X3832D01*
X4398Y7986D01*
X4540D01*
X92681Y9583D02*
X92539Y9725D01*
Y10008D01*
X92681Y10150D01*
X93247D01*
X93389Y10008D01*
Y9725D01*
X93247Y9583D01*
X93389Y8734D02*
Y9300D01*
X92822Y8734D01*
X92681D01*
X92539Y8875D01*
Y9159D01*
X92681Y9300D01*
X92539Y7884D02*
Y8451D01*
X92964D01*
X92822Y8167D01*
Y8026D01*
X92964Y7884D01*
X93247D01*
X93389Y8026D01*
Y8309D01*
X93247Y8451D01*
X94967Y9583D02*
X94825Y9725D01*
Y10008D01*
X94967Y10150D01*
X95533D01*
X95675Y10008D01*
Y9725D01*
X95533Y9583D01*
X95675Y8734D02*
Y9300D01*
X95108Y8734D01*
X94967D01*
X94825Y8875D01*
Y9159D01*
X94967Y9300D01*
X95675Y8026D02*
X94825D01*
X95250Y8451D01*
Y7884D01*
X80068Y-98D02*
X80210Y44D01*
X80493D01*
X80635Y-98D01*
Y-664D01*
X80493Y-806D01*
X80210D01*
X80068Y-664D01*
X79219Y-806D02*
X79785D01*
X79219Y-239D01*
Y-98D01*
X79360Y44D01*
X79644D01*
X79785Y-98D01*
X78369Y-806D02*
X78936D01*
X78369Y-239D01*
Y-98D01*
X78511Y44D01*
X78794D01*
X78936Y-98D01*
X96110Y9569D02*
X95968Y9710D01*
Y9994D01*
X96110Y10135D01*
X96676D01*
X96818Y9994D01*
Y9710D01*
X96676Y9569D01*
X96818Y8719D02*
Y9286D01*
X96251Y8719D01*
X96110D01*
X95968Y8861D01*
Y9144D01*
X96110Y9286D01*
X96818Y8436D02*
Y8153D01*
Y8294D01*
X95968D01*
X96110Y8436D01*
X79998Y-1241D02*
X80139Y-1099D01*
X80423D01*
X80564Y-1241D01*
Y-1807D01*
X80423Y-1949D01*
X80139D01*
X79998Y-1807D01*
X79714Y-1949D02*
X79431D01*
X79573D01*
Y-1099D01*
X79714Y-1241D01*
X79006Y-1807D02*
X78865Y-1949D01*
X78581D01*
X78440Y-1807D01*
Y-1241D01*
X78581Y-1099D01*
X78865D01*
X79006Y-1241D01*
Y-1382D01*
X78865Y-1524D01*
X78440D01*
X93824Y9640D02*
X93682Y9781D01*
Y10065D01*
X93824Y10206D01*
X94390D01*
X94532Y10065D01*
Y9781D01*
X94390Y9640D01*
X94532Y9356D02*
Y9073D01*
Y9215D01*
X93682D01*
X93824Y9356D01*
Y8648D02*
X93682Y8507D01*
Y8223D01*
X93824Y8082D01*
X93965D01*
X94107Y8223D01*
X94249Y8082D01*
X94390D01*
X94532Y8223D01*
Y8507D01*
X94390Y8648D01*
X94249D01*
X94107Y8507D01*
X93965Y8648D01*
X93824D01*
X94107Y8507D02*
Y8223D01*
X79998Y-2384D02*
X80139Y-2242D01*
X80423D01*
X80564Y-2384D01*
Y-2950D01*
X80423Y-3092D01*
X80139D01*
X79998Y-2950D01*
X79714Y-3092D02*
X79431D01*
X79573D01*
Y-2242D01*
X79714Y-2384D01*
X78440Y-2242D02*
X78723Y-2384D01*
X79006Y-2667D01*
Y-2950D01*
X78865Y-3092D01*
X78581D01*
X78440Y-2950D01*
Y-2809D01*
X78581Y-2667D01*
X79006D01*
X79998Y-3527D02*
X80139Y-3385D01*
X80423D01*
X80564Y-3527D01*
Y-4093D01*
X80423Y-4235D01*
X80139D01*
X79998Y-4093D01*
X79714Y-4235D02*
X79431D01*
X79573D01*
Y-3385D01*
X79714Y-3527D01*
X78440Y-3385D02*
X79006D01*
Y-3810D01*
X78723Y-3668D01*
X78581D01*
X78440Y-3810D01*
Y-4093D01*
X78581Y-4235D01*
X78865D01*
X79006Y-4093D01*
X79998Y-4670D02*
X80139Y-4528D01*
X80423D01*
X80564Y-4670D01*
Y-5236D01*
X80423Y-5378D01*
X80139D01*
X79998Y-5236D01*
X79714Y-5378D02*
X79431D01*
X79573D01*
Y-4528D01*
X79714Y-4670D01*
X79006D02*
X78865Y-4528D01*
X78581D01*
X78440Y-4670D01*
Y-4811D01*
X78581Y-4953D01*
X78723D01*
X78581D01*
X78440Y-5095D01*
Y-5236D01*
X78581Y-5378D01*
X78865D01*
X79006Y-5236D01*
X88421Y-11672D02*
X88563Y-11813D01*
Y-12097D01*
X88421Y-12238D01*
X87855D01*
X87713Y-12097D01*
Y-11813D01*
X87855Y-11672D01*
X87713Y-11388D02*
Y-11105D01*
Y-11247D01*
X88563D01*
X88421Y-11388D01*
X87713Y-10114D02*
Y-10680D01*
X88280Y-10114D01*
X88421D01*
X88563Y-10255D01*
Y-10539D01*
X88421Y-10680D01*
X79998Y-5940D02*
X80139Y-5798D01*
X80423D01*
X80564Y-5940D01*
Y-6506D01*
X80423Y-6648D01*
X80139D01*
X79998Y-6506D01*
X79714Y-6648D02*
X79431D01*
X79573D01*
Y-5798D01*
X79714Y-5940D01*
X79006D02*
X78865Y-5798D01*
X78581D01*
X78440Y-5940D01*
Y-6506D01*
X78581Y-6648D01*
X78865D01*
X79006Y-6506D01*
Y-5940D01*
X87151Y-11699D02*
X87293Y-11840D01*
Y-12123D01*
X87151Y-12265D01*
X86585D01*
X86443Y-12123D01*
Y-11840D01*
X86585Y-11699D01*
Y-11415D02*
X86443Y-11274D01*
Y-10991D01*
X86585Y-10849D01*
X87151D01*
X87293Y-10991D01*
Y-11274D01*
X87151Y-11415D01*
X87010D01*
X86868Y-11274D01*
Y-10849D01*
X84611Y-11699D02*
X84753Y-11840D01*
Y-12123D01*
X84611Y-12265D01*
X84045D01*
X83903Y-12123D01*
Y-11840D01*
X84045Y-11699D01*
X84753Y-11415D02*
Y-10849D01*
X84611D01*
X84045Y-11415D01*
X83903D01*
X89564Y-11699D02*
X89706Y-11840D01*
Y-12123D01*
X89564Y-12265D01*
X88998D01*
X88856Y-12123D01*
Y-11840D01*
X88998Y-11699D01*
X89706Y-10849D02*
X89564Y-11132D01*
X89281Y-11415D01*
X88998D01*
X88856Y-11274D01*
Y-10991D01*
X88998Y-10849D01*
X89139D01*
X89281Y-10991D01*
Y-11415D01*
X85881Y-11699D02*
X86023Y-11840D01*
Y-12123D01*
X85881Y-12265D01*
X85315D01*
X85173Y-12123D01*
Y-11840D01*
X85315Y-11699D01*
X85173Y-10991D02*
X86023D01*
X85598Y-11415D01*
Y-10849D01*
X118762Y-9091D02*
X119045D01*
X118904D01*
Y-9799D01*
X119045Y-9940D01*
X119187D01*
X119329Y-9799D01*
X117912Y-9091D02*
X118196Y-9232D01*
X118479Y-9516D01*
Y-9799D01*
X118337Y-9940D01*
X118054D01*
X117912Y-9799D01*
Y-9657D01*
X118054Y-9516D01*
X118479D01*
X75176Y-9091D02*
X75459D01*
X75317D01*
Y-9799D01*
X75459Y-9940D01*
X75601D01*
X75742Y-9799D01*
X74326Y-9091D02*
X74893D01*
Y-9516D01*
X74609Y-9374D01*
X74468D01*
X74326Y-9516D01*
Y-9799D01*
X74468Y-9940D01*
X74751D01*
X74893Y-9799D01*
X32146Y-9989D02*
X32429D01*
X32287D01*
Y-10697D01*
X32429Y-10839D01*
X32570D01*
X32712Y-10697D01*
X31438Y-10839D02*
Y-9989D01*
X31862Y-10414D01*
X31296D01*
X76642Y20025D02*
X76925D01*
X76783D01*
Y19317D01*
X76925Y19175D01*
X77066D01*
X77208Y19317D01*
X75792Y19175D02*
X76358D01*
X75792Y19742D01*
Y19883D01*
X75934Y20025D01*
X76217D01*
X76358Y19883D01*
X31589Y20907D02*
X31872D01*
X31731D01*
Y20199D01*
X31872Y20057D01*
X32014D01*
X32155Y20199D01*
X31306Y20057D02*
X31022D01*
X31164D01*
Y20907D01*
X31306Y20765D01*
X119798Y20204D02*
X120082D01*
X119940D01*
Y19496D01*
X120082Y19354D01*
X120223D01*
X120365Y19496D01*
X119515Y20062D02*
X119374Y20204D01*
X119090D01*
X118949Y20062D01*
Y19920D01*
X119090Y19779D01*
X119232D01*
X119090D01*
X118949Y19637D01*
Y19496D01*
X119090Y19354D01*
X119374D01*
X119515Y19496D01*
X42259Y-6609D02*
X41409D01*
Y-7034D01*
X41551Y-7175D01*
X41834D01*
X41975Y-7034D01*
Y-6609D01*
Y-6892D02*
X42259Y-7175D01*
Y-7458D02*
Y-7742D01*
Y-7600D01*
X41409D01*
X41551Y-7458D01*
Y-8166D02*
X41409Y-8308D01*
Y-8591D01*
X41551Y-8733D01*
X41692D01*
X41834Y-8591D01*
Y-8450D01*
Y-8591D01*
X41975Y-8733D01*
X42117D01*
X42259Y-8591D01*
Y-8308D01*
X42117Y-8166D01*
X40658Y667D02*
X39809D01*
Y242D01*
X39950Y100D01*
X40234D01*
X40375Y242D01*
Y667D01*
Y383D02*
X40658Y100D01*
Y-183D02*
Y-466D01*
Y-325D01*
X39809D01*
X39950Y-183D01*
X40658Y-891D02*
Y-1175D01*
Y-1033D01*
X39809D01*
X39950Y-891D01*
X40938Y10233D02*
X40088D01*
Y9808D01*
X40230Y9667D01*
X40513D01*
X40655Y9808D01*
Y10233D01*
Y9950D02*
X40938Y9667D01*
X40088Y8817D02*
X40230Y9100D01*
X40513Y9383D01*
X40796D01*
X40938Y9242D01*
Y8959D01*
X40796Y8817D01*
X40655D01*
X40513Y8959D01*
Y9383D01*
X42814Y-1495D02*
X42955Y-1353D01*
X43238D01*
X43380Y-1495D01*
Y-2061D01*
X43238Y-2203D01*
X42955D01*
X42814Y-2061D01*
X41964Y-2203D02*
X42530D01*
X41964Y-1636D01*
Y-1495D01*
X42106Y-1353D01*
X42389D01*
X42530Y-1495D01*
X42672Y9681D02*
X42814Y9823D01*
X43097D01*
X43238Y9681D01*
Y9115D01*
X43097Y8973D01*
X42814D01*
X42672Y9115D01*
X42389Y8973D02*
X42106D01*
X42247D01*
Y9823D01*
X42389Y9681D01*
X8527Y13698D02*
X7678D01*
Y13273D01*
X7819Y13132D01*
X8103D01*
X8244Y13273D01*
Y13698D01*
Y13415D02*
X8527Y13132D01*
Y12849D02*
Y12565D01*
Y12707D01*
X7678D01*
X7819Y12849D01*
X30905Y-5879D02*
X30055D01*
Y-6304D01*
X30197Y-6445D01*
X30480D01*
X30622Y-6304D01*
Y-5879D01*
Y-6162D02*
X30905Y-6445D01*
Y-6729D02*
Y-7012D01*
Y-6870D01*
X30055D01*
X30197Y-6729D01*
X30905Y-7862D02*
X30055D01*
X30480Y-7437D01*
Y-8003D01*
X30197Y-8287D02*
X30055Y-8428D01*
Y-8711D01*
X30197Y-8853D01*
X30338D01*
X30480Y-8711D01*
X30622Y-8853D01*
X30763D01*
X30905Y-8711D01*
Y-8428D01*
X30763Y-8287D01*
X30622D01*
X30480Y-8428D01*
X30338Y-8287D01*
X30197D01*
X30480Y-8428D02*
Y-8711D01*
X51098Y8218D02*
X50248D01*
Y7793D01*
X50390Y7652D01*
X50673D01*
X50815Y7793D01*
Y8218D01*
Y7935D02*
X51098Y7652D01*
Y7368D02*
Y7085D01*
Y7227D01*
X50248D01*
X50390Y7368D01*
X51098Y6235D02*
X50248D01*
X50673Y6660D01*
Y6094D01*
X50248Y5810D02*
Y5244D01*
X50390D01*
X50956Y5810D01*
X51098D01*
X52241Y8218D02*
X51391D01*
Y7793D01*
X51533Y7652D01*
X51816D01*
X51958Y7793D01*
Y8218D01*
Y7935D02*
X52241Y7652D01*
Y7368D02*
Y7085D01*
Y7227D01*
X51391D01*
X51533Y7368D01*
X52241Y6235D02*
X51391D01*
X51816Y6660D01*
Y6094D01*
X51391Y5244D02*
X51533Y5527D01*
X51816Y5810D01*
X52099D01*
X52241Y5669D01*
Y5386D01*
X52099Y5244D01*
X51958D01*
X51816Y5386D01*
Y5810D01*
X37337Y-9975D02*
Y-9126D01*
X36912D01*
X36771Y-9267D01*
Y-9550D01*
X36912Y-9692D01*
X37337D01*
X37054D02*
X36771Y-9975D01*
X36487D02*
X36204D01*
X36346D01*
Y-9126D01*
X36487Y-9267D01*
X35779D02*
X35638Y-9126D01*
X35354D01*
X35213Y-9267D01*
Y-9409D01*
X35354Y-9550D01*
X35496D01*
X35354D01*
X35213Y-9692D01*
Y-9834D01*
X35354Y-9975D01*
X35638D01*
X35779Y-9834D01*
X34930Y-9975D02*
X34646D01*
X34788D01*
Y-9126D01*
X34930Y-9267D01*
X85388Y1260D02*
X84538D01*
Y835D01*
X84680Y693D01*
X84963D01*
X85105Y835D01*
Y1260D01*
Y977D02*
X85388Y693D01*
X84538Y410D02*
Y-156D01*
Y127D01*
X85388D01*
Y-1006D02*
Y-439D01*
X84821Y-1006D01*
X84680D01*
X84538Y-864D01*
Y-581D01*
X84680Y-439D01*
X45325Y9787D02*
X44475D01*
Y9362D01*
X44617Y9221D01*
X44900D01*
X45042Y9362D01*
Y9787D01*
Y9504D02*
X45325Y9221D01*
Y8937D02*
Y8654D01*
Y8796D01*
X44475D01*
X44617Y8937D01*
Y8229D02*
X44475Y8088D01*
Y7804D01*
X44617Y7663D01*
X44758D01*
X44900Y7804D01*
Y7946D01*
Y7804D01*
X45042Y7663D01*
X45183D01*
X45325Y7804D01*
Y8088D01*
X45183Y8229D01*
X44475Y6813D02*
Y7379D01*
X44900D01*
X44758Y7096D01*
Y6955D01*
X44900Y6813D01*
X45183D01*
X45325Y6955D01*
Y7238D01*
X45183Y7379D01*
X49701Y725D02*
X48851D01*
Y300D01*
X48993Y159D01*
X49276D01*
X49418Y300D01*
Y725D01*
Y442D02*
X49701Y159D01*
Y-125D02*
Y-408D01*
Y-266D01*
X48851D01*
X48993Y-125D01*
Y-833D02*
X48851Y-974D01*
Y-1258D01*
X48993Y-1399D01*
X49134D01*
X49276Y-1258D01*
Y-1116D01*
Y-1258D01*
X49418Y-1399D01*
X49559D01*
X49701Y-1258D01*
Y-974D01*
X49559Y-833D01*
X49701Y-2107D02*
X48851D01*
X49276Y-1683D01*
Y-2249D01*
X49825Y9787D02*
X48975D01*
Y9362D01*
X49117Y9221D01*
X49400D01*
X49542Y9362D01*
Y9787D01*
Y9504D02*
X49825Y9221D01*
Y8937D02*
Y8654D01*
Y8796D01*
X48975D01*
X49117Y8937D01*
Y8229D02*
X48975Y8088D01*
Y7804D01*
X49117Y7663D01*
X49258D01*
X49400Y7804D01*
Y7946D01*
Y7804D01*
X49542Y7663D01*
X49683D01*
X49825Y7804D01*
Y8088D01*
X49683Y8229D01*
X49117Y7379D02*
X48975Y7238D01*
Y6955D01*
X49117Y6813D01*
X49258D01*
X49400Y6955D01*
Y7096D01*
Y6955D01*
X49542Y6813D01*
X49683D01*
X49825Y6955D01*
Y7238D01*
X49683Y7379D01*
X36844Y1887D02*
Y2736D01*
X36419D01*
X36277Y2595D01*
Y2311D01*
X36419Y2170D01*
X36844D01*
X36561D02*
X36277Y1887D01*
X35994D02*
X35711D01*
X35852D01*
Y2736D01*
X35994Y2595D01*
X35286D02*
X35144Y2736D01*
X34861D01*
X34720Y2595D01*
Y2453D01*
X34861Y2311D01*
X35003D01*
X34861D01*
X34720Y2170D01*
Y2028D01*
X34861Y1887D01*
X35144D01*
X35286Y2028D01*
X34436Y2595D02*
X34295Y2736D01*
X34011D01*
X33870Y2595D01*
Y2028D01*
X34011Y1887D01*
X34295D01*
X34436Y2028D01*
Y2595D01*
X86196Y9608D02*
Y10458D01*
X85771D01*
X85630Y10316D01*
Y10033D01*
X85771Y9891D01*
X86196D01*
X85913D02*
X85630Y9608D01*
X85346D02*
X85063D01*
X85205D01*
Y10458D01*
X85346Y10316D01*
X84072Y9608D02*
X84638D01*
X84072Y10175D01*
Y10316D01*
X84213Y10458D01*
X84497D01*
X84638Y10316D01*
X83788Y9750D02*
X83647Y9608D01*
X83364D01*
X83222Y9750D01*
Y10316D01*
X83364Y10458D01*
X83647D01*
X83788Y10316D01*
Y10175D01*
X83647Y10033D01*
X83222D01*
X80608Y2115D02*
Y2965D01*
X80183D01*
X80042Y2823D01*
Y2540D01*
X80183Y2398D01*
X80608D01*
X80325D02*
X80042Y2115D01*
X79758D02*
X79475D01*
X79617D01*
Y2965D01*
X79758Y2823D01*
X78484Y2115D02*
X79050D01*
X78484Y2682D01*
Y2823D01*
X78625Y2965D01*
X78909D01*
X79050Y2823D01*
X78200D02*
X78059Y2965D01*
X77776D01*
X77634Y2823D01*
Y2682D01*
X77776Y2540D01*
X77634Y2398D01*
Y2257D01*
X77776Y2115D01*
X78059D01*
X78200Y2257D01*
Y2398D01*
X78059Y2540D01*
X78200Y2682D01*
Y2823D01*
X78059Y2540D02*
X77776D01*
X80608Y5163D02*
Y6013D01*
X80183D01*
X80042Y5871D01*
Y5588D01*
X80183Y5446D01*
X80608D01*
X80325D02*
X80042Y5163D01*
X79758D02*
X79475D01*
X79617D01*
Y6013D01*
X79758Y5871D01*
X78484Y5163D02*
X79050D01*
X78484Y5730D01*
Y5871D01*
X78625Y6013D01*
X78909D01*
X79050Y5871D01*
X78200Y6013D02*
X77634D01*
Y5871D01*
X78200Y5305D01*
Y5163D01*
X80608Y6560D02*
Y7410D01*
X80183D01*
X80042Y7268D01*
Y6985D01*
X80183Y6843D01*
X80608D01*
X80325D02*
X80042Y6560D01*
X79758D02*
X79475D01*
X79617D01*
Y7410D01*
X79758Y7268D01*
X78484Y6560D02*
X79050D01*
X78484Y7127D01*
Y7268D01*
X78625Y7410D01*
X78909D01*
X79050Y7268D01*
X77634Y7410D02*
X77917Y7268D01*
X78200Y6985D01*
Y6702D01*
X78059Y6560D01*
X77776D01*
X77634Y6702D01*
Y6843D01*
X77776Y6985D01*
X78200D01*
X39490Y776D02*
X38640D01*
Y351D01*
X38782Y209D01*
X39065D01*
X39207Y351D01*
Y776D01*
Y493D02*
X39490Y209D01*
Y-74D02*
Y-357D01*
Y-216D01*
X38640D01*
X38782Y-74D01*
X39490Y-1349D02*
Y-782D01*
X38924Y-1349D01*
X38782D01*
X38640Y-1207D01*
Y-924D01*
X38782Y-782D01*
X38640Y-2198D02*
Y-1632D01*
X39065D01*
X38924Y-1915D01*
Y-2057D01*
X39065Y-2198D01*
X39348D01*
X39490Y-2057D01*
Y-1773D01*
X39348Y-1632D01*
X40150Y-8546D02*
X39301D01*
Y-8971D01*
X39442Y-9112D01*
X39726D01*
X39867Y-8971D01*
Y-8546D01*
Y-8829D02*
X40150Y-9112D01*
Y-9396D02*
Y-9679D01*
Y-9537D01*
X39301D01*
X39442Y-9396D01*
X40150Y-10670D02*
Y-10104D01*
X39584Y-10670D01*
X39442D01*
X39301Y-10529D01*
Y-10245D01*
X39442Y-10104D01*
X40150Y-11378D02*
X39301D01*
X39726Y-10954D01*
Y-11520D01*
X45637Y725D02*
X44787D01*
Y300D01*
X44929Y159D01*
X45212D01*
X45354Y300D01*
Y725D01*
Y442D02*
X45637Y159D01*
Y-125D02*
Y-408D01*
Y-266D01*
X44787D01*
X44929Y-125D01*
X45637Y-1399D02*
Y-833D01*
X45070Y-1399D01*
X44929D01*
X44787Y-1258D01*
Y-974D01*
X44929Y-833D01*
X45637Y-2249D02*
Y-1683D01*
X45070Y-2249D01*
X44929D01*
X44787Y-2107D01*
Y-1824D01*
X44929Y-1683D01*
X46907Y725D02*
X46057D01*
Y300D01*
X46199Y159D01*
X46482D01*
X46624Y300D01*
Y725D01*
Y442D02*
X46907Y159D01*
Y-125D02*
Y-408D01*
Y-266D01*
X46057D01*
X46199Y-125D01*
X46907Y-1399D02*
Y-833D01*
X46340Y-1399D01*
X46199D01*
X46057Y-1258D01*
Y-974D01*
X46199Y-833D01*
Y-1683D02*
X46057Y-1824D01*
Y-2107D01*
X46199Y-2249D01*
X46765D01*
X46907Y-2107D01*
Y-1824D01*
X46765Y-1683D01*
X46199D01*
X46825Y9816D02*
X45975D01*
Y9391D01*
X46117Y9250D01*
X46400D01*
X46542Y9391D01*
Y9816D01*
Y9533D02*
X46825Y9250D01*
Y8966D02*
Y8683D01*
Y8825D01*
X45975D01*
X46117Y8966D01*
X46825Y8258D02*
Y7975D01*
Y8117D01*
X45975D01*
X46117Y8258D01*
X46683Y7550D02*
X46825Y7409D01*
Y7125D01*
X46683Y6984D01*
X46117D01*
X45975Y7125D01*
Y7409D01*
X46117Y7550D01*
X46258D01*
X46400Y7409D01*
Y6984D01*
X48304Y781D02*
X47454D01*
Y356D01*
X47596Y215D01*
X47879D01*
X48021Y356D01*
Y781D01*
Y498D02*
X48304Y215D01*
Y-69D02*
Y-352D01*
Y-210D01*
X47454D01*
X47596Y-69D01*
X48304Y-777D02*
Y-1060D01*
Y-918D01*
X47454D01*
X47596Y-777D01*
Y-1485D02*
X47454Y-1626D01*
Y-1910D01*
X47596Y-2051D01*
X47737D01*
X47879Y-1910D01*
X48021Y-2051D01*
X48162D01*
X48304Y-1910D01*
Y-1626D01*
X48162Y-1485D01*
X48021D01*
X47879Y-1626D01*
X47737Y-1485D01*
X47596D01*
X47879Y-1626D02*
Y-1910D01*
X48425Y9816D02*
X47575D01*
Y9391D01*
X47717Y9250D01*
X48000D01*
X48142Y9391D01*
Y9816D01*
Y9533D02*
X48425Y9250D01*
Y8966D02*
Y8683D01*
Y8825D01*
X47575D01*
X47717Y8966D01*
X48425Y8258D02*
Y7975D01*
Y8117D01*
X47575D01*
X47717Y8258D01*
X47575Y7550D02*
Y6984D01*
X47717D01*
X48283Y7550D01*
X48425D01*
X39285Y13123D02*
X38436D01*
Y12699D01*
X38577Y12557D01*
X38860D01*
X39002Y12699D01*
Y13123D01*
Y12840D02*
X39285Y12557D01*
Y12274D02*
Y11990D01*
Y12132D01*
X38436D01*
X38577Y12274D01*
X39285Y11566D02*
Y11282D01*
Y11424D01*
X38436D01*
X38577Y11566D01*
X39285Y10433D02*
X38436D01*
X38860Y10857D01*
Y10291D01*
X83190Y3766D02*
Y4616D01*
X82765D01*
X82623Y4474D01*
Y4191D01*
X82765Y4049D01*
X83190D01*
X82906D02*
X82623Y3766D01*
X82340D02*
X82057D01*
X82198D01*
Y4616D01*
X82340Y4474D01*
X81632Y3766D02*
X81349D01*
X81490D01*
Y4616D01*
X81632Y4474D01*
X80924Y3766D02*
X80640D01*
X80782D01*
Y4616D01*
X80924Y4474D01*
X27522Y-4870D02*
Y-4020D01*
X27097D01*
X26956Y-4162D01*
Y-4445D01*
X27097Y-4587D01*
X27522D01*
X27239D02*
X26956Y-4870D01*
X26672D02*
X26389D01*
X26531D01*
Y-4020D01*
X26672Y-4162D01*
X25964D02*
X25823Y-4020D01*
X25539D01*
X25398Y-4162D01*
Y-4728D01*
X25539Y-4870D01*
X25823D01*
X25964Y-4728D01*
Y-4162D01*
X24548Y-4020D02*
X24831Y-4162D01*
X25114Y-4445D01*
Y-4728D01*
X24973Y-4870D01*
X24690D01*
X24548Y-4728D01*
Y-4587D01*
X24690Y-4445D01*
X25114D01*
X27522Y-8426D02*
Y-7576D01*
X27097D01*
X26956Y-7718D01*
Y-8001D01*
X27097Y-8143D01*
X27522D01*
X27239D02*
X26956Y-8426D01*
X26672D02*
X26389D01*
X26531D01*
Y-7576D01*
X26672Y-7718D01*
X25964D02*
X25823Y-7576D01*
X25539D01*
X25398Y-7718D01*
Y-8284D01*
X25539Y-8426D01*
X25823D01*
X25964Y-8284D01*
Y-7718D01*
X24548Y-7576D02*
X25114D01*
Y-8001D01*
X24831Y-7859D01*
X24690D01*
X24548Y-8001D01*
Y-8284D01*
X24690Y-8426D01*
X24973D01*
X25114Y-8284D01*
X50240Y-5251D02*
Y-4401D01*
X49816D01*
X49674Y-4543D01*
Y-4826D01*
X49816Y-4968D01*
X50240D01*
X49957D02*
X49674Y-5251D01*
X49391D02*
X49107D01*
X49249D01*
Y-4401D01*
X49391Y-4543D01*
X48683D02*
X48541Y-4401D01*
X48258D01*
X48116Y-4543D01*
Y-5109D01*
X48258Y-5251D01*
X48541D01*
X48683Y-5109D01*
Y-4543D01*
X47833Y-5251D02*
X47550D01*
X47691D01*
Y-4401D01*
X47833Y-4543D01*
X35531Y-3118D02*
X35389Y-2976D01*
Y-2693D01*
X35531Y-2552D01*
X36097D01*
X36239Y-2693D01*
Y-2976D01*
X36097Y-3118D01*
X36239Y-3401D02*
Y-3685D01*
Y-3543D01*
X35389D01*
X35531Y-3401D01*
X35389Y-4676D02*
X35531Y-4393D01*
X35814Y-4109D01*
X36097D01*
X36239Y-4251D01*
Y-4534D01*
X36097Y-4676D01*
X35956D01*
X35814Y-4534D01*
Y-4109D01*
X36097Y-4959D02*
X36239Y-5101D01*
Y-5384D01*
X36097Y-5526D01*
X35531D01*
X35389Y-5384D01*
Y-5101D01*
X35531Y-4959D01*
X35672D01*
X35814Y-5101D01*
Y-5526D01*
X63532Y-4289D02*
X63673Y-4147D01*
X63956D01*
X64098Y-4289D01*
Y-4855D01*
X63956Y-4997D01*
X63673D01*
X63532Y-4855D01*
X63248Y-4997D02*
X62965D01*
X63107D01*
Y-4147D01*
X63248Y-4289D01*
X61974Y-4147D02*
X62257Y-4289D01*
X62540Y-4572D01*
Y-4855D01*
X62399Y-4997D01*
X62115D01*
X61974Y-4855D01*
Y-4714D01*
X62115Y-4572D01*
X62540D01*
X61124Y-4997D02*
X61690D01*
X61124Y-4430D01*
Y-4289D01*
X61266Y-4147D01*
X61549D01*
X61690Y-4289D01*
X26133Y7525D02*
X25991Y7666D01*
Y7949D01*
X26133Y8091D01*
X26699D01*
X26841Y7949D01*
Y7666D01*
X26699Y7525D01*
X26841Y7241D02*
Y6958D01*
Y7100D01*
X25991D01*
X26133Y7241D01*
X25991Y5967D02*
X26133Y6250D01*
X26416Y6533D01*
X26699D01*
X26841Y6392D01*
Y6108D01*
X26699Y5967D01*
X26558D01*
X26416Y6108D01*
Y6533D01*
X26133Y5683D02*
X25991Y5542D01*
Y5259D01*
X26133Y5117D01*
X26699D01*
X26841Y5259D01*
Y5542D01*
X26699Y5683D01*
X26133D01*
X80042Y1553D02*
X80183Y1695D01*
X80466D01*
X80608Y1553D01*
Y987D01*
X80466Y845D01*
X80183D01*
X80042Y987D01*
X79758Y845D02*
X79475D01*
X79617D01*
Y1695D01*
X79758Y1553D01*
X78484Y1695D02*
X79050D01*
Y1270D01*
X78767Y1412D01*
X78625D01*
X78484Y1270D01*
Y987D01*
X78625Y845D01*
X78909D01*
X79050Y987D01*
X77634Y1695D02*
X78200D01*
Y1270D01*
X77917Y1412D01*
X77776D01*
X77634Y1270D01*
Y987D01*
X77776Y845D01*
X78059D01*
X78200Y987D01*
X29181Y413D02*
X29039Y554D01*
Y837D01*
X29181Y979D01*
X29747D01*
X29889Y837D01*
Y554D01*
X29747Y413D01*
X29889Y129D02*
Y-154D01*
Y-12D01*
X29039D01*
X29181Y129D01*
X29039Y-1145D02*
Y-579D01*
X29464D01*
X29322Y-862D01*
Y-1004D01*
X29464Y-1145D01*
X29747D01*
X29889Y-1004D01*
Y-720D01*
X29747Y-579D01*
X29889Y-1853D02*
X29039D01*
X29464Y-1429D01*
Y-1995D01*
X29308Y7525D02*
X29166Y7666D01*
Y7949D01*
X29308Y8091D01*
X29874D01*
X30016Y7949D01*
Y7666D01*
X29874Y7525D01*
X30016Y7241D02*
Y6958D01*
Y7100D01*
X29166D01*
X29308Y7241D01*
X29166Y5967D02*
Y6533D01*
X29591D01*
X29449Y6250D01*
Y6108D01*
X29591Y5967D01*
X29874D01*
X30016Y6108D01*
Y6392D01*
X29874Y6533D01*
X29308Y5683D02*
X29166Y5542D01*
Y5259D01*
X29308Y5117D01*
X29449D01*
X29591Y5259D01*
Y5400D01*
Y5259D01*
X29733Y5117D01*
X29874D01*
X30016Y5259D01*
Y5542D01*
X29874Y5683D01*
X37918Y-10027D02*
X37777Y-9885D01*
Y-9602D01*
X37918Y-9460D01*
X38485D01*
X38626Y-9602D01*
Y-9885D01*
X38485Y-10027D01*
X38626Y-10310D02*
Y-10593D01*
Y-10452D01*
X37777D01*
X37918Y-10310D01*
X37777Y-11585D02*
Y-11018D01*
X38202D01*
X38060Y-11301D01*
Y-11443D01*
X38202Y-11585D01*
X38485D01*
X38626Y-11443D01*
Y-11160D01*
X38485Y-11018D01*
X38626Y-12434D02*
Y-11868D01*
X38060Y-12434D01*
X37918D01*
X37777Y-12293D01*
Y-12010D01*
X37918Y-11868D01*
X68485Y2061D02*
X68626Y2203D01*
X68909D01*
X69051Y2061D01*
Y1495D01*
X68909Y1353D01*
X68626D01*
X68485Y1495D01*
X68201Y1353D02*
X67918D01*
X68060D01*
Y2203D01*
X68201Y2061D01*
X66927Y1353D02*
X67493D01*
X66927Y1920D01*
Y2061D01*
X67068Y2203D01*
X67352D01*
X67493Y2061D01*
X66643Y2203D02*
X66077D01*
Y2061D01*
X66643Y1495D01*
Y1353D01*
X68668Y-1114D02*
X68809Y-972D01*
X69093D01*
X69234Y-1114D01*
Y-1680D01*
X69093Y-1822D01*
X68809D01*
X68668Y-1680D01*
X68384Y-1822D02*
X68101D01*
X68243D01*
Y-972D01*
X68384Y-1114D01*
X67676Y-1822D02*
X67393D01*
X67535D01*
Y-972D01*
X67676Y-1114D01*
X66402Y-1822D02*
X66968D01*
X66402Y-1255D01*
Y-1114D01*
X66543Y-972D01*
X66827D01*
X66968Y-1114D01*
X37055Y12245D02*
X36913Y12387D01*
Y12670D01*
X37055Y12812D01*
X37621D01*
X37763Y12670D01*
Y12387D01*
X37621Y12245D01*
X37763Y11962D02*
Y11679D01*
Y11820D01*
X36913D01*
X37055Y11962D01*
Y11254D02*
X36913Y11112D01*
Y10829D01*
X37055Y10687D01*
X37621D01*
X37763Y10829D01*
Y11112D01*
X37621Y11254D01*
X37055D01*
Y10404D02*
X36913Y10262D01*
Y9979D01*
X37055Y9838D01*
X37196D01*
X37338Y9979D01*
X37479Y9838D01*
X37621D01*
X37763Y9979D01*
Y10262D01*
X37621Y10404D01*
X37479D01*
X37338Y10262D01*
X37196Y10404D01*
X37055D01*
X37338Y10262D02*
Y9979D01*
X89313Y7268D02*
X89454Y7410D01*
X89737D01*
X89879Y7268D01*
Y6702D01*
X89737Y6560D01*
X89454D01*
X89313Y6702D01*
X89029Y6560D02*
X88746D01*
X88888D01*
Y7410D01*
X89029Y7268D01*
X88321D02*
X88180Y7410D01*
X87896D01*
X87755Y7268D01*
Y6702D01*
X87896Y6560D01*
X88180D01*
X88321Y6702D01*
Y7268D01*
X87471Y7410D02*
X86905D01*
Y7268D01*
X87471Y6702D01*
Y6560D01*
X37487Y2368D02*
X37345Y2510D01*
Y2793D01*
X37487Y2935D01*
X38053D01*
X38195Y2793D01*
Y2510D01*
X38053Y2368D01*
X38195Y2085D02*
Y1802D01*
Y1943D01*
X37345D01*
X37487Y2085D01*
Y1377D02*
X37345Y1235D01*
Y952D01*
X37487Y811D01*
X38053D01*
X38195Y952D01*
Y1235D01*
X38053Y1377D01*
X37487D01*
X37345Y-39D02*
X37487Y244D01*
X37770Y527D01*
X38053D01*
X38195Y386D01*
Y102D01*
X38053Y-39D01*
X37911D01*
X37770Y102D01*
Y527D01*
X82709Y8538D02*
X82850Y8680D01*
X83133D01*
X83275Y8538D01*
Y7972D01*
X83133Y7830D01*
X82850D01*
X82709Y7972D01*
X82425Y7830D02*
X82142D01*
X82284D01*
Y8680D01*
X82425Y8538D01*
X81717D02*
X81576Y8680D01*
X81292D01*
X81151Y8538D01*
Y7972D01*
X81292Y7830D01*
X81576D01*
X81717Y7972D01*
Y8538D01*
X80301Y8680D02*
X80867D01*
Y8255D01*
X80584Y8397D01*
X80443D01*
X80301Y8255D01*
Y7972D01*
X80443Y7830D01*
X80726D01*
X80867Y7972D01*
D12*
X9068Y3155D02*
Y3905D01*
X8768D02*
X9068D01*
X7168D02*
X7568D01*
X7168Y3105D02*
Y3905D01*
X7768Y1905D02*
X8468D01*
D13*
X94234Y5588D02*
Y7493D01*
X92710Y4064D02*
X94234Y5588D01*
X91186Y4064D02*
X92710D01*
M02*
