G04*
G04 #@! TF.GenerationSoftware,Altium Limited,Altium Designer,23.6.0 (18)*
G04*
G04 Layer_Physical_Order=2*
G04 Layer_Color=32768*
%FSLAX43Y43*%
%MOMM*%
G71*
G04*
G04 #@! TF.SameCoordinates,BD1C5E25-77D2-44B3-BBB9-DEE1D7037492*
G04*
G04*
G04 #@! TF.FilePolarity,Negative*
G04*
G01*
G75*
%ADD11C,0.200*%
%ADD80C,1.016*%
%ADD81R,10.750X2.500*%
%ADD82R,12.200X10.000*%
%ADD83C,0.555*%
%ADD84C,0.455*%
%ADD85C,1.405*%
%ADD86C,0.605*%
G36*
X5126Y7870D02*
X5042Y7786D01*
Y7319D01*
X5033Y7310D01*
X5117Y7225D01*
Y7001D01*
X5238Y6880D01*
X5280Y6922D01*
X5416D01*
X5495Y7001D01*
X5626D01*
X5724Y7099D01*
X5734D01*
Y7132D01*
X5804Y7202D01*
Y7599D01*
X5757Y7646D01*
Y7814D01*
X5500Y8071D01*
X5290D01*
X5173Y7954D01*
X5154D01*
Y7903D01*
X5129Y7877D01*
Y7871D01*
X5126Y7870D01*
D02*
G37*
G36*
X8046Y7644D02*
X8013Y7645D01*
X7882Y7514D01*
Y7403D01*
X7947Y7338D01*
Y7293D01*
X7988Y7252D01*
X8177D01*
X8263Y7338D01*
Y7514D01*
X8287Y7539D01*
Y7719D01*
X8250Y7756D01*
X8205Y7711D01*
X8112D01*
X8046Y7644D01*
D02*
G37*
D11*
X111791Y-25600D02*
X111125D01*
X111791Y-24934D01*
Y-24767D01*
X111625Y-24600D01*
X111292D01*
X111125Y-24767D01*
X10566Y-30567D02*
X9900D01*
Y-31567D01*
X10566D01*
X9900Y-31067D02*
X10233D01*
X10900Y-30567D02*
X11566D01*
X11233D01*
Y-31567D01*
X11899Y-30567D02*
Y-31567D01*
X12566D01*
X12899Y-31733D02*
X13565D01*
X13899Y-31567D02*
Y-30567D01*
X14399D01*
X14565Y-30734D01*
Y-31067D01*
X14399Y-31234D01*
X13899D01*
X14232D02*
X14565Y-31567D01*
X14898Y-30567D02*
Y-31567D01*
X15398D01*
X15565Y-31400D01*
Y-31234D01*
X15398Y-31067D01*
X14898D01*
X15398D01*
X15565Y-30900D01*
Y-30734D01*
X15398Y-30567D01*
X14898D01*
X15898Y-31567D02*
Y-31400D01*
X16065D01*
Y-31567D01*
X15898D01*
X16731D02*
Y-30567D01*
X17231D01*
X17398Y-30734D01*
Y-31067D01*
X17231Y-31234D01*
X16731D01*
X18397Y-30900D02*
X17897D01*
X17731Y-31067D01*
Y-31400D01*
X17897Y-31567D01*
X18397D01*
X18730Y-30567D02*
Y-31567D01*
X19230D01*
X19397Y-31400D01*
Y-31234D01*
Y-31067D01*
X19230Y-30900D01*
X18730D01*
X19730Y-30567D02*
Y-31567D01*
X20230D01*
X20397Y-31400D01*
Y-30734D01*
X20230Y-30567D01*
X19730D01*
X20896Y-31567D02*
X21230D01*
X21396Y-31400D01*
Y-31067D01*
X21230Y-30900D01*
X20896D01*
X20730Y-31067D01*
Y-31400D01*
X20896Y-31567D01*
X22396Y-30900D02*
X21896D01*
X21730Y-31067D01*
Y-31400D01*
X21896Y-31567D01*
X22396D01*
X26728Y-31900D02*
Y-30900D01*
X27228D01*
X27394Y-31067D01*
Y-31400D01*
X27228Y-31567D01*
X26728D01*
X27728D02*
X28061D01*
X27894D01*
Y-30567D01*
X27728D01*
X28727Y-30900D02*
X29060D01*
X29227Y-31067D01*
Y-31567D01*
X28727D01*
X28561Y-31400D01*
X28727Y-31234D01*
X29227D01*
X29560Y-31567D02*
Y-30900D01*
X30060D01*
X30227Y-31067D01*
Y-31567D01*
X31060D02*
X30727D01*
X30560Y-31400D01*
Y-31067D01*
X30727Y-30900D01*
X31060D01*
X31226Y-31067D01*
Y-31234D01*
X30560D01*
X32559Y-31567D02*
X32893D01*
X32726D01*
Y-30567D01*
X32559Y-30734D01*
X38058Y-30567D02*
X37724Y-30734D01*
X37391Y-31067D01*
Y-31400D01*
X37558Y-31567D01*
X37891D01*
X38058Y-31400D01*
Y-31234D01*
X37891Y-31067D01*
X37391D01*
X38391Y-31567D02*
X39057Y-30900D01*
X40057Y-31567D02*
X39390D01*
X40057Y-30900D01*
Y-30734D01*
X39890Y-30567D01*
X39557D01*
X39390Y-30734D01*
X40390D02*
X40557Y-30567D01*
X40890D01*
X41057Y-30734D01*
Y-30900D01*
X40890Y-31067D01*
X40723D01*
X40890D01*
X41057Y-31234D01*
Y-31400D01*
X40890Y-31567D01*
X40557D01*
X40390Y-31400D01*
X41390Y-31567D02*
X42056Y-30900D01*
X43056Y-31567D02*
X42390D01*
X43056Y-30900D01*
Y-30734D01*
X42889Y-30567D01*
X42556D01*
X42390Y-30734D01*
X43389D02*
X43556Y-30567D01*
X43889D01*
X44056Y-30734D01*
Y-31400D01*
X43889Y-31567D01*
X43556D01*
X43389Y-31400D01*
Y-30734D01*
X45055Y-31567D02*
X44389D01*
X45055Y-30900D01*
Y-30734D01*
X44889Y-30567D01*
X44556D01*
X44389Y-30734D01*
X45389D02*
X45555Y-30567D01*
X45888D01*
X46055Y-30734D01*
Y-30900D01*
X45888Y-31067D01*
X45722D01*
X45888D01*
X46055Y-31234D01*
Y-31400D01*
X45888Y-31567D01*
X45555D01*
X45389Y-31400D01*
X50387Y-31567D02*
X50720D01*
X50554D01*
Y-30567D01*
X50387Y-30734D01*
X51220Y-30900D02*
X51387D01*
Y-31067D01*
X51220D01*
Y-30900D01*
Y-31400D02*
X51387D01*
Y-31567D01*
X51220D01*
Y-31400D01*
X52553Y-31567D02*
Y-30567D01*
X52053Y-31067D01*
X52720D01*
X53053Y-31400D02*
X53219Y-31567D01*
X53553D01*
X53719Y-31400D01*
Y-30734D01*
X53553Y-30567D01*
X53219D01*
X53053Y-30734D01*
Y-30900D01*
X53219Y-31067D01*
X53719D01*
X54052Y-30900D02*
X54219D01*
Y-31067D01*
X54052D01*
Y-30900D01*
Y-31400D02*
X54219D01*
Y-31567D01*
X54052D01*
Y-31400D01*
X54886Y-31567D02*
X55219D01*
X55052D01*
Y-30567D01*
X54886Y-30734D01*
X56218Y-31567D02*
Y-30567D01*
X55719Y-31067D01*
X56385D01*
X57718Y-31567D02*
Y-30567D01*
X58218D01*
X58384Y-30734D01*
Y-31067D01*
X58218Y-31234D01*
X57718D01*
X58718Y-31567D02*
Y-30567D01*
X59051Y-30900D01*
X59384Y-30567D01*
Y-31567D01*
D80*
X0Y-28250D02*
Y28250D01*
X130300D01*
Y-28250D02*
Y28250D01*
X0Y-28250D02*
X130300D01*
D81*
X117925Y-24800D02*
D03*
D82*
X18100Y-0D02*
D03*
D83*
X29700Y-5100D02*
D03*
X59155Y19491D02*
D03*
X58355D02*
D03*
X57555D02*
D03*
X27550Y-19800D02*
D03*
X28350D02*
D03*
X29150D02*
D03*
X114750Y-19800D02*
D03*
X115550D02*
D03*
X116350D02*
D03*
X72750D02*
D03*
X71950D02*
D03*
X71150D02*
D03*
X13955Y19491D02*
D03*
X14755D02*
D03*
X15555D02*
D03*
X101155D02*
D03*
X101955D02*
D03*
X102755D02*
D03*
X24500Y-6900D02*
D03*
Y-5600D02*
D03*
X27500Y-6900D02*
D03*
X27500Y-5600D02*
D03*
X71700Y5600D02*
D03*
X72100Y5100D02*
D03*
X69466Y203D02*
D03*
Y3429D02*
D03*
X68580Y2464D02*
D03*
X63830Y4140D02*
D03*
X60861Y178D02*
D03*
X61773Y-3835D02*
D03*
X60900Y-5550D02*
D03*
X58598Y-8077D02*
D03*
X55900Y-9400D02*
D03*
X108355Y-16239D02*
D03*
X114554Y-787D02*
D03*
X70104Y3429D02*
D03*
X107555Y-16239D02*
D03*
X63155D02*
D03*
X72745Y-13761D02*
D03*
X71945D02*
D03*
X103555Y13761D02*
D03*
X104355D02*
D03*
X60755D02*
D03*
X59955D02*
D03*
X113145Y-13761D02*
D03*
X113945D02*
D03*
X109945Y16239D02*
D03*
X110745D02*
D03*
X111545D02*
D03*
X109145D02*
D03*
X105145D02*
D03*
X105945D02*
D03*
X106745D02*
D03*
X104345D02*
D03*
X115545D02*
D03*
X116345D02*
D03*
X66345D02*
D03*
X67145D02*
D03*
X67945D02*
D03*
X65545D02*
D03*
X61545D02*
D03*
X62345D02*
D03*
X63145D02*
D03*
X60745D02*
D03*
X71945D02*
D03*
X72745D02*
D03*
X29145D02*
D03*
X28345D02*
D03*
X17145D02*
D03*
X19545D02*
D03*
X18745D02*
D03*
X17945D02*
D03*
X21945D02*
D03*
X24345D02*
D03*
X23545D02*
D03*
X22745D02*
D03*
X69555Y-16239D02*
D03*
X67155D02*
D03*
X67955D02*
D03*
X68755D02*
D03*
X64755D02*
D03*
X62355D02*
D03*
X63955D02*
D03*
X20355Y-16239D02*
D03*
X19555D02*
D03*
X18755D02*
D03*
X21155D02*
D03*
X57545Y-19491D02*
D03*
X25155Y-16239D02*
D03*
X24355D02*
D03*
X23555D02*
D03*
X25955D02*
D03*
X105955Y-16239D02*
D03*
X106755D02*
D03*
X113155D02*
D03*
X112355D02*
D03*
X111555D02*
D03*
X110755D02*
D03*
X101945Y-19491D02*
D03*
X25945Y10509D02*
D03*
X17145D02*
D03*
X69571Y-1549D02*
D03*
X16345Y10509D02*
D03*
X69555Y-10509D02*
D03*
X70355D02*
D03*
X24345Y10509D02*
D03*
X23545D02*
D03*
X14745D02*
D03*
X13945D02*
D03*
X67945D02*
D03*
X67145D02*
D03*
X101145D02*
D03*
X101945D02*
D03*
X58345D02*
D03*
X57545D02*
D03*
X111545D02*
D03*
X110745D02*
D03*
X26745D02*
D03*
X70345D02*
D03*
X69545D02*
D03*
X113945D02*
D03*
X113145D02*
D03*
X103555Y-10509D02*
D03*
X104355D02*
D03*
X60755D02*
D03*
X59955D02*
D03*
X16355Y-10509D02*
D03*
X17155D02*
D03*
X28000Y-1400D02*
D03*
X27600Y-1000D02*
D03*
X26755Y-10509D02*
D03*
X25955D02*
D03*
X19545Y10509D02*
D03*
X18745D02*
D03*
X63145D02*
D03*
X62345D02*
D03*
X106745D02*
D03*
X105945D02*
D03*
X110755Y-10509D02*
D03*
X111555D02*
D03*
X67155D02*
D03*
X67955D02*
D03*
X23555Y-10509D02*
D03*
X24355D02*
D03*
X105955Y-10509D02*
D03*
X106755D02*
D03*
X115555D02*
D03*
X116355D02*
D03*
X62368Y-10522D02*
D03*
X63168D02*
D03*
X29155Y-10509D02*
D03*
X28355D02*
D03*
X19555D02*
D03*
X18755D02*
D03*
X28400Y-3800D02*
D03*
X69901Y4470D02*
D03*
X25700Y3600D02*
D03*
X8103Y12141D02*
D03*
X11176Y7137D02*
D03*
X12700Y7899D02*
D03*
X11938D02*
D03*
X12700Y7137D02*
D03*
X11176Y7899D02*
D03*
X11938Y7137D02*
D03*
X113995Y3226D02*
D03*
X115311Y19450D02*
D03*
X116611D02*
D03*
X110363Y6858D02*
D03*
X108839Y6350D02*
D03*
X107696Y7239D02*
D03*
X108839Y7366D02*
D03*
X91313Y-14097D02*
D03*
X88900Y-15494D02*
D03*
X89281Y-14097D02*
D03*
X86741Y-15621D02*
D03*
X85217Y-14097D02*
D03*
X87249D02*
D03*
X84709Y-15621D02*
D03*
X38893Y6590D02*
D03*
X39218Y-5385D02*
D03*
X39551Y6604D02*
D03*
X39325Y-8375D02*
D03*
X5385Y11862D02*
D03*
X32500Y15700D02*
D03*
X9068Y730D02*
D03*
X44450Y2083D02*
D03*
X58522Y-22835D02*
D03*
X69723Y2159D02*
D03*
X47463Y-20739D02*
D03*
X51781D02*
D03*
X90551Y17780D02*
D03*
X62525Y-5550D02*
D03*
X61725D02*
D03*
X83820Y-14478D02*
D03*
X32436Y11151D02*
D03*
X33299Y11125D02*
D03*
X46253Y-9398D02*
D03*
X90399Y16662D02*
D03*
X89205Y16840D02*
D03*
X89306Y15748D02*
D03*
X47150Y-2825D02*
D03*
X102800Y-4900D02*
D03*
X102225Y-6800D02*
D03*
X103250Y-7000D02*
D03*
X102975Y-5875D02*
D03*
X100628Y6172D02*
D03*
X100225Y4275D02*
D03*
X87575Y9450D02*
D03*
X83500Y7700D02*
D03*
X70600Y-5475D02*
D03*
X71700Y19450D02*
D03*
X73000D02*
D03*
X46600Y6500D02*
D03*
X43650Y5200D02*
D03*
X50750Y-4500D02*
D03*
X53700Y-14550D02*
D03*
X49425Y-14550D02*
D03*
X28100Y19450D02*
D03*
X29400D02*
D03*
X41600Y-2000D02*
D03*
X44700Y-4600D02*
D03*
X33300Y16300D02*
D03*
X45900Y-2100D02*
D03*
X82500Y3300D02*
D03*
X81500Y6300D02*
D03*
X83500Y3900D02*
D03*
X67250Y-5475D02*
D03*
X101150Y-22825D02*
D03*
X39925Y-5375D02*
D03*
X40825D02*
D03*
Y-8375D02*
D03*
X33000Y2000D02*
D03*
X30700Y-200D02*
D03*
X50500Y-2750D02*
D03*
X39000Y3600D02*
D03*
X45300Y3650D02*
D03*
X46600D02*
D03*
X47900D02*
D03*
X49200D02*
D03*
X30300Y3800D02*
D03*
X96400Y-22400D02*
D03*
X51000Y-2250D02*
D03*
D84*
X70750Y-3750D02*
D03*
X51750Y-4250D02*
D03*
X72250Y2250D02*
D03*
X71750Y2250D02*
D03*
X57750Y-1750D02*
D03*
X56750Y-1250D02*
D03*
X56750Y-750D02*
D03*
X56750Y-1750D02*
D03*
X56250Y-750D02*
D03*
X56750Y-250D02*
D03*
Y250D02*
D03*
X58750Y2250D02*
D03*
X58250D02*
D03*
X55750Y2750D02*
D03*
X71750Y-2750D02*
D03*
X57250Y-1750D02*
D03*
X71250Y-3250D02*
D03*
X52750Y3250D02*
D03*
X55750Y3250D02*
D03*
X56750Y2750D02*
D03*
Y3250D02*
D03*
X55250Y-2750D02*
D03*
Y-3250D02*
D03*
X53250Y2250D02*
D03*
X53250Y3250D02*
D03*
X53750Y2750D02*
D03*
X54250Y3250D02*
D03*
X58750Y3750D02*
D03*
X58752Y4250D02*
D03*
X58750Y2750D02*
D03*
X59250D02*
D03*
X59750Y4250D02*
D03*
X60250D02*
D03*
X59750Y3250D02*
D03*
X60250Y3250D02*
D03*
X74750Y3750D02*
D03*
X74250Y4250D02*
D03*
X76750Y3750D02*
D03*
X76250Y4250D02*
D03*
X78250Y1750D02*
D03*
X78750D02*
D03*
X78750Y-1750D02*
D03*
X79250Y-1250D02*
D03*
X76750Y-3750D02*
D03*
X77250Y-4250D02*
D03*
X73750Y-3750D02*
D03*
X74250Y-4250D02*
D03*
X75750Y3750D02*
D03*
X75250Y4250D02*
D03*
X77750Y3750D02*
D03*
X77250Y4250D02*
D03*
X78750Y750D02*
D03*
X79250Y250D02*
D03*
X78250Y-2750D02*
D03*
X78750D02*
D03*
X75750Y-3750D02*
D03*
X76250Y-4250D02*
D03*
X72750Y-3750D02*
D03*
X73250Y-4250D02*
D03*
X70600Y1000D02*
D03*
Y500D02*
D03*
X59750Y-4250D02*
D03*
X59750Y-3750D02*
D03*
X60250Y-3250D02*
D03*
X59750Y-3250D02*
D03*
X72250Y-2750D02*
D03*
X54251Y1226D02*
D03*
X71750Y-3750D02*
D03*
X54275Y2250D02*
D03*
X71250Y-3750D02*
D03*
X54750Y1250D02*
D03*
X54775Y2250D02*
D03*
X55250Y-1250D02*
D03*
X54250Y-750D02*
D03*
X57750Y2750D02*
D03*
Y3250D02*
D03*
X56250Y-2750D02*
D03*
Y-3250D02*
D03*
X54250Y-2750D02*
D03*
Y-3250D02*
D03*
X58750Y-2750D02*
D03*
Y-3250D02*
D03*
X57750Y-2750D02*
D03*
Y-3250D02*
D03*
X56750Y-3750D02*
D03*
X56500Y-4400D02*
D03*
X55750Y-3750D02*
D03*
X55750Y-4250D02*
D03*
X53250Y-2750D02*
D03*
Y-3250D02*
D03*
X53750Y-3750D02*
D03*
X53500Y-4400D02*
D03*
X59250Y-1750D02*
D03*
X55750Y-750D02*
D03*
X52750Y1250D02*
D03*
X54250Y-250D02*
D03*
X52750Y-1250D02*
D03*
X55250Y-750D02*
D03*
X52750Y2250D02*
D03*
X58250Y-750D02*
D03*
X53250Y-750D02*
D03*
X58250Y-250D02*
D03*
X54250Y250D02*
D03*
X53250Y-1750D02*
D03*
Y-1250D02*
D03*
X54750Y-250D02*
D03*
X53250Y1250D02*
D03*
X55750Y-250D02*
D03*
X53250Y250D02*
D03*
X53250Y-250D02*
D03*
X53750Y2250D02*
D03*
X54750Y-750D02*
D03*
X58250Y-1250D02*
D03*
X57750Y-1250D02*
D03*
Y-750D02*
D03*
X55250Y-250D02*
D03*
X56250Y-250D02*
D03*
X59750Y-1750D02*
D03*
X73750Y250D02*
D03*
X72250Y-1250D02*
D03*
X73750Y-250D02*
D03*
X74750Y250D02*
D03*
Y-250D02*
D03*
X73250Y-250D02*
D03*
X74250Y-750D02*
D03*
X71750Y1750D02*
D03*
X77250Y-1250D02*
D03*
X75250D02*
D03*
X75750D02*
D03*
X72250Y-1750D02*
D03*
Y-750D02*
D03*
X72250Y-250D02*
D03*
X76750Y-750D02*
D03*
X71750Y-250D02*
D03*
X76750Y-1250D02*
D03*
X71750Y1250D02*
D03*
X77250Y-750D02*
D03*
X72750Y2250D02*
D03*
X73750Y-750D02*
D03*
X75750Y-750D02*
D03*
X74750D02*
D03*
X76750Y-250D02*
D03*
X74250D02*
D03*
X77250D02*
D03*
X76250Y250D02*
D03*
X72250Y750D02*
D03*
D85*
X123368Y7620D02*
D03*
X125908D02*
D03*
X123368Y5080D02*
D03*
X125908D02*
D03*
Y-2540D02*
D03*
X123368Y-5080D02*
D03*
X125908D02*
D03*
X123368Y-7620D02*
D03*
X125908D02*
D03*
D86*
X96400Y4800D02*
D03*
Y5600D02*
D03*
X95600Y4000D02*
D03*
X96400D02*
D03*
X94800Y2400D02*
D03*
Y1600D02*
D03*
Y3200D02*
D03*
X92400Y4800D02*
D03*
Y5600D02*
D03*
X94800Y0D02*
D03*
X86000Y-0D02*
D03*
X85200D02*
D03*
Y-800D02*
D03*
X86000D02*
D03*
X85200Y-2400D02*
D03*
X86000D02*
D03*
X85200Y-1600D02*
D03*
X86000D02*
D03*
X85200Y-5600D02*
D03*
X86800Y-1600D02*
D03*
X86000Y-3200D02*
D03*
Y-4000D02*
D03*
X85200Y-3200D02*
D03*
Y-4000D02*
D03*
Y-4800D02*
D03*
X86000Y-4800D02*
D03*
Y-5600D02*
D03*
X87600Y-3200D02*
D03*
X86800Y-3200D02*
D03*
Y-2400D02*
D03*
Y-800D02*
D03*
X86000Y800D02*
D03*
X86800D02*
D03*
Y-0D02*
D03*
X96400Y3200D02*
D03*
X86800Y-4800D02*
D03*
X94800Y-3200D02*
D03*
Y-800D02*
D03*
Y-1600D02*
D03*
Y-2400D02*
D03*
X95600Y-4000D02*
D03*
Y-800D02*
D03*
X96400Y-1600D02*
D03*
X95600Y-1600D02*
D03*
X96400Y-800D02*
D03*
X95600Y-3200D02*
D03*
X96400Y-3200D02*
D03*
X95600Y-2400D02*
D03*
X96400D02*
D03*
X96400Y-4000D02*
D03*
Y-4800D02*
D03*
X95600D02*
D03*
X87600Y3200D02*
D03*
X92400Y-800D02*
D03*
X91600D02*
D03*
X86000Y2400D02*
D03*
X90000Y-5600D02*
D03*
X89200D02*
D03*
X90000Y-4800D02*
D03*
X89200D02*
D03*
X88400Y-4800D02*
D03*
Y-4000D02*
D03*
X93200Y-2400D02*
D03*
Y-1600D02*
D03*
X92400Y-1600D02*
D03*
X93200Y-3200D02*
D03*
X92400Y-2400D02*
D03*
Y0D02*
D03*
X94000Y-1600D02*
D03*
X91600Y-3200D02*
D03*
X90800Y-2400D02*
D03*
X90800Y-3200D02*
D03*
X90800Y-800D02*
D03*
Y-1600D02*
D03*
X91600Y-2400D02*
D03*
X94000Y-3200D02*
D03*
X91600Y0D02*
D03*
X91600Y-1600D02*
D03*
X88400Y0D02*
D03*
X89200Y-1600D02*
D03*
X88400Y-800D02*
D03*
X89200Y-3200D02*
D03*
X89200Y-800D02*
D03*
X88400Y-2400D02*
D03*
X89200Y800D02*
D03*
X88400Y-1600D02*
D03*
X89200Y-2400D02*
D03*
X89200Y0D02*
D03*
M02*
