G04*
G04 #@! TF.GenerationSoftware,Altium Limited,Altium Designer,23.6.0 (18)*
G04*
G04 Layer_Color=8388736*
%FSLAX43Y43*%
%MOMM*%
G71*
G04*
G04 #@! TF.SameCoordinates,9618B176-DC57-4C31-A2D1-5874A38502C8*
G04*
G04*
G04 #@! TF.FilePolarity,Negative*
G04*
G01*
G75*
%ADD11C,0.200*%
%ADD36R,0.702X1.352*%
%ADD37C,1.118*%
G04:AMPARAMS|DCode=38|XSize=1.102mm|YSize=1.102mm|CornerRadius=0.176mm|HoleSize=0mm|Usage=FLASHONLY|Rotation=270.000|XOffset=0mm|YOffset=0mm|HoleType=Round|Shape=RoundedRectangle|*
%AMROUNDEDRECTD38*
21,1,1.102,0.750,0,0,270.0*
21,1,0.750,1.102,0,0,270.0*
1,1,0.352,-0.375,-0.375*
1,1,0.352,-0.375,0.375*
1,1,0.352,0.375,0.375*
1,1,0.352,0.375,-0.375*
%
%ADD38ROUNDEDRECTD38*%
G04:AMPARAMS|DCode=39|XSize=1.152mm|YSize=2.302mm|CornerRadius=0.182mm|HoleSize=0mm|Usage=FLASHONLY|Rotation=270.000|XOffset=0mm|YOffset=0mm|HoleType=Round|Shape=RoundedRectangle|*
%AMROUNDEDRECTD39*
21,1,1.152,1.938,0,0,270.0*
21,1,0.788,2.302,0,0,270.0*
1,1,0.364,-0.969,-0.394*
1,1,0.364,-0.969,0.394*
1,1,0.364,0.969,0.394*
1,1,0.364,0.969,-0.394*
%
%ADD39ROUNDEDRECTD39*%
%ADD40R,1.402X1.602*%
%ADD41R,0.902X0.702*%
%ADD42R,0.702X0.902*%
%ADD43R,0.802X0.902*%
%ADD44R,0.902X0.902*%
%ADD45C,0.502*%
%ADD46R,0.902X0.802*%
%ADD47R,1.196X0.276*%
%ADD48R,0.376X0.576*%
%ADD49R,1.676X0.976*%
%ADD50C,0.372*%
%ADD51R,1.452X1.202*%
%ADD52R,0.502X0.452*%
%ADD53R,0.902X0.902*%
%ADD54R,1.352X0.702*%
%ADD55R,0.452X0.502*%
%ADD56C,0.502*%
%ADD57C,0.350*%
%ADD58R,1.752X1.752*%
%ADD59C,1.752*%
%ADD60C,4.602*%
%ADD61C,0.349*%
G36*
X5126Y7870D02*
X5042Y7786D01*
Y7319D01*
X5033Y7309D01*
X5117Y7225D01*
Y7001D01*
X5238Y6880D01*
X5280Y6922D01*
X5416D01*
X5495Y7001D01*
X5626D01*
X5724Y7099D01*
X5733D01*
Y7132D01*
X5803Y7202D01*
Y7599D01*
X5757Y7646D01*
Y7814D01*
X5500Y8071D01*
X5289D01*
X5173Y7954D01*
X5154D01*
Y7903D01*
X5128Y7877D01*
Y7871D01*
X5126Y7870D01*
D02*
G37*
G36*
X8046Y7653D02*
X8013Y7654D01*
X7882Y7523D01*
Y7412D01*
X7948Y7347D01*
Y7302D01*
X7989Y7261D01*
X8177D01*
X8263Y7347D01*
Y7523D01*
X8288Y7548D01*
Y7728D01*
X8251Y7765D01*
X8206Y7720D01*
X8112D01*
X8046Y7653D01*
D02*
G37*
D11*
X10366Y-30667D02*
X9700D01*
Y-31667D01*
X10366D01*
X9700Y-31167D02*
X10033D01*
X10700Y-30667D02*
X11366D01*
X11033D01*
Y-31667D01*
X11699Y-30667D02*
Y-31667D01*
X12366D01*
X12699Y-31833D02*
X13365D01*
X13699Y-31667D02*
Y-30667D01*
X14199D01*
X14365Y-30834D01*
Y-31167D01*
X14199Y-31334D01*
X13699D01*
X14032D02*
X14365Y-31667D01*
X14698Y-30667D02*
Y-31667D01*
X15198D01*
X15365Y-31500D01*
Y-31334D01*
X15198Y-31167D01*
X14698D01*
X15198D01*
X15365Y-31000D01*
Y-30834D01*
X15198Y-30667D01*
X14698D01*
X15698Y-31667D02*
Y-31500D01*
X15865D01*
Y-31667D01*
X15698D01*
X16531D02*
Y-30667D01*
X17031D01*
X17198Y-30834D01*
Y-31167D01*
X17031Y-31334D01*
X16531D01*
X18197Y-31000D02*
X17697D01*
X17531Y-31167D01*
Y-31500D01*
X17697Y-31667D01*
X18197D01*
X18530Y-30667D02*
Y-31667D01*
X19030D01*
X19197Y-31500D01*
Y-31334D01*
Y-31167D01*
X19030Y-31000D01*
X18530D01*
X19530Y-30667D02*
Y-31667D01*
X20030D01*
X20197Y-31500D01*
Y-30834D01*
X20030Y-30667D01*
X19530D01*
X20696Y-31667D02*
X21030D01*
X21196Y-31500D01*
Y-31167D01*
X21030Y-31000D01*
X20696D01*
X20530Y-31167D01*
Y-31500D01*
X20696Y-31667D01*
X22196Y-31000D02*
X21696D01*
X21530Y-31167D01*
Y-31500D01*
X21696Y-31667D01*
X22196D01*
X26528Y-30667D02*
X27194D01*
X26861D01*
Y-31667D01*
X27694D02*
X28027D01*
X28194Y-31500D01*
Y-31167D01*
X28027Y-31000D01*
X27694D01*
X27528Y-31167D01*
Y-31500D01*
X27694Y-31667D01*
X28527Y-32000D02*
Y-31000D01*
X29027D01*
X29194Y-31167D01*
Y-31500D01*
X29027Y-31667D01*
X28527D01*
X31193Y-30834D02*
X31026Y-30667D01*
X30693D01*
X30527Y-30834D01*
Y-31000D01*
X30693Y-31167D01*
X31026D01*
X31193Y-31334D01*
Y-31500D01*
X31026Y-31667D01*
X30693D01*
X30527Y-31500D01*
X31693Y-31667D02*
X32026D01*
X32193Y-31500D01*
Y-31167D01*
X32026Y-31000D01*
X31693D01*
X31526Y-31167D01*
Y-31500D01*
X31693Y-31667D01*
X32526D02*
X32859D01*
X32693D01*
Y-30667D01*
X32526D01*
X34025D02*
Y-31667D01*
X33526D01*
X33359Y-31500D01*
Y-31167D01*
X33526Y-31000D01*
X34025D01*
X34859Y-31667D02*
X34525D01*
X34359Y-31500D01*
Y-31167D01*
X34525Y-31000D01*
X34859D01*
X35025Y-31167D01*
Y-31334D01*
X34359D01*
X35358Y-31000D02*
Y-31667D01*
Y-31334D01*
X35525Y-31167D01*
X35692Y-31000D01*
X35858D01*
X41023Y-30667D02*
X40690Y-30834D01*
X40357Y-31167D01*
Y-31500D01*
X40523Y-31667D01*
X40857D01*
X41023Y-31500D01*
Y-31334D01*
X40857Y-31167D01*
X40357D01*
X41356Y-31667D02*
X42023Y-31000D01*
X43023Y-31667D02*
X42356D01*
X43023Y-31000D01*
Y-30834D01*
X42856Y-30667D01*
X42523D01*
X42356Y-30834D01*
X43356D02*
X43522Y-30667D01*
X43856D01*
X44022Y-30834D01*
Y-31000D01*
X43856Y-31167D01*
X43689D01*
X43856D01*
X44022Y-31334D01*
Y-31500D01*
X43856Y-31667D01*
X43522D01*
X43356Y-31500D01*
X44355Y-31667D02*
X45022Y-31000D01*
X46022Y-31667D02*
X45355D01*
X46022Y-31000D01*
Y-30834D01*
X45855Y-30667D01*
X45522D01*
X45355Y-30834D01*
X46355D02*
X46521Y-30667D01*
X46855D01*
X47021Y-30834D01*
Y-31500D01*
X46855Y-31667D01*
X46521D01*
X46355Y-31500D01*
Y-30834D01*
X48021Y-31667D02*
X47355D01*
X48021Y-31000D01*
Y-30834D01*
X47854Y-30667D01*
X47521D01*
X47355Y-30834D01*
X48354D02*
X48521Y-30667D01*
X48854D01*
X49021Y-30834D01*
Y-31000D01*
X48854Y-31167D01*
X48687D01*
X48854D01*
X49021Y-31334D01*
Y-31500D01*
X48854Y-31667D01*
X48521D01*
X48354Y-31500D01*
X54019Y-31667D02*
X53353D01*
X54019Y-31000D01*
Y-30834D01*
X53852Y-30667D01*
X53519D01*
X53353Y-30834D01*
X54352Y-31000D02*
X54519D01*
Y-31167D01*
X54352D01*
Y-31000D01*
Y-31500D02*
X54519D01*
Y-31667D01*
X54352D01*
Y-31500D01*
X55185Y-31667D02*
X55519D01*
X55352D01*
Y-30667D01*
X55185Y-30834D01*
X56018Y-30667D02*
X56685D01*
Y-30834D01*
X56018Y-31500D01*
Y-31667D01*
X57018Y-31000D02*
X57185D01*
Y-31167D01*
X57018D01*
Y-31000D01*
Y-31500D02*
X57185D01*
Y-31667D01*
X57018D01*
Y-31500D01*
X57851Y-31667D02*
X58184D01*
X58018D01*
Y-30667D01*
X57851Y-30834D01*
X59351Y-31667D02*
X58684D01*
X59351Y-31000D01*
Y-30834D01*
X59184Y-30667D01*
X58851D01*
X58684Y-30834D01*
X60684Y-31667D02*
Y-30667D01*
X61183D01*
X61350Y-30834D01*
Y-31167D01*
X61183Y-31334D01*
X60684D01*
X61683Y-31667D02*
Y-30667D01*
X62016Y-31000D01*
X62350Y-30667D01*
Y-31667D01*
D36*
X116450Y250D02*
D03*
X115500Y2250D02*
D03*
X114550Y250D02*
D03*
X47168Y-4700D02*
D03*
X49068D02*
D03*
X48118Y-6700D02*
D03*
X51950Y-16550D02*
D03*
X47675Y-16550D02*
D03*
X52900Y-14550D02*
D03*
X48625Y-14550D02*
D03*
X51000Y-14550D02*
D03*
X46725Y-14550D02*
D03*
D37*
X63433Y2649D02*
D03*
X34575Y8025D02*
D03*
X14351Y7518D02*
D03*
X52700Y-7400D02*
D03*
X51600Y-9700D02*
D03*
X39625Y-9850D02*
D03*
X39600Y2400D02*
D03*
X78900Y6200D02*
D03*
X34500Y-3900D02*
D03*
X98781Y-7341D02*
D03*
X91669Y-8484D02*
D03*
D38*
X103500Y3500D02*
D03*
X106500D02*
D03*
X103500Y-3500D02*
D03*
X106500D02*
D03*
D39*
X105000Y2025D02*
D03*
Y4975D02*
D03*
Y-4975D02*
D03*
Y-2025D02*
D03*
D40*
X68566Y3429D02*
D03*
X66866D02*
D03*
D41*
X81600Y-1525D02*
D03*
X82800D02*
D03*
Y-5125D02*
D03*
X81600D02*
D03*
X82800Y-6325D02*
D03*
X81600D02*
D03*
X82800Y-3925D02*
D03*
X81600Y-325D02*
D03*
Y-2725D02*
D03*
X81600Y-3925D02*
D03*
X82800Y-325D02*
D03*
Y-2725D02*
D03*
D42*
X85600Y-8800D02*
D03*
Y-7600D02*
D03*
X86800D02*
D03*
Y-8800D02*
D03*
X90125Y8575D02*
D03*
X84400Y-8825D02*
D03*
Y-7625D02*
D03*
X90125Y7375D02*
D03*
X45300Y5600D02*
D03*
X46600D02*
D03*
X47900D02*
D03*
X49200D02*
D03*
X45300Y4400D02*
D03*
X46600D02*
D03*
X47900D02*
D03*
X49200D02*
D03*
D43*
X71700Y18600D02*
D03*
Y17400D02*
D03*
X73000Y18600D02*
D03*
Y17400D02*
D03*
X29400Y18600D02*
D03*
Y17400D02*
D03*
X28100Y18600D02*
D03*
Y17400D02*
D03*
X115300Y18600D02*
D03*
Y17400D02*
D03*
X116600Y18600D02*
D03*
Y17400D02*
D03*
X57545Y-22820D02*
D03*
Y-21620D02*
D03*
X101950Y-21625D02*
D03*
X114000Y5350D02*
D03*
X87575Y7375D02*
D03*
X88875D02*
D03*
X42700Y5200D02*
D03*
X41500Y7600D02*
D03*
Y6400D02*
D03*
X42700D02*
D03*
X64973Y2296D02*
D03*
X41400Y4000D02*
D03*
X42700Y4000D02*
D03*
X64973Y3496D02*
D03*
X87575Y8575D02*
D03*
X114000Y4150D02*
D03*
X41400Y5200D02*
D03*
X88875Y8575D02*
D03*
X42700Y7600D02*
D03*
X101950Y-22825D02*
D03*
D44*
X46175Y-18500D02*
D03*
X47675D02*
D03*
X51950D02*
D03*
X50450D02*
D03*
X48150Y-8175D02*
D03*
X49650D02*
D03*
D45*
X85600Y-2000D02*
D03*
X92000Y-5200D02*
D03*
X92800D02*
D03*
X93600D02*
D03*
X94400D02*
D03*
X95200D02*
D03*
X96000D02*
D03*
X92000Y-4400D02*
D03*
X92800D02*
D03*
X93600D02*
D03*
X94400D02*
D03*
X92000Y-3600D02*
D03*
X92800D02*
D03*
X93600D02*
D03*
X94400D02*
D03*
X96000Y-1200D02*
D03*
X94400Y-400D02*
D03*
X95200D02*
D03*
X96000D02*
D03*
X94400Y400D02*
D03*
X95200D02*
D03*
X96000D02*
D03*
X85600Y1200D02*
D03*
X94400D02*
D03*
X95200D02*
D03*
X96000D02*
D03*
X85600Y2000D02*
D03*
X86400D02*
D03*
X87200D02*
D03*
X94400D02*
D03*
X95200D02*
D03*
X96000D02*
D03*
X85600Y2800D02*
D03*
X86400D02*
D03*
X89600D02*
D03*
X90400D02*
D03*
X91200D02*
D03*
X94400D02*
D03*
X95200D02*
D03*
X85600Y3600D02*
D03*
X86400D02*
D03*
X87200D02*
D03*
X88000D02*
D03*
X88800D02*
D03*
X89600D02*
D03*
X90400D02*
D03*
X91200D02*
D03*
X92000D02*
D03*
X92800D02*
D03*
X93600D02*
D03*
X94400D02*
D03*
X95200D02*
D03*
X96000D02*
D03*
X85600Y4400D02*
D03*
X86400D02*
D03*
X87200D02*
D03*
X88000D02*
D03*
X88800D02*
D03*
X89600D02*
D03*
X90400D02*
D03*
X91200D02*
D03*
X92000D02*
D03*
X93600D02*
D03*
X94400D02*
D03*
X96000D02*
D03*
X85600Y5200D02*
D03*
X86400D02*
D03*
X87200D02*
D03*
X88000D02*
D03*
X88800D02*
D03*
X89600D02*
D03*
X90400D02*
D03*
X91200D02*
D03*
X92000D02*
D03*
X93600D02*
D03*
X94400D02*
D03*
X96000D02*
D03*
X89600Y400D02*
D03*
X88800D02*
D03*
X89600Y-400D02*
D03*
X88800D02*
D03*
X89600Y-1200D02*
D03*
X88800D02*
D03*
X89600Y-2000D02*
D03*
X88800D02*
D03*
X89600Y-2800D02*
D03*
X88800D02*
D03*
X88000Y-3600D02*
D03*
X92000Y-400D02*
D03*
X91200D02*
D03*
X90400D02*
D03*
X93600Y-1200D02*
D03*
X92800D02*
D03*
X92000D02*
D03*
X91200D02*
D03*
X90400D02*
D03*
X93600Y-2000D02*
D03*
X92800D02*
D03*
X92000D02*
D03*
X91200D02*
D03*
X90400D02*
D03*
X93600Y-2800D02*
D03*
X92800D02*
D03*
X92000D02*
D03*
X91200D02*
D03*
X90400D02*
D03*
X87200Y-5200D02*
D03*
X93600Y2800D02*
D03*
X92800D02*
D03*
X92000D02*
D03*
X88800D02*
D03*
X88000D02*
D03*
X93600Y2000D02*
D03*
X92800D02*
D03*
X92000D02*
D03*
X91200D02*
D03*
X90400D02*
D03*
X89600D02*
D03*
X88800D02*
D03*
X88000D02*
D03*
X93600Y1200D02*
D03*
X92800D02*
D03*
X92000D02*
D03*
X91200D02*
D03*
X90400D02*
D03*
X89600D02*
D03*
X88800D02*
D03*
X88000D02*
D03*
X93600Y400D02*
D03*
X92800D02*
D03*
X92000D02*
D03*
X91200D02*
D03*
X90400D02*
D03*
X88000D02*
D03*
X93600Y-400D02*
D03*
X92800D02*
D03*
X88000D02*
D03*
Y-1200D02*
D03*
Y-2000D02*
D03*
Y-2800D02*
D03*
X91200Y-3600D02*
D03*
X90400D02*
D03*
X89600D02*
D03*
X88800D02*
D03*
X91200Y-4400D02*
D03*
X90400D02*
D03*
X87200D02*
D03*
X91200Y-5200D02*
D03*
X90400D02*
D03*
X88000Y-4400D02*
D03*
Y-5200D02*
D03*
X88800Y-4400D02*
D03*
X89600D02*
D03*
X88800Y-5200D02*
D03*
X89600D02*
D03*
X96000Y-2000D02*
D03*
X95200Y-2800D02*
D03*
Y-4400D02*
D03*
Y4400D02*
D03*
X92800D02*
D03*
X95200Y5200D02*
D03*
X92800D02*
D03*
X96000Y-4400D02*
D03*
X87200Y2800D02*
D03*
X86400Y-5200D02*
D03*
X85600D02*
D03*
X86400Y-4400D02*
D03*
X85600D02*
D03*
X87200Y-3600D02*
D03*
X86400D02*
D03*
X85600D02*
D03*
X87200Y-2800D02*
D03*
X86400D02*
D03*
X85600D02*
D03*
X87200Y-2000D02*
D03*
X86400D02*
D03*
X87200Y-1200D02*
D03*
X86400D02*
D03*
X85600D02*
D03*
X87200Y-400D02*
D03*
X86400D02*
D03*
X85600D02*
D03*
X87200Y400D02*
D03*
X86400D02*
D03*
X85600D02*
D03*
X87200Y1200D02*
D03*
X86400D02*
D03*
X95200Y-3600D02*
D03*
X96000D02*
D03*
X94400Y-2800D02*
D03*
X96000D02*
D03*
X94400Y-2000D02*
D03*
X95200D02*
D03*
X94400Y-1200D02*
D03*
X95200D02*
D03*
X96000Y2800D02*
D03*
X27550Y-19800D02*
D03*
X28350D02*
D03*
X29150D02*
D03*
X71700Y5600D02*
D03*
X72100Y5100D02*
D03*
X63830Y4140D02*
D03*
X60755Y13761D02*
D03*
X59955D02*
D03*
X20355Y-16239D02*
D03*
X19555D02*
D03*
X18755D02*
D03*
X21155D02*
D03*
X16355D02*
D03*
X17155D02*
D03*
X26755D02*
D03*
X25155D02*
D03*
X24355D02*
D03*
X23555D02*
D03*
X22755D02*
D03*
X21955D02*
D03*
X25955D02*
D03*
X69571Y-1549D02*
D03*
X16355Y-10509D02*
D03*
X17155D02*
D03*
X17945Y-13761D02*
D03*
X15545D02*
D03*
X20345D02*
D03*
X22745D02*
D03*
X25145D02*
D03*
X27545D02*
D03*
X13955Y-16239D02*
D03*
X14755D02*
D03*
X15555D02*
D03*
X17955D02*
D03*
X26755Y-10509D02*
D03*
X25955D02*
D03*
X23555D02*
D03*
X24355D02*
D03*
X29155D02*
D03*
X28355D02*
D03*
X19555D02*
D03*
X18755D02*
D03*
X69901Y4470D02*
D03*
X12700Y7899D02*
D03*
X110363Y6858D02*
D03*
X108839Y6350D02*
D03*
X107696Y7239D02*
D03*
X108839Y7366D02*
D03*
X91313Y-14097D02*
D03*
X106680Y2032D02*
D03*
X105004Y-965D02*
D03*
X104877Y-3988D02*
D03*
X104996Y-6027D02*
D03*
X90551Y17780D02*
D03*
X105613Y6147D02*
D03*
X104419D02*
D03*
X107493Y3505D02*
D03*
X107620Y-3505D02*
D03*
X106702Y-2025D02*
D03*
X105004Y813D02*
D03*
X46253Y-9398D02*
D03*
X90399Y16662D02*
D03*
X89205Y16840D02*
D03*
X89306Y15748D02*
D03*
X102800Y-4900D02*
D03*
X102225Y-6800D02*
D03*
X103250Y-7000D02*
D03*
X102975Y-5875D02*
D03*
X100628Y6172D02*
D03*
X100225Y4275D02*
D03*
X70600Y-5475D02*
D03*
X46600Y6500D02*
D03*
X43650Y5200D02*
D03*
X44600Y8000D02*
D03*
X43900Y6900D02*
D03*
X96400Y-22400D02*
D03*
D46*
X68350Y-5475D02*
D03*
X69550D02*
D03*
X50581Y-19939D02*
D03*
X46263D02*
D03*
X41925Y-5975D02*
D03*
X49500Y-9400D02*
D03*
X41925Y-7775D02*
D03*
X81600Y2500D02*
D03*
X81600Y1200D02*
D03*
X48300Y-9400D02*
D03*
X51781Y-19939D02*
D03*
X47463D02*
D03*
X82800Y1200D02*
D03*
X43125Y-7775D02*
D03*
Y-5975D02*
D03*
X82800Y2500D02*
D03*
D47*
X26670Y-3800D02*
D03*
Y-200D02*
D03*
Y200D02*
D03*
X29330Y1000D02*
D03*
X26670D02*
D03*
X29330Y1400D02*
D03*
X26670D02*
D03*
X29330Y2200D02*
D03*
Y2600D02*
D03*
X26670Y3800D02*
D03*
Y3400D02*
D03*
X29330Y-3400D02*
D03*
Y-3800D02*
D03*
Y3800D02*
D03*
Y3400D02*
D03*
X26670Y3000D02*
D03*
X29330D02*
D03*
X26670Y2600D02*
D03*
Y1800D02*
D03*
X29330D02*
D03*
X26670Y600D02*
D03*
X29330D02*
D03*
X26670Y-600D02*
D03*
X29330D02*
D03*
X26670Y-1800D02*
D03*
X29330D02*
D03*
X26670Y-3000D02*
D03*
X29330D02*
D03*
X26670Y-1000D02*
D03*
Y-1400D02*
D03*
Y-2200D02*
D03*
Y-2600D02*
D03*
Y2200D02*
D03*
X29330Y-1000D02*
D03*
Y-1400D02*
D03*
Y-2200D02*
D03*
Y-2600D02*
D03*
Y-200D02*
D03*
Y200D02*
D03*
X26670Y-3400D02*
D03*
D48*
X40325Y-7775D02*
D03*
X39825D02*
D03*
X40325Y-5975D02*
D03*
X39325Y-7775D02*
D03*
X40825D02*
D03*
Y-5975D02*
D03*
X39825D02*
D03*
X39325D02*
D03*
X39000Y6000D02*
D03*
X39500D02*
D03*
X40500D02*
D03*
Y4200D02*
D03*
X81500Y3900D02*
D03*
Y5700D02*
D03*
X39000Y4200D02*
D03*
X83000Y5700D02*
D03*
X40000Y6000D02*
D03*
X82000Y3900D02*
D03*
X83000D02*
D03*
X82500D02*
D03*
Y5700D02*
D03*
X82000D02*
D03*
X39500Y4200D02*
D03*
X40000D02*
D03*
D49*
X40075Y-6875D02*
D03*
X39750Y5100D02*
D03*
X82250Y4800D02*
D03*
D50*
X75500Y-500D02*
D03*
Y0D02*
D03*
X72500Y-1000D02*
D03*
Y-500D02*
D03*
Y0D02*
D03*
Y500D02*
D03*
X71500Y2500D02*
D03*
X79000Y-4000D02*
D03*
X78500D02*
D03*
X78000D02*
D03*
X77500D02*
D03*
X76500D02*
D03*
X75500D02*
D03*
X75000D02*
D03*
X74500D02*
D03*
X73500D02*
D03*
X72500D02*
D03*
X71000D02*
D03*
X79000Y-3500D02*
D03*
X78500D02*
D03*
X78000D02*
D03*
X77500D02*
D03*
X76500D02*
D03*
X75500D02*
D03*
X75000D02*
D03*
X74500D02*
D03*
X73500D02*
D03*
X72500D02*
D03*
X71500D02*
D03*
X71000D02*
D03*
X79000Y-3000D02*
D03*
X78500D02*
D03*
X78000D02*
D03*
X77500D02*
D03*
X77000D02*
D03*
X76500D02*
D03*
X76000D02*
D03*
X75500D02*
D03*
X75000D02*
D03*
X74500D02*
D03*
X74000D02*
D03*
X73500D02*
D03*
X73000D02*
D03*
X72500D02*
D03*
X72000D02*
D03*
X78000Y-2500D02*
D03*
X77500D02*
D03*
X77000D02*
D03*
X76500D02*
D03*
X76000D02*
D03*
X75500D02*
D03*
X75000D02*
D03*
X74500D02*
D03*
X74000D02*
D03*
X73500D02*
D03*
X73000D02*
D03*
X72500D02*
D03*
X79000Y-2000D02*
D03*
X78500D02*
D03*
X78000D02*
D03*
X77500D02*
D03*
X77000D02*
D03*
X76500D02*
D03*
X76000D02*
D03*
X75500D02*
D03*
X75000D02*
D03*
X74500D02*
D03*
X74000D02*
D03*
X73500D02*
D03*
X73000D02*
D03*
X72500D02*
D03*
X78000Y-1500D02*
D03*
X77500D02*
D03*
X76000D02*
D03*
X75500D02*
D03*
X75000D02*
D03*
X74500D02*
D03*
X74000D02*
D03*
X73500D02*
D03*
X73000D02*
D03*
X72500D02*
D03*
X71000D02*
D03*
X79000Y-1000D02*
D03*
X78500D02*
D03*
X78000D02*
D03*
X77500D02*
D03*
X75000D02*
D03*
X74500D02*
D03*
X74000D02*
D03*
X73500D02*
D03*
X73000D02*
D03*
X71000D02*
D03*
X79000Y-500D02*
D03*
X78500D02*
D03*
X78000D02*
D03*
X77500D02*
D03*
X79000Y0D02*
D03*
X78500D02*
D03*
X78000D02*
D03*
X77500D02*
D03*
X78000Y500D02*
D03*
X77500D02*
D03*
X79000Y1000D02*
D03*
X78500D02*
D03*
X78000D02*
D03*
X77500D02*
D03*
X78000Y1500D02*
D03*
X77500D02*
D03*
X77000D02*
D03*
X76500D02*
D03*
X76000D02*
D03*
X75500D02*
D03*
X74000D02*
D03*
X73500D02*
D03*
X73000D02*
D03*
X79000Y2000D02*
D03*
X78500D02*
D03*
X78000D02*
D03*
X77500D02*
D03*
X77000D02*
D03*
X76500D02*
D03*
X76000D02*
D03*
X75500D02*
D03*
X74000D02*
D03*
X73500D02*
D03*
X73000D02*
D03*
X71000D02*
D03*
X79000Y2500D02*
D03*
X78500D02*
D03*
X78000D02*
D03*
X77500D02*
D03*
X77000D02*
D03*
X76500D02*
D03*
X76000D02*
D03*
X75500D02*
D03*
X75000D02*
D03*
X74500D02*
D03*
X74000D02*
D03*
X73500D02*
D03*
X73000D02*
D03*
X72500D02*
D03*
X71000D02*
D03*
X79000Y3000D02*
D03*
X78500D02*
D03*
X78000D02*
D03*
X77500D02*
D03*
X77000D02*
D03*
X76500D02*
D03*
X76000D02*
D03*
X75500D02*
D03*
X75000D02*
D03*
X74500D02*
D03*
X74000D02*
D03*
X73500D02*
D03*
X73000D02*
D03*
X72500D02*
D03*
X72000D02*
D03*
X71500D02*
D03*
X71000D02*
D03*
X79000Y3500D02*
D03*
X78500D02*
D03*
X78000D02*
D03*
X77000D02*
D03*
X76000D02*
D03*
X75000D02*
D03*
X74000D02*
D03*
X73500D02*
D03*
X73000D02*
D03*
X72500D02*
D03*
X72000D02*
D03*
X79000Y4000D02*
D03*
X78500D02*
D03*
X78000D02*
D03*
X77000D02*
D03*
X76000D02*
D03*
X75000D02*
D03*
X74000D02*
D03*
X73500D02*
D03*
X73000D02*
D03*
X72500D02*
D03*
X72000D02*
D03*
Y2500D02*
D03*
X71500Y2000D02*
D03*
X73000Y1000D02*
D03*
X71500Y-2500D02*
D03*
X72000Y-3500D02*
D03*
Y2000D02*
D03*
Y1500D02*
D03*
Y1000D02*
D03*
Y500D02*
D03*
Y0D02*
D03*
Y-500D02*
D03*
Y-1000D02*
D03*
Y-1500D02*
D03*
Y-2000D02*
D03*
X72500Y2000D02*
D03*
X73000Y0D02*
D03*
X73500D02*
D03*
Y-500D02*
D03*
X74000Y0D02*
D03*
Y-500D02*
D03*
X74500Y0D02*
D03*
Y-500D02*
D03*
X75000Y0D02*
D03*
Y-500D02*
D03*
X75500Y-1000D02*
D03*
X76000Y0D02*
D03*
Y-500D02*
D03*
Y-1000D02*
D03*
X76500Y-500D02*
D03*
Y-1000D02*
D03*
Y-1500D02*
D03*
X77000Y-500D02*
D03*
Y-1000D02*
D03*
Y-1500D02*
D03*
X74500Y2000D02*
D03*
X75000D02*
D03*
X74500Y1500D02*
D03*
X75000D02*
D03*
X73000Y-500D02*
D03*
X71000Y1500D02*
D03*
Y0D02*
D03*
Y-500D02*
D03*
Y-2000D02*
D03*
X71500Y1500D02*
D03*
Y1000D02*
D03*
Y500D02*
D03*
Y0D02*
D03*
Y-500D02*
D03*
Y-1000D02*
D03*
Y-1500D02*
D03*
Y-2000D02*
D03*
X72500Y1500D02*
D03*
Y1000D02*
D03*
X73000Y500D02*
D03*
X73500Y1000D02*
D03*
Y500D02*
D03*
X74000Y1000D02*
D03*
Y500D02*
D03*
X74500Y1000D02*
D03*
Y500D02*
D03*
X75000Y1000D02*
D03*
Y500D02*
D03*
X75500Y1000D02*
D03*
Y500D02*
D03*
X76000Y1000D02*
D03*
Y500D02*
D03*
X76500Y1000D02*
D03*
Y500D02*
D03*
Y0D02*
D03*
X77000Y1000D02*
D03*
Y500D02*
D03*
Y0D02*
D03*
X71500Y-4000D02*
D03*
X72000D02*
D03*
Y-2500D02*
D03*
X71000Y500D02*
D03*
Y1000D02*
D03*
Y-2500D02*
D03*
Y-3000D02*
D03*
X73000Y-4000D02*
D03*
Y-3500D02*
D03*
X76000Y-4000D02*
D03*
Y-3500D02*
D03*
X79000Y-2500D02*
D03*
X78500D02*
D03*
X79000Y500D02*
D03*
X78500D02*
D03*
X77500Y4000D02*
D03*
Y3500D02*
D03*
X75500Y4000D02*
D03*
Y3500D02*
D03*
X74000Y-4000D02*
D03*
Y-3500D02*
D03*
X77000Y-4000D02*
D03*
Y-3500D02*
D03*
X79000Y-1500D02*
D03*
X78500D02*
D03*
X79000Y1500D02*
D03*
X78500D02*
D03*
X76500Y4000D02*
D03*
Y3500D02*
D03*
X74500Y4000D02*
D03*
Y3500D02*
D03*
X71500Y-3000D02*
D03*
Y4000D02*
D03*
X71000D02*
D03*
X71500Y3500D02*
D03*
X71000D02*
D03*
X55500Y4000D02*
D03*
X57000Y-2000D02*
D03*
X52000Y2500D02*
D03*
X58500D02*
D03*
X59000D02*
D03*
X56000D02*
D03*
X57000Y-1500D02*
D03*
X57500Y-2000D02*
D03*
X52500Y-3000D02*
D03*
X53000Y3000D02*
D03*
X52500Y-4000D02*
D03*
X56000Y3000D02*
D03*
X57000Y2500D02*
D03*
Y3000D02*
D03*
X55000Y-2500D02*
D03*
Y-3000D02*
D03*
X53500Y2500D02*
D03*
Y3000D02*
D03*
X54000Y2500D02*
D03*
Y3000D02*
D03*
X59000Y3500D02*
D03*
Y4000D02*
D03*
X58500Y3000D02*
D03*
X59000D02*
D03*
X59500Y4000D02*
D03*
X60000D02*
D03*
X59500Y3500D02*
D03*
X60000D02*
D03*
X55500D02*
D03*
X57500D02*
D03*
Y4000D02*
D03*
X59500Y1500D02*
D03*
X60000D02*
D03*
X59500Y-1500D02*
D03*
X60000D02*
D03*
X58000Y-3500D02*
D03*
Y-4000D02*
D03*
X55000Y-3500D02*
D03*
Y-4000D02*
D03*
X52500Y2500D02*
D03*
X59500Y-500D02*
D03*
X60000D02*
D03*
Y-4000D02*
D03*
X59500D02*
D03*
X60000Y-3500D02*
D03*
X59500D02*
D03*
X60000Y-3000D02*
D03*
X59500D02*
D03*
X53000Y-2500D02*
D03*
X52000Y-1500D02*
D03*
Y-1000D02*
D03*
Y500D02*
D03*
Y1000D02*
D03*
X52500Y4000D02*
D03*
X54000Y1500D02*
D03*
Y2000D02*
D03*
X54500Y1500D02*
D03*
Y2000D02*
D03*
X55500Y-1500D02*
D03*
X54500Y-1000D02*
D03*
X53000Y-4000D02*
D03*
X55500Y2000D02*
D03*
Y1500D02*
D03*
X52000D02*
D03*
Y0D02*
D03*
Y-500D02*
D03*
Y-2000D02*
D03*
X52500Y1500D02*
D03*
Y1000D02*
D03*
Y500D02*
D03*
Y0D02*
D03*
Y-500D02*
D03*
Y-1000D02*
D03*
Y-1500D02*
D03*
Y-2000D02*
D03*
X53500Y1500D02*
D03*
Y1000D02*
D03*
X54000Y500D02*
D03*
X54500Y1000D02*
D03*
Y500D02*
D03*
X55000Y1000D02*
D03*
Y500D02*
D03*
X55500Y1000D02*
D03*
Y500D02*
D03*
X56000Y1000D02*
D03*
Y500D02*
D03*
X56500Y1000D02*
D03*
Y500D02*
D03*
X57000Y1000D02*
D03*
Y500D02*
D03*
X57500Y1000D02*
D03*
Y500D02*
D03*
Y0D02*
D03*
X58000Y1000D02*
D03*
Y500D02*
D03*
Y0D02*
D03*
Y-2000D02*
D03*
Y2500D02*
D03*
Y3000D02*
D03*
X56000Y-2500D02*
D03*
Y-3000D02*
D03*
X54000Y-2500D02*
D03*
Y-3000D02*
D03*
X56500Y3500D02*
D03*
Y4000D02*
D03*
X58500Y3500D02*
D03*
Y4000D02*
D03*
X59500Y500D02*
D03*
X60000D02*
D03*
X59500Y-2500D02*
D03*
X60000D02*
D03*
X57000Y-3500D02*
D03*
Y-4000D02*
D03*
X54000Y-3500D02*
D03*
Y-4000D02*
D03*
X58500Y-2500D02*
D03*
Y-3000D02*
D03*
X58000Y-2500D02*
D03*
Y-3000D02*
D03*
X56500Y-3500D02*
D03*
Y-4000D02*
D03*
X56000Y-3500D02*
D03*
Y-4000D02*
D03*
X53500Y-2500D02*
D03*
Y-3000D02*
D03*
Y-3500D02*
D03*
Y-4000D02*
D03*
X52000Y3000D02*
D03*
Y3500D02*
D03*
Y4000D02*
D03*
X52500Y3500D02*
D03*
X53000Y2500D02*
D03*
X52000Y2000D02*
D03*
X56000D02*
D03*
Y1500D02*
D03*
X54000Y1000D02*
D03*
Y-500D02*
D03*
X52500Y-2500D02*
D03*
X53000Y-3500D02*
D03*
Y2000D02*
D03*
Y1500D02*
D03*
Y1000D02*
D03*
Y500D02*
D03*
Y0D02*
D03*
Y-500D02*
D03*
Y-1000D02*
D03*
Y-1500D02*
D03*
Y-2000D02*
D03*
X53500Y2000D02*
D03*
X54000Y0D02*
D03*
X54500D02*
D03*
Y-500D02*
D03*
X55000Y0D02*
D03*
Y-500D02*
D03*
X55500Y0D02*
D03*
Y-500D02*
D03*
X56000Y0D02*
D03*
Y-500D02*
D03*
X56500Y-1000D02*
D03*
X57000Y0D02*
D03*
Y-500D02*
D03*
Y-1000D02*
D03*
X57500Y-500D02*
D03*
Y-1000D02*
D03*
Y-1500D02*
D03*
X58000Y-500D02*
D03*
Y-1000D02*
D03*
Y-1500D02*
D03*
X56500Y-500D02*
D03*
Y0D02*
D03*
X53500Y-1000D02*
D03*
Y-500D02*
D03*
Y0D02*
D03*
Y500D02*
D03*
X59000Y-4000D02*
D03*
X58500D02*
D03*
X57500D02*
D03*
X55500D02*
D03*
X54500D02*
D03*
X52000D02*
D03*
X59000Y-3500D02*
D03*
X58500D02*
D03*
X57500D02*
D03*
X55500D02*
D03*
X54500D02*
D03*
X52500D02*
D03*
X52000D02*
D03*
X59000Y-3000D02*
D03*
X57500D02*
D03*
X57000D02*
D03*
X56500D02*
D03*
X55500D02*
D03*
X54500D02*
D03*
X53000D02*
D03*
X52000D02*
D03*
X59000Y-2500D02*
D03*
X57500D02*
D03*
X57000D02*
D03*
X56500D02*
D03*
X55500D02*
D03*
X54500D02*
D03*
X52000D02*
D03*
X60000Y-2000D02*
D03*
X59500D02*
D03*
X59000D02*
D03*
X58500D02*
D03*
X56500D02*
D03*
X56000D02*
D03*
X55500D02*
D03*
X55000D02*
D03*
X54500D02*
D03*
X54000D02*
D03*
X53500D02*
D03*
X59000Y-1500D02*
D03*
X58500D02*
D03*
X56500D02*
D03*
X56000D02*
D03*
X55000D02*
D03*
X54500D02*
D03*
X54000D02*
D03*
X53500D02*
D03*
X60000Y-1000D02*
D03*
X59500D02*
D03*
X59000D02*
D03*
X58500D02*
D03*
X56000D02*
D03*
X55500D02*
D03*
X55000D02*
D03*
X54000D02*
D03*
X59000Y-500D02*
D03*
X58500D02*
D03*
X60000Y0D02*
D03*
X59500D02*
D03*
X59000D02*
D03*
X58500D02*
D03*
X59000Y500D02*
D03*
X58500D02*
D03*
X60000Y1000D02*
D03*
X59500D02*
D03*
X59000D02*
D03*
X58500D02*
D03*
X59000Y1500D02*
D03*
X58500D02*
D03*
X58000D02*
D03*
X57500D02*
D03*
X57000D02*
D03*
X56500D02*
D03*
X55000D02*
D03*
X60000Y2000D02*
D03*
X59500D02*
D03*
X59000D02*
D03*
X58500D02*
D03*
X58000D02*
D03*
X57500D02*
D03*
X57000D02*
D03*
X56500D02*
D03*
X55000D02*
D03*
X52500D02*
D03*
X60000Y2500D02*
D03*
X59500D02*
D03*
X57500D02*
D03*
X56500D02*
D03*
X55500D02*
D03*
X55000D02*
D03*
X54500D02*
D03*
X60000Y3000D02*
D03*
X59500D02*
D03*
X57500D02*
D03*
X56500D02*
D03*
X55500D02*
D03*
X55000D02*
D03*
X54500D02*
D03*
X52500D02*
D03*
X58000Y3500D02*
D03*
X57000D02*
D03*
X56000D02*
D03*
X55000D02*
D03*
X54500D02*
D03*
X54000D02*
D03*
X53500D02*
D03*
X53000D02*
D03*
X58000Y4000D02*
D03*
X57000D02*
D03*
X56000D02*
D03*
X55000D02*
D03*
X54500D02*
D03*
X54000D02*
D03*
X53500D02*
D03*
X53000D02*
D03*
D51*
X40500Y-2475D02*
D03*
Y-4225D02*
D03*
X38500D02*
D03*
X38000Y7507D02*
D03*
X40000D02*
D03*
X38000Y9257D02*
D03*
X40000D02*
D03*
X38500Y-2475D02*
D03*
D52*
X47950Y1450D02*
D03*
Y2100D02*
D03*
D53*
X115500Y4000D02*
D03*
Y5500D02*
D03*
X64973Y-580D02*
D03*
Y920D02*
D03*
D54*
X68350Y-1050D02*
D03*
X66350Y-100D02*
D03*
X68350Y850D02*
D03*
D55*
X45350Y2100D02*
D03*
X46000D02*
D03*
D56*
X59155Y13761D02*
D03*
X68755D02*
D03*
X71145Y10509D02*
D03*
X66355Y13761D02*
D03*
X63955D02*
D03*
X61555D02*
D03*
X114755D02*
D03*
X109945Y10509D02*
D03*
X102755Y13761D02*
D03*
X107555D02*
D03*
X105145Y10509D02*
D03*
X112345D02*
D03*
X72352Y-16231D02*
D03*
X71552D02*
D03*
X59155Y19491D02*
D03*
X58355D02*
D03*
X57555D02*
D03*
X114750Y-19800D02*
D03*
X115550D02*
D03*
X116350D02*
D03*
X72750D02*
D03*
X71950D02*
D03*
X71150D02*
D03*
X13955Y19491D02*
D03*
X14755D02*
D03*
X15555D02*
D03*
X101155D02*
D03*
X101955D02*
D03*
X102755D02*
D03*
X60900Y-5550D02*
D03*
X58598Y-8077D02*
D03*
X55900Y-9400D02*
D03*
X20345Y16239D02*
D03*
X108355Y-16239D02*
D03*
X114554Y-787D02*
D03*
X107555Y-16239D02*
D03*
X63155D02*
D03*
X72745Y-13761D02*
D03*
X71945D02*
D03*
X103555Y13761D02*
D03*
X104355D02*
D03*
X113145Y-13761D02*
D03*
X113945D02*
D03*
X109945Y16239D02*
D03*
X110745D02*
D03*
X111545D02*
D03*
X109145D02*
D03*
X113945D02*
D03*
X113145D02*
D03*
X103545D02*
D03*
X105145D02*
D03*
X105945D02*
D03*
X106745D02*
D03*
X107545D02*
D03*
X108345D02*
D03*
X104345D02*
D03*
X112345D02*
D03*
X114745D02*
D03*
X115545D02*
D03*
X116345D02*
D03*
X66345D02*
D03*
X67145D02*
D03*
X67945D02*
D03*
X65545D02*
D03*
X70345D02*
D03*
X69545D02*
D03*
X59945D02*
D03*
X61545D02*
D03*
X62345D02*
D03*
X63145D02*
D03*
X63945D02*
D03*
X64745D02*
D03*
X60745D02*
D03*
X68745D02*
D03*
X71145D02*
D03*
X71945D02*
D03*
X72745D02*
D03*
X27545Y10509D02*
D03*
X25145D02*
D03*
X29145Y16239D02*
D03*
X28345D02*
D03*
X27545D02*
D03*
X25145D02*
D03*
X17145D02*
D03*
X21145D02*
D03*
X19545D02*
D03*
X18745D02*
D03*
X17945D02*
D03*
X16345D02*
D03*
X25945D02*
D03*
X26745D02*
D03*
X21945D02*
D03*
X24345D02*
D03*
X23545D02*
D03*
X22745D02*
D03*
X69555Y-16239D02*
D03*
X67155D02*
D03*
X67955D02*
D03*
X68755D02*
D03*
X64755D02*
D03*
X62355D02*
D03*
X63955D02*
D03*
X70355D02*
D03*
X66355D02*
D03*
X65555D02*
D03*
X60755D02*
D03*
X58355D02*
D03*
X59155D02*
D03*
X59955D02*
D03*
X61555D02*
D03*
X57545Y-19491D02*
D03*
X116459Y-813D02*
D03*
X105955Y-16239D02*
D03*
X106755D02*
D03*
X113155D02*
D03*
X112355D02*
D03*
X111555D02*
D03*
X110755D02*
D03*
X68745Y-13761D02*
D03*
X113955Y-16239D02*
D03*
X109155D02*
D03*
X109955D02*
D03*
X114755Y-10509D02*
D03*
X112355D02*
D03*
X109955D02*
D03*
X107555D02*
D03*
X105155D02*
D03*
X102755D02*
D03*
X101155Y-16239D02*
D03*
X102755D02*
D03*
X101945Y-19491D02*
D03*
X105155Y-16239D02*
D03*
X104355D02*
D03*
X103555D02*
D03*
X25945Y10509D02*
D03*
X17145D02*
D03*
X16345D02*
D03*
X69555Y-10509D02*
D03*
X70355D02*
D03*
X24345Y10509D02*
D03*
X23545D02*
D03*
X14745D02*
D03*
X13945D02*
D03*
X67945D02*
D03*
X67145D02*
D03*
X101145D02*
D03*
X101945D02*
D03*
X58345D02*
D03*
X57545D02*
D03*
X111545D02*
D03*
X110745D02*
D03*
X26745D02*
D03*
X70345D02*
D03*
X69545D02*
D03*
X113945D02*
D03*
X113145D02*
D03*
X103555Y-10509D02*
D03*
X104355D02*
D03*
X60755D02*
D03*
X59955D02*
D03*
X59132Y-13748D02*
D03*
X61532D02*
D03*
X63932D02*
D03*
X66332D02*
D03*
X71132D02*
D03*
X15555Y13761D02*
D03*
X17955D02*
D03*
X20355D02*
D03*
X22755D02*
D03*
X19545Y10509D02*
D03*
X18745D02*
D03*
X63145D02*
D03*
X62345D02*
D03*
X106745D02*
D03*
X105945D02*
D03*
X110755Y-10509D02*
D03*
X111555D02*
D03*
X67155D02*
D03*
X67955D02*
D03*
X105955D02*
D03*
X106755D02*
D03*
X115555D02*
D03*
X116355D02*
D03*
X62368Y-10522D02*
D03*
X63168D02*
D03*
X8103Y12141D02*
D03*
X11176Y7137D02*
D03*
X11938Y7899D02*
D03*
X12700Y7137D02*
D03*
X11176Y7899D02*
D03*
X11938Y7137D02*
D03*
X113995Y3226D02*
D03*
X115311Y19450D02*
D03*
X116611D02*
D03*
X88900Y-15494D02*
D03*
X89281Y-14097D02*
D03*
X86741Y-15621D02*
D03*
X85217Y-14097D02*
D03*
X87249D02*
D03*
X84709Y-15621D02*
D03*
X5385Y11862D02*
D03*
X32500Y15700D02*
D03*
X9068Y730D02*
D03*
X7168Y730D02*
D03*
X47463Y-20739D02*
D03*
X51781D02*
D03*
X62525Y-5550D02*
D03*
X61725D02*
D03*
X83820Y-14478D02*
D03*
X32436Y11151D02*
D03*
X33299Y11125D02*
D03*
X71700Y19450D02*
D03*
X73000D02*
D03*
X50200Y-14550D02*
D03*
X45925Y-14550D02*
D03*
X53700Y-14550D02*
D03*
X49425Y-14550D02*
D03*
X28100Y19450D02*
D03*
X29400D02*
D03*
X33300Y16300D02*
D03*
X67250Y-5475D02*
D03*
X101150Y-22825D02*
D03*
D57*
X75057Y14656D02*
D03*
Y15392D02*
D03*
X70612Y14427D02*
D03*
X62776Y14430D02*
D03*
X63576D02*
D03*
X71576Y15570D02*
D03*
X70776D02*
D03*
X69976D02*
D03*
X69176D02*
D03*
X65176D02*
D03*
X64381D02*
D03*
X63576D02*
D03*
X62776D02*
D03*
X61976D02*
D03*
X59004Y15367D02*
D03*
X56730Y14379D02*
D03*
X56095D02*
D03*
X57365D02*
D03*
X58000D02*
D03*
X58635D02*
D03*
X105576Y14430D02*
D03*
X104776D02*
D03*
Y15570D02*
D03*
X105576D02*
D03*
X102870Y15621D02*
D03*
X102235D02*
D03*
X107975Y14427D02*
D03*
X108788D02*
D03*
X108776Y15570D02*
D03*
X107976D02*
D03*
X112776Y14430D02*
D03*
X113576D02*
D03*
X114376D02*
D03*
X111976D02*
D03*
Y15570D02*
D03*
X114376D02*
D03*
X113576D02*
D03*
X112776D02*
D03*
X117728Y14378D02*
D03*
X117093D02*
D03*
X114555Y-15621D02*
D03*
X115190D02*
D03*
X114555Y-14379D02*
D03*
X115190D02*
D03*
X110363Y-15621D02*
D03*
X109550Y-14379D02*
D03*
X108737Y-15011D02*
D03*
Y-14379D02*
D03*
X63424Y-14450D02*
D03*
X62654D02*
D03*
X61883D02*
D03*
X61112D02*
D03*
X60342D02*
D03*
X59554D02*
D03*
X116460Y-14379D02*
D03*
X115825D02*
D03*
X117095D02*
D03*
X117730D02*
D03*
Y-15621D02*
D03*
X117095D02*
D03*
X115825D02*
D03*
X116460D02*
D03*
X109550D02*
D03*
X103163D02*
D03*
X103950D02*
D03*
X104738D02*
D03*
X105525D02*
D03*
X103163Y-14379D02*
D03*
X103950D02*
D03*
X104738D02*
D03*
X105525D02*
D03*
X101675Y-15621D02*
D03*
X100330D02*
D03*
X99695D02*
D03*
X100330Y-14379D02*
D03*
X99695D02*
D03*
X100965D02*
D03*
X101600D02*
D03*
X61925Y-15621D02*
D03*
X61138D02*
D03*
X60350D02*
D03*
X59563D02*
D03*
X58075D02*
D03*
X71323Y-15011D02*
D03*
X65202D02*
D03*
X73685Y-14199D02*
D03*
X57440Y-15621D02*
D03*
X56805D02*
D03*
X56170D02*
D03*
X56730Y-14379D02*
D03*
X56095D02*
D03*
X57365D02*
D03*
X58991Y-15011D02*
D03*
X30717Y-15624D02*
D03*
X29929D02*
D03*
X29142D02*
D03*
X28329D02*
D03*
X27542D02*
D03*
X28371Y-14376D02*
D03*
X25971D02*
D03*
X26758D02*
D03*
X23571D02*
D03*
X24358D02*
D03*
X21156Y-14402D02*
D03*
X21944D02*
D03*
X19558Y-14376D02*
D03*
X18771D02*
D03*
X17145D02*
D03*
X16332D02*
D03*
X21158Y-15014D02*
D03*
X15391Y-15011D02*
D03*
X21944D02*
D03*
X14400Y-14379D02*
D03*
X13765D02*
D03*
X12495D02*
D03*
X13130D02*
D03*
X12570Y-15621D02*
D03*
X13205D02*
D03*
X26746Y14453D02*
D03*
X25959D02*
D03*
X27559D02*
D03*
X21946Y14376D02*
D03*
X21158D02*
D03*
X27559Y15367D02*
D03*
X19558Y14376D02*
D03*
X18771D02*
D03*
X17145D02*
D03*
X16332D02*
D03*
X13840Y14379D02*
D03*
X14475D02*
D03*
X13205D02*
D03*
X12570D02*
D03*
X13130Y15621D02*
D03*
X12495D02*
D03*
X13765D02*
D03*
X14400D02*
D03*
X117095D02*
D03*
X117730D02*
D03*
X101600D02*
D03*
X100965D02*
D03*
X114757Y14989D02*
D03*
X99695Y15621D02*
D03*
X100330D02*
D03*
X108356Y15011D02*
D03*
X21944Y14989D02*
D03*
X15391D02*
D03*
X21158Y14986D02*
D03*
X114884Y-15011D02*
D03*
X108737Y-15621D02*
D03*
X102591Y-15011D02*
D03*
X70104Y3429D02*
D03*
X28000Y-1400D02*
D03*
X27600Y-1000D02*
D03*
X30700Y-200D02*
D03*
D58*
X123368Y7620D02*
D03*
D59*
X125908D02*
D03*
X123368Y5080D02*
D03*
X125908D02*
D03*
X123368Y2540D02*
D03*
X125908D02*
D03*
X123368Y0D02*
D03*
X125908D02*
D03*
X123368Y-2540D02*
D03*
X125908D02*
D03*
X123368Y-5080D02*
D03*
X125908D02*
D03*
X123368Y-7620D02*
D03*
X125908D02*
D03*
D60*
X3500Y-24750D02*
D03*
Y24750D02*
D03*
X39600D02*
D03*
Y-24750D02*
D03*
X47100D02*
D03*
Y24750D02*
D03*
X83200D02*
D03*
Y-24750D02*
D03*
X90700Y24750D02*
D03*
X126800Y-24750D02*
D03*
X90700D02*
D03*
X126800Y24750D02*
D03*
D61*
X80975Y4572D02*
D03*
X36881Y-7112D02*
D03*
X37440D02*
D03*
X36881Y-6477D02*
D03*
X37440D02*
D03*
X38893Y6590D02*
D03*
X43900Y-2750D02*
D03*
X39218Y-5385D02*
D03*
X39551Y6604D02*
D03*
X37160Y4826D02*
D03*
Y5461D02*
D03*
X36678Y4826D02*
D03*
Y5461D02*
D03*
X38500Y5450D02*
D03*
Y4850D02*
D03*
X38775Y-7125D02*
D03*
Y-6475D02*
D03*
X39325Y-8375D02*
D03*
X80493Y4877D02*
D03*
X44450Y2083D02*
D03*
X47168Y-3708D02*
D03*
X58522Y-22835D02*
D03*
X69723Y2159D02*
D03*
X80848Y-4191D02*
D03*
X47150Y-2825D02*
D03*
X88000Y6200D02*
D03*
X89200Y-9525D02*
D03*
X88000D02*
D03*
X86800Y-9550D02*
D03*
X85600D02*
D03*
X84400Y-9575D02*
D03*
X80850Y-5550D02*
D03*
X80850Y-6325D02*
D03*
Y-2725D02*
D03*
Y-1525D02*
D03*
Y-325D02*
D03*
X84325Y2650D02*
D03*
X91000Y8575D02*
D03*
X86300Y7700D02*
D03*
X87575Y9450D02*
D03*
X82700Y7700D02*
D03*
X83500Y7700D02*
D03*
X50750Y-4500D02*
D03*
X43925Y-7775D02*
D03*
X41600Y-2000D02*
D03*
X44700Y-4600D02*
D03*
X45900Y-2100D02*
D03*
X43900Y-3350D02*
D03*
X83550Y1200D02*
D03*
X82500Y3300D02*
D03*
X81500Y6300D02*
D03*
X83500Y4600D02*
D03*
Y3900D02*
D03*
X84025Y1850D02*
D03*
X39925Y-5375D02*
D03*
X40825D02*
D03*
Y-8375D02*
D03*
X33000Y2000D02*
D03*
X50500Y-2750D02*
D03*
X39000Y3600D02*
D03*
X47900Y6500D02*
D03*
X47200Y1700D02*
D03*
X43925Y-5975D02*
D03*
X41600Y-6814D02*
D03*
X42600D02*
D03*
X45300Y3650D02*
D03*
X46600D02*
D03*
X47900D02*
D03*
X49200D02*
D03*
X30300Y3800D02*
D03*
X51000Y-2250D02*
D03*
M02*
