G04*
G04 #@! TF.GenerationSoftware,Altium Limited,Altium Designer,23.6.0 (18)*
G04*
G04 Layer_Physical_Order=3*
G04 Layer_Color=36540*
%FSLAX43Y43*%
%MOMM*%
G71*
G04*
G04 #@! TF.SameCoordinates,BD1C5E25-77D2-44B3-BBB9-DEE1D7037492*
G04*
G04*
G04 #@! TF.FilePolarity,Positive*
G04*
G01*
G75*
%ADD11C,0.200*%
%ADD15C,0.102*%
%ADD25C,0.400*%
%ADD64C,0.120*%
%ADD65C,0.102*%
%ADD66C,0.130*%
%ADD78C,0.480*%
%ADD87C,0.350*%
G36*
X90751Y17754D02*
X90753Y17731D01*
X90756Y17709D01*
X90760Y17689D01*
X90765Y17670D01*
X90771Y17652D01*
X90779Y17636D01*
X90787Y17621D01*
X90797Y17607D01*
X90809Y17594D01*
X90737Y17522D01*
X90724Y17534D01*
X90710Y17544D01*
X90695Y17552D01*
X90679Y17560D01*
X90661Y17566D01*
X90642Y17571D01*
X90622Y17575D01*
X90600Y17578D01*
X90577Y17580D01*
X90553Y17580D01*
X90751Y17778D01*
X90751Y17754D01*
D02*
G37*
G36*
X89406Y16817D02*
X89411Y16773D01*
X89415Y16752D01*
X89420Y16733D01*
X89427Y16715D01*
X89434Y16699D01*
X89443Y16684D01*
X89453Y16670D01*
X89464Y16658D01*
X89393Y16584D01*
X89381Y16596D01*
X89367Y16606D01*
X89352Y16614D01*
X89336Y16622D01*
X89318Y16628D01*
X89299Y16633D01*
X89279Y16637D01*
X89257Y16639D01*
X89234Y16640D01*
X89210Y16640D01*
X89405Y16842D01*
X89406Y16817D01*
D02*
G37*
G36*
X90600Y16680D02*
X90621Y16613D01*
X90629Y16594D01*
X90637Y16576D01*
X90646Y16560D01*
X90655Y16546D01*
X90665Y16533D01*
X90675Y16522D01*
X90621Y16432D01*
X90608Y16444D01*
X90594Y16454D01*
X90579Y16462D01*
X90562Y16468D01*
X90545Y16473D01*
X90527Y16475D01*
X90509Y16476D01*
X90489Y16475D01*
X90468Y16473D01*
X90446Y16468D01*
X90594Y16706D01*
X90600Y16680D01*
D02*
G37*
G36*
X63402Y16425D02*
X63391Y16412D01*
X63381Y16399D01*
X63372Y16383D01*
X63365Y16367D01*
X63358Y16349D01*
X63353Y16330D01*
X63349Y16310D01*
X63347Y16288D01*
X63345Y16265D01*
X63345Y16241D01*
X63147Y16439D01*
X63171Y16440D01*
X63194Y16441D01*
X63216Y16444D01*
X63236Y16448D01*
X63255Y16453D01*
X63273Y16459D01*
X63289Y16467D01*
X63304Y16476D01*
X63318Y16486D01*
X63330Y16497D01*
X63402Y16425D01*
D02*
G37*
G36*
X62602D02*
X62591Y16412D01*
X62581Y16399D01*
X62572Y16383D01*
X62565Y16367D01*
X62558Y16349D01*
X62553Y16330D01*
X62549Y16310D01*
X62547Y16288D01*
X62545Y16265D01*
X62545Y16241D01*
X62347Y16439D01*
X62371Y16440D01*
X62394Y16441D01*
X62416Y16444D01*
X62436Y16448D01*
X62455Y16453D01*
X62473Y16459D01*
X62489Y16467D01*
X62504Y16476D01*
X62518Y16486D01*
X62530Y16497D01*
X62602Y16425D01*
D02*
G37*
G36*
X61802D02*
X61791Y16412D01*
X61781Y16399D01*
X61772Y16383D01*
X61765Y16367D01*
X61758Y16349D01*
X61753Y16330D01*
X61749Y16310D01*
X61747Y16288D01*
X61745Y16265D01*
X61745Y16241D01*
X61547Y16439D01*
X61571Y16440D01*
X61594Y16441D01*
X61616Y16444D01*
X61636Y16448D01*
X61655Y16453D01*
X61673Y16459D01*
X61689Y16467D01*
X61704Y16476D01*
X61718Y16486D01*
X61730Y16497D01*
X61802Y16425D01*
D02*
G37*
G36*
X61002D02*
X60991Y16412D01*
X60981Y16399D01*
X60972Y16383D01*
X60965Y16367D01*
X60958Y16349D01*
X60953Y16330D01*
X60949Y16310D01*
X60947Y16288D01*
X60945Y16265D01*
X60945Y16241D01*
X60747Y16439D01*
X60771Y16440D01*
X60794Y16441D01*
X60816Y16444D01*
X60836Y16448D01*
X60855Y16453D01*
X60873Y16459D01*
X60889Y16467D01*
X60904Y16476D01*
X60918Y16486D01*
X60930Y16497D01*
X61002Y16425D01*
D02*
G37*
G36*
X106145Y16213D02*
X106147Y16190D01*
X106149Y16168D01*
X106153Y16148D01*
X106158Y16129D01*
X106165Y16111D01*
X106172Y16095D01*
X106181Y16080D01*
X106191Y16066D01*
X106202Y16054D01*
X106130Y15982D01*
X106118Y15993D01*
X106104Y16003D01*
X106089Y16011D01*
X106073Y16019D01*
X106055Y16025D01*
X106036Y16031D01*
X106016Y16035D01*
X105994Y16037D01*
X105971Y16039D01*
X105947Y16039D01*
X106145Y16237D01*
X106145Y16213D01*
D02*
G37*
G36*
X104343Y16039D02*
X104318Y16039D01*
X104295Y16037D01*
X104274Y16035D01*
X104253Y16031D01*
X104234Y16025D01*
X104217Y16019D01*
X104200Y16011D01*
X104185Y16003D01*
X104172Y15993D01*
X104159Y15982D01*
X104087Y16054D01*
X104098Y16066D01*
X104108Y16080D01*
X104117Y16095D01*
X104125Y16111D01*
X104131Y16129D01*
X104136Y16148D01*
X104140Y16168D01*
X104143Y16190D01*
X104144Y16213D01*
X104145Y16237D01*
X104343Y16039D01*
D02*
G37*
G36*
X72945Y16213D02*
X72947Y16190D01*
X72949Y16168D01*
X72953Y16148D01*
X72958Y16129D01*
X72965Y16111D01*
X72972Y16095D01*
X72981Y16080D01*
X72991Y16066D01*
X73002Y16054D01*
X72930Y15982D01*
X72918Y15993D01*
X72904Y16003D01*
X72889Y16011D01*
X72873Y16019D01*
X72855Y16025D01*
X72836Y16031D01*
X72816Y16035D01*
X72794Y16037D01*
X72771Y16039D01*
X72747Y16039D01*
X72945Y16237D01*
X72945Y16213D01*
D02*
G37*
G36*
X72145D02*
X72147Y16190D01*
X72149Y16168D01*
X72153Y16148D01*
X72158Y16129D01*
X72165Y16111D01*
X72172Y16095D01*
X72181Y16080D01*
X72191Y16066D01*
X72202Y16054D01*
X72130Y15982D01*
X72118Y15993D01*
X72104Y16003D01*
X72089Y16011D01*
X72073Y16019D01*
X72055Y16025D01*
X72036Y16031D01*
X72016Y16035D01*
X71994Y16037D01*
X71971Y16039D01*
X71947Y16039D01*
X72145Y16237D01*
X72145Y16213D01*
D02*
G37*
G36*
X68145D02*
X68147Y16190D01*
X68149Y16168D01*
X68153Y16148D01*
X68158Y16129D01*
X68165Y16111D01*
X68172Y16095D01*
X68181Y16080D01*
X68191Y16066D01*
X68202Y16054D01*
X68130Y15982D01*
X68118Y15993D01*
X68104Y16003D01*
X68089Y16011D01*
X68073Y16019D01*
X68055Y16025D01*
X68036Y16031D01*
X68016Y16035D01*
X67994Y16037D01*
X67971Y16039D01*
X67947Y16039D01*
X68145Y16237D01*
X68145Y16213D01*
D02*
G37*
G36*
X67345D02*
X67347Y16190D01*
X67349Y16168D01*
X67353Y16148D01*
X67358Y16129D01*
X67365Y16111D01*
X67372Y16095D01*
X67381Y16080D01*
X67391Y16066D01*
X67402Y16054D01*
X67330Y15982D01*
X67318Y15993D01*
X67304Y16003D01*
X67289Y16011D01*
X67273Y16019D01*
X67255Y16025D01*
X67236Y16031D01*
X67216Y16035D01*
X67194Y16037D01*
X67171Y16039D01*
X67147Y16039D01*
X67345Y16237D01*
X67345Y16213D01*
D02*
G37*
G36*
X24545D02*
X24547Y16190D01*
X24549Y16168D01*
X24553Y16148D01*
X24558Y16129D01*
X24565Y16111D01*
X24572Y16095D01*
X24581Y16080D01*
X24591Y16066D01*
X24602Y16054D01*
X24530Y15982D01*
X24518Y15993D01*
X24504Y16003D01*
X24489Y16011D01*
X24473Y16019D01*
X24455Y16025D01*
X24436Y16031D01*
X24416Y16035D01*
X24394Y16037D01*
X24371Y16039D01*
X24347Y16039D01*
X24545Y16237D01*
X24545Y16213D01*
D02*
G37*
G36*
X23745D02*
X23747Y16190D01*
X23749Y16168D01*
X23753Y16148D01*
X23758Y16129D01*
X23765Y16111D01*
X23772Y16095D01*
X23781Y16080D01*
X23791Y16066D01*
X23802Y16054D01*
X23730Y15982D01*
X23718Y15993D01*
X23704Y16003D01*
X23689Y16011D01*
X23673Y16019D01*
X23655Y16025D01*
X23636Y16031D01*
X23616Y16035D01*
X23594Y16037D01*
X23571Y16039D01*
X23547Y16039D01*
X23745Y16237D01*
X23745Y16213D01*
D02*
G37*
G36*
X22145D02*
X22147Y16190D01*
X22149Y16168D01*
X22153Y16148D01*
X22158Y16129D01*
X22165Y16111D01*
X22172Y16095D01*
X22181Y16080D01*
X22191Y16066D01*
X22202Y16054D01*
X22130Y15982D01*
X22118Y15993D01*
X22104Y16003D01*
X22089Y16011D01*
X22073Y16019D01*
X22055Y16025D01*
X22036Y16031D01*
X22016Y16035D01*
X21994Y16037D01*
X21971Y16039D01*
X21947Y16039D01*
X22145Y16237D01*
X22145Y16213D01*
D02*
G37*
G36*
X106945Y16213D02*
X106947Y16190D01*
X106949Y16168D01*
X106953Y16148D01*
X106958Y16129D01*
X106965Y16111D01*
X106972Y16095D01*
X106981Y16080D01*
X106991Y16066D01*
X107002Y16054D01*
X106930Y15982D01*
X106918Y15993D01*
X106904Y16003D01*
X106889Y16011D01*
X106873Y16019D01*
X106855Y16025D01*
X106836Y16031D01*
X106816Y16035D01*
X106794Y16037D01*
X106771Y16039D01*
X106747Y16039D01*
X106945Y16237D01*
X106945Y16213D01*
D02*
G37*
G36*
X111668Y16079D02*
X111653Y16062D01*
X111639Y16044D01*
X111628Y16027D01*
X111618Y16010D01*
X111610Y15993D01*
X111604Y15976D01*
X111599Y15959D01*
X111597Y15943D01*
X111596Y15926D01*
X111494D01*
X111493Y15943D01*
X111490Y15959D01*
X111486Y15976D01*
X111479Y15993D01*
X111471Y16010D01*
X111462Y16027D01*
X111450Y16044D01*
X111437Y16062D01*
X111422Y16079D01*
X111405Y16096D01*
X111685D01*
X111668Y16079D01*
D02*
G37*
G36*
X110868D02*
X110853Y16062D01*
X110839Y16044D01*
X110828Y16027D01*
X110818Y16010D01*
X110810Y15993D01*
X110804Y15976D01*
X110799Y15959D01*
X110797Y15943D01*
X110796Y15926D01*
X110694D01*
X110693Y15943D01*
X110690Y15959D01*
X110686Y15976D01*
X110679Y15993D01*
X110671Y16010D01*
X110662Y16027D01*
X110650Y16044D01*
X110637Y16062D01*
X110622Y16079D01*
X110605Y16096D01*
X110885D01*
X110868Y16079D01*
D02*
G37*
G36*
X110068D02*
X110053Y16062D01*
X110039Y16044D01*
X110028Y16027D01*
X110018Y16010D01*
X110010Y15993D01*
X110004Y15976D01*
X109999Y15959D01*
X109997Y15943D01*
X109996Y15926D01*
X109894D01*
X109893Y15943D01*
X109890Y15959D01*
X109886Y15976D01*
X109879Y15993D01*
X109871Y16010D01*
X109862Y16027D01*
X109850Y16044D01*
X109837Y16062D01*
X109822Y16079D01*
X109805Y16096D01*
X110085D01*
X110068Y16079D01*
D02*
G37*
G36*
X109268D02*
X109253Y16062D01*
X109239Y16044D01*
X109228Y16027D01*
X109218Y16010D01*
X109210Y15993D01*
X109204Y15976D01*
X109199Y15959D01*
X109197Y15943D01*
X109196Y15926D01*
X109094D01*
X109093Y15943D01*
X109090Y15959D01*
X109086Y15976D01*
X109079Y15993D01*
X109071Y16010D01*
X109062Y16027D01*
X109050Y16044D01*
X109037Y16062D01*
X109022Y16079D01*
X109005Y16096D01*
X109285D01*
X109268Y16079D01*
D02*
G37*
G36*
X105268D02*
X105253Y16062D01*
X105239Y16044D01*
X105228Y16027D01*
X105218Y16010D01*
X105210Y15993D01*
X105204Y15976D01*
X105199Y15959D01*
X105197Y15943D01*
X105196Y15926D01*
X105094D01*
X105093Y15943D01*
X105090Y15959D01*
X105086Y15976D01*
X105079Y15993D01*
X105071Y16010D01*
X105062Y16027D01*
X105050Y16044D01*
X105037Y16062D01*
X105022Y16079D01*
X105005Y16096D01*
X105285D01*
X105268Y16079D01*
D02*
G37*
G36*
X66468D02*
X66453Y16062D01*
X66439Y16044D01*
X66428Y16027D01*
X66418Y16010D01*
X66410Y15993D01*
X66404Y15976D01*
X66399Y15959D01*
X66397Y15943D01*
X66396Y15926D01*
X66294D01*
X66293Y15943D01*
X66290Y15959D01*
X66286Y15976D01*
X66279Y15993D01*
X66271Y16010D01*
X66262Y16027D01*
X66250Y16044D01*
X66237Y16062D01*
X66222Y16079D01*
X66205Y16096D01*
X66485D01*
X66468Y16079D01*
D02*
G37*
G36*
X65668D02*
X65653Y16062D01*
X65639Y16044D01*
X65628Y16027D01*
X65618Y16010D01*
X65610Y15993D01*
X65604Y15976D01*
X65599Y15959D01*
X65597Y15943D01*
X65596Y15926D01*
X65494D01*
X65493Y15943D01*
X65490Y15959D01*
X65486Y15976D01*
X65479Y15993D01*
X65471Y16010D01*
X65462Y16027D01*
X65450Y16044D01*
X65437Y16062D01*
X65422Y16079D01*
X65405Y16096D01*
X65685D01*
X65668Y16079D01*
D02*
G37*
G36*
X89507Y15722D02*
X89508Y15699D01*
X89511Y15677D01*
X89515Y15657D01*
X89520Y15638D01*
X89527Y15620D01*
X89534Y15604D01*
X89543Y15589D01*
X89553Y15575D01*
X89564Y15562D01*
X89492Y15490D01*
X89479Y15502D01*
X89466Y15512D01*
X89451Y15520D01*
X89434Y15528D01*
X89417Y15534D01*
X89398Y15539D01*
X89377Y15543D01*
X89356Y15546D01*
X89333Y15548D01*
X89308Y15548D01*
X89506Y15746D01*
X89507Y15722D01*
D02*
G37*
G36*
X32636Y11124D02*
X32638Y11101D01*
X32640Y11080D01*
X32644Y11059D01*
X32650Y11040D01*
X32656Y11023D01*
X32664Y11006D01*
X32672Y10991D01*
X32682Y10977D01*
X32693Y10965D01*
X32621Y10893D01*
X32609Y10904D01*
X32595Y10914D01*
X32580Y10923D01*
X32564Y10930D01*
X32546Y10937D01*
X32527Y10942D01*
X32507Y10946D01*
X32485Y10949D01*
X32462Y10950D01*
X32438Y10951D01*
X32636Y11149D01*
X32636Y11124D01*
D02*
G37*
G36*
X33500Y11099D02*
X33501Y11076D01*
X33504Y11054D01*
X33508Y11034D01*
X33513Y11015D01*
X33520Y10997D01*
X33527Y10981D01*
X33536Y10966D01*
X33546Y10952D01*
X33557Y10940D01*
X33485Y10868D01*
X33472Y10879D01*
X33459Y10889D01*
X33444Y10897D01*
X33427Y10905D01*
X33410Y10911D01*
X33391Y10917D01*
X33370Y10921D01*
X33349Y10923D01*
X33326Y10925D01*
X33301Y10925D01*
X33499Y11123D01*
X33500Y11099D01*
D02*
G37*
G36*
X16421Y10814D02*
X16421Y10798D01*
X16424Y10782D01*
X16428Y10765D01*
X16434Y10747D01*
X16441Y10730D01*
X16450Y10711D01*
X16460Y10693D01*
X16486Y10654D01*
X16501Y10633D01*
X16224Y10668D01*
X16242Y10683D01*
X16258Y10698D01*
X16272Y10713D01*
X16284Y10729D01*
X16295Y10744D01*
X16303Y10760D01*
X16310Y10777D01*
X16315Y10793D01*
X16318Y10810D01*
X16319Y10828D01*
X16421Y10814D01*
D02*
G37*
G36*
X57807Y10687D02*
X57795Y10673D01*
X57784Y10659D01*
X57775Y10644D01*
X57767Y10628D01*
X57760Y10611D01*
X57754Y10593D01*
X57750Y10574D01*
X57747Y10554D01*
X57745Y10533D01*
X57745Y10511D01*
X57547Y10709D01*
X57569Y10710D01*
X57590Y10711D01*
X57609Y10714D01*
X57628Y10719D01*
X57646Y10724D01*
X57664Y10731D01*
X57680Y10739D01*
X57695Y10749D01*
X57709Y10759D01*
X57722Y10771D01*
X57807Y10687D01*
D02*
G37*
G36*
X17303Y10634D02*
X17319Y10620D01*
X17336Y10608D01*
X17352Y10598D01*
X17369Y10589D01*
X17386Y10582D01*
X17403Y10576D01*
X17420Y10572D01*
X17438Y10570D01*
X17455Y10569D01*
Y10449D01*
X17438Y10448D01*
X17420Y10446D01*
X17403Y10442D01*
X17386Y10436D01*
X17369Y10429D01*
X17352Y10420D01*
X17336Y10410D01*
X17319Y10398D01*
X17303Y10384D01*
X17287Y10369D01*
Y10649D01*
X17303Y10634D01*
D02*
G37*
G36*
X58406Y10318D02*
X58405Y10316D01*
X58405Y10309D01*
X58405Y10257D01*
X58285D01*
X58283Y10319D01*
X58406D01*
X58406Y10318D01*
D02*
G37*
G36*
X108891Y7663D02*
X108894Y7646D01*
X108898Y7629D01*
X108904Y7612D01*
X108912Y7595D01*
X108922Y7578D01*
X108934Y7561D01*
X108947Y7544D01*
X108962Y7526D01*
X108979Y7509D01*
X108699D01*
X108716Y7526D01*
X108731Y7544D01*
X108744Y7561D01*
X108756Y7578D01*
X108766Y7595D01*
X108774Y7612D01*
X108780Y7629D01*
X108784Y7646D01*
X108787Y7663D01*
X108788Y7679D01*
X108890D01*
X108891Y7663D01*
D02*
G37*
G36*
X107954Y7425D02*
X107942Y7412D01*
X107933Y7398D01*
X107924Y7383D01*
X107916Y7367D01*
X107910Y7349D01*
X107905Y7330D01*
X107901Y7310D01*
X107898Y7288D01*
X107896Y7265D01*
X107896Y7241D01*
X107698Y7439D01*
X107722Y7439D01*
X107745Y7441D01*
X107767Y7444D01*
X107787Y7448D01*
X107806Y7453D01*
X107824Y7459D01*
X107840Y7467D01*
X107855Y7476D01*
X107869Y7485D01*
X107882Y7497D01*
X107954Y7425D01*
D02*
G37*
G36*
X110415Y7155D02*
X110418Y7138D01*
X110422Y7121D01*
X110428Y7104D01*
X110436Y7087D01*
X110446Y7070D01*
X110458Y7053D01*
X110471Y7036D01*
X110486Y7018D01*
X110503Y7001D01*
X110223D01*
X110240Y7018D01*
X110255Y7036D01*
X110268Y7053D01*
X110280Y7070D01*
X110290Y7087D01*
X110298Y7104D01*
X110304Y7121D01*
X110308Y7138D01*
X110311Y7155D01*
X110312Y7171D01*
X110414D01*
X110415Y7155D01*
D02*
G37*
G36*
X109097Y6536D02*
X109085Y6523D01*
X109076Y6509D01*
X109067Y6494D01*
X109059Y6478D01*
X109053Y6460D01*
X109048Y6441D01*
X109044Y6421D01*
X109041Y6399D01*
X109039Y6376D01*
X109039Y6352D01*
X108841Y6550D01*
X108865Y6550D01*
X108888Y6552D01*
X108910Y6555D01*
X108930Y6559D01*
X108949Y6564D01*
X108967Y6570D01*
X108983Y6578D01*
X108998Y6587D01*
X109012Y6596D01*
X109025Y6608D01*
X109097Y6536D01*
D02*
G37*
G36*
X96452Y5960D02*
X96456Y5941D01*
X96462Y5921D01*
X96470Y5901D01*
X96480Y5881D01*
X96493Y5860D01*
X96508Y5838D01*
X96526Y5816D01*
X96568Y5771D01*
X96232D01*
X96254Y5794D01*
X96292Y5838D01*
X96307Y5860D01*
X96320Y5881D01*
X96330Y5901D01*
X96338Y5921D01*
X96344Y5941D01*
X96348Y5960D01*
X96349Y5979D01*
X96451D01*
X96452Y5960D01*
D02*
G37*
G36*
X71557Y5460D02*
X71541Y5475D01*
X71525Y5489D01*
X71509Y5501D01*
X71493Y5511D01*
X71476Y5520D01*
X71459Y5527D01*
X71442Y5533D01*
X71425Y5537D01*
X71407Y5539D01*
X71389Y5540D01*
Y5660D01*
X71407Y5661D01*
X71425Y5663D01*
X71442Y5667D01*
X71459Y5673D01*
X71476Y5680D01*
X71493Y5689D01*
X71509Y5699D01*
X71525Y5711D01*
X71541Y5725D01*
X71557Y5740D01*
Y5460D01*
D02*
G37*
G36*
X92219Y5443D02*
X92200Y5463D01*
X92182Y5481D01*
X92163Y5497D01*
X92143Y5511D01*
X92124Y5522D01*
X92105Y5532D01*
X92085Y5539D01*
X92065Y5545D01*
X92045Y5548D01*
X92025Y5549D01*
Y5651D01*
X92045Y5652D01*
X92065Y5655D01*
X92085Y5661D01*
X92105Y5668D01*
X92124Y5678D01*
X92143Y5689D01*
X92163Y5703D01*
X92182Y5719D01*
X92200Y5737D01*
X92219Y5758D01*
Y5443D01*
D02*
G37*
G36*
X72161Y5393D02*
X72163Y5375D01*
X72167Y5358D01*
X72173Y5341D01*
X72180Y5324D01*
X72189Y5307D01*
X72199Y5291D01*
X72211Y5275D01*
X72225Y5259D01*
X72240Y5243D01*
X71960D01*
X71975Y5259D01*
X71989Y5275D01*
X72001Y5291D01*
X72011Y5307D01*
X72020Y5324D01*
X72027Y5341D01*
X72033Y5358D01*
X72037Y5375D01*
X72039Y5393D01*
X72040Y5411D01*
X72160D01*
X72161Y5393D01*
D02*
G37*
G36*
X92704Y5032D02*
X92691Y5018D01*
X92680Y5002D01*
X92671Y4984D01*
X92662Y4964D01*
X92655Y4942D01*
X92649Y4918D01*
X92645Y4892D01*
X92642Y4864D01*
X92640Y4802D01*
X92402Y5040D01*
X92434Y5040D01*
X92492Y5045D01*
X92518Y5049D01*
X92542Y5055D01*
X92564Y5062D01*
X92584Y5071D01*
X92602Y5080D01*
X92618Y5091D01*
X92632Y5104D01*
X92704Y5032D01*
D02*
G37*
G36*
X96704Y5032D02*
X96691Y5018D01*
X96680Y5002D01*
X96671Y4984D01*
X96662Y4964D01*
X96655Y4942D01*
X96649Y4918D01*
X96645Y4892D01*
X96642Y4864D01*
X96640Y4802D01*
X96402Y5040D01*
X96434Y5040D01*
X96492Y5045D01*
X96518Y5049D01*
X96542Y5055D01*
X96564Y5062D01*
X96584Y5071D01*
X96602Y5080D01*
X96618Y5091D01*
X96632Y5104D01*
X96704Y5032D01*
D02*
G37*
G36*
X59811Y4503D02*
X59812Y4487D01*
X59816Y4471D01*
X59820Y4456D01*
X59826Y4442D01*
X59832Y4427D01*
X59841Y4414D01*
X59850Y4400D01*
X59861Y4387D01*
X59872Y4375D01*
X59627D01*
X59639Y4387D01*
X59650Y4400D01*
X59659Y4414D01*
X59667Y4427D01*
X59674Y4442D01*
X59680Y4456D01*
X59684Y4471D01*
X59687Y4487D01*
X59689Y4503D01*
X59690Y4519D01*
X59810D01*
X59811Y4503D01*
D02*
G37*
G36*
X60483Y4398D02*
X60472Y4386D01*
X60462Y4373D01*
X60453Y4360D01*
X60445Y4346D01*
X60439Y4332D01*
X60434Y4317D01*
X60430Y4302D01*
X60427Y4286D01*
X60425Y4269D01*
X60425Y4252D01*
X60252Y4425D01*
X60269Y4425D01*
X60286Y4427D01*
X60302Y4430D01*
X60317Y4434D01*
X60332Y4439D01*
X60346Y4445D01*
X60360Y4453D01*
X60373Y4462D01*
X60386Y4472D01*
X60398Y4483D01*
X60483Y4398D01*
D02*
G37*
G36*
X95652Y4360D02*
X95656Y4341D01*
X95662Y4321D01*
X95670Y4301D01*
X95680Y4281D01*
X95693Y4260D01*
X95708Y4238D01*
X95726Y4216D01*
X95768Y4171D01*
X95432D01*
X95454Y4194D01*
X95492Y4238D01*
X95507Y4260D01*
X95520Y4281D01*
X95530Y4301D01*
X95538Y4321D01*
X95544Y4341D01*
X95548Y4360D01*
X95549Y4379D01*
X95651D01*
X95652Y4360D01*
D02*
G37*
G36*
X96182Y4291D02*
X96198Y4280D01*
X96216Y4271D01*
X96236Y4262D01*
X96258Y4255D01*
X96282Y4249D01*
X96308Y4245D01*
X96336Y4242D01*
X96398Y4240D01*
X96160Y4002D01*
X96160Y4034D01*
X96155Y4092D01*
X96151Y4118D01*
X96145Y4142D01*
X96138Y4164D01*
X96129Y4183D01*
X96120Y4201D01*
X96109Y4218D01*
X96096Y4232D01*
X96168Y4304D01*
X96182Y4291D01*
D02*
G37*
G36*
X55802Y3507D02*
X55804Y3492D01*
X55807Y3477D01*
X55812Y3462D01*
X55819Y3447D01*
X55827Y3432D01*
X55836Y3418D01*
X55847Y3403D01*
X55859Y3389D01*
X55872Y3375D01*
X55627D01*
X55641Y3389D01*
X55653Y3403D01*
X55664Y3418D01*
X55673Y3432D01*
X55681Y3447D01*
X55688Y3462D01*
X55693Y3477D01*
X55696Y3492D01*
X55698Y3507D01*
X55699Y3522D01*
X55801D01*
X55802Y3507D01*
D02*
G37*
G36*
X94852Y3560D02*
X94856Y3541D01*
X94862Y3521D01*
X94870Y3501D01*
X94880Y3481D01*
X94893Y3460D01*
X94908Y3438D01*
X94926Y3416D01*
X94968Y3371D01*
X94632D01*
X94654Y3394D01*
X94692Y3438D01*
X94707Y3460D01*
X94720Y3481D01*
X94730Y3501D01*
X94738Y3521D01*
X94744Y3541D01*
X94748Y3560D01*
X94749Y3579D01*
X94851D01*
X94852Y3560D01*
D02*
G37*
G36*
X55614Y2972D02*
X55627Y2962D01*
X55640Y2953D01*
X55654Y2945D01*
X55668Y2939D01*
X55683Y2934D01*
X55698Y2930D01*
X55714Y2927D01*
X55731Y2925D01*
X55748Y2925D01*
X55575Y2752D01*
X55575Y2769D01*
X55573Y2786D01*
X55570Y2802D01*
X55566Y2817D01*
X55561Y2832D01*
X55555Y2846D01*
X55547Y2860D01*
X55538Y2873D01*
X55528Y2886D01*
X55517Y2898D01*
X55602Y2983D01*
X55614Y2972D01*
D02*
G37*
G36*
X95104Y2632D02*
X95091Y2618D01*
X95080Y2602D01*
X95071Y2584D01*
X95062Y2564D01*
X95055Y2542D01*
X95049Y2518D01*
X95045Y2492D01*
X95042Y2464D01*
X95040Y2402D01*
X94802Y2640D01*
X94834Y2640D01*
X94892Y2645D01*
X94918Y2649D01*
X94942Y2655D01*
X94964Y2662D01*
X94983Y2671D01*
X95002Y2680D01*
X95018Y2691D01*
X95032Y2704D01*
X95104Y2632D01*
D02*
G37*
G36*
X58887Y2361D02*
X58900Y2350D01*
X58914Y2341D01*
X58927Y2333D01*
X58942Y2326D01*
X58956Y2320D01*
X58971Y2316D01*
X58987Y2313D01*
X59003Y2311D01*
X59019Y2310D01*
Y2190D01*
X59003Y2189D01*
X58987Y2188D01*
X58971Y2184D01*
X58956Y2180D01*
X58942Y2174D01*
X58927Y2168D01*
X58914Y2159D01*
X58900Y2150D01*
X58887Y2139D01*
X58875Y2128D01*
Y2373D01*
X58887Y2361D01*
D02*
G37*
G36*
X54773Y2075D02*
X54753Y2075D01*
X54735Y2073D01*
X54717Y2071D01*
X54700Y2067D01*
X54684Y2062D01*
X54669Y2056D01*
X54655Y2049D01*
X54642Y2041D01*
X54629Y2032D01*
X54618Y2021D01*
X54546Y2093D01*
X54556Y2105D01*
X54565Y2117D01*
X54574Y2130D01*
X54581Y2144D01*
X54587Y2159D01*
X54591Y2175D01*
X54595Y2192D01*
X54598Y2210D01*
X54599Y2229D01*
X54600Y2248D01*
X54773Y2075D01*
D02*
G37*
G36*
X58425Y2231D02*
X58427Y2214D01*
X58430Y2198D01*
X58434Y2183D01*
X58439Y2168D01*
X58445Y2154D01*
X58453Y2140D01*
X58462Y2127D01*
X58472Y2114D01*
X58483Y2102D01*
X58398Y2017D01*
X58386Y2028D01*
X58373Y2038D01*
X58360Y2047D01*
X58346Y2055D01*
X58332Y2061D01*
X58317Y2066D01*
X58302Y2070D01*
X58286Y2073D01*
X58269Y2075D01*
X58252Y2075D01*
X58425Y2248D01*
X58425Y2231D01*
D02*
G37*
G36*
X44610Y2206D02*
X44628Y2191D01*
X44645Y2177D01*
X44662Y2166D01*
X44679Y2156D01*
X44696Y2148D01*
X44713Y2142D01*
X44730Y2137D01*
X44747Y2135D01*
X44763Y2134D01*
Y2032D01*
X44747Y2031D01*
X44730Y2028D01*
X44713Y2024D01*
X44696Y2018D01*
X44679Y2010D01*
X44662Y2000D01*
X44645Y1988D01*
X44628Y1975D01*
X44610Y1960D01*
X44593Y1943D01*
Y2223D01*
X44610Y2206D01*
D02*
G37*
G36*
X94582Y1891D02*
X94598Y1880D01*
X94616Y1871D01*
X94636Y1862D01*
X94658Y1855D01*
X94682Y1849D01*
X94708Y1845D01*
X94736Y1842D01*
X94798Y1840D01*
X94560Y1602D01*
X94560Y1634D01*
X94555Y1692D01*
X94551Y1718D01*
X94545Y1742D01*
X94538Y1764D01*
X94529Y1784D01*
X94520Y1802D01*
X94509Y1818D01*
X94496Y1832D01*
X94568Y1904D01*
X94582Y1891D01*
D02*
G37*
G36*
X54605Y1468D02*
X54617Y1459D01*
X54630Y1451D01*
X54644Y1444D01*
X54659Y1438D01*
X54675Y1433D01*
X54692Y1429D01*
X54710Y1427D01*
X54729Y1425D01*
X54748Y1425D01*
X54575Y1252D01*
X54575Y1271D01*
X54573Y1290D01*
X54571Y1308D01*
X54567Y1325D01*
X54562Y1341D01*
X54556Y1356D01*
X54549Y1370D01*
X54541Y1383D01*
X54532Y1395D01*
X54521Y1407D01*
X54593Y1479D01*
X54605Y1468D01*
D02*
G37*
G36*
X9268Y706D02*
X9270Y685D01*
X9273Y665D01*
X9277Y646D01*
X9283Y628D01*
X9290Y611D01*
X9298Y595D01*
X9307Y580D01*
X9318Y566D01*
X9330Y553D01*
X9245Y468D01*
X9232Y480D01*
X9218Y491D01*
X9203Y500D01*
X9187Y508D01*
X9170Y515D01*
X9152Y521D01*
X9133Y525D01*
X9113Y528D01*
X9092Y530D01*
X9070Y530D01*
X9268Y728D01*
X9268Y706D01*
D02*
G37*
G36*
X85782Y291D02*
X85798Y280D01*
X85816Y271D01*
X85836Y262D01*
X85858Y255D01*
X85882Y249D01*
X85908Y245D01*
X85936Y242D01*
X85998Y240D01*
X85760Y2D01*
X85760Y34D01*
X85755Y92D01*
X85751Y118D01*
X85745Y142D01*
X85738Y164D01*
X85729Y184D01*
X85720Y201D01*
X85709Y218D01*
X85696Y232D01*
X85768Y304D01*
X85782Y291D01*
D02*
G37*
G36*
X84982D02*
X84998Y280D01*
X85016Y271D01*
X85036Y262D01*
X85058Y255D01*
X85082Y249D01*
X85108Y245D01*
X85136Y242D01*
X85198Y240D01*
X84960Y2D01*
X84960Y34D01*
X84955Y92D01*
X84951Y118D01*
X84945Y142D01*
X84938Y164D01*
X84929Y184D01*
X84920Y201D01*
X84909Y218D01*
X84896Y232D01*
X84968Y304D01*
X84982Y291D01*
D02*
G37*
G36*
X94629Y-168D02*
X94606Y-146D01*
X94562Y-108D01*
X94540Y-93D01*
X94519Y-80D01*
X94499Y-70D01*
X94479Y-62D01*
X94459Y-56D01*
X94440Y-52D01*
X94421Y-51D01*
Y51D01*
X94440Y52D01*
X94459Y56D01*
X94479Y62D01*
X94499Y70D01*
X94519Y80D01*
X94540Y93D01*
X94562Y108D01*
X94584Y126D01*
X94629Y168D01*
Y-168D01*
D02*
G37*
G36*
X86304Y-568D02*
X86291Y-582D01*
X86280Y-599D01*
X86271Y-616D01*
X86262Y-636D01*
X86255Y-658D01*
X86249Y-682D01*
X86245Y-708D01*
X86242Y-736D01*
X86240Y-798D01*
X86002Y-560D01*
X86034Y-560D01*
X86092Y-555D01*
X86118Y-551D01*
X86142Y-545D01*
X86164Y-538D01*
X86184Y-529D01*
X86201Y-520D01*
X86218Y-509D01*
X86232Y-496D01*
X86304Y-568D01*
D02*
G37*
G36*
X96594Y-654D02*
X96638Y-692D01*
X96660Y-707D01*
X96681Y-720D01*
X96701Y-730D01*
X96721Y-738D01*
X96741Y-744D01*
X96760Y-748D01*
X96779Y-749D01*
Y-851D01*
X96760Y-852D01*
X96741Y-856D01*
X96721Y-862D01*
X96701Y-870D01*
X96681Y-880D01*
X96660Y-893D01*
X96638Y-908D01*
X96616Y-926D01*
X96571Y-968D01*
Y-632D01*
X96594Y-654D01*
D02*
G37*
G36*
X94629Y-968D02*
X94606Y-946D01*
X94562Y-908D01*
X94540Y-893D01*
X94519Y-880D01*
X94499Y-870D01*
X94479Y-862D01*
X94459Y-856D01*
X94440Y-852D01*
X94421Y-851D01*
Y-749D01*
X94440Y-748D01*
X94459Y-744D01*
X94479Y-738D01*
X94499Y-730D01*
X94519Y-720D01*
X94540Y-707D01*
X94562Y-692D01*
X94584Y-674D01*
X94629Y-632D01*
Y-968D01*
D02*
G37*
G36*
X85029Y-968D02*
X85006Y-946D01*
X84962Y-908D01*
X84940Y-893D01*
X84919Y-880D01*
X84899Y-870D01*
X84879Y-862D01*
X84859Y-856D01*
X84840Y-852D01*
X84821Y-851D01*
Y-749D01*
X84840Y-748D01*
X84859Y-744D01*
X84879Y-738D01*
X84899Y-730D01*
X84919Y-720D01*
X84940Y-707D01*
X84962Y-692D01*
X84984Y-674D01*
X85029Y-632D01*
Y-968D01*
D02*
G37*
G36*
X54248Y-925D02*
X54229Y-925D01*
X54210Y-927D01*
X54192Y-929D01*
X54175Y-933D01*
X54159Y-938D01*
X54144Y-944D01*
X54130Y-951D01*
X54117Y-959D01*
X54105Y-968D01*
X54093Y-979D01*
X54021Y-907D01*
X54032Y-895D01*
X54041Y-883D01*
X54049Y-870D01*
X54056Y-856D01*
X54062Y-841D01*
X54067Y-825D01*
X54071Y-808D01*
X54073Y-790D01*
X54075Y-771D01*
X54075Y-752D01*
X54248Y-925D01*
D02*
G37*
G36*
X95840Y-834D02*
X95845Y-892D01*
X95849Y-918D01*
X95855Y-942D01*
X95862Y-964D01*
X95871Y-984D01*
X95880Y-1002D01*
X95891Y-1018D01*
X95904Y-1032D01*
X95832Y-1104D01*
X95818Y-1091D01*
X95801Y-1080D01*
X95784Y-1071D01*
X95764Y-1062D01*
X95742Y-1055D01*
X95718Y-1049D01*
X95692Y-1045D01*
X95664Y-1042D01*
X95602Y-1040D01*
X95840Y-802D01*
X95840Y-834D01*
D02*
G37*
G36*
X27760Y-877D02*
X27778Y-892D01*
X27795Y-905D01*
X27812Y-917D01*
X27829Y-927D01*
X27846Y-935D01*
X27863Y-941D01*
X27880Y-946D01*
X27897Y-948D01*
X27913Y-949D01*
Y-1051D01*
X27897Y-1052D01*
X27880Y-1054D01*
X27863Y-1059D01*
X27846Y-1065D01*
X27829Y-1073D01*
X27812Y-1083D01*
X27795Y-1095D01*
X27778Y-1108D01*
X27760Y-1123D01*
X27743Y-1140D01*
Y-860D01*
X27760Y-877D01*
D02*
G37*
G36*
X56625Y-1372D02*
X56613Y-1361D01*
X56600Y-1350D01*
X56586Y-1341D01*
X56572Y-1332D01*
X56558Y-1326D01*
X56544Y-1320D01*
X56528Y-1316D01*
X56513Y-1312D01*
X56497Y-1311D01*
X56481Y-1310D01*
Y-1190D01*
X56497Y-1189D01*
X56513Y-1187D01*
X56528Y-1184D01*
X56544Y-1180D01*
X56558Y-1174D01*
X56572Y-1167D01*
X56586Y-1159D01*
X56600Y-1150D01*
X56613Y-1139D01*
X56625Y-1127D01*
Y-1372D01*
D02*
G37*
G36*
X55248Y-1425D02*
X55229Y-1425D01*
X55210Y-1427D01*
X55192Y-1429D01*
X55175Y-1433D01*
X55159Y-1438D01*
X55144Y-1444D01*
X55130Y-1451D01*
X55117Y-1459D01*
X55105Y-1468D01*
X55093Y-1479D01*
X55021Y-1407D01*
X55032Y-1395D01*
X55041Y-1383D01*
X55049Y-1370D01*
X55056Y-1356D01*
X55062Y-1341D01*
X55067Y-1325D01*
X55071Y-1308D01*
X55073Y-1290D01*
X55075Y-1271D01*
X55075Y-1252D01*
X55248Y-1425D01*
D02*
G37*
G36*
X28160Y-1277D02*
X28178Y-1292D01*
X28195Y-1305D01*
X28212Y-1317D01*
X28229Y-1327D01*
X28246Y-1335D01*
X28263Y-1341D01*
X28280Y-1346D01*
X28297Y-1348D01*
X28313Y-1349D01*
Y-1451D01*
X28297Y-1452D01*
X28280Y-1454D01*
X28263Y-1459D01*
X28246Y-1465D01*
X28229Y-1473D01*
X28212Y-1483D01*
X28195Y-1495D01*
X28178Y-1508D01*
X28160Y-1523D01*
X28143Y-1540D01*
Y-1260D01*
X28160Y-1277D01*
D02*
G37*
G36*
X85029Y-1768D02*
X85006Y-1746D01*
X84962Y-1708D01*
X84940Y-1693D01*
X84919Y-1680D01*
X84899Y-1670D01*
X84879Y-1662D01*
X84859Y-1656D01*
X84840Y-1652D01*
X84821Y-1651D01*
Y-1549D01*
X84840Y-1548D01*
X84859Y-1544D01*
X84879Y-1538D01*
X84899Y-1530D01*
X84919Y-1520D01*
X84940Y-1507D01*
X84962Y-1492D01*
X84984Y-1474D01*
X85029Y-1432D01*
Y-1768D01*
D02*
G37*
G36*
X96594Y-1454D02*
X96638Y-1492D01*
X96660Y-1507D01*
X96681Y-1520D01*
X96701Y-1530D01*
X96721Y-1539D01*
X96741Y-1544D01*
X96760Y-1548D01*
X96779Y-1549D01*
Y-1651D01*
X96760Y-1652D01*
X96741Y-1656D01*
X96721Y-1662D01*
X96701Y-1670D01*
X96681Y-1680D01*
X96660Y-1693D01*
X96638Y-1709D01*
X96616Y-1726D01*
X96571Y-1768D01*
Y-1432D01*
X96594Y-1454D01*
D02*
G37*
G36*
X69695Y-1708D02*
X69682Y-1724D01*
X69670Y-1740D01*
X69659Y-1757D01*
X69651Y-1773D01*
X69643Y-1790D01*
X69638Y-1807D01*
X69634Y-1825D01*
X69631Y-1842D01*
X69631Y-1860D01*
X69511D01*
X69510Y-1842D01*
X69507Y-1825D01*
X69503Y-1807D01*
X69498Y-1790D01*
X69491Y-1773D01*
X69482Y-1757D01*
X69471Y-1740D01*
X69459Y-1724D01*
X69446Y-1708D01*
X69431Y-1692D01*
X69711D01*
X69695Y-1708D01*
D02*
G37*
G36*
X95840Y-1634D02*
X95845Y-1692D01*
X95849Y-1718D01*
X95855Y-1742D01*
X95862Y-1764D01*
X95871Y-1784D01*
X95880Y-1802D01*
X95891Y-1818D01*
X95904Y-1832D01*
X95832Y-1904D01*
X95818Y-1891D01*
X95801Y-1880D01*
X95784Y-1871D01*
X95764Y-1862D01*
X95742Y-1855D01*
X95718Y-1849D01*
X95692Y-1845D01*
X95664Y-1842D01*
X95602Y-1840D01*
X95840Y-1602D01*
X95840Y-1634D01*
D02*
G37*
G36*
X95040D02*
X95045Y-1692D01*
X95049Y-1718D01*
X95055Y-1742D01*
X95062Y-1764D01*
X95071Y-1784D01*
X95080Y-1802D01*
X95091Y-1818D01*
X95104Y-1832D01*
X95032Y-1904D01*
X95018Y-1891D01*
X95002Y-1880D01*
X94984Y-1871D01*
X94964Y-1862D01*
X94942Y-1855D01*
X94918Y-1849D01*
X94892Y-1845D01*
X94864Y-1842D01*
X94802Y-1840D01*
X95040Y-1602D01*
X95040Y-1634D01*
D02*
G37*
G36*
X85998Y-1840D02*
X85966Y-1840D01*
X85908Y-1845D01*
X85882Y-1849D01*
X85858Y-1855D01*
X85836Y-1862D01*
X85816Y-1871D01*
X85798Y-1880D01*
X85782Y-1891D01*
X85768Y-1904D01*
X85696Y-1832D01*
X85709Y-1818D01*
X85720Y-1802D01*
X85729Y-1784D01*
X85738Y-1764D01*
X85745Y-1742D01*
X85751Y-1718D01*
X85755Y-1692D01*
X85758Y-1664D01*
X85760Y-1602D01*
X85998Y-1840D01*
D02*
G37*
G36*
X57425Y-1769D02*
X57427Y-1786D01*
X57430Y-1802D01*
X57434Y-1817D01*
X57439Y-1832D01*
X57445Y-1846D01*
X57453Y-1860D01*
X57462Y-1873D01*
X57472Y-1886D01*
X57483Y-1898D01*
X57398Y-1983D01*
X57386Y-1972D01*
X57373Y-1962D01*
X57360Y-1953D01*
X57346Y-1945D01*
X57332Y-1939D01*
X57317Y-1934D01*
X57302Y-1930D01*
X57286Y-1927D01*
X57269Y-1925D01*
X57252Y-1925D01*
X57425Y-1752D01*
X57425Y-1769D01*
D02*
G37*
G36*
X45898Y-2300D02*
X45876Y-2300D01*
X45855Y-2302D01*
X45835Y-2305D01*
X45816Y-2309D01*
X45798Y-2315D01*
X45781Y-2322D01*
X45765Y-2330D01*
X45750Y-2339D01*
X45736Y-2350D01*
X45723Y-2362D01*
X45638Y-2277D01*
X45650Y-2264D01*
X45661Y-2250D01*
X45670Y-2235D01*
X45678Y-2219D01*
X45685Y-2202D01*
X45691Y-2184D01*
X45695Y-2165D01*
X45698Y-2145D01*
X45700Y-2124D01*
X45700Y-2102D01*
X45898Y-2300D01*
D02*
G37*
G36*
X96594Y-2254D02*
X96638Y-2292D01*
X96660Y-2307D01*
X96681Y-2320D01*
X96701Y-2330D01*
X96721Y-2338D01*
X96741Y-2344D01*
X96760Y-2348D01*
X96779Y-2349D01*
Y-2451D01*
X96760Y-2452D01*
X96741Y-2456D01*
X96721Y-2462D01*
X96701Y-2470D01*
X96681Y-2480D01*
X96660Y-2493D01*
X96638Y-2508D01*
X96616Y-2526D01*
X96571Y-2568D01*
Y-2232D01*
X96594Y-2254D01*
D02*
G37*
G36*
X85029Y-2568D02*
X85006Y-2546D01*
X84962Y-2508D01*
X84940Y-2493D01*
X84919Y-2480D01*
X84899Y-2470D01*
X84879Y-2462D01*
X84859Y-2456D01*
X84840Y-2452D01*
X84821Y-2451D01*
Y-2349D01*
X84840Y-2348D01*
X84859Y-2344D01*
X84879Y-2338D01*
X84899Y-2330D01*
X84919Y-2320D01*
X84940Y-2307D01*
X84962Y-2292D01*
X84984Y-2274D01*
X85029Y-2232D01*
Y-2568D01*
D02*
G37*
G36*
X95840Y-2434D02*
X95845Y-2492D01*
X95849Y-2518D01*
X95855Y-2542D01*
X95862Y-2564D01*
X95871Y-2584D01*
X95880Y-2602D01*
X95891Y-2618D01*
X95904Y-2632D01*
X95832Y-2704D01*
X95818Y-2691D01*
X95801Y-2680D01*
X95784Y-2671D01*
X95764Y-2662D01*
X95742Y-2655D01*
X95718Y-2649D01*
X95692Y-2645D01*
X95664Y-2642D01*
X95602Y-2640D01*
X95840Y-2402D01*
X95840Y-2434D01*
D02*
G37*
G36*
X94798Y-2640D02*
X94766Y-2640D01*
X94708Y-2645D01*
X94682Y-2649D01*
X94658Y-2655D01*
X94636Y-2662D01*
X94616Y-2671D01*
X94598Y-2680D01*
X94582Y-2691D01*
X94568Y-2704D01*
X94496Y-2632D01*
X94509Y-2618D01*
X94520Y-2602D01*
X94529Y-2584D01*
X94538Y-2564D01*
X94545Y-2542D01*
X94551Y-2518D01*
X94555Y-2492D01*
X94558Y-2464D01*
X94560Y-2402D01*
X94798Y-2640D01*
D02*
G37*
G36*
X85998Y-2640D02*
X85966Y-2640D01*
X85908Y-2645D01*
X85882Y-2649D01*
X85858Y-2655D01*
X85836Y-2662D01*
X85816Y-2671D01*
X85798Y-2680D01*
X85782Y-2691D01*
X85768Y-2704D01*
X85696Y-2632D01*
X85709Y-2618D01*
X85720Y-2602D01*
X85729Y-2584D01*
X85738Y-2564D01*
X85745Y-2542D01*
X85751Y-2518D01*
X85755Y-2492D01*
X85758Y-2464D01*
X85760Y-2402D01*
X85998Y-2640D01*
D02*
G37*
G36*
X55248Y-2925D02*
X55231Y-2925D01*
X55214Y-2927D01*
X55198Y-2930D01*
X55183Y-2934D01*
X55168Y-2939D01*
X55154Y-2945D01*
X55140Y-2953D01*
X55127Y-2962D01*
X55114Y-2972D01*
X55102Y-2983D01*
X55017Y-2898D01*
X55028Y-2886D01*
X55038Y-2873D01*
X55047Y-2860D01*
X55055Y-2846D01*
X55061Y-2832D01*
X55066Y-2817D01*
X55070Y-2802D01*
X55073Y-2786D01*
X55075Y-2769D01*
X55075Y-2752D01*
X55248Y-2925D01*
D02*
G37*
G36*
X54248D02*
X54231Y-2925D01*
X54214Y-2927D01*
X54198Y-2930D01*
X54183Y-2934D01*
X54168Y-2939D01*
X54154Y-2945D01*
X54140Y-2953D01*
X54127Y-2962D01*
X54114Y-2972D01*
X54102Y-2983D01*
X54017Y-2898D01*
X54028Y-2886D01*
X54038Y-2873D01*
X54047Y-2860D01*
X54055Y-2846D01*
X54061Y-2832D01*
X54066Y-2817D01*
X54070Y-2802D01*
X54073Y-2786D01*
X54075Y-2769D01*
X54075Y-2752D01*
X54248Y-2925D01*
D02*
G37*
G36*
X71925Y-2769D02*
X71927Y-2786D01*
X71930Y-2802D01*
X71934Y-2817D01*
X71939Y-2832D01*
X71945Y-2846D01*
X71953Y-2860D01*
X71962Y-2873D01*
X71972Y-2886D01*
X71983Y-2898D01*
X71898Y-2983D01*
X71886Y-2972D01*
X71873Y-2962D01*
X71860Y-2953D01*
X71846Y-2945D01*
X71832Y-2939D01*
X71817Y-2934D01*
X71802Y-2930D01*
X71786Y-2927D01*
X71769Y-2925D01*
X71752Y-2925D01*
X71925Y-2752D01*
X71925Y-2769D01*
D02*
G37*
G36*
X47148Y-3025D02*
X47126Y-3025D01*
X47105Y-3027D01*
X47085Y-3030D01*
X47066Y-3034D01*
X47048Y-3040D01*
X47031Y-3047D01*
X47015Y-3055D01*
X47000Y-3064D01*
X46986Y-3075D01*
X46973Y-3087D01*
X46888Y-3002D01*
X46900Y-2989D01*
X46911Y-2975D01*
X46920Y-2960D01*
X46928Y-2944D01*
X46935Y-2927D01*
X46941Y-2909D01*
X46945Y-2890D01*
X46948Y-2870D01*
X46950Y-2849D01*
X46950Y-2827D01*
X47148Y-3025D01*
D02*
G37*
G36*
X85029Y-3368D02*
X85006Y-3346D01*
X84962Y-3308D01*
X84940Y-3293D01*
X84919Y-3280D01*
X84899Y-3270D01*
X84879Y-3262D01*
X84859Y-3256D01*
X84840Y-3252D01*
X84821Y-3251D01*
Y-3149D01*
X84840Y-3148D01*
X84859Y-3144D01*
X84879Y-3138D01*
X84899Y-3130D01*
X84919Y-3120D01*
X84940Y-3107D01*
X84962Y-3092D01*
X84984Y-3074D01*
X85029Y-3032D01*
Y-3368D01*
D02*
G37*
G36*
X96594Y-3054D02*
X96638Y-3092D01*
X96660Y-3107D01*
X96681Y-3120D01*
X96701Y-3130D01*
X96721Y-3139D01*
X96741Y-3145D01*
X96760Y-3148D01*
X96779Y-3149D01*
Y-3251D01*
X96760Y-3252D01*
X96741Y-3256D01*
X96721Y-3262D01*
X96701Y-3270D01*
X96681Y-3280D01*
X96660Y-3293D01*
X96638Y-3309D01*
X96616Y-3326D01*
X96571Y-3368D01*
Y-3032D01*
X96594Y-3054D01*
D02*
G37*
G36*
X71125Y-3372D02*
X71113Y-3361D01*
X71100Y-3350D01*
X71086Y-3341D01*
X71073Y-3332D01*
X71058Y-3326D01*
X71044Y-3320D01*
X71029Y-3316D01*
X71013Y-3312D01*
X70997Y-3311D01*
X70981Y-3310D01*
Y-3190D01*
X70997Y-3189D01*
X71013Y-3187D01*
X71029Y-3184D01*
X71044Y-3180D01*
X71058Y-3174D01*
X71073Y-3167D01*
X71086Y-3159D01*
X71100Y-3150D01*
X71113Y-3139D01*
X71125Y-3127D01*
Y-3372D01*
D02*
G37*
G36*
X95840Y-3234D02*
X95845Y-3292D01*
X95849Y-3318D01*
X95855Y-3342D01*
X95862Y-3364D01*
X95871Y-3384D01*
X95880Y-3402D01*
X95891Y-3418D01*
X95904Y-3432D01*
X95832Y-3504D01*
X95818Y-3491D01*
X95801Y-3480D01*
X95784Y-3471D01*
X95764Y-3462D01*
X95742Y-3455D01*
X95718Y-3449D01*
X95692Y-3445D01*
X95664Y-3442D01*
X95602Y-3440D01*
X95840Y-3202D01*
X95840Y-3234D01*
D02*
G37*
G36*
X85998Y-3440D02*
X85966Y-3440D01*
X85908Y-3445D01*
X85882Y-3449D01*
X85858Y-3455D01*
X85836Y-3462D01*
X85816Y-3471D01*
X85798Y-3480D01*
X85782Y-3491D01*
X85768Y-3504D01*
X85696Y-3432D01*
X85709Y-3418D01*
X85720Y-3402D01*
X85729Y-3384D01*
X85738Y-3364D01*
X85745Y-3342D01*
X85751Y-3318D01*
X85755Y-3292D01*
X85758Y-3264D01*
X85760Y-3202D01*
X85998Y-3440D01*
D02*
G37*
G36*
X55361Y-3387D02*
X55350Y-3400D01*
X55341Y-3414D01*
X55332Y-3427D01*
X55326Y-3442D01*
X55320Y-3456D01*
X55316Y-3471D01*
X55312Y-3487D01*
X55311Y-3503D01*
X55310Y-3519D01*
X55190D01*
X55189Y-3503D01*
X55187Y-3487D01*
X55184Y-3471D01*
X55180Y-3456D01*
X55174Y-3442D01*
X55167Y-3427D01*
X55159Y-3414D01*
X55150Y-3400D01*
X55139Y-3387D01*
X55127Y-3375D01*
X55372D01*
X55361Y-3387D01*
D02*
G37*
G36*
X54361Y-3387D02*
X54350Y-3400D01*
X54341Y-3414D01*
X54333Y-3427D01*
X54326Y-3442D01*
X54320Y-3456D01*
X54316Y-3471D01*
X54312Y-3487D01*
X54311Y-3503D01*
X54310Y-3519D01*
X54190Y-3519D01*
X54189Y-3503D01*
X54188Y-3487D01*
X54184Y-3471D01*
X54180Y-3456D01*
X54174Y-3442D01*
X54167Y-3427D01*
X54159Y-3414D01*
X54150Y-3400D01*
X54139Y-3387D01*
X54127Y-3375D01*
X54373Y-3375D01*
X54361Y-3387D01*
D02*
G37*
G36*
X94946Y-3394D02*
X94908Y-3438D01*
X94893Y-3460D01*
X94880Y-3481D01*
X94870Y-3501D01*
X94862Y-3521D01*
X94856Y-3541D01*
X94852Y-3560D01*
X94851Y-3579D01*
X94749D01*
X94748Y-3560D01*
X94744Y-3541D01*
X94738Y-3521D01*
X94730Y-3501D01*
X94720Y-3481D01*
X94707Y-3460D01*
X94692Y-3438D01*
X94674Y-3416D01*
X94632Y-3371D01*
X94968D01*
X94946Y-3394D01*
D02*
G37*
G36*
X56925Y-3769D02*
X56927Y-3786D01*
X56930Y-3802D01*
X56934Y-3817D01*
X56939Y-3832D01*
X56945Y-3846D01*
X56953Y-3860D01*
X56962Y-3873D01*
X56972Y-3886D01*
X56983Y-3898D01*
X56898Y-3983D01*
X56886Y-3972D01*
X56873Y-3962D01*
X56860Y-3953D01*
X56846Y-3945D01*
X56832Y-3939D01*
X56817Y-3934D01*
X56802Y-3930D01*
X56786Y-3927D01*
X56769Y-3925D01*
X56752Y-3925D01*
X56925Y-3752D01*
X56925Y-3769D01*
D02*
G37*
G36*
X85029Y-4168D02*
X85006Y-4146D01*
X84962Y-4108D01*
X84940Y-4093D01*
X84919Y-4080D01*
X84899Y-4070D01*
X84879Y-4062D01*
X84859Y-4056D01*
X84840Y-4052D01*
X84821Y-4051D01*
Y-3949D01*
X84840Y-3948D01*
X84859Y-3944D01*
X84879Y-3938D01*
X84899Y-3930D01*
X84919Y-3920D01*
X84940Y-3907D01*
X84962Y-3892D01*
X84984Y-3874D01*
X85029Y-3832D01*
Y-4168D01*
D02*
G37*
G36*
X96640Y-4034D02*
X96645Y-4092D01*
X96649Y-4118D01*
X96655Y-4142D01*
X96662Y-4164D01*
X96671Y-4184D01*
X96680Y-4202D01*
X96691Y-4218D01*
X96704Y-4232D01*
X96632Y-4304D01*
X96618Y-4291D01*
X96602Y-4280D01*
X96584Y-4271D01*
X96564Y-4262D01*
X96542Y-4255D01*
X96518Y-4249D01*
X96492Y-4245D01*
X96464Y-4242D01*
X96402Y-4240D01*
X96640Y-4002D01*
X96640Y-4034D01*
D02*
G37*
G36*
X95840D02*
X95845Y-4092D01*
X95849Y-4118D01*
X95855Y-4142D01*
X95862Y-4164D01*
X95871Y-4184D01*
X95880Y-4202D01*
X95891Y-4218D01*
X95904Y-4232D01*
X95832Y-4304D01*
X95818Y-4291D01*
X95801Y-4280D01*
X95784Y-4271D01*
X95764Y-4262D01*
X95742Y-4255D01*
X95718Y-4249D01*
X95692Y-4245D01*
X95664Y-4242D01*
X95602Y-4240D01*
X95840Y-4002D01*
X95840Y-4034D01*
D02*
G37*
G36*
X85998Y-4240D02*
X85966Y-4240D01*
X85908Y-4245D01*
X85882Y-4249D01*
X85858Y-4255D01*
X85836Y-4262D01*
X85816Y-4271D01*
X85798Y-4280D01*
X85782Y-4291D01*
X85768Y-4304D01*
X85696Y-4232D01*
X85709Y-4218D01*
X85720Y-4202D01*
X85729Y-4184D01*
X85738Y-4164D01*
X85745Y-4142D01*
X85751Y-4118D01*
X85755Y-4092D01*
X85758Y-4064D01*
X85760Y-4002D01*
X85998Y-4240D01*
D02*
G37*
G36*
X50607Y-4640D02*
X50591Y-4625D01*
X50575Y-4611D01*
X50559Y-4599D01*
X50543Y-4589D01*
X50526Y-4580D01*
X50509Y-4573D01*
X50492Y-4567D01*
X50475Y-4563D01*
X50457Y-4561D01*
X50439Y-4560D01*
Y-4440D01*
X50457Y-4439D01*
X50475Y-4437D01*
X50492Y-4433D01*
X50509Y-4427D01*
X50526Y-4420D01*
X50543Y-4411D01*
X50559Y-4401D01*
X50575Y-4389D01*
X50591Y-4375D01*
X50607Y-4360D01*
Y-4640D01*
D02*
G37*
G36*
X56611Y-4537D02*
X56600Y-4550D01*
X56591Y-4564D01*
X56583Y-4577D01*
X56576Y-4592D01*
X56570Y-4606D01*
X56566Y-4621D01*
X56562Y-4637D01*
X56561Y-4653D01*
X56560Y-4669D01*
X56440D01*
X56439Y-4653D01*
X56438Y-4637D01*
X56434Y-4621D01*
X56430Y-4606D01*
X56424Y-4592D01*
X56417Y-4577D01*
X56409Y-4564D01*
X56400Y-4550D01*
X56389Y-4537D01*
X56377Y-4525D01*
X56623D01*
X56611Y-4537D01*
D02*
G37*
G36*
X44698Y-4800D02*
X44676Y-4800D01*
X44655Y-4802D01*
X44635Y-4805D01*
X44616Y-4809D01*
X44598Y-4815D01*
X44581Y-4822D01*
X44565Y-4830D01*
X44550Y-4839D01*
X44536Y-4850D01*
X44523Y-4862D01*
X44438Y-4777D01*
X44450Y-4764D01*
X44461Y-4750D01*
X44470Y-4735D01*
X44478Y-4719D01*
X44485Y-4702D01*
X44491Y-4684D01*
X44495Y-4665D01*
X44498Y-4645D01*
X44500Y-4624D01*
X44500Y-4602D01*
X44698Y-4800D01*
D02*
G37*
G36*
X95544Y-5033D02*
X95531Y-5031D01*
X95518Y-5030D01*
X95505Y-5031D01*
X95492Y-5034D01*
X95479Y-5038D01*
X95466Y-5044D01*
X95453Y-5052D01*
X95440Y-5061D01*
X95426Y-5072D01*
X95413Y-5084D01*
X95341Y-5012D01*
X95352Y-5000D01*
X95362Y-4988D01*
X95370Y-4976D01*
X95376Y-4963D01*
X95381Y-4951D01*
X95384Y-4939D01*
X95385Y-4927D01*
X95384Y-4915D01*
X95382Y-4902D01*
X95378Y-4890D01*
X95544Y-5033D01*
D02*
G37*
G36*
X85145Y-5034D02*
X85116Y-5028D01*
X85089Y-5024D01*
X85064Y-5022D01*
X85040Y-5023D01*
X85017Y-5025D01*
X84996Y-5030D01*
X84977Y-5037D01*
X84959Y-5046D01*
X84942Y-5057D01*
X84927Y-5070D01*
X84872Y-4981D01*
X84883Y-4969D01*
X84893Y-4954D01*
X84903Y-4937D01*
X84913Y-4917D01*
X84923Y-4895D01*
X84941Y-4844D01*
X84949Y-4815D01*
X84965Y-4749D01*
X85145Y-5034D01*
D02*
G37*
G36*
X96631Y-4871D02*
X96629Y-4888D01*
X96630Y-4905D01*
X96632Y-4921D01*
X96636Y-4937D01*
X96642Y-4953D01*
X96650Y-4968D01*
X96659Y-4982D01*
X96670Y-4997D01*
X96683Y-5011D01*
X96611Y-5083D01*
X96597Y-5070D01*
X96582Y-5059D01*
X96568Y-5050D01*
X96552Y-5042D01*
X96537Y-5036D01*
X96521Y-5032D01*
X96505Y-5030D01*
X96488Y-5029D01*
X96471Y-5031D01*
X96454Y-5034D01*
X96634Y-4854D01*
X96631Y-4871D01*
D02*
G37*
G36*
X85998Y-5040D02*
X85966Y-5040D01*
X85908Y-5045D01*
X85882Y-5049D01*
X85858Y-5055D01*
X85836Y-5062D01*
X85816Y-5071D01*
X85798Y-5080D01*
X85782Y-5091D01*
X85768Y-5104D01*
X85696Y-5032D01*
X85709Y-5018D01*
X85720Y-5002D01*
X85729Y-4984D01*
X85738Y-4964D01*
X85745Y-4942D01*
X85751Y-4918D01*
X85755Y-4892D01*
X85758Y-4864D01*
X85760Y-4802D01*
X85998Y-5040D01*
D02*
G37*
G36*
X103000Y-4926D02*
X103002Y-4949D01*
X103005Y-4971D01*
X103009Y-4991D01*
X103014Y-5010D01*
X103020Y-5028D01*
X103028Y-5044D01*
X103036Y-5059D01*
X103046Y-5073D01*
X103058Y-5086D01*
X102986Y-5158D01*
X102973Y-5146D01*
X102959Y-5136D01*
X102944Y-5128D01*
X102928Y-5120D01*
X102910Y-5114D01*
X102891Y-5109D01*
X102871Y-5105D01*
X102849Y-5102D01*
X102826Y-5100D01*
X102802Y-5100D01*
X103000Y-4902D01*
X103000Y-4926D01*
D02*
G37*
G36*
X70862Y-5298D02*
X70850Y-5311D01*
X70839Y-5325D01*
X70830Y-5340D01*
X70822Y-5356D01*
X70815Y-5373D01*
X70809Y-5391D01*
X70805Y-5410D01*
X70802Y-5430D01*
X70800Y-5451D01*
X70800Y-5473D01*
X70602Y-5275D01*
X70624Y-5275D01*
X70645Y-5273D01*
X70665Y-5270D01*
X70684Y-5266D01*
X70702Y-5260D01*
X70719Y-5253D01*
X70735Y-5245D01*
X70750Y-5236D01*
X70764Y-5225D01*
X70777Y-5213D01*
X70862Y-5298D01*
D02*
G37*
G36*
X67086Y-5225D02*
X67100Y-5236D01*
X67115Y-5245D01*
X67131Y-5253D01*
X67148Y-5260D01*
X67166Y-5266D01*
X67185Y-5270D01*
X67205Y-5273D01*
X67226Y-5275D01*
X67248Y-5275D01*
X67050Y-5473D01*
X67050Y-5451D01*
X67048Y-5430D01*
X67045Y-5410D01*
X67041Y-5391D01*
X67035Y-5373D01*
X67028Y-5356D01*
X67020Y-5340D01*
X67011Y-5325D01*
X67000Y-5311D01*
X66988Y-5298D01*
X67073Y-5213D01*
X67086Y-5225D01*
D02*
G37*
G36*
X61162Y-5373D02*
X61150Y-5386D01*
X61139Y-5400D01*
X61130Y-5415D01*
X61122Y-5431D01*
X61115Y-5448D01*
X61109Y-5466D01*
X61105Y-5485D01*
X61102Y-5505D01*
X61100Y-5526D01*
X61100Y-5548D01*
X60902Y-5350D01*
X60924Y-5350D01*
X60945Y-5348D01*
X60965Y-5345D01*
X60984Y-5341D01*
X61002Y-5335D01*
X61019Y-5328D01*
X61035Y-5320D01*
X61050Y-5311D01*
X61064Y-5300D01*
X61077Y-5288D01*
X61162Y-5373D01*
D02*
G37*
G36*
X27659Y-5475D02*
X27675Y-5489D01*
X27691Y-5501D01*
X27707Y-5511D01*
X27724Y-5520D01*
X27741Y-5527D01*
X27758Y-5533D01*
X27775Y-5537D01*
X27793Y-5539D01*
X27811Y-5540D01*
Y-5660D01*
X27793Y-5661D01*
X27775Y-5663D01*
X27758Y-5667D01*
X27741Y-5673D01*
X27724Y-5680D01*
X27707Y-5689D01*
X27691Y-5699D01*
X27675Y-5711D01*
X27659Y-5725D01*
X27643Y-5740D01*
Y-5460D01*
X27659Y-5475D01*
D02*
G37*
G36*
X85198Y-5840D02*
X85166Y-5840D01*
X85108Y-5845D01*
X85082Y-5849D01*
X85058Y-5855D01*
X85036Y-5862D01*
X85016Y-5871D01*
X84998Y-5880D01*
X84982Y-5891D01*
X84968Y-5904D01*
X84896Y-5832D01*
X84909Y-5818D01*
X84920Y-5802D01*
X84929Y-5784D01*
X84938Y-5764D01*
X84945Y-5742D01*
X84951Y-5718D01*
X84955Y-5692D01*
X84958Y-5664D01*
X84960Y-5602D01*
X85198Y-5840D01*
D02*
G37*
G36*
X86146Y-5794D02*
X86108Y-5838D01*
X86093Y-5860D01*
X86080Y-5881D01*
X86070Y-5901D01*
X86062Y-5921D01*
X86056Y-5941D01*
X86052Y-5960D01*
X86051Y-5979D01*
X85949D01*
X85948Y-5960D01*
X85944Y-5941D01*
X85938Y-5921D01*
X85930Y-5901D01*
X85920Y-5881D01*
X85907Y-5860D01*
X85892Y-5838D01*
X85874Y-5816D01*
X85832Y-5771D01*
X86168D01*
X86146Y-5794D01*
D02*
G37*
G36*
X103175Y-5901D02*
X103177Y-5924D01*
X103180Y-5946D01*
X103184Y-5966D01*
X103189Y-5985D01*
X103195Y-6003D01*
X103203Y-6019D01*
X103212Y-6034D01*
X103221Y-6048D01*
X103233Y-6061D01*
X103161Y-6133D01*
X103148Y-6121D01*
X103134Y-6111D01*
X103119Y-6103D01*
X103103Y-6095D01*
X103085Y-6089D01*
X103066Y-6084D01*
X103046Y-6080D01*
X103024Y-6077D01*
X103001Y-6075D01*
X102977Y-6075D01*
X103175Y-5877D01*
X103175Y-5901D01*
D02*
G37*
G36*
X27659Y-6775D02*
X27675Y-6789D01*
X27691Y-6801D01*
X27707Y-6811D01*
X27724Y-6820D01*
X27741Y-6827D01*
X27758Y-6833D01*
X27775Y-6837D01*
X27793Y-6839D01*
X27811Y-6840D01*
Y-6960D01*
X27793Y-6961D01*
X27775Y-6963D01*
X27758Y-6967D01*
X27741Y-6973D01*
X27724Y-6980D01*
X27707Y-6989D01*
X27691Y-6999D01*
X27675Y-7011D01*
X27659Y-7025D01*
X27643Y-7040D01*
Y-6760D01*
X27659Y-6775D01*
D02*
G37*
G36*
X102425Y-6826D02*
X102427Y-6849D01*
X102430Y-6871D01*
X102434Y-6891D01*
X102439Y-6910D01*
X102445Y-6928D01*
X102453Y-6944D01*
X102462Y-6959D01*
X102471Y-6973D01*
X102483Y-6986D01*
X102411Y-7058D01*
X102398Y-7046D01*
X102384Y-7036D01*
X102369Y-7028D01*
X102353Y-7020D01*
X102335Y-7014D01*
X102316Y-7009D01*
X102296Y-7005D01*
X102274Y-7002D01*
X102251Y-7000D01*
X102227Y-7000D01*
X102425Y-6802D01*
X102425Y-6826D01*
D02*
G37*
G36*
X103450Y-7026D02*
X103452Y-7049D01*
X103455Y-7071D01*
X103459Y-7091D01*
X103464Y-7110D01*
X103470Y-7128D01*
X103478Y-7144D01*
X103487Y-7159D01*
X103496Y-7173D01*
X103508Y-7186D01*
X103436Y-7258D01*
X103423Y-7246D01*
X103409Y-7236D01*
X103394Y-7228D01*
X103378Y-7220D01*
X103360Y-7214D01*
X103341Y-7209D01*
X103321Y-7205D01*
X103299Y-7202D01*
X103276Y-7200D01*
X103252Y-7200D01*
X103450Y-7002D01*
X103450Y-7026D01*
D02*
G37*
G36*
X58659Y-7784D02*
X58661Y-7802D01*
X58665Y-7819D01*
X58671Y-7836D01*
X58678Y-7853D01*
X58687Y-7870D01*
X58697Y-7886D01*
X58709Y-7903D01*
X58723Y-7919D01*
X58738Y-7934D01*
X58458D01*
X58473Y-7919D01*
X58487Y-7903D01*
X58499Y-7886D01*
X58509Y-7870D01*
X58518Y-7853D01*
X58525Y-7836D01*
X58531Y-7819D01*
X58535Y-7802D01*
X58537Y-7784D01*
X58538Y-7766D01*
X58658D01*
X58659Y-7784D01*
D02*
G37*
G36*
X55961Y-9107D02*
X55963Y-9125D01*
X55967Y-9142D01*
X55973Y-9159D01*
X55980Y-9176D01*
X55989Y-9193D01*
X55999Y-9209D01*
X56011Y-9225D01*
X56025Y-9241D01*
X56040Y-9257D01*
X55760D01*
X55775Y-9241D01*
X55789Y-9225D01*
X55801Y-9209D01*
X55811Y-9193D01*
X55820Y-9176D01*
X55827Y-9159D01*
X55833Y-9142D01*
X55837Y-9125D01*
X55839Y-9107D01*
X55840Y-9089D01*
X55960D01*
X55961Y-9107D01*
D02*
G37*
G36*
X69818Y-10332D02*
X69805Y-10345D01*
X69795Y-10359D01*
X69785Y-10374D01*
X69777Y-10390D01*
X69770Y-10407D01*
X69765Y-10425D01*
X69760Y-10444D01*
X69757Y-10464D01*
X69756Y-10485D01*
X69755Y-10507D01*
X69557Y-10309D01*
X69579Y-10309D01*
X69600Y-10307D01*
X69620Y-10304D01*
X69639Y-10300D01*
X69657Y-10294D01*
X69674Y-10287D01*
X69690Y-10279D01*
X69705Y-10270D01*
X69720Y-10259D01*
X69733Y-10247D01*
X69818Y-10332D01*
D02*
G37*
G36*
X63431Y-10345D02*
X63419Y-10358D01*
X63408Y-10372D01*
X63398Y-10387D01*
X63390Y-10403D01*
X63383Y-10421D01*
X63378Y-10439D01*
X63374Y-10458D01*
X63371Y-10477D01*
X63369Y-10498D01*
X63368Y-10520D01*
X63170Y-10322D01*
X63192Y-10322D01*
X63213Y-10320D01*
X63233Y-10317D01*
X63252Y-10313D01*
X63270Y-10307D01*
X63287Y-10301D01*
X63303Y-10292D01*
X63319Y-10283D01*
X63333Y-10272D01*
X63346Y-10260D01*
X63431Y-10345D01*
D02*
G37*
G36*
X62631D02*
X62619Y-10358D01*
X62608Y-10372D01*
X62598Y-10387D01*
X62590Y-10403D01*
X62583Y-10421D01*
X62578Y-10439D01*
X62574Y-10458D01*
X62571Y-10477D01*
X62569Y-10498D01*
X62568Y-10520D01*
X62370Y-10322D01*
X62392Y-10322D01*
X62413Y-10320D01*
X62433Y-10317D01*
X62452Y-10313D01*
X62470Y-10307D01*
X62487Y-10301D01*
X62503Y-10292D01*
X62519Y-10283D01*
X62533Y-10272D01*
X62546Y-10260D01*
X62631Y-10345D01*
D02*
G37*
G36*
X26956Y-10533D02*
X26957Y-10554D01*
X26960Y-10574D01*
X26965Y-10593D01*
X26970Y-10611D01*
X26977Y-10628D01*
X26985Y-10644D01*
X26995Y-10659D01*
X27006Y-10673D01*
X27018Y-10687D01*
X26933Y-10771D01*
X26920Y-10759D01*
X26905Y-10749D01*
X26890Y-10739D01*
X26874Y-10731D01*
X26857Y-10724D01*
X26839Y-10719D01*
X26820Y-10714D01*
X26800Y-10711D01*
X26779Y-10710D01*
X26757Y-10709D01*
X26955Y-10511D01*
X26956Y-10533D01*
D02*
G37*
G36*
X70353Y-10709D02*
X70333Y-10710D01*
X70313Y-10711D01*
X70294Y-10715D01*
X70276Y-10719D01*
X70258Y-10725D01*
X70242Y-10732D01*
X70226Y-10740D01*
X70211Y-10750D01*
X70196Y-10761D01*
X70183Y-10774D01*
X70091Y-10682D01*
X70103Y-10668D01*
X70114Y-10654D01*
X70124Y-10639D01*
X70133Y-10623D01*
X70140Y-10606D01*
X70146Y-10589D01*
X70150Y-10571D01*
X70153Y-10552D01*
X70155Y-10532D01*
X70155Y-10511D01*
X70353Y-10709D01*
D02*
G37*
G36*
X26080Y-10668D02*
X26067Y-10684D01*
X26055Y-10700D01*
X26044Y-10717D01*
X26035Y-10733D01*
X26028Y-10750D01*
X26023Y-10767D01*
X26019Y-10785D01*
X26016Y-10802D01*
X26015Y-10820D01*
X25895D01*
X25895Y-10802D01*
X25892Y-10785D01*
X25888Y-10767D01*
X25883Y-10750D01*
X25875Y-10733D01*
X25867Y-10717D01*
X25856Y-10700D01*
X25844Y-10684D01*
X25831Y-10668D01*
X25815Y-10652D01*
X26095D01*
X26080Y-10668D01*
D02*
G37*
G36*
X91571Y-13911D02*
X91559Y-13924D01*
X91549Y-13938D01*
X91541Y-13953D01*
X91533Y-13969D01*
X91527Y-13987D01*
X91522Y-14006D01*
X91518Y-14026D01*
X91515Y-14048D01*
X91513Y-14071D01*
X91513Y-14095D01*
X91315Y-13897D01*
X91339Y-13897D01*
X91362Y-13895D01*
X91384Y-13892D01*
X91404Y-13888D01*
X91423Y-13883D01*
X91441Y-13877D01*
X91457Y-13869D01*
X91472Y-13861D01*
X91486Y-13851D01*
X91499Y-13839D01*
X91571Y-13911D01*
D02*
G37*
G36*
X89539D02*
X89527Y-13924D01*
X89518Y-13938D01*
X89509Y-13953D01*
X89501Y-13969D01*
X89495Y-13987D01*
X89490Y-14006D01*
X89486Y-14026D01*
X89483Y-14048D01*
X89481Y-14071D01*
X89481Y-14095D01*
X89283Y-13897D01*
X89307Y-13897D01*
X89330Y-13895D01*
X89352Y-13892D01*
X89372Y-13888D01*
X89391Y-13883D01*
X89409Y-13877D01*
X89425Y-13869D01*
X89440Y-13861D01*
X89454Y-13851D01*
X89467Y-13839D01*
X89539Y-13911D01*
D02*
G37*
G36*
X87507D02*
X87495Y-13924D01*
X87485Y-13938D01*
X87477Y-13953D01*
X87469Y-13969D01*
X87463Y-13987D01*
X87458Y-14006D01*
X87454Y-14026D01*
X87451Y-14048D01*
X87449Y-14071D01*
X87449Y-14095D01*
X87251Y-13897D01*
X87275Y-13897D01*
X87298Y-13895D01*
X87320Y-13892D01*
X87340Y-13888D01*
X87359Y-13883D01*
X87377Y-13877D01*
X87393Y-13869D01*
X87408Y-13861D01*
X87422Y-13851D01*
X87435Y-13839D01*
X87507Y-13911D01*
D02*
G37*
G36*
X85475D02*
X85463Y-13924D01*
X85453Y-13938D01*
X85445Y-13953D01*
X85437Y-13969D01*
X85431Y-13987D01*
X85426Y-14006D01*
X85422Y-14026D01*
X85419Y-14048D01*
X85417Y-14071D01*
X85417Y-14095D01*
X85219Y-13897D01*
X85243Y-13897D01*
X85266Y-13895D01*
X85288Y-13892D01*
X85308Y-13888D01*
X85327Y-13883D01*
X85345Y-13877D01*
X85361Y-13869D01*
X85376Y-13861D01*
X85390Y-13851D01*
X85403Y-13839D01*
X85475Y-13911D01*
D02*
G37*
G36*
X84058Y-14264D02*
X84046Y-14277D01*
X84036Y-14291D01*
X84028Y-14306D01*
X84021Y-14322D01*
X84016Y-14340D01*
X84013Y-14358D01*
X84011Y-14377D01*
X84012Y-14398D01*
X84013Y-14419D01*
X84017Y-14442D01*
X83788Y-14281D01*
X83813Y-14276D01*
X83859Y-14265D01*
X83880Y-14258D01*
X83899Y-14251D01*
X83917Y-14243D01*
X83933Y-14235D01*
X83948Y-14225D01*
X83961Y-14215D01*
X83972Y-14205D01*
X84058Y-14264D01*
D02*
G37*
G36*
X89158Y-15308D02*
X89146Y-15321D01*
X89136Y-15335D01*
X89128Y-15350D01*
X89120Y-15366D01*
X89114Y-15384D01*
X89109Y-15403D01*
X89105Y-15423D01*
X89102Y-15445D01*
X89100Y-15468D01*
X89100Y-15492D01*
X88902Y-15294D01*
X88926Y-15294D01*
X88949Y-15292D01*
X88971Y-15289D01*
X88991Y-15285D01*
X89010Y-15280D01*
X89028Y-15274D01*
X89044Y-15266D01*
X89059Y-15257D01*
X89073Y-15248D01*
X89086Y-15236D01*
X89158Y-15308D01*
D02*
G37*
G36*
X86999Y-15435D02*
X86987Y-15448D01*
X86978Y-15462D01*
X86969Y-15477D01*
X86961Y-15493D01*
X86955Y-15511D01*
X86950Y-15530D01*
X86946Y-15550D01*
X86943Y-15572D01*
X86941Y-15595D01*
X86941Y-15619D01*
X86743Y-15421D01*
X86767Y-15421D01*
X86790Y-15419D01*
X86812Y-15416D01*
X86832Y-15412D01*
X86851Y-15407D01*
X86869Y-15401D01*
X86885Y-15393D01*
X86900Y-15384D01*
X86914Y-15375D01*
X86927Y-15363D01*
X86999Y-15435D01*
D02*
G37*
G36*
X84967D02*
X84955Y-15448D01*
X84946Y-15462D01*
X84937Y-15477D01*
X84929Y-15493D01*
X84923Y-15511D01*
X84918Y-15530D01*
X84914Y-15550D01*
X84911Y-15572D01*
X84909Y-15595D01*
X84909Y-15619D01*
X84711Y-15421D01*
X84735Y-15421D01*
X84758Y-15419D01*
X84780Y-15416D01*
X84800Y-15412D01*
X84819Y-15407D01*
X84837Y-15401D01*
X84853Y-15393D01*
X84868Y-15384D01*
X84882Y-15375D01*
X84895Y-15363D01*
X84967Y-15435D01*
D02*
G37*
G36*
X113207Y-15943D02*
X113210Y-15959D01*
X113214Y-15976D01*
X113221Y-15993D01*
X113229Y-16010D01*
X113238Y-16027D01*
X113250Y-16044D01*
X113263Y-16062D01*
X113278Y-16079D01*
X113295Y-16096D01*
X113015D01*
X113032Y-16079D01*
X113047Y-16062D01*
X113061Y-16044D01*
X113072Y-16027D01*
X113082Y-16010D01*
X113090Y-15993D01*
X113096Y-15976D01*
X113101Y-15959D01*
X113103Y-15943D01*
X113104Y-15926D01*
X113206D01*
X113207Y-15943D01*
D02*
G37*
G36*
X112407D02*
X112410Y-15959D01*
X112414Y-15976D01*
X112421Y-15993D01*
X112429Y-16010D01*
X112438Y-16027D01*
X112450Y-16044D01*
X112463Y-16062D01*
X112478Y-16079D01*
X112495Y-16096D01*
X112215D01*
X112232Y-16079D01*
X112247Y-16062D01*
X112261Y-16044D01*
X112272Y-16027D01*
X112282Y-16010D01*
X112290Y-15993D01*
X112296Y-15976D01*
X112301Y-15959D01*
X112303Y-15943D01*
X112304Y-15926D01*
X112406D01*
X112407Y-15943D01*
D02*
G37*
G36*
X111607D02*
X111610Y-15959D01*
X111614Y-15976D01*
X111621Y-15993D01*
X111629Y-16010D01*
X111638Y-16027D01*
X111650Y-16044D01*
X111663Y-16062D01*
X111678Y-16079D01*
X111695Y-16096D01*
X111415D01*
X111432Y-16079D01*
X111447Y-16062D01*
X111461Y-16044D01*
X111472Y-16027D01*
X111482Y-16010D01*
X111490Y-15993D01*
X111496Y-15976D01*
X111501Y-15959D01*
X111503Y-15943D01*
X111504Y-15926D01*
X111606D01*
X111607Y-15943D01*
D02*
G37*
G36*
X110807D02*
X110810Y-15959D01*
X110814Y-15976D01*
X110821Y-15993D01*
X110829Y-16010D01*
X110838Y-16027D01*
X110850Y-16044D01*
X110863Y-16062D01*
X110878Y-16079D01*
X110895Y-16096D01*
X110615D01*
X110632Y-16079D01*
X110647Y-16062D01*
X110661Y-16044D01*
X110672Y-16027D01*
X110682Y-16010D01*
X110690Y-15993D01*
X110696Y-15976D01*
X110701Y-15959D01*
X110703Y-15943D01*
X110704Y-15926D01*
X110806D01*
X110807Y-15943D01*
D02*
G37*
G36*
X108407D02*
X108410Y-15959D01*
X108414Y-15976D01*
X108421Y-15993D01*
X108429Y-16010D01*
X108438Y-16027D01*
X108450Y-16044D01*
X108463Y-16062D01*
X108478Y-16079D01*
X108495Y-16096D01*
X108215D01*
X108232Y-16079D01*
X108247Y-16062D01*
X108261Y-16044D01*
X108272Y-16027D01*
X108282Y-16010D01*
X108290Y-15993D01*
X108296Y-15976D01*
X108301Y-15959D01*
X108303Y-15943D01*
X108304Y-15926D01*
X108406D01*
X108407Y-15943D01*
D02*
G37*
G36*
X107607D02*
X107610Y-15959D01*
X107614Y-15976D01*
X107621Y-15993D01*
X107629Y-16010D01*
X107638Y-16027D01*
X107650Y-16044D01*
X107663Y-16062D01*
X107678Y-16079D01*
X107695Y-16096D01*
X107415D01*
X107432Y-16079D01*
X107447Y-16062D01*
X107461Y-16044D01*
X107472Y-16027D01*
X107482Y-16010D01*
X107490Y-15993D01*
X107496Y-15976D01*
X107501Y-15959D01*
X107503Y-15943D01*
X107504Y-15926D01*
X107606D01*
X107607Y-15943D01*
D02*
G37*
G36*
X106807D02*
X106810Y-15959D01*
X106814Y-15976D01*
X106821Y-15993D01*
X106829Y-16010D01*
X106838Y-16027D01*
X106850Y-16044D01*
X106863Y-16062D01*
X106878Y-16079D01*
X106895Y-16096D01*
X106615D01*
X106632Y-16079D01*
X106647Y-16062D01*
X106661Y-16044D01*
X106672Y-16027D01*
X106682Y-16010D01*
X106690Y-15993D01*
X106696Y-15976D01*
X106701Y-15959D01*
X106703Y-15943D01*
X106704Y-15926D01*
X106806D01*
X106807Y-15943D01*
D02*
G37*
G36*
X106007D02*
X106010Y-15959D01*
X106014Y-15976D01*
X106021Y-15993D01*
X106029Y-16010D01*
X106038Y-16027D01*
X106050Y-16044D01*
X106063Y-16062D01*
X106078Y-16079D01*
X106095Y-16096D01*
X105815D01*
X105832Y-16079D01*
X105847Y-16062D01*
X105861Y-16044D01*
X105872Y-16027D01*
X105882Y-16010D01*
X105890Y-15993D01*
X105896Y-15976D01*
X105901Y-15959D01*
X105903Y-15943D01*
X105904Y-15926D01*
X106006D01*
X106007Y-15943D01*
D02*
G37*
G36*
X65013Y-16054D02*
X65002Y-16066D01*
X64992Y-16080D01*
X64983Y-16095D01*
X64975Y-16111D01*
X64969Y-16129D01*
X64964Y-16148D01*
X64960Y-16168D01*
X64957Y-16190D01*
X64956Y-16213D01*
X64955Y-16237D01*
X64757Y-16039D01*
X64782Y-16039D01*
X64805Y-16037D01*
X64826Y-16035D01*
X64847Y-16031D01*
X64866Y-16025D01*
X64883Y-16019D01*
X64900Y-16011D01*
X64915Y-16003D01*
X64928Y-15993D01*
X64941Y-15982D01*
X65013Y-16054D01*
D02*
G37*
G36*
X64213D02*
X64202Y-16066D01*
X64192Y-16080D01*
X64183Y-16095D01*
X64175Y-16111D01*
X64169Y-16129D01*
X64164Y-16148D01*
X64160Y-16168D01*
X64157Y-16190D01*
X64156Y-16213D01*
X64155Y-16237D01*
X63957Y-16039D01*
X63982Y-16039D01*
X64005Y-16037D01*
X64026Y-16035D01*
X64047Y-16031D01*
X64066Y-16025D01*
X64083Y-16019D01*
X64100Y-16011D01*
X64115Y-16003D01*
X64128Y-15993D01*
X64141Y-15982D01*
X64213Y-16054D01*
D02*
G37*
G36*
X63413D02*
X63402Y-16066D01*
X63392Y-16080D01*
X63383Y-16095D01*
X63375Y-16111D01*
X63369Y-16129D01*
X63364Y-16148D01*
X63360Y-16168D01*
X63357Y-16190D01*
X63356Y-16213D01*
X63355Y-16237D01*
X63157Y-16039D01*
X63182Y-16039D01*
X63205Y-16037D01*
X63226Y-16035D01*
X63247Y-16031D01*
X63266Y-16025D01*
X63283Y-16019D01*
X63300Y-16011D01*
X63315Y-16003D01*
X63328Y-15993D01*
X63341Y-15982D01*
X63413Y-16054D01*
D02*
G37*
G36*
X62613D02*
X62602Y-16066D01*
X62592Y-16080D01*
X62583Y-16095D01*
X62575Y-16111D01*
X62569Y-16129D01*
X62564Y-16148D01*
X62560Y-16168D01*
X62557Y-16190D01*
X62556Y-16213D01*
X62555Y-16237D01*
X62357Y-16039D01*
X62382Y-16039D01*
X62405Y-16037D01*
X62426Y-16035D01*
X62447Y-16031D01*
X62466Y-16025D01*
X62483Y-16019D01*
X62500Y-16011D01*
X62515Y-16003D01*
X62528Y-15993D01*
X62541Y-15982D01*
X62613Y-16054D01*
D02*
G37*
G36*
X21356Y-16265D02*
X21357Y-16288D01*
X21360Y-16310D01*
X21364Y-16330D01*
X21369Y-16349D01*
X21375Y-16367D01*
X21383Y-16383D01*
X21392Y-16399D01*
X21402Y-16412D01*
X21413Y-16425D01*
X21341Y-16497D01*
X21328Y-16486D01*
X21315Y-16476D01*
X21300Y-16467D01*
X21283Y-16459D01*
X21266Y-16453D01*
X21247Y-16448D01*
X21226Y-16444D01*
X21205Y-16441D01*
X21182Y-16440D01*
X21157Y-16439D01*
X21355Y-16241D01*
X21356Y-16265D01*
D02*
G37*
G36*
X20556D02*
X20557Y-16288D01*
X20560Y-16310D01*
X20564Y-16330D01*
X20569Y-16349D01*
X20575Y-16367D01*
X20583Y-16383D01*
X20592Y-16399D01*
X20602Y-16412D01*
X20613Y-16425D01*
X20541Y-16497D01*
X20528Y-16486D01*
X20515Y-16476D01*
X20500Y-16467D01*
X20483Y-16459D01*
X20466Y-16453D01*
X20447Y-16448D01*
X20426Y-16444D01*
X20405Y-16441D01*
X20382Y-16440D01*
X20357Y-16439D01*
X20555Y-16241D01*
X20556Y-16265D01*
D02*
G37*
G36*
X19756D02*
X19757Y-16288D01*
X19760Y-16310D01*
X19764Y-16330D01*
X19769Y-16349D01*
X19775Y-16367D01*
X19783Y-16383D01*
X19792Y-16399D01*
X19802Y-16412D01*
X19813Y-16425D01*
X19741Y-16497D01*
X19728Y-16486D01*
X19715Y-16476D01*
X19700Y-16467D01*
X19683Y-16459D01*
X19666Y-16453D01*
X19647Y-16448D01*
X19626Y-16444D01*
X19605Y-16441D01*
X19582Y-16440D01*
X19557Y-16439D01*
X19755Y-16241D01*
X19756Y-16265D01*
D02*
G37*
G36*
X18956D02*
X18957Y-16288D01*
X18960Y-16310D01*
X18964Y-16330D01*
X18969Y-16349D01*
X18975Y-16367D01*
X18983Y-16383D01*
X18992Y-16399D01*
X19002Y-16412D01*
X19013Y-16425D01*
X18941Y-16497D01*
X18928Y-16486D01*
X18915Y-16476D01*
X18900Y-16467D01*
X18883Y-16459D01*
X18866Y-16453D01*
X18847Y-16448D01*
X18826Y-16444D01*
X18805Y-16441D01*
X18782Y-16440D01*
X18757Y-16439D01*
X18955Y-16241D01*
X18956Y-16265D01*
D02*
G37*
D11*
X113000Y-24767D02*
X113167Y-24600D01*
X113500D01*
X113666Y-24767D01*
Y-24934D01*
X113500Y-25100D01*
X113333D01*
X113500D01*
X113666Y-25267D01*
Y-25433D01*
X113500Y-25600D01*
X113167D01*
X113000Y-25433D01*
X10566Y-30534D02*
X9900D01*
Y-31533D01*
X10566D01*
X9900Y-31034D02*
X10233D01*
X10900Y-30534D02*
X11566D01*
X11233D01*
Y-31533D01*
X11899Y-30534D02*
Y-31533D01*
X12566D01*
X12899Y-31700D02*
X13565D01*
X13899Y-31533D02*
Y-30534D01*
X14399D01*
X14565Y-30700D01*
Y-31034D01*
X14399Y-31200D01*
X13899D01*
X14232D02*
X14565Y-31533D01*
X14898Y-30534D02*
Y-31533D01*
X15398D01*
X15565Y-31367D01*
Y-31200D01*
X15398Y-31034D01*
X14898D01*
X15398D01*
X15565Y-30867D01*
Y-30700D01*
X15398Y-30534D01*
X14898D01*
X15898Y-31533D02*
Y-31367D01*
X16065D01*
Y-31533D01*
X15898D01*
X16731D02*
Y-30534D01*
X17231D01*
X17398Y-30700D01*
Y-31034D01*
X17231Y-31200D01*
X16731D01*
X18397Y-30867D02*
X17897D01*
X17731Y-31034D01*
Y-31367D01*
X17897Y-31533D01*
X18397D01*
X18730Y-30534D02*
Y-31533D01*
X19230D01*
X19397Y-31367D01*
Y-31200D01*
Y-31034D01*
X19230Y-30867D01*
X18730D01*
X19730Y-30534D02*
Y-31533D01*
X20230D01*
X20397Y-31367D01*
Y-30700D01*
X20230Y-30534D01*
X19730D01*
X20896Y-31533D02*
X21230D01*
X21396Y-31367D01*
Y-31034D01*
X21230Y-30867D01*
X20896D01*
X20730Y-31034D01*
Y-31367D01*
X20896Y-31533D01*
X22396Y-30867D02*
X21896D01*
X21730Y-31034D01*
Y-31367D01*
X21896Y-31533D01*
X22396D01*
X26728D02*
Y-30534D01*
X27061Y-30867D01*
X27394Y-30534D01*
Y-31533D01*
X27728D02*
X28061D01*
X27894D01*
Y-30534D01*
X27728Y-30700D01*
X33226Y-30534D02*
X32893Y-30700D01*
X32559Y-31034D01*
Y-31367D01*
X32726Y-31533D01*
X33059D01*
X33226Y-31367D01*
Y-31200D01*
X33059Y-31034D01*
X32559D01*
X33559Y-31533D02*
X34225Y-30867D01*
X35225Y-31533D02*
X34559D01*
X35225Y-30867D01*
Y-30700D01*
X35059Y-30534D01*
X34725D01*
X34559Y-30700D01*
X35558D02*
X35725Y-30534D01*
X36058D01*
X36225Y-30700D01*
Y-30867D01*
X36058Y-31034D01*
X35892D01*
X36058D01*
X36225Y-31200D01*
Y-31367D01*
X36058Y-31533D01*
X35725D01*
X35558Y-31367D01*
X36558Y-31533D02*
X37225Y-30867D01*
X38224Y-31533D02*
X37558D01*
X38224Y-30867D01*
Y-30700D01*
X38058Y-30534D01*
X37724D01*
X37558Y-30700D01*
X38557D02*
X38724Y-30534D01*
X39057D01*
X39224Y-30700D01*
Y-31367D01*
X39057Y-31533D01*
X38724D01*
X38557Y-31367D01*
Y-30700D01*
X40224Y-31533D02*
X39557D01*
X40224Y-30867D01*
Y-30700D01*
X40057Y-30534D01*
X39724D01*
X39557Y-30700D01*
X40557D02*
X40723Y-30534D01*
X41057D01*
X41223Y-30700D01*
Y-30867D01*
X41057Y-31034D01*
X40890D01*
X41057D01*
X41223Y-31200D01*
Y-31367D01*
X41057Y-31533D01*
X40723D01*
X40557Y-31367D01*
X45555Y-31533D02*
X45888D01*
X45722D01*
Y-30534D01*
X45555Y-30700D01*
X46388Y-30867D02*
X46555D01*
Y-31034D01*
X46388D01*
Y-30867D01*
Y-31367D02*
X46555D01*
Y-31533D01*
X46388D01*
Y-31367D01*
X47721Y-31533D02*
Y-30534D01*
X47221Y-31034D01*
X47888D01*
X48221Y-31367D02*
X48388Y-31533D01*
X48721D01*
X48887Y-31367D01*
Y-30700D01*
X48721Y-30534D01*
X48388D01*
X48221Y-30700D01*
Y-30867D01*
X48388Y-31034D01*
X48887D01*
X49221Y-30867D02*
X49387D01*
Y-31034D01*
X49221D01*
Y-30867D01*
Y-31367D02*
X49387D01*
Y-31533D01*
X49221D01*
Y-31367D01*
X50054Y-31533D02*
X50387D01*
X50220D01*
Y-30534D01*
X50054Y-30700D01*
X51387Y-31533D02*
Y-30534D01*
X50887Y-31034D01*
X51553D01*
X52886Y-31533D02*
Y-30534D01*
X53386D01*
X53553Y-30700D01*
Y-31034D01*
X53386Y-31200D01*
X52886D01*
X53886Y-31533D02*
Y-30534D01*
X54219Y-30867D01*
X54552Y-30534D01*
Y-31533D01*
D15*
X54100Y-2400D02*
X55250Y-1250D01*
X51900Y-2400D02*
X54100D01*
X50900Y-1400D02*
X51900Y-2400D01*
X28000Y-1400D02*
X50900D01*
X54000Y-1000D02*
X54250Y-750D01*
X54000Y-1500D02*
Y-1000D01*
X53400Y-2100D02*
X54000Y-1500D01*
X52100Y-2100D02*
X53400D01*
X51000Y-1000D02*
X52100Y-2100D01*
X27600Y-1000D02*
X51000D01*
D25*
X29700Y-5100D02*
D03*
X27500Y-6900D02*
D03*
X27500Y-5600D02*
D03*
X71700Y5600D02*
D03*
X72100Y5100D02*
D03*
X60900Y-5550D02*
D03*
X58598Y-8077D02*
D03*
X55900Y-9400D02*
D03*
X108355Y-16239D02*
D03*
X107555D02*
D03*
X63155D02*
D03*
X109945Y16239D02*
D03*
X110745D02*
D03*
X111545D02*
D03*
X109145D02*
D03*
X105145D02*
D03*
X105945D02*
D03*
X106745D02*
D03*
X104345D02*
D03*
X66345D02*
D03*
X67145D02*
D03*
X67945D02*
D03*
X65545D02*
D03*
X61545D02*
D03*
X62345D02*
D03*
X63145D02*
D03*
X60745D02*
D03*
X71945D02*
D03*
X72745D02*
D03*
X21945D02*
D03*
X24345D02*
D03*
X23545D02*
D03*
X22745D02*
D03*
X64755Y-16239D02*
D03*
X62355D02*
D03*
X63955D02*
D03*
X20355Y-16239D02*
D03*
X19555D02*
D03*
X18755D02*
D03*
X21155D02*
D03*
X105955Y-16239D02*
D03*
X106755D02*
D03*
X113155D02*
D03*
X112355D02*
D03*
X111555D02*
D03*
X110755D02*
D03*
X17145Y10509D02*
D03*
X69571Y-1549D02*
D03*
X16345Y10509D02*
D03*
X69555Y-10509D02*
D03*
X70355D02*
D03*
X58345Y10509D02*
D03*
X57545D02*
D03*
X28000Y-1400D02*
D03*
X27600Y-1000D02*
D03*
X26755Y-10509D02*
D03*
X25955D02*
D03*
X62368Y-10522D02*
D03*
X63168D02*
D03*
X110363Y6858D02*
D03*
X108839Y6350D02*
D03*
X107696Y7239D02*
D03*
X108839Y7366D02*
D03*
X91313Y-14097D02*
D03*
X88900Y-15494D02*
D03*
X89281Y-14097D02*
D03*
X86741Y-15621D02*
D03*
X85217Y-14097D02*
D03*
X87249D02*
D03*
X84709Y-15621D02*
D03*
X9068Y730D02*
D03*
X44450Y2083D02*
D03*
X69723Y2159D02*
D03*
X90551Y17780D02*
D03*
X83820Y-14478D02*
D03*
X32436Y11151D02*
D03*
X33299Y11125D02*
D03*
X90399Y16662D02*
D03*
X89205Y16840D02*
D03*
X89306Y15748D02*
D03*
X47150Y-2825D02*
D03*
X102800Y-4900D02*
D03*
X102225Y-6800D02*
D03*
X103250Y-7000D02*
D03*
X102975Y-5875D02*
D03*
X70600Y-5475D02*
D03*
X50750Y-4500D02*
D03*
X44700Y-4600D02*
D03*
X45900Y-2100D02*
D03*
X67250Y-5475D02*
D03*
D64*
X29700Y-5100D02*
X31100Y-3700D01*
X12123Y-2325D02*
X34250D01*
X9068Y730D02*
X12123Y-2325D01*
X60655Y5258D02*
Y5323D01*
X60511Y5467D02*
X60655Y5323D01*
X60491Y5467D02*
X60511D01*
X60346Y5612D02*
X60491Y5467D01*
X60346Y5612D02*
Y6045D01*
X60491Y6189D01*
X61889D01*
X62033Y6334D01*
Y6767D01*
X61889Y6911D02*
X62033Y6767D01*
X60335Y6911D02*
X61889D01*
X60190Y7056D02*
X60335Y6911D01*
X60190Y7056D02*
Y7489D01*
X60335Y7633D01*
X61889D01*
X62033Y7778D01*
Y8211D01*
X61889Y8355D02*
X62033Y8211D01*
X60800Y8355D02*
X61889D01*
X60655Y8500D02*
X60800Y8355D01*
X60655Y8500D02*
Y8560D01*
X69571Y-2515D02*
X70306Y-3250D01*
X69571Y-2515D02*
Y-1549D01*
X58600Y1900D02*
X60599D01*
X64299Y5600D02*
X71700D01*
X60599Y1900D02*
X64299Y5600D01*
X42045Y10287D02*
X47117D01*
X41626Y10706D02*
X42045Y10287D01*
X41626Y10706D02*
Y11081D01*
X41207Y11500D02*
X41626Y11081D01*
X40369Y11500D02*
X41207D01*
X39950Y11081D02*
X40369Y11500D01*
X39950Y10376D02*
Y11081D01*
X39531Y9957D02*
X39950Y10376D01*
X38693Y9957D02*
X39531D01*
X38274Y10376D02*
X38693Y9957D01*
X38274Y10376D02*
Y11119D01*
X37855Y11538D02*
X38274Y11119D01*
X37017Y11538D02*
X37855D01*
X36598Y11119D02*
X37017Y11538D01*
X36598Y10706D02*
Y11119D01*
X36179Y10287D02*
X36598Y10706D01*
X36119Y10287D02*
X36179D01*
X56500Y-8875D02*
X58625Y-11000D01*
X56500Y-8875D02*
Y-4400D01*
X58625Y-11000D02*
X63778D01*
X69698Y-8484D02*
X69977Y-8763D01*
X65207Y-8484D02*
X69698D01*
X69977Y-9144D02*
Y-8763D01*
X69748Y-9373D02*
X69977Y-9144D01*
X65405Y-9373D02*
X69748D01*
X63168Y-10522D02*
X65207Y-8484D01*
X63778Y-11000D02*
X65405Y-9373D01*
X62467D02*
X62535D01*
X62342Y-9247D02*
X62467Y-9373D01*
X62342Y-9247D02*
Y-7116D01*
X62216Y-6991D02*
X62342Y-7116D01*
X61839Y-6991D02*
X62216D01*
X61714Y-7116D02*
X61839Y-6991D01*
X61714Y-9712D02*
Y-7116D01*
X61588Y-9838D02*
X61714Y-9712D01*
X61211Y-9838D02*
X61588D01*
X61086Y-9712D02*
X61211Y-9838D01*
X61086Y-9712D02*
Y-6938D01*
X60960Y-6813D02*
X61086Y-6938D01*
X60583Y-6813D02*
X60960D01*
X60458Y-6938D02*
X60583Y-6813D01*
X60458Y-9712D02*
Y-6938D01*
X60332Y-9838D02*
X60458Y-9712D01*
X59955Y-9838D02*
X60332D01*
X59830Y-9712D02*
X59955Y-9838D01*
X59830Y-9712D02*
Y-6938D01*
X59704Y-6813D02*
X59830Y-6938D01*
X59327Y-6813D02*
X59704D01*
X59202Y-6938D02*
X59327Y-6813D01*
X59202Y-9247D02*
Y-6938D01*
X59076Y-9373D02*
X59202Y-9247D01*
X59016Y-9373D02*
X59076D01*
X62687Y-10204D02*
Y-9525D01*
X62535Y-9373D02*
X62687Y-9525D01*
X62368Y-10522D02*
X62687Y-10204D01*
X58373Y-9373D02*
X59016D01*
X57785Y-8785D02*
X58373Y-9373D01*
X57785Y-8785D02*
Y-4785D01*
X56750Y-3750D02*
X57785Y-4785D01*
X58100Y-3600D02*
X58598Y-4098D01*
Y-8077D02*
Y-4098D01*
X69905Y-10160D02*
X70536D01*
X69555Y-10509D02*
X69905Y-10160D01*
X70536D02*
X70764Y-10389D01*
Y-11536D02*
Y-10389D01*
X69800Y-12500D02*
X70764Y-11536D01*
X55250Y-4856D02*
X55448Y-5055D01*
Y-9873D02*
X55617Y-10042D01*
X55448Y-9873D02*
Y-5055D01*
X55250Y-4856D02*
Y-3250D01*
X51867Y-8484D02*
X53721Y-6629D01*
X54250Y-4424D02*
Y-3250D01*
X53721Y-6629D02*
Y-4953D01*
X54250Y-4424D01*
X36873Y-12598D02*
X39726D01*
X36686Y-12412D02*
X36873Y-12598D01*
X36686Y-12412D02*
Y-12006D01*
X36499Y-11819D02*
X36686Y-12006D01*
X35940Y-11819D02*
X36499D01*
X35753Y-12006D02*
X35940Y-11819D01*
X35753Y-12877D02*
Y-12006D01*
X35567Y-13063D02*
X35753Y-12877D01*
X35007Y-13063D02*
X35567D01*
X34820Y-12877D02*
X35007Y-13063D01*
X34820Y-12877D02*
Y-11930D01*
X34634Y-11743D02*
X34820Y-11930D01*
X34074Y-11743D02*
X34634D01*
X33888Y-11930D02*
X34074Y-11743D01*
X33888Y-12877D02*
Y-11930D01*
X33701Y-13063D02*
X33888Y-12877D01*
X33141Y-13063D02*
X33701D01*
X32955Y-12877D02*
X33141Y-13063D01*
X32955Y-12877D02*
Y-11930D01*
X32768Y-11743D02*
X32955Y-11930D01*
X32209Y-11743D02*
X32768D01*
X32022Y-11930D02*
X32209Y-11743D01*
X32022Y-12412D02*
Y-11930D01*
X31835Y-12598D02*
X32022Y-12412D01*
X31775Y-12598D02*
X31835D01*
X39726D02*
X40502D01*
X28845D02*
X31775D01*
X49594Y-6401D02*
X50227D01*
X49407Y-6587D02*
X49594Y-6401D01*
X49407Y-6679D02*
Y-6587D01*
X49220Y-6866D02*
X49407Y-6679D01*
X48661Y-6866D02*
X49220D01*
X48474Y-6679D02*
X48661Y-6866D01*
X48474Y-6679D02*
Y-6122D01*
X48288Y-5936D02*
X48474Y-6122D01*
X47728Y-5936D02*
X48288D01*
X47541Y-6122D02*
X47728Y-5936D01*
X47541Y-6214D02*
Y-6122D01*
X47355Y-6401D02*
X47541Y-6214D01*
X47295Y-6401D02*
X47355D01*
X50227D02*
X50599D01*
X46699D02*
X47295D01*
X40502Y-12598D02*
X46699Y-6401D01*
X26755Y-10509D02*
X28845Y-12598D01*
X30709Y-14326D02*
X33054D01*
X33240Y-14512D01*
Y-14529D02*
Y-14512D01*
Y-14529D02*
X33427Y-14716D01*
X33987D01*
X34173Y-14529D01*
Y-14379D01*
X34360Y-14192D01*
X34919D01*
X35106Y-14379D01*
Y-14604D02*
Y-14379D01*
Y-14604D02*
X35293Y-14791D01*
X35852D01*
X36039Y-14604D01*
Y-14379D01*
X36225Y-14192D01*
X36785D01*
X36972Y-14379D01*
Y-14604D02*
Y-14379D01*
Y-14604D02*
X37158Y-14791D01*
X37718D01*
X37904Y-14604D01*
Y-14379D01*
X38091Y-14192D01*
X38651D01*
X38837Y-14379D01*
Y-14604D02*
Y-14379D01*
Y-14604D02*
X39024Y-14791D01*
X39583D01*
X39770Y-14604D01*
Y-14512D01*
X39957Y-14326D01*
X40017D01*
X29058D02*
X30709D01*
X40017D02*
X40615D01*
X25955Y-11223D02*
X29058Y-14326D01*
X40615D02*
X46457Y-8484D01*
X50599Y-6401D02*
X54250Y-2750D01*
X46457Y-8484D02*
X51867D01*
X58345Y9877D02*
Y10257D01*
X58200Y9733D02*
X58345Y9877D01*
X57624Y9733D02*
X58200D01*
X57480Y9588D02*
X57624Y9733D01*
X57480Y9155D02*
Y9588D01*
Y9155D02*
X57624Y9011D01*
X58665D01*
X58810Y8866D01*
Y8433D02*
Y8866D01*
X58665Y8289D02*
X58810Y8433D01*
X57101Y8289D02*
X58665D01*
X56957Y8144D02*
X57101Y8289D01*
X56957Y7711D02*
Y8144D01*
Y7711D02*
X57101Y7567D01*
X58665D01*
X58810Y7422D01*
Y6989D02*
Y7422D01*
X58665Y6845D02*
X58810Y6989D01*
X57101Y6845D02*
X58665D01*
X56957Y6700D02*
X57101Y6845D01*
X56957Y6267D02*
Y6700D01*
Y6267D02*
X57101Y6123D01*
X58200D01*
X58345Y5978D01*
Y5918D02*
Y5978D01*
Y10257D02*
Y10509D01*
Y5587D02*
Y5918D01*
X59750Y4250D02*
Y4546D01*
X58345Y5587D02*
X58877Y5055D01*
X59242D01*
X59750Y4546D01*
X60655Y4655D02*
Y5258D01*
Y8560D02*
Y9020D01*
X58800Y10875D02*
X60655Y9020D01*
X60250Y4250D02*
X60655Y4655D01*
X35154Y10287D02*
X36119D01*
X33503Y11938D02*
X35154Y10287D01*
X52248Y8153D02*
X54534Y5867D01*
X49251Y8153D02*
X52248D01*
X54534Y3966D02*
Y5867D01*
X47117Y10287D02*
X49251Y8153D01*
X19075Y11938D02*
X33503D01*
X54534Y3966D02*
X55750Y2750D01*
X17647Y10509D02*
X19075Y11938D01*
X17145Y10509D02*
X17647D01*
X25955Y-11223D02*
Y-10509D01*
X27500Y-6900D02*
X31250D01*
X33250Y-4900D02*
X44400D01*
X31250Y-6900D02*
X33250Y-4900D01*
X31350Y-5600D02*
X32850Y-4100D01*
X27500Y-5600D02*
X31350D01*
X32850Y-4100D02*
X45875D01*
X47150Y-2825D01*
X72175Y-3900D02*
Y-3500D01*
X70600Y-5475D02*
X72175Y-3900D01*
Y-3175D01*
X71750Y-2750D02*
X72175Y-3175D01*
X61550Y-4900D02*
X66675D01*
X67250Y-5475D01*
X34250Y-2325D02*
X34700Y-2775D01*
X42987D01*
X44062Y-1700D01*
X47175D01*
X49975Y-4500D02*
X50750D01*
X47175Y-1700D02*
X49975Y-4500D01*
X55850Y-1600D02*
X56200Y-1250D01*
X56750D01*
X55850Y-1910D02*
Y-1600D01*
Y-1910D02*
X56570Y-2630D01*
X55900Y-9400D02*
Y-4717D01*
X56189Y-4428D01*
Y-3871D01*
X56570Y-3490D01*
Y-2630D01*
X57250Y-1750D02*
X58100Y-2600D01*
Y-3600D02*
Y-2600D01*
X60905Y-5545D02*
X61550Y-4900D01*
X31100Y-3700D02*
X44300D01*
X45900Y-2100D01*
X44400Y-4900D02*
X44700Y-4600D01*
X64000Y6200D02*
X71575D01*
X60050Y2250D02*
X64000Y6200D01*
X58750Y2250D02*
X60050D01*
X72100Y5100D02*
Y5675D01*
X71575Y6200D02*
X72100Y5675D01*
X56700Y-12500D02*
X69800D01*
X58250Y2250D02*
X58600Y1900D01*
X70306Y-3250D02*
X71250D01*
X54800Y-10600D02*
Y-3200D01*
Y-10600D02*
X56700Y-12500D01*
X54800Y-3200D02*
X55250Y-2750D01*
X57910Y10875D02*
X58800D01*
X57545Y10509D02*
X57910Y10875D01*
X54250Y-3250D02*
X54250Y-3250D01*
D65*
X61830Y1930D02*
X69494D01*
X69723Y2159D01*
X61500Y1600D02*
X61830Y1930D01*
X55900Y1600D02*
X61500D01*
X24938Y14046D02*
X54178D01*
X22745Y16239D02*
X24938Y14046D01*
X54178D02*
X55042Y13183D01*
X110363Y6858D02*
Y11176D01*
X111545Y12358D02*
Y16239D01*
X110363Y11176D02*
X111545Y12358D01*
X97796Y-2800D02*
X98044Y-3048D01*
X96000Y-2800D02*
X97796D01*
X98044Y-3048D02*
X105537D01*
X97732Y-3625D02*
X102375D01*
X96400Y-3200D02*
X97307D01*
X97732Y-3625D01*
X96000Y-3600D02*
X96818D01*
X97409Y-4191D02*
X104141D01*
X96818Y-3600D02*
X97409Y-4191D01*
X104141D02*
X110325Y-10375D01*
X105537Y-3048D02*
X111975Y-9486D01*
X102375Y-3625D02*
X105225D01*
X111175Y-12425D02*
Y-9575D01*
X105225Y-3625D02*
X111175Y-9575D01*
X111975Y-12267D02*
Y-9486D01*
X96400Y-2400D02*
X105778D01*
X113481Y-14730D02*
Y-10103D01*
X105778Y-2400D02*
X113481Y-10103D01*
X109601Y11612D02*
X110745Y12755D01*
X109601Y7112D02*
Y11612D01*
X108839Y6350D02*
X109601Y7112D01*
X108839Y7366D02*
Y11684D01*
X109945Y12790D01*
Y16239D01*
X107696Y7239D02*
X108077Y7620D01*
Y11811D01*
X109145Y12879D01*
Y16239D01*
X80391Y-441D02*
Y2009D01*
X74700Y7700D02*
X80391Y2009D01*
Y-441D02*
X82750Y-2800D01*
X74785Y8400D02*
X81026Y2159D01*
Y381D02*
X83807Y-2400D01*
X81026Y381D02*
Y2159D01*
X81661Y635D02*
X84296Y-2000D01*
X74647Y9300D02*
X81661Y2286D01*
Y635D02*
Y2286D01*
X82296Y762D02*
X84658Y-1600D01*
X82296Y762D02*
Y2504D01*
X74800Y10000D02*
X82296Y2504D01*
X83807Y-2400D02*
X85200D01*
X84296Y-2000D02*
X85600D01*
X82925Y895D02*
Y3562D01*
X84620Y-800D02*
X85200D01*
X82925Y895D02*
X84620Y-800D01*
X84658Y-1600D02*
X85200D01*
X70544Y13640D02*
X79070D01*
X86400Y-400D02*
Y6310D01*
X79070Y13640D02*
X86400Y6310D01*
X70328Y13056D02*
X78765D01*
X85325Y675D02*
Y6496D01*
X78765Y13056D02*
X85325Y6496D01*
X92925Y5325D02*
Y5881D01*
X73109Y15875D02*
X82931D01*
X92925Y5881D01*
X72745Y16239D02*
X73109Y15875D01*
X73147Y15037D02*
X82588D01*
X92025Y5600D01*
X71945Y16239D02*
X73147Y15037D01*
X17551Y12700D02*
X51333D01*
X55750Y3250D02*
Y8283D01*
X51333Y12700D02*
X55750Y8283D01*
X16370Y11518D02*
X17551Y12700D01*
X16370Y10534D02*
Y11518D01*
X24722Y13462D02*
X52730D01*
X21945Y16239D02*
X24722Y13462D01*
X52730D02*
X53975Y12217D01*
X66494Y9300D02*
X74647D01*
X84800Y400D02*
Y4100D01*
X76505Y12395D02*
X84800Y4100D01*
X69596Y12395D02*
X76505D01*
X74905Y11582D02*
X82925Y3562D01*
X69647Y11582D02*
X74905D01*
X74500Y8400D02*
X74785D01*
X84125Y17375D02*
X93853Y7647D01*
Y4572D02*
Y7647D01*
Y4572D02*
X94400Y4025D01*
X83575Y16775D02*
X93345Y7005D01*
X93600Y575D02*
Y4150D01*
X93345Y4405D02*
Y7005D01*
Y4405D02*
X93600Y4150D01*
X91313Y-14097D02*
X97282Y-8128D01*
Y-4882D01*
X88900Y-15494D02*
X96647Y-7747D01*
Y-5047D01*
X89281Y-14097D02*
X95992Y-7386D01*
Y-4392D01*
X86741Y-15621D02*
X95377Y-6985D01*
Y-5048D01*
X85217Y-14097D02*
X93472Y-5842D01*
X87249Y-14097D02*
X94742Y-6604D01*
Y-4826D01*
X84709Y-15621D02*
X94107Y-6223D01*
Y-4699D01*
X93472Y-5842D02*
Y-4572D01*
X92837Y-5413D02*
Y-4363D01*
X93600Y-3600D01*
X83820Y-14430D02*
X92837Y-5413D01*
X93472Y-4572D02*
X94400Y-3644D01*
X94107Y-4699D02*
X94800Y-4006D01*
X94742Y-4826D02*
X95176Y-4392D01*
X95600Y-4825D02*
Y-4800D01*
X95377Y-5048D02*
X95600Y-4825D01*
X95176Y-4392D02*
Y-1976D01*
X94800Y-4006D02*
Y-3200D01*
X94400Y-3644D02*
Y-2800D01*
X96400Y-4000D02*
X97282Y-4882D01*
X96400Y-4800D02*
X96647Y-5047D01*
X73914Y-18669D02*
X86000Y-6583D01*
X21185Y-18669D02*
X73914D01*
X86000Y-6583D02*
Y-5600D01*
X73660Y-18034D02*
X85600Y-6094D01*
Y-5200D01*
X21350Y-18034D02*
X73660D01*
X73161Y-16764D02*
X85125Y-4800D01*
X21155Y-16239D02*
X21680Y-16764D01*
X73161D01*
X18755Y-16239D02*
X21185Y-18669D01*
X19555Y-16239D02*
X21350Y-18034D01*
X21515Y-17399D02*
X73401D01*
X20355Y-16239D02*
X21515Y-17399D01*
X73401D02*
X85200Y-5600D01*
X104800Y5800D02*
Y13677D01*
X97800Y-1200D02*
X104800Y5800D01*
Y13677D02*
X105145Y14021D01*
X96901Y5301D02*
Y11430D01*
X96400Y4800D02*
X96901Y5301D01*
X90551Y17780D02*
X96901Y11430D01*
X94361Y4664D02*
Y8289D01*
Y4664D02*
X94800Y4225D01*
X84575Y18075D02*
X94361Y8289D01*
X85073Y18725D02*
X94869Y8929D01*
Y4731D02*
Y8929D01*
Y4731D02*
X95200Y4400D01*
X89306Y15748D02*
X95377Y9677D01*
Y4873D02*
X95600Y4650D01*
X95377Y4873D02*
Y9677D01*
X89210Y16840D02*
X95885Y10165D01*
Y4515D02*
X96400Y4000D01*
X95885Y4515D02*
Y10165D01*
X66345Y15647D02*
Y16239D01*
Y15647D02*
X69596Y12395D01*
X67145Y16239D02*
X70328Y13056D01*
X65545Y15685D02*
Y16239D01*
Y15685D02*
X69647Y11582D01*
X24798Y14986D02*
X60808D01*
X66494Y9300D01*
X105145Y14021D02*
Y16239D01*
X33477Y15723D02*
X60777D01*
X33122Y15367D02*
X33477Y15723D01*
X60777D02*
X66500Y10000D01*
X58917Y13183D02*
X63700Y8400D01*
X55042Y13183D02*
X58917D01*
X53975Y12217D02*
X58776D01*
X63293Y7700D01*
X23545Y16239D02*
X24798Y14986D01*
X67945Y16239D02*
X70544Y13640D01*
X44688Y600D02*
X51100D01*
X41935Y3353D02*
Y5588D01*
Y3353D02*
X44688Y600D01*
X35458Y8128D02*
X39395D01*
X32436Y11151D02*
X35458Y8128D01*
X39395D02*
X41935Y5588D01*
X44806Y1200D02*
X50500D01*
X33299Y11125D02*
X35636Y8788D01*
X39726D01*
X42494Y6020D01*
Y3511D02*
X44806Y1200D01*
X42494Y3511D02*
Y6020D01*
X63293Y7700D02*
X74700D01*
X32131Y15367D02*
X33122D01*
X31750Y15748D02*
X32131Y15367D01*
X24836Y15748D02*
X31750D01*
X24345Y16239D02*
X24836Y15748D01*
X44450Y2083D02*
X49683D01*
X51250Y3650D01*
X71755Y-15367D02*
X80353Y-6769D01*
X63955Y-16239D02*
X64828Y-15367D01*
X71755D01*
X65221Y-15773D02*
X72952D01*
X84325Y-4400D01*
X64755Y-16239D02*
X65221Y-15773D01*
X80937Y-6769D02*
X83706Y-4000D01*
X80353Y-6769D02*
X80937D01*
X83820Y-14478D02*
Y-14430D01*
X83706Y-4000D02*
X85200D01*
X90399Y16662D02*
X90463D01*
X96400Y10725D01*
Y5600D02*
Y10725D01*
X89205Y16840D02*
X89210D01*
X16345Y10509D02*
X16370Y10534D01*
X95600Y4000D02*
Y4650D01*
X95200Y2800D02*
Y4400D01*
X94800Y3200D02*
Y4225D01*
X94400Y2000D02*
Y4025D01*
X94800Y2400D02*
X95200Y2800D01*
X94400Y2000D02*
X94800Y1600D01*
X92025Y5600D02*
X92400D01*
Y4800D02*
X92925Y5325D01*
X63380Y18075D02*
X84575D01*
X63480Y17375D02*
X84125D01*
X63680Y16775D02*
X83575D01*
X94175Y0D02*
X94800D01*
X93600Y575D02*
X94175Y0D01*
X82750Y-2800D02*
X85600D01*
X66500Y10000D02*
X74800D01*
X86000Y-800D02*
X86400Y-400D01*
X85325Y675D02*
X86000Y-0D01*
X84800Y400D02*
X85200Y-0D01*
X85600Y-2800D02*
X86000Y-2400D01*
X85600Y-2000D02*
X86000Y-1600D01*
X102800Y-4900D02*
X108355Y-10455D01*
Y-16239D02*
Y-10455D01*
X80000Y-3200D02*
X85200D01*
X69000Y-14200D02*
X80000Y-3200D01*
X80500Y-3600D02*
X85600D01*
X86000Y-3200D01*
X69425Y-14675D02*
X80500Y-3600D01*
X84325Y-4400D02*
X85600D01*
X86000Y-4000D01*
X85125Y-4800D02*
X85200D01*
X85600Y-5200D02*
X86000Y-4800D01*
X105600Y-12200D02*
Y-10175D01*
X102225Y-6800D02*
X105600Y-10175D01*
X103250Y-7000D02*
X106350Y-10100D01*
Y-12100D02*
Y-10100D01*
X102975Y-5875D02*
X107125Y-10025D01*
Y-12050D02*
Y-10025D01*
Y-12050D02*
X107555Y-12480D01*
Y-16239D02*
Y-12480D01*
X106350Y-12100D02*
X106755Y-12505D01*
Y-16239D02*
Y-12505D01*
X105600Y-12200D02*
X105955Y-12555D01*
Y-16239D02*
Y-12555D01*
X110325Y-12550D02*
X110755Y-12980D01*
X110325Y-12550D02*
Y-10375D01*
X111175Y-12425D02*
X111555Y-12805D01*
X111975Y-12267D02*
X112355Y-12648D01*
X106745Y16239D02*
X107150Y15834D01*
X99200Y-2000D02*
X107150Y5950D01*
Y15834D01*
X106350Y6250D02*
Y15834D01*
X98500Y-1600D02*
X106350Y6250D01*
X105945Y16239D02*
X106350Y15834D01*
X97300Y-800D02*
X103975Y5875D01*
Y15870D02*
X104345Y16239D01*
X103975Y5875D02*
Y15870D01*
X63230Y18725D02*
X85073D01*
X63700Y8400D02*
X74500D01*
X112355Y-16239D02*
Y-12648D01*
X110755Y-16239D02*
Y-12980D01*
X111555Y-16239D02*
Y-12805D01*
X96000Y-2000D02*
X99200D01*
X96400Y-1600D02*
X98500D01*
X96000Y-1200D02*
X97800D01*
X96400Y-800D02*
X97300D01*
X64720Y-14675D02*
X69425D01*
X64395Y-14200D02*
X69000D01*
X63155Y-16239D02*
X64720Y-14675D01*
X54750Y2750D02*
X55900Y1600D01*
X95600Y-4000D02*
X95992Y-4392D01*
X95600Y-800D02*
X96000Y-1200D01*
X95600Y-1600D02*
X96000Y-2000D01*
X113155Y-15055D02*
X113481Y-14730D01*
X113155Y-16239D02*
Y-15055D01*
X95600Y-2400D02*
X96000Y-2800D01*
X95600Y-3200D02*
X96000Y-3600D01*
X93600Y-3600D02*
Y-1468D01*
X94400Y-2800D02*
X94800Y-2400D01*
X62355Y-16239D02*
X64395Y-14200D01*
X93600Y-1468D02*
X94268Y-800D01*
X94800D01*
Y-1600D02*
X95176Y-1976D01*
X60745Y16239D02*
X63230Y18725D01*
X61545Y16239D02*
X63380Y18075D01*
X62345Y16239D02*
X63480Y17375D01*
X63145Y16239D02*
X63680Y16775D01*
X110745Y12755D02*
Y16239D01*
X51250Y3650D02*
X53350D01*
X54250Y2750D01*
X54750D01*
X54400Y1600D02*
X54750Y1250D01*
X52100Y1600D02*
X54400D01*
X51100Y600D02*
X52100Y1600D01*
X54425Y1900D02*
X54775Y2250D01*
X52300Y1900D02*
X54425D01*
X50500Y1200D02*
X51500Y2200D01*
X52000D01*
X52300Y1900D01*
D66*
X68151Y-11700D02*
X68834D01*
X68024Y-11572D02*
X68151Y-11700D01*
X68024Y-11572D02*
Y-11130D01*
X67896Y-11003D02*
X68024Y-11130D01*
X67513Y-11003D02*
X67896D01*
X67386Y-11130D02*
X67513Y-11003D01*
X67386Y-11891D02*
Y-11130D01*
X67258Y-12019D02*
X67386Y-11891D01*
X66875Y-12019D02*
X67258D01*
X66748Y-11891D02*
X66875Y-12019D01*
X66748Y-11891D02*
Y-11041D01*
X66620Y-10913D02*
X66748Y-11041D01*
X66237Y-10913D02*
X66620D01*
X66110Y-11041D02*
X66237Y-10913D01*
X66110Y-11891D02*
Y-11041D01*
X65982Y-12019D02*
X66110Y-11891D01*
X65599Y-12019D02*
X65982D01*
X65472Y-11891D02*
X65599Y-12019D01*
X65472Y-11891D02*
Y-11041D01*
X65344Y-10913D02*
X65472Y-11041D01*
X64961Y-10913D02*
X65344D01*
X64834Y-11041D02*
X64961Y-10913D01*
X64834Y-11572D02*
Y-11041D01*
X64706Y-11700D02*
X64834Y-11572D01*
X64641Y-11700D02*
X64706D01*
X57275D02*
X64641D01*
X68834D02*
X69165D01*
X70355Y-10509D01*
X55617Y-10042D02*
X57275Y-11700D01*
D78*
X96400Y4800D02*
D03*
Y5600D02*
D03*
X95600Y4000D02*
D03*
X96400D02*
D03*
X94800Y2400D02*
D03*
Y1600D02*
D03*
Y3200D02*
D03*
X92400Y4800D02*
D03*
Y5600D02*
D03*
X94800Y0D02*
D03*
X86000Y-0D02*
D03*
X85200D02*
D03*
Y-800D02*
D03*
X86000D02*
D03*
X85200Y-2400D02*
D03*
X86000D02*
D03*
X85200Y-1600D02*
D03*
X86000D02*
D03*
X85200Y-5600D02*
D03*
X86000Y-3200D02*
D03*
Y-4000D02*
D03*
X85200Y-3200D02*
D03*
Y-4000D02*
D03*
Y-4800D02*
D03*
X86000Y-4800D02*
D03*
Y-5600D02*
D03*
X94800Y-3200D02*
D03*
Y-800D02*
D03*
Y-1600D02*
D03*
Y-2400D02*
D03*
X95600Y-4000D02*
D03*
Y-800D02*
D03*
X96400Y-1600D02*
D03*
X95600Y-1600D02*
D03*
X96400Y-800D02*
D03*
X95600Y-3200D02*
D03*
X96400Y-3200D02*
D03*
X95600Y-2400D02*
D03*
X96400D02*
D03*
X96400Y-4000D02*
D03*
Y-4800D02*
D03*
X95600D02*
D03*
D87*
X56750Y-1250D02*
D03*
X58750Y2250D02*
D03*
X58250D02*
D03*
X55750Y2750D02*
D03*
X71750Y-2750D02*
D03*
X57250Y-1750D02*
D03*
X71250Y-3250D02*
D03*
X55750Y3250D02*
D03*
X55250Y-2750D02*
D03*
Y-3250D02*
D03*
X59750Y4250D02*
D03*
X60250D02*
D03*
X54750Y1250D02*
D03*
X54775Y2250D02*
D03*
X55250Y-1250D02*
D03*
X54250Y-750D02*
D03*
X54250Y-2750D02*
D03*
Y-3250D02*
D03*
X56750Y-3750D02*
D03*
X56500Y-4400D02*
D03*
M02*
