G04*
G04 #@! TF.GenerationSoftware,Altium Limited,Altium Designer,23.6.0 (18)*
G04*
G04 Layer_Physical_Order=4*
G04 Layer_Color=128*
%FSLAX43Y43*%
%MOMM*%
G71*
G04*
G04 #@! TF.SameCoordinates,9618B176-DC57-4C31-A2D1-5874A38502C8*
G04*
G04*
G04 #@! TF.FilePolarity,Negative*
G04*
G01*
G75*
%ADD11C,0.200*%
%ADD13C,0.254*%
%ADD80C,1.016*%
%ADD82R,12.200X10.000*%
%ADD83C,0.555*%
%ADD84C,0.455*%
%ADD85C,1.405*%
%ADD86C,0.605*%
%ADD88R,3.750X2.500*%
%ADD89R,7.000X2.500*%
%ADD90C,2.805*%
G36*
X5126Y7870D02*
X5042Y7786D01*
Y7319D01*
X5033Y7309D01*
X5117Y7225D01*
Y7001D01*
X5238Y6880D01*
X5280Y6922D01*
X5416D01*
X5495Y7001D01*
X5626D01*
X5724Y7099D01*
X5733D01*
Y7132D01*
X5803Y7202D01*
Y7599D01*
X5757Y7646D01*
Y7814D01*
X5500Y8071D01*
X5289D01*
X5173Y7954D01*
X5154D01*
Y7903D01*
X5128Y7877D01*
Y7871D01*
X5126Y7870D01*
D02*
G37*
G36*
X8046Y7653D02*
X8013Y7654D01*
X7882Y7523D01*
Y7412D01*
X7948Y7347D01*
Y7302D01*
X7989Y7261D01*
X8177D01*
X8263Y7347D01*
Y7523D01*
X8288Y7548D01*
Y7728D01*
X8251Y7765D01*
X8206Y7720D01*
X8112D01*
X8046Y7653D01*
D02*
G37*
D11*
X115375Y-25600D02*
Y-24600D01*
X114875Y-25100D01*
X115541D01*
X10566Y-30567D02*
X9900D01*
Y-31567D01*
X10566D01*
X9900Y-31067D02*
X10233D01*
X10900Y-30567D02*
X11566D01*
X11233D01*
Y-31567D01*
X11899Y-30567D02*
Y-31567D01*
X12566D01*
X12899Y-31733D02*
X13565D01*
X13899Y-31567D02*
Y-30567D01*
X14399D01*
X14565Y-30734D01*
Y-31067D01*
X14399Y-31234D01*
X13899D01*
X14232D02*
X14565Y-31567D01*
X14898Y-30567D02*
Y-31567D01*
X15398D01*
X15565Y-31400D01*
Y-31234D01*
X15398Y-31067D01*
X14898D01*
X15398D01*
X15565Y-30900D01*
Y-30734D01*
X15398Y-30567D01*
X14898D01*
X15898Y-31567D02*
Y-31400D01*
X16065D01*
Y-31567D01*
X15898D01*
X16731D02*
Y-30567D01*
X17231D01*
X17398Y-30734D01*
Y-31067D01*
X17231Y-31234D01*
X16731D01*
X18397Y-30900D02*
X17897D01*
X17731Y-31067D01*
Y-31400D01*
X17897Y-31567D01*
X18397D01*
X18730Y-30567D02*
Y-31567D01*
X19230D01*
X19397Y-31400D01*
Y-31234D01*
Y-31067D01*
X19230Y-30900D01*
X18730D01*
X19730Y-30567D02*
Y-31567D01*
X20230D01*
X20397Y-31400D01*
Y-30734D01*
X20230Y-30567D01*
X19730D01*
X20896Y-31567D02*
X21230D01*
X21396Y-31400D01*
Y-31067D01*
X21230Y-30900D01*
X20896D01*
X20730Y-31067D01*
Y-31400D01*
X20896Y-31567D01*
X22396Y-30900D02*
X21896D01*
X21730Y-31067D01*
Y-31400D01*
X21896Y-31567D01*
X22396D01*
X26728Y-31900D02*
Y-30900D01*
X27228D01*
X27394Y-31067D01*
Y-31400D01*
X27228Y-31567D01*
X26728D01*
X27728D02*
X28061D01*
X27894D01*
Y-30567D01*
X27728D01*
X28727Y-30900D02*
X29060D01*
X29227Y-31067D01*
Y-31567D01*
X28727D01*
X28561Y-31400D01*
X28727Y-31234D01*
X29227D01*
X29560Y-31567D02*
Y-30900D01*
X30060D01*
X30227Y-31067D01*
Y-31567D01*
X31060D02*
X30727D01*
X30560Y-31400D01*
Y-31067D01*
X30727Y-30900D01*
X31060D01*
X31226Y-31067D01*
Y-31234D01*
X30560D01*
X33226Y-31567D02*
X32559D01*
X33226Y-30900D01*
Y-30734D01*
X33059Y-30567D01*
X32726D01*
X32559Y-30734D01*
X38224Y-30567D02*
X37891Y-30734D01*
X37558Y-31067D01*
Y-31400D01*
X37724Y-31567D01*
X38058D01*
X38224Y-31400D01*
Y-31234D01*
X38058Y-31067D01*
X37558D01*
X38557Y-31567D02*
X39224Y-30900D01*
X40224Y-31567D02*
X39557D01*
X40224Y-30900D01*
Y-30734D01*
X40057Y-30567D01*
X39724D01*
X39557Y-30734D01*
X40557D02*
X40723Y-30567D01*
X41057D01*
X41223Y-30734D01*
Y-30900D01*
X41057Y-31067D01*
X40890D01*
X41057D01*
X41223Y-31234D01*
Y-31400D01*
X41057Y-31567D01*
X40723D01*
X40557Y-31400D01*
X41556Y-31567D02*
X42223Y-30900D01*
X43223Y-31567D02*
X42556D01*
X43223Y-30900D01*
Y-30734D01*
X43056Y-30567D01*
X42723D01*
X42556Y-30734D01*
X43556D02*
X43722Y-30567D01*
X44056D01*
X44222Y-30734D01*
Y-31400D01*
X44056Y-31567D01*
X43722D01*
X43556Y-31400D01*
Y-30734D01*
X45222Y-31567D02*
X44556D01*
X45222Y-30900D01*
Y-30734D01*
X45055Y-30567D01*
X44722D01*
X44556Y-30734D01*
X45555D02*
X45722Y-30567D01*
X46055D01*
X46222Y-30734D01*
Y-30900D01*
X46055Y-31067D01*
X45888D01*
X46055D01*
X46222Y-31234D01*
Y-31400D01*
X46055Y-31567D01*
X45722D01*
X45555Y-31400D01*
X51220Y-31567D02*
X50554D01*
X51220Y-30900D01*
Y-30734D01*
X51053Y-30567D01*
X50720D01*
X50554Y-30734D01*
X51553Y-30900D02*
X51720D01*
Y-31067D01*
X51553D01*
Y-30900D01*
Y-31400D02*
X51720D01*
Y-31567D01*
X51553D01*
Y-31400D01*
X52386Y-31567D02*
X52720D01*
X52553D01*
Y-30567D01*
X52386Y-30734D01*
X53219Y-30567D02*
X53886D01*
Y-30734D01*
X53219Y-31400D01*
Y-31567D01*
X54219Y-30900D02*
X54386D01*
Y-31067D01*
X54219D01*
Y-30900D01*
Y-31400D02*
X54386D01*
Y-31567D01*
X54219D01*
Y-31400D01*
X55052Y-31567D02*
X55385D01*
X55219D01*
Y-30567D01*
X55052Y-30734D01*
X56552Y-31567D02*
X55885D01*
X56552Y-30900D01*
Y-30734D01*
X56385Y-30567D01*
X56052D01*
X55885Y-30734D01*
X57885Y-31567D02*
Y-30567D01*
X58384D01*
X58551Y-30734D01*
Y-31067D01*
X58384Y-31234D01*
X57885D01*
X58884Y-31567D02*
Y-30567D01*
X59217Y-30900D01*
X59551Y-30567D01*
Y-31567D01*
D13*
X72250Y-3798D02*
Y-3264D01*
X68671Y-2250D02*
X70561Y-4140D01*
X52250Y-2250D02*
X68671D01*
X51250Y-3250D02*
X52250Y-2250D01*
X72250Y-3264D02*
X73764Y-1750D01*
X70561Y-4140D02*
X71907D01*
X72250Y-3798D01*
X92400Y-8700D02*
X112307D01*
X115456Y-8700D02*
X118212Y-11455D01*
X112307Y-8700D02*
X113627D01*
X115456D01*
X14125Y-9625D02*
X14750Y-9000D01*
X43400D01*
X13500Y-16500D02*
Y-10250D01*
Y-16500D02*
X14000Y-17000D01*
X13500Y-10250D02*
X14125Y-9625D01*
X98650Y-17750D02*
X99575Y-16825D01*
X69800Y-17750D02*
X98650D01*
X92400Y-8700D02*
Y-2800D01*
X76250Y-1750D02*
X77700Y-3200D01*
X82000D01*
X84575D01*
X84975Y-2800D01*
X73764Y-1750D02*
X76250D01*
X14000Y-17000D02*
X14750Y-17750D01*
X69800D01*
X49150Y-3250D02*
X51250D01*
X43400Y-9000D02*
X49150Y-3250D01*
X99575Y-16825D02*
X118212D01*
Y-11455D01*
X84975Y-2800D02*
X92400D01*
X81018Y10668D02*
X99882D01*
X102500Y8050D01*
X112850D01*
X115138Y10338D01*
Y16713D01*
X23291Y16891D02*
X23700Y17300D01*
X13513Y16891D02*
X23291D01*
X13513Y8050D02*
Y16891D01*
Y8050D02*
X27550D01*
X29533Y10033D01*
X46967D01*
X60000Y2250D02*
X62500Y4750D01*
X75100D01*
X81018Y10668D01*
X114551Y17300D02*
X115138Y16713D01*
X23700Y17300D02*
X114551D01*
X46967Y10033D02*
X54250Y2750D01*
X55000D01*
X55500Y2250D01*
X60000D01*
D80*
X0Y-28250D02*
Y28250D01*
X130300D01*
Y-28250D02*
Y28250D01*
X0Y-28250D02*
X130300D01*
D82*
X18100Y-0D02*
D03*
D83*
X29700Y-5100D02*
D03*
X117728Y14378D02*
D03*
X117093D02*
D03*
X12495Y-14379D02*
D03*
X13130D02*
D03*
X12570Y-15621D02*
D03*
X13205D02*
D03*
Y14379D02*
D03*
X12570D02*
D03*
X13130Y15621D02*
D03*
X12495D02*
D03*
X117095D02*
D03*
X117730D02*
D03*
X59155Y19491D02*
D03*
X58355D02*
D03*
X57555D02*
D03*
X27550Y-19800D02*
D03*
X28350D02*
D03*
X29150D02*
D03*
X114750Y-19800D02*
D03*
X115550D02*
D03*
X116350D02*
D03*
X72750D02*
D03*
X71950D02*
D03*
X71150D02*
D03*
X13955Y19491D02*
D03*
X14755D02*
D03*
X15555D02*
D03*
X101155D02*
D03*
X101955D02*
D03*
X102755D02*
D03*
X27500Y-6900D02*
D03*
X27500Y-5600D02*
D03*
X71700Y5600D02*
D03*
X72100Y5100D02*
D03*
X66878Y2464D02*
D03*
X65966Y3429D02*
D03*
X64361Y178D02*
D03*
X63474Y1178D02*
D03*
X63424Y-1753D02*
D03*
X61773Y-3835D02*
D03*
X60900Y-5550D02*
D03*
X58598Y-8077D02*
D03*
X55900Y-9400D02*
D03*
X66853Y-787D02*
D03*
X108355Y-16239D02*
D03*
X114554Y-787D02*
D03*
X70104Y3429D02*
D03*
X107555Y-16239D02*
D03*
X63155D02*
D03*
X72745Y-13761D02*
D03*
X71945D02*
D03*
X103555Y13761D02*
D03*
X104355D02*
D03*
X60755D02*
D03*
X59955D02*
D03*
X113145Y-13761D02*
D03*
X113945D02*
D03*
X109945Y16239D02*
D03*
X110745D02*
D03*
X111545D02*
D03*
X109145D02*
D03*
X105145D02*
D03*
X105945D02*
D03*
X106745D02*
D03*
X104345D02*
D03*
X115545D02*
D03*
X116345D02*
D03*
X66345D02*
D03*
X67145D02*
D03*
X67945D02*
D03*
X65545D02*
D03*
X61545D02*
D03*
X62345D02*
D03*
X63145D02*
D03*
X60745D02*
D03*
X71945D02*
D03*
X72745D02*
D03*
X29145D02*
D03*
X28345D02*
D03*
X17145D02*
D03*
X19545D02*
D03*
X18745D02*
D03*
X17945D02*
D03*
X21945D02*
D03*
X24345D02*
D03*
X23545D02*
D03*
X22745D02*
D03*
X69555Y-16239D02*
D03*
X67155D02*
D03*
X67955D02*
D03*
X68755D02*
D03*
X64755D02*
D03*
X62355D02*
D03*
X63955D02*
D03*
X20355Y-16239D02*
D03*
X19555D02*
D03*
X18755D02*
D03*
X21155D02*
D03*
X57545Y-19491D02*
D03*
X116459Y-813D02*
D03*
X25155Y-16239D02*
D03*
X24355D02*
D03*
X23555D02*
D03*
X25955D02*
D03*
X105955Y-16239D02*
D03*
X106755D02*
D03*
X113155D02*
D03*
X112355D02*
D03*
X111555D02*
D03*
X110755D02*
D03*
X101945Y-19491D02*
D03*
X25945Y10509D02*
D03*
X17145D02*
D03*
X69571Y-1549D02*
D03*
X16345Y10509D02*
D03*
X69555Y-10509D02*
D03*
X70355D02*
D03*
X24345Y10509D02*
D03*
X23545D02*
D03*
X14745D02*
D03*
X13945D02*
D03*
X67945D02*
D03*
X67145D02*
D03*
X101145D02*
D03*
X101945D02*
D03*
X58345D02*
D03*
X57545D02*
D03*
X111545D02*
D03*
X110745D02*
D03*
X26745D02*
D03*
X70345D02*
D03*
X69545D02*
D03*
X113945D02*
D03*
X113145D02*
D03*
X103555Y-10509D02*
D03*
X104355D02*
D03*
X60755D02*
D03*
X59955D02*
D03*
X16355Y-10509D02*
D03*
X17155D02*
D03*
X28000Y-1400D02*
D03*
X27600Y-1000D02*
D03*
X28400Y-1800D02*
D03*
Y-3000D02*
D03*
X27450Y1800D02*
D03*
Y600D02*
D03*
X28500Y-600D02*
D03*
X27600Y-350D02*
D03*
X28500Y3000D02*
D03*
X27500Y-3000D02*
D03*
Y-1800D02*
D03*
X27600Y2800D02*
D03*
X28500Y1800D02*
D03*
Y600D02*
D03*
X66865Y1203D02*
D03*
X26755Y-10509D02*
D03*
X25955D02*
D03*
X19545Y10509D02*
D03*
X18745D02*
D03*
X63145D02*
D03*
X62345D02*
D03*
X106745D02*
D03*
X105945D02*
D03*
X110755Y-10509D02*
D03*
X111555D02*
D03*
X67155D02*
D03*
X67955D02*
D03*
X23555Y-10509D02*
D03*
X24355D02*
D03*
X105955Y-10509D02*
D03*
X106755D02*
D03*
X115555D02*
D03*
X116355D02*
D03*
X62368Y-10522D02*
D03*
X63168D02*
D03*
X29155Y-10509D02*
D03*
X28355D02*
D03*
X19555D02*
D03*
X18755D02*
D03*
X28400Y-3800D02*
D03*
X69901Y4470D02*
D03*
X8103Y12141D02*
D03*
X11176Y7137D02*
D03*
X12700Y7899D02*
D03*
X11938D02*
D03*
X12700Y7137D02*
D03*
X11176Y7899D02*
D03*
X11938Y7137D02*
D03*
X113995Y3226D02*
D03*
X110363Y6858D02*
D03*
X108839Y6350D02*
D03*
X107696Y7239D02*
D03*
X108839Y7366D02*
D03*
X91313Y-14097D02*
D03*
X88900Y-15494D02*
D03*
X89281Y-14097D02*
D03*
X86741Y-15621D02*
D03*
X85217Y-14097D02*
D03*
X87249D02*
D03*
X84709Y-15621D02*
D03*
X80975Y4572D02*
D03*
X36881Y-7112D02*
D03*
X37440D02*
D03*
X36881Y-6477D02*
D03*
X37440D02*
D03*
X38893Y6590D02*
D03*
X43900Y-2750D02*
D03*
X39218Y-5385D02*
D03*
X39551Y6604D02*
D03*
X37160Y4826D02*
D03*
Y5461D02*
D03*
X36678Y4826D02*
D03*
Y5461D02*
D03*
X38500Y5450D02*
D03*
Y4850D02*
D03*
X38775Y-7125D02*
D03*
Y-6475D02*
D03*
X39325Y-8375D02*
D03*
X80493Y4877D02*
D03*
X5385Y11862D02*
D03*
X32500Y15700D02*
D03*
X9068Y730D02*
D03*
X7168Y730D02*
D03*
X44450Y2083D02*
D03*
X47168Y-3708D02*
D03*
X106680Y2032D02*
D03*
X105004Y-965D02*
D03*
X104877Y-3988D02*
D03*
X104996Y-6027D02*
D03*
X69723Y2159D02*
D03*
X47463Y-20739D02*
D03*
X51781D02*
D03*
X90551Y17780D02*
D03*
X62525Y-5550D02*
D03*
X61725D02*
D03*
X83820Y-14478D02*
D03*
X105613Y6147D02*
D03*
X104419D02*
D03*
X107493Y3505D02*
D03*
X107620Y-3505D02*
D03*
X106702Y-2025D02*
D03*
X105004Y813D02*
D03*
X32436Y11151D02*
D03*
X33299Y11125D02*
D03*
X46253Y-9398D02*
D03*
X90399Y16662D02*
D03*
X89205Y16840D02*
D03*
X89306Y15748D02*
D03*
X47150Y-2825D02*
D03*
X88000Y6200D02*
D03*
X80850Y-2725D02*
D03*
Y-1525D02*
D03*
Y-325D02*
D03*
X84325Y2650D02*
D03*
X91000Y8575D02*
D03*
X102800Y-4900D02*
D03*
X102225Y-6800D02*
D03*
X103250Y-7000D02*
D03*
X102975Y-5875D02*
D03*
X100628Y6172D02*
D03*
X100225Y4275D02*
D03*
X86300Y7700D02*
D03*
X87575Y9450D02*
D03*
X82700Y7700D02*
D03*
X83500Y7700D02*
D03*
X70600Y-5475D02*
D03*
X46600Y6500D02*
D03*
X43650Y5200D02*
D03*
X50750Y-4500D02*
D03*
X43925Y-7775D02*
D03*
X53700Y-14550D02*
D03*
X49425Y-14550D02*
D03*
X41600Y-2000D02*
D03*
X44700Y-4600D02*
D03*
X33300Y16300D02*
D03*
X45900Y-2100D02*
D03*
X43900Y-3350D02*
D03*
X83550Y1200D02*
D03*
X82500Y3300D02*
D03*
X81500Y6300D02*
D03*
X83500Y4600D02*
D03*
Y3900D02*
D03*
X84025Y1850D02*
D03*
X67250Y-5475D02*
D03*
X39925Y-5375D02*
D03*
X40825D02*
D03*
Y-8375D02*
D03*
X33000Y2000D02*
D03*
X30700Y-200D02*
D03*
X50500Y-2750D02*
D03*
X39000Y3600D02*
D03*
X47900Y6500D02*
D03*
X47200Y1700D02*
D03*
X43925Y-5975D02*
D03*
X41600Y-6814D02*
D03*
X42600D02*
D03*
X44600Y8000D02*
D03*
X43900Y6900D02*
D03*
X45300Y3650D02*
D03*
X46600D02*
D03*
X47900D02*
D03*
X49200D02*
D03*
X30300Y3800D02*
D03*
D84*
X77750Y1750D02*
D03*
X74750Y1750D02*
D03*
X74250D02*
D03*
X51750Y-4250D02*
D03*
X56750Y-1250D02*
D03*
X57750Y-250D02*
D03*
X56750Y-1750D02*
D03*
X58250Y250D02*
D03*
X58750Y2250D02*
D03*
X58250D02*
D03*
X55750Y2750D02*
D03*
X57250Y-1750D02*
D03*
X71250Y-3250D02*
D03*
X52750Y3250D02*
D03*
X55750Y3250D02*
D03*
X56750Y2750D02*
D03*
Y3250D02*
D03*
X55250Y-2750D02*
D03*
Y-3250D02*
D03*
X53250Y2250D02*
D03*
X53250Y3250D02*
D03*
X53750Y2750D02*
D03*
X54250Y3250D02*
D03*
X58750Y3750D02*
D03*
X58752Y4250D02*
D03*
X58750Y2750D02*
D03*
X59250D02*
D03*
X59750Y4250D02*
D03*
X60250D02*
D03*
X59750Y3250D02*
D03*
X60250Y3250D02*
D03*
X74750Y3750D02*
D03*
X74250Y4250D02*
D03*
X76750Y3750D02*
D03*
X76250Y4250D02*
D03*
X78250Y1750D02*
D03*
X78750D02*
D03*
X78750Y-1750D02*
D03*
X79250Y-1250D02*
D03*
X76750Y-3750D02*
D03*
X77250Y-4250D02*
D03*
X73750Y-3750D02*
D03*
X74250Y-4250D02*
D03*
X75750Y3750D02*
D03*
X75250Y4250D02*
D03*
X77750Y3750D02*
D03*
X77250Y4250D02*
D03*
X78750Y750D02*
D03*
X79250Y250D02*
D03*
X78250Y-2750D02*
D03*
X78750D02*
D03*
X75750Y-3750D02*
D03*
X76250Y-4250D02*
D03*
X72750Y-3750D02*
D03*
X73250Y-4250D02*
D03*
X70600Y1000D02*
D03*
Y500D02*
D03*
X59750Y-4250D02*
D03*
X59750Y-3750D02*
D03*
X60250Y-3250D02*
D03*
X59750Y-3250D02*
D03*
X72250Y-2750D02*
D03*
X54251Y1226D02*
D03*
X71750Y-3750D02*
D03*
X54275Y2250D02*
D03*
X71250Y-3750D02*
D03*
X54750Y1250D02*
D03*
X54775Y2250D02*
D03*
X55250Y-1250D02*
D03*
X54250Y-750D02*
D03*
X77750Y-2750D02*
D03*
X78250Y750D02*
D03*
X51350Y2900D02*
D03*
X56250Y-1750D02*
D03*
X55250D02*
D03*
X54250D02*
D03*
X58250D02*
D03*
X58750D02*
D03*
X59250Y250D02*
D03*
X55750Y750D02*
D03*
X57750Y1250D02*
D03*
X51750Y1750D02*
D03*
X52750Y-750D02*
D03*
X52250Y-250D02*
D03*
X52250Y-1250D02*
D03*
X55750Y250D02*
D03*
X56750Y750D02*
D03*
X55750Y1250D02*
D03*
X51750Y-250D02*
D03*
X52750Y-1750D02*
D03*
X57250Y750D02*
D03*
X52250Y1250D02*
D03*
X55250Y750D02*
D03*
X52250Y-1750D02*
D03*
X55250Y250D02*
D03*
X54750D02*
D03*
X53750Y1250D02*
D03*
X52750Y-250D02*
D03*
X56750Y1250D02*
D03*
X54750Y750D02*
D03*
X57750D02*
D03*
X53250D02*
D03*
X52250Y-750D02*
D03*
Y750D02*
D03*
X55250Y1250D02*
D03*
X57250D02*
D03*
X58250Y750D02*
D03*
X53750D02*
D03*
X58250Y1250D02*
D03*
X52250Y250D02*
D03*
X59250Y-250D02*
D03*
X59750D02*
D03*
X59250Y-750D02*
D03*
Y-1250D02*
D03*
X78250Y-2250D02*
D03*
X78750D02*
D03*
X78250Y-1750D02*
D03*
X78750Y-1250D02*
D03*
Y250D02*
D03*
Y1250D02*
D03*
X78250D02*
D03*
X77250Y3750D02*
D03*
X76250D02*
D03*
X75250D02*
D03*
X74250D02*
D03*
X77750Y3250D02*
D03*
X76750D02*
D03*
X75750D02*
D03*
X74750D02*
D03*
X74250Y1250D02*
D03*
X71250Y1750D02*
D03*
Y-750D02*
D03*
X71750Y-1750D02*
D03*
X73750Y750D02*
D03*
X73250D02*
D03*
X75250Y1250D02*
D03*
X70750Y-750D02*
D03*
X71250Y-1750D02*
D03*
X73250Y-750D02*
D03*
X71250Y1250D02*
D03*
X77250Y750D02*
D03*
X75750D02*
D03*
X71750Y-750D02*
D03*
X75250Y750D02*
D03*
X77250Y1250D02*
D03*
X76250Y1250D02*
D03*
X70750Y1750D02*
D03*
X71250Y-250D02*
D03*
X77250Y250D02*
D03*
X76250Y750D02*
D03*
X75750Y1250D02*
D03*
X71250Y750D02*
D03*
X70750Y-1750D02*
D03*
X73250Y250D02*
D03*
X76750D02*
D03*
Y750D02*
D03*
X70750Y-250D02*
D03*
X74750Y750D02*
D03*
X73750Y1250D02*
D03*
X74750D02*
D03*
X76750D02*
D03*
X72750Y1750D02*
D03*
Y1250D02*
D03*
X57750Y2750D02*
D03*
Y3250D02*
D03*
X56250Y-2750D02*
D03*
Y-3250D02*
D03*
X54250Y-2750D02*
D03*
Y-3250D02*
D03*
X58750Y-2750D02*
D03*
Y-3250D02*
D03*
X57750Y-2750D02*
D03*
Y-3250D02*
D03*
X56750Y-3750D02*
D03*
X56500Y-4400D02*
D03*
X55750Y-3750D02*
D03*
X55750Y-4250D02*
D03*
X53250Y-2750D02*
D03*
Y-3250D02*
D03*
X53750Y-3750D02*
D03*
X53500Y-4400D02*
D03*
D85*
X123368Y7620D02*
D03*
X125908D02*
D03*
X123368Y5080D02*
D03*
X125908D02*
D03*
X123368Y2540D02*
D03*
X125908D02*
D03*
X123368Y0D02*
D03*
X125908D02*
D03*
X123368Y-2540D02*
D03*
D86*
X96400Y4800D02*
D03*
Y5600D02*
D03*
X95600Y4000D02*
D03*
X96400D02*
D03*
X94800Y2400D02*
D03*
Y1600D02*
D03*
Y3200D02*
D03*
X92400Y4800D02*
D03*
Y5600D02*
D03*
X94800Y0D02*
D03*
X86800Y5600D02*
D03*
X89200D02*
D03*
X90800D02*
D03*
X86000Y-0D02*
D03*
X85200D02*
D03*
Y-800D02*
D03*
X86000D02*
D03*
X85200Y-2400D02*
D03*
X86000D02*
D03*
X85200Y-1600D02*
D03*
X86000D02*
D03*
X85200Y-5600D02*
D03*
X86800Y-1600D02*
D03*
X86000Y-3200D02*
D03*
Y-4000D02*
D03*
X85200Y-3200D02*
D03*
Y-4000D02*
D03*
Y-4800D02*
D03*
X86000Y-4800D02*
D03*
Y-5600D02*
D03*
X87600Y-3200D02*
D03*
X86800Y-3200D02*
D03*
Y-2400D02*
D03*
Y-800D02*
D03*
X86000Y800D02*
D03*
X86800D02*
D03*
Y-0D02*
D03*
X96400Y3200D02*
D03*
X86800Y-4800D02*
D03*
X94800Y-3200D02*
D03*
Y-800D02*
D03*
Y-1600D02*
D03*
Y-2400D02*
D03*
X95600Y-4000D02*
D03*
Y-800D02*
D03*
X96400Y-1600D02*
D03*
X95600Y-1600D02*
D03*
X96400Y-800D02*
D03*
X95600Y-3200D02*
D03*
X96400Y-3200D02*
D03*
X95600Y-2400D02*
D03*
X96400D02*
D03*
X96400Y-4000D02*
D03*
Y-4800D02*
D03*
X95600D02*
D03*
X87600Y3200D02*
D03*
X92400Y-800D02*
D03*
X91600D02*
D03*
X93200Y-800D02*
D03*
X86000Y2400D02*
D03*
X90000Y-5600D02*
D03*
X89200D02*
D03*
X90000Y-4800D02*
D03*
X89200D02*
D03*
X88400Y-4800D02*
D03*
Y-4000D02*
D03*
X87600Y-800D02*
D03*
X94000Y3200D02*
D03*
X93200Y2400D02*
D03*
Y-0D02*
D03*
X89200Y2400D02*
D03*
X88400D02*
D03*
X94000Y2400D02*
D03*
X91600Y800D02*
D03*
X87600Y-2400D02*
D03*
X88400Y800D02*
D03*
X91600Y1600D02*
D03*
X87600Y800D02*
D03*
X93200Y800D02*
D03*
X88400Y1600D02*
D03*
X92400Y1600D02*
D03*
Y2400D02*
D03*
X89200Y1600D02*
D03*
X87600Y-0D02*
D03*
Y-1600D02*
D03*
X93200Y3200D02*
D03*
X92400D02*
D03*
X90000Y2400D02*
D03*
X90000Y-0D02*
D03*
X90800Y2400D02*
D03*
X90000Y800D02*
D03*
X93200Y1600D02*
D03*
X94000D02*
D03*
X90000D02*
D03*
X92400Y800D02*
D03*
X91600Y2400D02*
D03*
X93200Y-2400D02*
D03*
Y-1600D02*
D03*
X92400Y-1600D02*
D03*
X93200Y-3200D02*
D03*
X92400Y-2400D02*
D03*
Y0D02*
D03*
X94000Y-1600D02*
D03*
X91600Y-3200D02*
D03*
X90800Y-2400D02*
D03*
X90800Y-3200D02*
D03*
X90800Y-800D02*
D03*
Y-1600D02*
D03*
X91600Y-2400D02*
D03*
X94000Y-3200D02*
D03*
X91600Y0D02*
D03*
X91600Y-1600D02*
D03*
X88400Y0D02*
D03*
X89200Y-1600D02*
D03*
X88400Y-800D02*
D03*
X89200Y-3200D02*
D03*
X89200Y-800D02*
D03*
X88400Y-2400D02*
D03*
X89200Y800D02*
D03*
X88400Y-1600D02*
D03*
X89200Y-2400D02*
D03*
X89200Y0D02*
D03*
D88*
X112675Y-24800D02*
D03*
D89*
X119800Y-24800D02*
D03*
D90*
X3500Y-24750D02*
D03*
Y24750D02*
D03*
X39600D02*
D03*
Y-24750D02*
D03*
X47100D02*
D03*
Y24750D02*
D03*
X83200D02*
D03*
Y-24750D02*
D03*
X90700Y24750D02*
D03*
X126800Y-24750D02*
D03*
X90700D02*
D03*
X126800Y24750D02*
D03*
M02*
